<svg id="Capa_1" enable-background="new 0 0 512 512" height="512" viewBox="0 0 512 512" width="512" xmlns="http://www.w3.org/2000/svg"><g><g><path d="m347.117 116v-50.517c0-22.874-18.543-41.417-41.417-41.417h-28.992-41.417-28.99c-22.874 0-41.417 18.543-41.417 41.417l.001 50.517z" fill="#eaa96a"/><path d="m276.708 116h-41.417v-100.5c0-4.418 3.582-8 8-8h25.417c4.418 0 8 3.582 8 8z" fill="#efd27c"/><path d="m305.7 24.066h-23c22.874 0 41.417 18.543 41.417 41.417v50.517h23v-50.517c0-22.874-18.543-41.417-41.417-41.417z" fill="#e5935d"/><path d="m173.167 206.301h-16.567c-9.149 0-16.567-7.417-16.567-16.567v-33.134c0-9.149 7.417-16.567 16.567-16.567h16.567 165.666 16.567c9.15 0 16.567 7.417 16.567 16.567v33.134c0 9.149-7.417 16.567-16.567 16.567h-16.567z" fill="#ebb39a"/><path d="m206.299 256v115.968h99.4v-115.953z" fill="#ebb39a"/><path d="m173.167 132.533.001 73.77c0 45.747 37.085 82.832 82.832 82.832s82.832-37.085 82.832-82.832v-73.77z" fill="#f4dabd"/><path d="m371.967 123.467c0-9.15-7.417-16.567-16.567-16.567h-198.8c-9.149 0-16.567 7.417-16.567 16.567v8.283c0 4.575 3.708 8.283 8.283 8.283h215.366c4.575 0 8.283-3.709 8.283-8.283v-8.283z" fill="#efd27c"/><path d="m355.4 106.9h-23c9.15 0 16.567 7.417 16.567 16.567v8.283c0 4.575-3.708 8.283-8.283 8.283h23c4.575 0 8.283-3.708 8.283-8.283v-8.283c0-9.15-7.418-16.567-16.567-16.567z" fill="#eabc73"/><path d="m57.2 322.267c0-18.299 14.834-33.134 33.133-33.134h41.417c4.575 0 8.283 3.708 8.283 8.283v29.851h-82.832z" fill="#8cbdf9"/><path d="m371.966 327.267v-29.851c0-4.575 3.709-8.283 8.283-8.283h41.417c18.299 0 33.134 14.834 33.134 33.134v5z" fill="#8cbdf9"/><path d="m421.667 289.133h-23c18.299 0 33.134 14.834 33.134 33.134v5h23v-5c-.001-18.3-14.835-33.134-33.134-33.134z" fill="#73a2da"/><path d="m57.2 322.266h397.6v182.234h-397.6z" fill="#a6ccfb"/><path d="m431.8 322.266h23v182.234h-23z" fill="#8cbdf9"/><g><path d="m472.5 405.1h-18.267c-8.837 0-16 7.163-16 16v75.4c0 4.418 3.582 8 8 8h42.267c8.836 0 16-7.163 16-16v-51.4c0-17.673-14.327-32-32-32z" fill="#f4dabd"/><path d="m472.5 405.1h-18.267c-.658 0-1.302.052-1.939.129 16.364 1.417 29.206 15.14 29.206 31.871v51.4c0 8.837-7.163 16-16 16h23c8.837 0 16-7.163 16-16v-51.4c0-17.673-14.327-32-32-32z" fill="#ebb39a"/></g><g><path d="m39.5 405.1h18.267c8.837 0 16 7.163 16 16v75.4c0 4.418-3.582 8-8 8h-42.267c-8.836 0-16-7.163-16-16v-51.4c0-17.673 14.327-32 32-32z" fill="#f4dabd"/></g></g><g fill="#131213"><path d="m256 230.369c8.551 0 16.533-4.606 20.832-12.022 2.077-3.583.856-8.172-2.728-10.249-3.583-2.078-8.172-.857-10.25 2.727-1.624 2.803-4.634 4.544-7.854 4.544s-6.229-1.741-7.854-4.544c-2.077-3.585-6.665-4.806-10.25-2.727-3.583 2.077-4.805 6.666-2.728 10.249 4.299 7.416 12.281 12.022 20.832 12.022z"/><path d="m222.867 188.95c4.142 0 7.5-3.357 7.5-7.5v-8.283c0-4.143-3.358-7.5-7.5-7.5s-7.5 3.357-7.5 7.5v8.283c0 4.143 3.358 7.5 7.5 7.5z"/><path d="m289.133 188.95c4.142 0 7.5-3.357 7.5-7.5v-8.283c0-4.143-3.358-7.5-7.5-7.5s-7.5 3.357-7.5 7.5v8.283c0 4.143 3.358 7.5 7.5 7.5z"/><path d="m472.5 397.6h-10.2v-75.334-.001c-.001-22.404-18.229-40.632-40.633-40.632h-41.418c-8.703 0-15.783 7.08-15.783 15.783v17.35h-10.628c-4.142 0-7.5 3.357-7.5 7.5s3.358 7.5 7.5 7.5h93.462v68.879c-9.584 2.965-16.567 11.909-16.567 22.455v75.4c0 .169.02.332.025.5h-275.723c-4.142 0-7.5 3.357-7.5 7.5s3.358 7.5 7.5 7.5h333.465c12.958 0 23.5-10.542 23.5-23.5v-51.4c0-21.781-17.72-39.5-39.5-39.5zm-93.034-100.184c0-.432.352-.783.783-.783h41.418c11.525 0 21.296 7.647 24.511 18.133h-66.712zm117.534 191.084c0 4.686-3.813 8.5-8.5 8.5h-41.983-.283c-.276 0-.5-.225-.5-.5v-17.634h25.632c4.142 0 7.5-3.357 7.5-7.5s-3.358-7.5-7.5-7.5h-25.632v-18.133h25.632c4.142 0 7.5-3.357 7.5-7.5s-3.358-7.5-7.5-7.5h-25.632v-9.633c0-4.687 3.813-8.5 8.5-8.5h18.266c13.509 0 24.5 10.99 24.5 24.5z"/><path d="m323.837 329.766c4.142 0 7.5-3.357 7.5-7.5s-3.358-7.5-7.5-7.5h-10.638v-38.599c18.399-15.092 30.751-37.293 32.82-62.367h9.38c13.271 0 24.067-10.796 24.067-24.066v-33.134c0-5.176-1.648-9.972-4.44-13.902 2.742-2.841 4.44-6.697 4.44-10.948v-8.283c0-13.271-10.796-24.066-24.067-24.066h-.783v-33.917c0-26.974-21.944-48.918-48.917-48.918h-21.492v-1.066c0-8.547-6.953-15.5-15.5-15.5h-25.417c-8.547 0-15.5 6.953-15.5 15.5v1.065h-21.491c-26.973 0-48.918 21.944-48.918 48.918l.001 33.917h-.782c-13.27 0-24.066 10.796-24.066 24.066v8.283c0 4.251 1.697 8.107 4.44 10.948-2.791 3.93-4.44 8.725-4.44 13.901v33.134c0 13.271 10.796 24.067 24.066 24.067h9.382c2.07 25.072 14.42 47.272 32.817 62.363v38.602h-51.265v-17.35c0-8.703-7.08-15.783-15.783-15.783h-41.418c-22.405 0-40.632 18.227-40.633 40.632v.001 75.336h-10.2c-21.78 0-39.5 17.72-39.5 39.5v51.4c0 12.958 10.542 23.5 23.5 23.5h101.534c4.142 0 7.5-3.357 7.5-7.5s-3.358-7.5-7.5-7.5h-43.793c.005-.168.025-.331.025-.5v-75.4c0-10.545-6.982-19.49-16.566-22.455v-68.879zm40.63-140.033c0 4.999-4.067 9.066-9.067 9.066h-9.067v-51.267h9.087c4.99.011 9.046 4.073 9.046 9.066v33.135zm-58.767-158.168c18.702 0 33.917 15.216 33.917 33.918v33.917h-18.133v-9.066c0-4.143-3.358-7.5-7.5-7.5s-7.5 3.357-7.5 7.5v9.066h-22.275v-67.835zm-62.909-16.065c0-.275.224-.5.5-.5h25.417c.276 0 .5.225.5.5v83.9h-26.417zm-70.408 49.983c0-18.702 15.215-33.918 33.918-33.918h21.491v67.835h-22.275v-9.066c0-4.143-3.358-7.5-7.5-7.5s-7.5 3.357-7.5 7.5v9.066h-18.132zm-24.849 57.984c0-4.999 4.067-9.066 9.066-9.066h198.8c5 0 9.067 4.067 9.067 9.066v8.283c0 .432-.352.783-.783.783h-215.367c-.432 0-.783-.352-.783-.783zm0 66.266v-33.133c0-4.999 4.067-9.066 9.066-9.066h9.067l.001 51.268h-9.068c-4.999-.001-9.066-4.069-9.066-9.069zm33.134 16.571-.001-58.77h150.666v58.77c0 41.538-33.794 75.332-75.333 75.332s-75.332-33.794-75.332-75.332zm33.131 79.847c12.604 6.688 26.967 10.485 42.202 10.485 15.234 0 29.596-3.796 42.199-10.483v28.613h-84.4v-28.615zm-123.466 10.482h41.418c.432 0 .783.352.783.783v17.35h-66.712c3.215-10.486 12.986-18.133 24.511-18.133zm-24.066 134.1h-25.632c-4.142 0-7.5 3.357-7.5 7.5s3.358 7.5 7.5 7.5h25.632v18.133h-25.632c-4.142 0-7.5 3.357-7.5 7.5s3.358 7.5 7.5 7.5h25.632v17.634c0 .275-.224.5-.5.5h-.283-41.984c-4.687 0-8.5-3.814-8.5-8.5v-51.4c0-13.51 10.991-24.5 24.5-24.5h18.267c4.687 0 8.5 3.813 8.5 8.5z"/></g></g></svg>