<svg id="Capa_1" enable-background="new 0 0 512 512" height="512" viewBox="0 0 512 512" width="512" xmlns="http://www.w3.org/2000/svg"><g><g><path d="m189.733 146.5h-33.133v-81.3c0-4.418 3.582-8 8-8h17.133c4.418 0 8 3.582 8 8z" fill="#a7ccf9"/><path d="m181.733 57.2h-17.133c-1.037 0-2.024.204-2.933.563 2.965 1.171 5.067 4.056 5.067 7.437v81.3h23v-81.3c-.001-4.418-3.582-8-8.001-8z" fill="#8cbdf9"/><g><path d="m123.467 146.5h-33.134v-97.867c0-4.418 3.582-8 8-8h17.133c4.418 0 8 3.582 8 8v97.867z" fill="#a7dda7"/><path d="m115.467 40.633h-17.134c-1.037 0-2.024.204-2.933.563 2.965 1.171 5.067 4.056 5.067 7.437v97.867h23v-97.867c0-4.418-3.582-8-8-8z" fill="#8ace9b"/></g><g><path d="m272.567 289.133c0-18.608-15.34-33.634-34.065-33.121h-38.877v36.737h72.942z" fill="#eabc73"/><g><path d="m347.117 471.367-8.284-33.134v-8.066h41.417v46h-32.917z" fill="#c3bec6"/><path d="m164.883 471.367 8.284-33.134v-8.066h-41.417v46h32.917z" fill="#c3bec6"/><path d="m438.233 311h-364.466v11.267l19.238 89.776c3.274 15.277 16.774 26.191 32.398 26.191h261.196c15.624 0 29.124-10.914 32.398-26.191l19.238-89.776v-11.267z" fill="#e2dfe2"/><path d="m415.233 311v11.267l-19.238 89.776c-3.273 15.277-16.774 26.191-32.398 26.191h23c15.624 0 29.124-10.914 32.398-26.191l19.238-89.776v-11.267z" fill="#d3ced5"/><path d="m73.767 322.267c-9.15 0-16.567-7.417-16.567-16.567s7.417-16.567 16.567-16.567h364.467c9.15 0 16.567 7.417 16.567 16.567s-7.417 16.567-16.567 16.567z" fill="#f4f2f4"/><path d="m438.233 289.133h-23c9.149 0 16.567 7.417 16.567 16.567s-7.417 16.567-16.567 16.567h23c9.149 0 16.567-7.417 16.567-16.567s-7.417-16.567-16.567-16.567z" fill="#e2dfe2"/></g><g><path d="m156.6 256c-18.299 0-33.133 14.834-33.133 33.133v91.117c0 4.575 3.709 8.283 8.283 8.283h66.267c4.575 0 8.283-3.708 8.283-8.283v-90.427c0-18.054 14.155-33.315 32.202-33.81z" fill="#efd27c"/><path d="m123.467 322.267h82.833v33.133h-82.833z" fill="#eaa96a"/></g></g><path d="m371.967 82.05c0-18.299-14.834-33.133-33.133-33.133s-33.133 14.834-33.133 33.133v9.45h66.267v-9.45z" fill="#e2dfe2"/><path d="m338.833 48.917c-4.044 0-7.917.727-11.5 2.053 12.63 4.675 21.633 16.825 21.633 31.08v9.45h23v-9.45c.001-18.299-14.834-33.133-33.133-33.133z" fill="#d3ced5"/><path d="m371.967 115.183c9.15 0 16.567-7.417 16.567-16.567s-7.417-16.567-16.567-16.567h-66.267c-9.15 0-16.567 7.417-16.567 16.567 0 9.149 7.417 16.567 16.567 16.567z" fill="#f4f2f4"/><path d="m371.967 82.05h-23c9.149 0 16.566 7.417 16.566 16.567s-7.417 16.567-16.566 16.567h23c9.149 0 16.566-7.417 16.566-16.567s-7.417-16.567-16.566-16.567z" fill="#e2dfe2"/><path d="m214.867 173.167h-149.667c-4.418 0-8-3.582-8-8v-17.133c0-4.418 3.582-8 8-8h149.667c4.418 0 8 3.582 8 8v17.133c0 4.418-3.582 8-8 8z" fill="#eaa96a"/><path d="m496.5 504.5h-481c-4.418 0-8-3.582-8-8v-17.133c0-4.418 3.582-8 8-8h481c4.418 0 8 3.582 8 8v17.133c0 4.418-3.582 8-8 8z" fill="#eaa96a"/><g fill="#e5935d"><path d="m496.5 471.367h-23c4.418 0 8 3.582 8 8v17.133c0 4.418-3.582 8-8 8h23c4.418 0 8-3.582 8-8v-17.133c0-4.419-3.582-8-8-8z"/><path d="m214.867 140.033h-23c4.418 0 8 3.582 8 8v17.133c0 4.418-3.582 8-8 8h23c4.418 0 8-3.582 8-8v-17.133c0-4.418-3.582-8-8-8z"/></g></g><g><path d="m496.5 463.867h-108.75v-18.159c18.551-.533 34.672-13.859 38.58-32.094l18.144-84.673c10.254-2.756 17.826-12.129 17.826-23.241 0-13.271-10.796-24.067-24.066-24.067h-9.066v-232.716c-.001-26.973-21.945-48.917-48.918-48.917-24.636 0-45.066 18.31-48.423 42.034-16.979 2.965-30.368 16.497-33.106 33.552-9.877 2.999-17.087 12.188-17.087 23.031 0 13.27 10.797 24.066 24.067 24.066h66.267c13.271 0 24.066-10.796 24.066-24.066 0-10.844-7.21-20.032-17.086-23.031-2.677-16.667-15.521-29.981-31.951-33.345 3.109-15.515 16.836-27.241 33.253-27.241 18.702 0 33.917 15.215 33.917 33.917v232.717h-134.796c-1.515-8.184-5.499-15.684-11.605-21.625-7.654-7.447-17.671-11.509-28.319-11.509-.049 0-.096 0-.145 0h-82.702c-19.842 0-36.397 14.3-39.927 33.133h-42.906c-13.271 0-24.066 10.796-24.066 24.067 0 11.112 7.572 20.485 17.826 23.241l18.145 84.673c3.908 18.234 20.028 31.561 38.579 32.094v18.159h-108.751c-8.547 0-15.5 6.953-15.5 15.5v17.133c0 8.547 6.953 15.5 15.5 15.5h26.7c4.143 0 7.5-3.358 7.5-7.5s-3.357-7.5-7.5-7.5h-26.7c-.275 0-.5-.224-.5-.5v-17.133c0-.276.225-.5.5-.5h481c.275 0 .5.224.5.5v17.133c0 .276-.225.5-.5.5h-424.3c-4.143 0-7.5 3.358-7.5 7.5s3.357 7.5 7.5 7.5h424.3c8.547 0 15.5-6.953 15.5-15.5v-17.133c0-8.547-6.953-15.5-15.5-15.5zm-124.533-356.184h-66.267c-5 0-9.067-4.067-9.067-9.066s4.067-9.067 9.067-9.067h66.267c4.999 0 9.066 4.067 9.066 9.067 0 4.999-4.067 9.066-9.066 9.066zm-8.622-33.133h-49.023c3.215-10.486 12.986-18.133 24.511-18.133 11.526 0 21.297 7.647 24.512 18.133zm83.955 231.15c0 4.999-4.067 9.066-9.066 9.066h-224.434v-18.133h224.434c4.998 0 9.066 4.068 9.066 9.067zm-364.256 24.067h32.922v18.133h-29.036zm47.923 18.133v-18.133h67.833v18.133zm0 15h67.833v17.35c0 .432-.352.783-.783.783h-66.267c-.432 0-.783-.352-.783-.783zm107.74-99.39c.221-.006.439-.009.658-.01h.068.032c6.71.008 13.02 2.569 17.841 7.259 3.152 3.067 5.41 6.793 6.651 10.874h-48.857c3.318-10.236 12.643-17.822 23.607-18.123zm-82.107-.01h51.637c-5.637 6.887-9.127 15.627-9.409 25.086-.013.181-.028.362-.028.547 0 .071.009.141.011.211-.002.16-.011.318-.011.478v24.944h-67.833v-25.633c0-14.134 11.499-25.633 25.633-25.633zm-82.833 33.133h42.2v18.133h-42.2c-4.999 0-9.066-4.067-9.066-9.066-.001-4.999 4.067-9.067 9.066-9.067zm26.571 113.838-10.194-47.571h25.822v17.35c0 8.703 7.08 15.783 15.783 15.783h66.267c8.703 0 15.783-7.081 15.783-15.783v-17.35h110.033c4.143 0 7.5-3.358 7.5-7.5s-3.357-7.5-7.5-7.5h-110.032v-18.133h215.156l-3.886 18.133h-71.237c-4.143 0-7.5 3.358-7.5 7.5s3.357 7.5 7.5 7.5h68.023l-10.193 47.571c-2.517 11.741-13.059 20.263-25.065 20.263h-261.196c-12.006-.001-22.548-8.522-25.064-20.263zm232.639 35.262 4.534 18.133h-163.022l4.534-18.133zm-193.727 18.134v-18.133h24.311l-4.534 18.133zm213.723 0-4.533-18.133h24.311v18.133z"/><path d="m313.2 164.883v-16.566c0-4.142-3.357-7.5-7.5-7.5s-7.5 3.358-7.5 7.5v16.566c0 4.142 3.357 7.5 7.5 7.5s7.5-3.357 7.5-7.5z"/><path d="m346.333 164.883v-16.566c0-4.142-3.357-7.5-7.5-7.5s-7.5 3.358-7.5 7.5v16.566c0 4.142 3.357 7.5 7.5 7.5s7.5-3.357 7.5-7.5z"/><path d="m379.467 164.883v-16.566c0-4.142-3.357-7.5-7.5-7.5s-7.5 3.358-7.5 7.5v16.566c0 4.142 3.357 7.5 7.5 7.5s7.5-3.357 7.5-7.5z"/><path d="m65.2 180.667h149.667c8.547 0 15.5-6.953 15.5-15.5v-17.133c0-8.547-6.953-15.5-15.5-15.5h-17.634v-67.334c0-8.547-6.953-15.5-15.5-15.5h-17.133c-8.547 0-15.5 6.953-15.5 15.5v67.333h-18.133v-83.9c0-8.547-6.953-15.5-15.5-15.5h-17.134c-8.547 0-15.5 6.953-15.5 15.5v83.9h-17.633c-8.547 0-15.5 6.953-15.5 15.5v17.133c0 8.547 6.953 15.501 15.5 15.501zm99.4-115.967h17.134c.275 0 .5.224.5.5v17.633h-18.134v-17.633c0-.276.224-.5.5-.5zm-.5 33.134h18.134v34.7h-18.134zm-65.767-49.701h17.134c.275 0 .5.224.5.5v17.633h-18.134v-17.633c0-.276.225-.5.5-.5zm-.5 33.134h18.134v51.267h-18.134zm-33.133 66.766c0-.276.225-.5.5-.5h149.667c.275 0 .5.224.5.5v17.133c0 .276-.225.5-.5.5h-149.667c-.275 0-.5-.224-.5-.5z"/></g></g></svg>