<svg id="Capa_1" enable-background="new 0 0 512 512" height="512" viewBox="0 0 512 512" width="512" xmlns="http://www.w3.org/2000/svg"><g><g><g><path d="m305.7 487.933c0 9.15-7.417 16.567-16.567 16.567h-66.267c-9.15 0-16.567-7.417-16.567-16.567v-347.9h99.4v347.9z" fill="#efd27c"/><path d="m282.7 140.033v347.9c0 9.15-7.417 16.567-16.567 16.567h23c9.149 0 16.567-7.417 16.567-16.567v-347.9z" fill="#eabc73"/></g><path d="m487.933 128.467v-24.099c0-8.098-5.855-15.01-13.843-16.341l-3.851-.642c-51.144-8.524-97.168-35.943-129.005-76.745-1.532-1.964-3.862-3.139-6.353-3.139h-36.681l-42.2 8-42.2-8h-36.681c-2.491 0-4.821 1.175-6.353 3.139-31.838 40.801-77.862 68.22-129.006 76.744l-3.851.642c-7.988 1.331-13.843 8.243-13.843 16.341v24.099h463.867z" fill="#4c5e71"/><path d="m474.09 88.026-3.851-.642c-51.144-8.524-97.168-35.943-129.005-76.745-1.532-1.964-3.862-3.139-6.353-3.139h-23c2.491 0 4.821 1.175 6.353 3.139 31.837 40.802 77.861 68.221 129.005 76.745l3.851.642c7.988 1.331 13.843 8.243 13.843 16.341v24.099h23v-24.099c0-8.098-5.855-15.01-13.843-16.341z" fill="#3c4958"/><path d="m496.5 123.467c4.418 0 8 3.582 8 8v17.133c0 4.418-3.582 8-8 8h-481c-4.418 0-8-3.582-8-8v-17.133c0-4.418 3.582-8 8-8z" fill="#3c4958"/><path d="m496.5 123.467h-23c4.418 0 8 3.582 8 8v17.133c0 4.418-3.582 8-8 8h23c4.418 0 8-3.582 8-8v-17.133c0-4.419-3.582-8-8-8z" fill="#35414e"/><g><path d="m305.7 156.6h-99.4v-141.1c0-4.418 3.582-8 8-8h83.4c4.418 0 8 3.582 8 8z" fill="#f4f2f4"/><path d="m282.7 7.5v149.1h23v-141.1c0-4.418-3.582-8-8-8z" fill="#e2dfe2"/></g></g><g><path d="m496.5 115.967h-1.066v-11.6c0-11.813-8.458-21.797-20.111-23.739l-3.85-.642c-50.778-8.463-95.752-35.803-126.64-76.986-1.416-1.889-3.64-3-6-3h-165.667c-2.361 0-4.583 1.111-6 3-16.177 21.57-36.211 39.359-59.546 52.873-3.585 2.076-4.807 6.665-2.731 10.249 1.391 2.401 3.909 3.743 6.497 3.743 1.275-.001 2.569-.326 3.752-1.011 24-13.899 44.754-32.006 61.738-53.853h21.924v100.967h-167.233v-11.6c0-4.45 3.186-8.211 7.576-8.943l3.851-.642c14.527-2.421 28.85-6.359 42.57-11.706 3.859-1.504 5.769-5.852 4.265-9.712-1.504-3.859-5.851-5.767-9.711-4.265-12.759 4.973-26.079 8.635-39.589 10.887l-3.851.642c-11.652 1.942-20.11 11.926-20.11 23.739v11.6h-1.068c-8.547 0-15.5 6.953-15.5 15.5v17.132c0 8.547 6.953 15.5 15.5 15.5h183.3v323.833c0 13.271 10.796 24.067 24.067 24.067h66.266c13.271 0 24.067-10.796 24.067-24.067v-323.833h21.332c4.143 0 7.5-3.358 7.5-7.5s-3.357-7.5-7.5-7.5h-21.332v-18.133h183.3c.275 0 .5.224.5.5v17.133c0 .276-.225.5-.5.5h-131.967c-4.143 0-7.5 3.358-7.5 7.5s3.357 7.5 7.5 7.5h131.967c8.547 0 15.5-6.953 15.5-15.5v-17.133c0-8.547-6.953-15.5-15.5-15.5zm-198.3 33.133h-84.4v-134.1h84.4zm-283.2-.5v-17.133c0-.276.224-.5.5-.5h183.3v18.133h-183.3c-.276 0-.5-.224-.5-.5zm274.133 348.4h-66.266c-5 0-9.067-4.067-9.067-9.067v-25.631h25.633c4.142 0 7.5-3.358 7.5-7.5s-3.358-7.5-7.5-7.5h-25.633v-18.138h8.808c4.142 0 7.5-3.358 7.5-7.5s-3.358-7.5-7.5-7.5h-8.808v-18.132h25.633c4.142 0 7.5-3.358 7.5-7.5s-3.358-7.5-7.5-7.5h-25.633v-18.138h8.808c4.142 0 7.5-3.358 7.5-7.5s-3.358-7.5-7.5-7.5h-8.808v-18.13h25.633c4.142 0 7.5-3.358 7.5-7.5s-3.358-7.5-7.5-7.5h-25.633v-18.138h8.808c4.142 0 7.5-3.358 7.5-7.5s-3.358-7.5-7.5-7.5h-8.808v-18.132h25.633c4.142 0 7.5-3.358 7.5-7.5s-3.358-7.5-7.5-7.5h-25.633v-18.131h8.808c4.142 0 7.5-3.358 7.5-7.5s-3.358-7.5-7.5-7.5h-8.808v-18.132h25.633c4.142 0 7.5-3.358 7.5-7.5s-3.358-7.5-7.5-7.5h-25.633v-18.131h84.4v323.833c0 5-4.067 9.067-9.067 9.067zm24.067-482h21.924c33.126 42.61 80.525 70.89 133.883 79.782l3.85.642c4.391.732 7.577 4.493 7.577 8.943v11.6h-167.234z"/><path d="m239.433 52.275c4.142 0 7.5-3.358 7.5-7.5v-4.142c0-4.142-3.358-7.5-7.5-7.5s-7.5 3.358-7.5 7.5v4.142c0 4.142 3.358 7.5 7.5 7.5z"/><path d="m272.566 52.275c4.143 0 7.5-3.358 7.5-7.5v-4.142c0-4.142-3.357-7.5-7.5-7.5s-7.5 3.358-7.5 7.5v4.142c0 4.142 3.358 7.5 7.5 7.5z"/><path d="m239.433 130.967c4.142 0 7.5-3.358 7.5-7.5v-4.142c0-4.142-3.358-7.5-7.5-7.5s-7.5 3.358-7.5 7.5v4.142c0 4.142 3.358 7.5 7.5 7.5z"/><path d="m272.566 130.967c4.143 0 7.5-3.358 7.5-7.5v-4.142c0-4.142-3.357-7.5-7.5-7.5s-7.5 3.358-7.5 7.5v4.142c0 4.142 3.358 7.5 7.5 7.5z"/></g></g></svg>