<svg id="Capa_1" enable-background="new 0 0 512 512" height="512" viewBox="0 0 512 512" width="512" xmlns="http://www.w3.org/2000/svg"><g><g><path d="m487.933 481h-463.866v-450h248.5l215.366 258.135z" fill="#e2dfe2"/><path d="m464.933 261.567v219.433h23v-191.865z" fill="#d3ced5"/><path d="m289.133 320v85.1c0 9.15 7.417 16.567 16.567 16.567 9.149 0 16.567-7.417 16.567-16.567v-16.567c0-9.15 7.417-16.567 16.567-16.567s16.567 7.417 16.567 16.567v33.133c0 9.15 7.417 16.567 16.567 16.567s16.567-7.417 16.567-16.567v-101.666z" fill="#efd27c"/><path d="m421.667 320v101.667c0 9.15 7.417 16.567 16.567 16.567s16.567-7.417 16.567-16.567v-101.667z" fill="#efd27c"/><path d="m496.5 504.5h-481c-4.418 0-8-3.582-8-8v-17.133c0-4.418 3.582-8 8-8h481c4.418 0 8 3.582 8 8v17.133c0 4.418-3.582 8-8 8z" fill="#f4f2f4"/><path d="m272.567 31h215.367v258.133h-215.367z" fill="#a5cdfc"/><path d="m464.933 31h23v258.133h-23z" fill="#8dbdf7"/><path d="m496.5 471.367h-23c4.418 0 8 3.582 8 8v17.133c0 4.418-3.582 8-8 8h23c4.418 0 8-3.582 8-8v-17.133c0-4.419-3.582-8-8-8z" fill="#e2dfe2"/><path d="m496.5 40.633h-481c-4.418 0-8-3.582-8-8v-17.133c0-4.418 3.582-8 8-8h481c4.418 0 8 3.582 8 8v17.133c0 4.419-3.582 8-8 8z" fill="#f4f2f4"/><path d="m496.5 7.5h-23c4.418 0 8 3.582 8 8v17.133c0 4.418-3.582 8-8 8h23c4.418 0 8-3.582 8-8v-17.133c0-4.418-3.582-8-8-8z" fill="#e2dfe2"/><g><path d="m438.233 239.433h-165.666c-27.449 0-49.7 22.252-49.7 49.7 0 27.449 22.251 49.7 49.7 49.7h165.667v-99.4z" fill="#8cbdf9"/><g><circle cx="438.233" cy="289.133" fill="#faf9f9" r="49.7"/><ellipse cx="438.233" cy="289.133" fill="#4c5e71" rx="16.567" ry="16.567" transform="matrix(.23 -.973 .973 .23 56.149 649.215)"/><path d="m438.233 239.433c-3.96 0-7.807.477-11.5 1.352 21.901 5.191 38.2 24.86 38.2 48.348s-16.299 43.157-38.2 48.348c3.693.875 7.54 1.352 11.5 1.352 27.449 0 49.7-22.251 49.7-49.7 0-27.448-22.251-49.7-49.7-49.7z" fill="#e2dfe2"/></g></g></g><g><path d="m495.433 48.133h1.067c8.547 0 15.5-6.953 15.5-15.5v-17.133c0-8.547-6.953-15.5-15.5-15.5h-409.3c-4.142 0-7.5 3.358-7.5 7.5s3.358 7.5 7.5 7.5h409.3c.276 0 .5.224.5.5v17.133c0 .276-.224.5-.5.5h-8.567-463.866-8.567c-.276 0-.5-.224-.5-.5v-17.133c0-.276.224-.5.5-.5h41.7c4.142 0 7.5-3.358 7.5-7.5s-3.358-7.5-7.5-7.5h-41.7c-8.547 0-15.5 6.953-15.5 15.5v17.133c0 8.547 6.953 15.5 15.5 15.5h1.067v275.7c0 4.142 3.358 7.5 7.5 7.5s7.5-3.358 7.5-7.5v-93.466h125.033c4.142 0 7.5-3.358 7.5-7.5s-3.358-7.5-7.5-7.5h-25.633v-18.133h58.767c4.142 0 7.5-3.358 7.5-7.5s-3.358-7.5-7.5-7.5h-25.634v-18.134h59.802c4.142 0 7.5-3.358 7.5-7.5s-3.358-7.5-7.5-7.5h-92.936v-25.633c0-4.142-3.358-7.5-7.5-7.5s-7.5 3.358-7.5 7.5v25.633h-84.4v-100.967h233.5v184.307c-28.007 3.687-49.7 27.696-49.7 56.693 0 31.54 25.66 57.2 57.2 57.2h9.066v58.767c0 13.27 10.796 24.066 24.067 24.066 13.27 0 24.066-10.796 24.066-24.066v-16.567c0-4.999 4.067-9.066 9.067-9.066 4.999 0 9.066 4.067 9.066 9.066v33.133c0 13.271 10.796 24.067 24.067 24.067s24.066-10.796 24.066-24.067v-75.333h18.133v75.333c0 13.271 10.796 24.067 24.067 24.067 13.27 0 24.066-10.796 24.066-24.067v-80.661c6.898-3.213 13.056-7.753 18.133-13.304v136.165h-448.863v-51.266h18.133v25.633c0 4.142 3.358 7.5 7.5 7.5s7.5-3.358 7.5-7.5v-25.633h51.267v25.633c0 4.142 3.358 7.5 7.5 7.5s7.5-3.358 7.5-7.5v-25.633h58.767c4.142 0 7.5-3.358 7.5-7.5s-3.358-7.5-7.5-7.5h-25.634v-18.133h59.802c4.142 0 7.5-3.358 7.5-7.5s-3.358-7.5-7.5-7.5h-92.936v-25.633c0-4.142-3.358-7.5-7.5-7.5s-7.5 3.358-7.5 7.5v25.633h-84.4v-10.634c0-4.142-3.358-7.5-7.5-7.5s-7.5 3.358-7.5 7.5v110.034h-1.066c-8.547 0-15.5 6.953-15.5 15.5v17.133c0 8.547 6.953 15.5 15.5 15.5h481c8.547 0 15.5-6.953 15.5-15.5v-17.133c0-8.547-6.953-15.5-15.5-15.5h-1.067zm-463.866 149.1h18.133v18.133h-18.133zm84.4 18.134h-51.267v-18.133h51.267zm33.133-33.134h-51.266v-18.133h51.266zm-66.266-18.133v18.133h-51.267v-18.133zm66.266 233.5h-51.266v-18.133h51.266zm-66.266-18.133v18.133h-51.267v-18.133zm414.166 99.9v17.133c0 .276-.224.5-.5.5h-481c-.276 0-.5-.224-.5-.5v-17.133c0-.276.224-.5.5-.5h481c.276 0 .5.224.5.5zm-266.633-190.234c0-23.269 18.931-42.2 42.2-42.2h127.098c-11.442 10.466-18.632 25.508-18.632 42.2s7.19 31.734 18.632 42.2h-127.098c-23.269 0-42.2-18.931-42.2-42.2zm150.666 132.534c0 4.999-4.067 9.067-9.066 9.067-5 0-9.067-4.067-9.067-9.067v-33.133c0-13.27-10.796-24.066-24.066-24.066-13.271 0-24.067 10.796-24.067 24.066v16.566c0 4.999-4.067 9.066-9.066 9.066s-9.067-4.067-9.067-9.066v-58.767h84.4v75.334zm66.267 0c0 4.999-4.067 9.067-9.066 9.067-5 0-9.067-4.067-9.067-9.067v-75.333h9.067c3.085 0 6.112-.253 9.066-.726zm-9.067-90.334c-23.269 0-42.2-18.931-42.2-42.2s18.931-42.2 42.2-42.2 42.2 18.931 42.2 42.2-18.931 42.2-42.2 42.2zm0-99.4h-158.166v-183.8h200.366v202.431c-10.466-11.441-25.508-18.631-42.2-18.631z"/><path d="m438.233 265.067c-13.271 0-24.067 10.796-24.067 24.066 0 13.271 10.796 24.067 24.067 24.067s24.066-10.796 24.066-24.067c.001-13.27-10.795-24.066-24.066-24.066zm0 33.133c-5 0-9.067-4.067-9.067-9.067 0-4.999 4.067-9.066 9.067-9.066 4.999 0 9.066 4.067 9.066 9.066.001 5-4.067 9.067-9.066 9.067z"/><path d="m338.833 115.967h-9.067v-9.067c0-4.142-3.358-7.5-7.5-7.5s-7.5 3.358-7.5 7.5v9.067h-9.066c-4.142 0-7.5 3.358-7.5 7.5s3.358 7.5 7.5 7.5h9.066v9.066c0 4.142 3.358 7.5 7.5 7.5s7.5-3.358 7.5-7.5v-9.066h9.067c4.142 0 7.5-3.358 7.5-7.5s-3.357-7.5-7.5-7.5z"/><path d="m388.533 182.233h-9.066v-9.067c0-4.142-3.358-7.5-7.5-7.5s-7.5 3.358-7.5 7.5v9.067h-9.067c-4.142 0-7.5 3.358-7.5 7.5s3.358 7.5 7.5 7.5h9.067v9.066c0 4.142 3.358 7.5 7.5 7.5s7.5-3.358 7.5-7.5v-9.066h9.066c4.142 0 7.5-3.358 7.5-7.5s-3.358-7.5-7.5-7.5z"/></g></g></svg>