<svg id="Capa_1" enable-background="new 0 0 512 512" height="512" viewBox="0 0 512 512" width="512" xmlns="http://www.w3.org/2000/svg"><g><g><path d="m90.333 33.667h331.333v444.667h-331.333z" fill="#efd27c"/><path d="m392.567 33.667h29.1v445.2h-29.1z" fill="#eabc73"/><path d="m446.8 504.5h-381.6c-4.418 0-8-3.582-8-8v-17.133c0-4.418 3.582-8 8-8h381.6c4.418 0 8 3.582 8 8v17.133c0 4.418-3.582 8-8 8z" fill="#eaa96a"/><path d="m446.8 40.633h-381.6c-4.418 0-8-3.582-8-8v-17.133c0-4.418 3.582-8 8-8h381.6c4.418 0 8 3.582 8 8v17.133c0 4.419-3.582 8-8 8z" fill="#eaa96a"/><g><path d="m150.5 99.5h211v134.5h-211z" fill="#a5cdfc"/><path d="m332.4 99.5h29.1v134.5h-29.1z" fill="#8dbdf7"/><path d="m150.5 251.5h211v161.883h-211z" fill="#a5cdfc"/><path d="m332.4 251.5h29.1v161.883h-29.1z" fill="#8dbdf7"/><path d="m206.3 405.1 66.267-149.1v-4.5h49.7v4.5l-66.267 149.1v4.5h-49.7z" fill="#f4f2f4"/><g fill="#e5935d"><path d="m123.467 251.5h33.133v158.1h-33.133z"/><path d="m123.467 104.5h33.133v120.767h-33.133z"/><path d="m355.4 251.5h33.133v158.1h-33.133z"/><path d="m355.4 104.5h33.133v120.767h-33.133z"/></g><g><path d="m272.567 181.45h82.834l-.001-33.133h-82.833-33.134-82.833v33.133h82.833z" fill="#eaa96a"/><path d="m239.433 104.5h33.133v120.767h-33.133z" fill="#e5935d"/></g><path d="m123.467 222.867h265.067v33.133h-265.067z" fill="#eaa96a"/><path d="m388.533 106.9h-265.066v-25.133c0-4.418 3.582-8 8-8h249.067c4.418 0 8 3.582 8 8v25.133z" fill="#eaa96a"/><path d="m380.533 438.233h-249.066c-4.418 0-8-3.582-8-8v-25.133h265.067v25.133c-.001 4.419-3.582 8-8.001 8z" fill="#eaa96a"/></g><g fill="#e5935d"><path d="m446.8 7.5h-23c4.418 0 8 3.582 8 8v17.133c0 4.418-3.582 8-8 8h23c4.418 0 8-3.582 8-8v-17.133c0-4.418-3.582-8-8-8z"/><path d="m446.8 471.367h-23c4.418 0 8 3.582 8 8v17.133c0 4.418-3.582 8-8 8h23c4.418 0 8-3.582 8-8v-17.133c0-4.419-3.582-8-8-8z"/></g></g><path d="m446.8 48.133c8.547 0 15.5-6.953 15.5-15.5v-17.133c0-8.547-6.953-15.5-15.5-15.5h-308.333c-4.142 0-7.5 3.358-7.5 7.5s3.358 7.5 7.5 7.5h308.333c.275 0 .5.224.5.5v17.133c0 .276-.225.5-.5.5h-381.6c-.276 0-.5-.224-.5-.5v-17.133c0-.276.224-.5.5-.5h43.271c4.142 0 7.5-3.358 7.5-7.5s-3.358-7.5-7.5-7.5h-43.271c-8.547 0-15.5 6.953-15.5 15.5v17.133c0 8.547 6.953 15.5 15.5 15.5h17.633v358.533c0 4.142 3.358 7.5 7.5 7.5s7.5-3.358 7.5-7.5v-358.533h18.133v415.733h-18.133v-27.2c0-4.142-3.358-7.5-7.5-7.5s-7.5 3.358-7.5 7.5v27.2h-17.633c-8.547 0-15.5 6.953-15.5 15.5v17.134c0 8.547 6.953 15.5 15.5 15.5h381.6c8.547 0 15.5-6.953 15.5-15.5v-17.133c0-8.547-6.953-15.5-15.5-15.5h-17.633v-415.734zm-179.26 349.467 59.6-134.1h20.76v134.1zm-49.7 0 59.6-134.1h33.286l-59.6 134.1zm-53.74 0v-134.1h96.926l-59.6 134.1zm-33.133-134.1h18.133v134.1h-18.133zm0-33.133h250.066v18.133h-250.066zm0-115.967h18.133v100.967h-18.133zm100.966 0v26.417h-67.833v-26.417zm115.967 0v26.417h-67.834v-26.417zm33.133 100.967h-18.133v-100.967h18.133zm-100.967 0v-26.417h67.834v26.417zm67.834-41.417h-67.834v-18.133h67.834zm-82.834 41.417h-18.133v-100.967h18.133zm-100.966 0v-26.417h67.833v26.417zm67.833-41.417h-67.833v-18.133h67.833zm130.967 89.55h18.133v134.1h-18.133zm18.133-164.1h-250.066v-18.133h250.066zm-250.066 313.2h250.066v18.133h-250.066zm250.066-364.467v18.133h-250.066v-18.133zm-250.066 397.6h250.066v18.133h-250.066zm316.333 33.634v17.133c0 .276-.225.5-.5.5h-381.6c-.276 0-.5-.224-.5-.5v-17.133c0-.276.224-.5.5-.5h381.6c.275 0 .5.224.5.5zm-33.133-15.5h-18.134v-415.734h18.134z"/></g></svg>