<svg id="Capa_1" enable-background="new 0 0 512.002 512.002" height="512" viewBox="0 0 512.002 512.002" width="512" xmlns="http://www.w3.org/2000/svg"><g><g><path d="m239.434 75.32v-59.537c0-4.575 3.709-8.283 8.283-8.283h16.567c4.575 0 8.283 3.709 8.283 8.283v59.537z" fill="#efd27c"/><path d="m264.284 7.5h-16.567c-1.141 0-2.228.231-3.217.648 2.977 1.256 5.067 4.201 5.067 7.635v59.537h23v-59.537c0-4.574-3.708-8.283-8.283-8.283z" fill="#eabc73"/><g><path d="m256.567 371.967h-1.133c-8.837 0-16-7.164-16-16v-42.267c0-4.418 3.582-8 8-8h17.133c4.418 0 8 3.582 8 8v42.267c0 8.836-7.163 16-16 16z" fill="#e2dfe2"/></g><g><path d="m263.204 205.779 152.399 263.963c1.099 1.902 2.908 3.291 5.03 3.859l11.315 3.032c4.419 1.184 8.961-1.438 10.145-5.857l3.032-11.315c.569-2.122.271-4.383-.828-6.286l-151.768-262.872z" fill="#a6ccfb"/><path d="m444.298 453.175-151.769-262.872-17.629 9.303 146.398 253.569c1.098 1.903 1.396 4.164.827 6.286l-3.032 11.315c-.175.651-.43 1.258-.739 1.825.699.442 1.465.782 2.279 1l11.315 3.032c4.419 1.184 8.961-1.438 10.145-5.857l3.032-11.315c.569-2.122.271-4.383-.827-6.286z" fill="#8cbdf9"/></g><g><path d="m251.751 200.667-155.353 269.075c-1.099 1.902-2.908 3.291-5.03 3.859l-11.315 3.032c-4.419 1.184-8.961-1.438-10.145-5.857l-3.032-11.315c-.569-2.122-.271-4.383.827-6.286l154.724-267.985z" fill="#a6ccfb"/><path d="m233.975 191.285-160.577 278.457c-.677 1.173-1.626 2.149-2.751 2.859 1.789 3.279 5.638 5.042 9.406 4.032l11.315-3.032c2.122-.569 3.931-1.957 5.03-3.859l155.353-269.075z" fill="#8cbdf9"/></g><ellipse cx="388.534" cy="438.233" fill="#e2dfe2" rx="16.567" ry="16.567" transform="matrix(.243 -.97 .97 .243 -130.969 708.647)"/><g><circle cx="256.001" cy="156.6" fill="#e2dfe2" r="49.7"/><circle cx="256.001" cy="156.6" fill="#4c5e71" r="16.567"/><path d="m256.001 106.9c-3.96 0-7.807.477-11.5 1.352 21.901 5.191 38.2 24.86 38.2 48.348s-16.299 43.157-38.2 48.348c3.693.875 7.54 1.352 11.5 1.352 27.448 0 49.7-22.252 49.7-49.7 0-27.449-22.252-49.7-49.7-49.7z" fill="#d3ced5"/></g></g><g><path d="m256.001 132.533c-13.271 0-24.067 10.796-24.067 24.067 0 13.27 10.796 24.066 24.067 24.066 13.27 0 24.067-10.796 24.067-24.066s-10.797-24.067-24.067-24.067zm0 33.134c-5 0-9.067-4.067-9.067-9.066s4.067-9.067 9.067-9.067c4.999 0 9.067 4.067 9.067 9.067 0 4.998-4.068 9.066-9.067 9.066z"/><path d="m461.296 500.75-13.762-23.837c.791-1.288 1.403-2.695 1.805-4.196l3.031-11.314c1.092-4.072.532-8.326-1.576-11.978l-59.52-103.092h30.394c4.142 0 7.5-3.358 7.5-7.5s-3.358-7.5-7.5-7.5h-39.054l-63.548-110.068c17.399-16.964 27.269-40.191 27.269-64.665 0-41.479-28.103-76.512-66.267-87.073v-53.744c0-8.703-7.081-15.783-15.784-15.783h-16.566c-8.703 0-15.784 7.08-15.784 15.783v53.744c-38.164 10.561-66.267 45.594-66.267 87.073 0 24.474 9.87 47.701 27.269 64.666l-63.548 110.068h-39.054c-4.142 0-7.5 3.358-7.5 7.5s3.358 7.5 7.5 7.5h30.394l-13.735 23.789c-2.071 3.587-.842 8.174 2.745 10.245 1.181.682 2.471 1.006 3.743 1.006 2.592 0 5.113-1.346 6.502-3.751l101.359-175.559c4.791 3.661 10.175 6.577 15.98 8.589l-127.104 220.15-15.704-9.067 9.94-17.216c2.071-3.587.842-8.174-2.745-10.245-3.587-2.073-8.174-.842-10.245 2.745l-30.257 52.406c-2.108 3.651-2.667 7.905-1.576 11.976l3.032 11.315c.402 1.5 1.014 2.908 1.805 4.195l-13.762 23.838c-2.071 3.587-.842 8.174 2.745 10.245 1.181.682 2.471 1.006 3.743 1.006 2.592 0 5.113-1.346 6.502-3.752l13.765-23.841c.141.004.282.014.423.014 1.371 0 2.751-.18 4.111-.544l11.315-3.032c4.073-1.091 7.477-3.703 9.583-7.354l16.565-28.692s.001-.001.001-.002.001-.002.001-.002l56.847-98.462h55.626v9.633c0 12.958 10.542 23.5 23.5 23.5h1.134c12.958 0 23.5-10.542 23.5-23.5v-9.633h55.626l40.977 70.973c-7.279 4.143-12.203 11.968-12.203 20.927 0 13.271 10.796 24.066 24.066 24.066 4.447 0 8.613-1.217 12.191-3.328l8.383 14.519c2.108 3.652 5.512 6.264 9.584 7.355l11.315 3.032c1.36.364 2.74.544 4.111.544.141 0 .282-.01.423-.014l13.765 23.841c1.389 2.406 3.91 3.752 6.502 3.752 1.272 0 2.562-.324 3.743-1.006 3.588-2.071 4.817-6.658 2.746-10.245zm-213.578-485.75h16.566c.432 0 .784.352.784.783v17.35h-18.134v-17.35c0-.431.351-.783.784-.783zm-.784 33.133h18.134v18.587c-2.983-.299-6.007-.453-9.067-.453s-6.084.155-9.067.453zm-66.267 108.467c0-41.539 33.794-75.333 75.334-75.333s75.333 33.794 75.333 75.333c0 19.114-7.221 37.318-20.058 51.175l-9.653-16.72c7.261-9.59 11.578-21.527 11.578-34.455 0-31.54-25.66-57.2-57.2-57.2s-57.2 25.66-57.2 57.2c0 12.929 4.317 24.865 11.578 34.455l-9.653 16.72c-12.838-13.857-20.059-32.06-20.059-51.175zm75.334 42.2c-23.269 0-42.2-18.931-42.2-42.2s18.931-42.2 42.2-42.2 42.2 18.931 42.2 42.2-18.931 42.2-42.2 42.2zm0 15c1.048 0 2.089-.033 3.123-.089l9.869 17.093c-4.271.742-8.613 1.129-12.992 1.129-4.38 0-8.722-.386-12.992-1.128l9.869-17.094c1.034.056 2.075.089 3.123.089zm-166.099 252.193c-.103.178-.276.31-.475.364l-11.315 3.032c-.413.114-.847-.136-.959-.554l-3.032-11.316c-.053-.199-.025-.416.078-.594l12.817-22.199 15.704 9.066zm175.166-110.026c0 4.687-3.813 8.5-8.5 8.5h-1.134c-4.687 0-8.5-3.813-8.5-8.5v-17.124c0-.003.001-.006.001-.01s-.001-.006-.001-.01v-25.123c0-.276.224-.5.5-.5h17.134c.276 0 .5.224.5.5zm15-24.634v-17.633c0-8.547-6.953-15.5-15.5-15.5h-17.134c-8.547 0-15.5 6.953-15.5 15.5v17.633h-46.966l50.138-86.842c6.817 1.615 13.819 2.441 20.895 2.441 7.075 0 14.077-.826 20.895-2.44l12.63 21.876c1.389 2.406 3.91 3.751 6.502 3.751 1.272 0 2.562-.324 3.743-1.006 3.587-2.071 4.816-6.658 2.745-10.245l-14.834-25.694c-.316-.88-.775-1.67-1.353-2.344l-11.65-20.179c5.806-2.012 11.189-4.928 15.98-8.589l126.828 219.673-8.026 4.634c-3.542-6.223-9.774-10.722-17.106-11.896l-74.305-128.701c-2.071-3.587-6.658-4.816-10.245-2.745s-4.816 6.658-2.745 10.245l21.975 38.061zm108.466 115.967c-4.999 0-9.066-4.067-9.066-9.066 0-5 4.067-9.067 9.066-9.067 5 0 9.067 4.067 9.067 9.067 0 4.998-4.068 9.066-9.067 9.066zm34.04 19.056c-.201-.054-.37-.183-.475-.365l-11.08-19.19c.58-1.516 1.012-3.103 1.275-4.748l12.692-7.327 12.816 22.199c.103.179.132.395.078.595l-3.032 11.315c-.056.208-.178.369-.365.476-.187.108-.388.134-.594.078z"/></g></g></svg>