<svg id="Capa_1" enable-background="new 0 0 512 512" height="512" viewBox="0 0 512 512" width="512" xmlns="http://www.w3.org/2000/svg"><g><g><path d="m421.667 414.5h33.133v64.033h-33.133z" fill="#d0e5fd"/><path d="m454.8 300v-70.343c0-3.949-2.787-7.348-6.659-8.122l-241.841-48.368h-5.081v126.833z" fill="#d0e5fd"/><path d="m448.141 221.535-22.096-4.419c3.393 1.086 5.755 4.249 5.755 7.882v75.002h23v-70.343c0-3.948-2.787-7.348-6.659-8.122z" fill="#b6d5f8"/><g><path d="m239.433 414.5h33.133v64.033h-33.133z" fill="#d0e5fd"/><g><path d="m201.233 421.667h278.7c4.418 0 8-3.582 8-8v-116.534c0-4.418-3.582-8-8-8h-278.7z" fill="#4c5e71"/><path d="m446.933 322.266h-42.333v66.267h42.333c4.418 0 8-3.582 8-8v-50.267c0-4.418-3.581-8-8-8z" fill="#a6ccfb"/><g fill="#a6ccfb"><path d="m289.583 322.266h-42.215c-4.418 0-8 3.582-8 8v50.267c0 4.418 3.582 8 8 8h42.215z"/><path d="m321.75 322.266h50.683v66.267h-50.683z"/></g><path d="m446.933 322.266h-23c4.418 0 8 3.582 8 8v50.267c0 4.418-3.582 8-8 8h23c4.418 0 8-3.582 8-8v-50.267c0-4.418-3.581-8-8-8z" fill="#8cbdf9"/><g fill="#3c4958"><path d="m405.1 322.266v66.267h-33.167v-66.267z"/><path d="m322.267 322.266v66.267h-33.084v-66.267z"/><path d="m479.933 289.133h-23c4.418 0 8 3.582 8 8v116.533c0 4.418-3.582 8-8 8h23c4.418 0 8-3.582 8-8v-116.533c0-4.418-3.581-8-8-8z"/></g></g></g><g><g><g><path d="m206.3 173.167h215.367c9.15 0 16.567-7.417 16.567-16.567s-7.417-16.567-16.567-16.567h-66.267c-9.15 0-16.567-7.417-16.567-16.567s7.417-16.567 16.567-16.567h16.567c9.15 0 16.567-7.417 16.567-16.567 0-9.149-7.417-16.567-16.567-16.567h-66.267c-9.15 0-16.567-7.417-16.567-16.567s7.417-16.567 16.567-16.567h33.133c9.15 0 16.567-7.417 16.567-16.567s-7.417-16.567-16.567-16.567h-182.233c-9.15 0-16.567 7.417-16.567 16.567s7.417 16.567 16.567 16.567h49.7c9.149 0 16.567 7.417 16.567 16.567s-7.417 16.567-16.567 16.567h-115.967c-9.149 0-16.567 7.417-16.567 16.567s7.417 16.567 16.567 16.567v66.267h115.967z" fill="#f4f2f4"/></g><g><path d="m471.367 106.9c9.15 0 16.567-7.417 16.567-16.567 0-9.149-7.417-16.567-16.567-16.567h-33.133c-9.15 0-16.567 7.417-16.567 16.567s7.417 16.567 16.567 16.567z" fill="#f4f2f4"/></g></g></g><g fill="#e2dfe2"><path d="m365.533 90.333c0 9.15-7.417 16.567-16.567 16.567h-16.566c-9.15 0-16.567 7.417-16.567 16.567 0 9.149 7.417 16.567 16.567 16.567h23c-9.15 0-16.567-7.417-16.567-16.567s7.417-16.567 16.567-16.567h16.567c9.15 0 16.567-7.417 16.567-16.567s-7.417-16.567-16.567-16.567h-23c9.149.001 16.566 7.418 16.566 16.567z"/><path d="m305.7 40.633h-23c-9.15 0-16.567 7.417-16.567 16.567s7.417 16.567 16.567 16.567h23c-9.15 0-16.567-7.417-16.567-16.567s7.417-16.567 16.567-16.567z"/><path d="m421.667 140.033h-23c9.15 0 16.567 7.417 16.567 16.567 0 9.149-7.417 16.567-16.567 16.567h23c9.15 0 16.567-7.417 16.567-16.567-.001-9.15-7.418-16.567-16.567-16.567z"/><path d="m332.4 24.067c0 9.15-7.417 16.567-16.567 16.567h23c9.15 0 16.567-7.417 16.567-16.567s-7.417-16.567-16.567-16.567h-23c9.15 0 16.567 7.417 16.567 16.567z"/></g><g><path d="m40.633 134.333h165.667v342.733h-165.667z" fill="#a7dda7"/><path d="m183.3 134.333h23v342.733h-23z" fill="#8ace9b"/><path d="m214.867 140.033h-182.8c-4.418 0-8-3.582-8-8v-17.133c0-4.418 3.582-8 8-8h182.8c4.418 0 8 3.582 8 8v17.133c0 4.419-3.582 8-8 8z" fill="#d0e5fd"/><path d="m214.867 106.9h-23c4.418 0 8 3.582 8 8v17.133c0 4.418-3.582 8-8 8h23c4.418 0 8-3.582 8-8v-17.133c0-4.418-3.582-8-8-8z" fill="#b6d5f8"/><path d="m156.6 477.067h-66.267v-97.1c0-4.418 3.582-8 8-8h50.267c4.418 0 8 3.582 8 8z" fill="#eaa96a"/><path d="m148.6 371.967h-23c4.418 0 8 3.582 8 8v97.1h23v-97.1c0-4.419-3.582-8-8-8z" fill="#e5935d"/></g><path d="m165.167 206.3h-83.4c-4.418 0-8-3.582-8-8v-17.133c0-4.418 3.582-8 8-8h83.4c4.418 0 8 3.582 8 8v17.133c0 4.418-3.582 8-8 8z" fill="#a6ccfb"/><path d="m165.167 305.7h-83.4c-4.418 0-8-3.582-8-8v-17.133c0-4.418 3.582-8 8-8h83.4c4.418 0 8 3.582 8 8v17.133c0 4.418-3.582 8-8 8z" fill="#a6ccfb"/><path d="m496.5 504.5h-481c-4.418 0-8-3.582-8-8v-17.133c0-4.418 3.582-8 8-8h481c4.418 0 8 3.582 8 8v17.133c0 4.418-3.582 8-8 8z" fill="#e2dfe2"/><path d="m496.5 471.367h-23c4.418 0 8 3.582 8 8v17.133c0 4.418-3.582 8-8 8h23c4.418 0 8-3.582 8-8v-17.133c0-4.419-3.582-8-8-8z" fill="#d3ced5"/><path d="m471.367 73.767h-23c9.15 0 16.567 7.417 16.567 16.567s-7.417 16.567-16.567 16.567h23c9.15 0 16.567-7.417 16.567-16.567s-7.418-16.567-16.567-16.567z" fill="#e2dfe2"/><g fill="#8cbdf9"><path d="m165.167 272.567h-23c4.418 0 8 3.582 8 8v17.133c0 4.418-3.582 8-8 8h23c4.418 0 8-3.582 8-8v-17.133c0-4.419-3.582-8-8-8z"/><path d="m165.167 173.167h-23c4.418 0 8 3.582 8 8v17.133c0 4.418-3.582 8-8 8h23c4.418 0 8-3.582 8-8v-17.133c0-4.419-3.582-8-8-8z"/></g></g><g><path d="m496.5 463.867h-34.2v-34.7h17.633c8.547 0 15.5-6.953 15.5-15.5v-116.534c0-8.547-6.953-15.5-15.5-15.5h-17.633v-51.976c0-7.497-5.336-14.006-12.688-15.477l-167.569-33.514h139.623c13.271 0 24.067-10.797 24.067-24.067s-10.796-24.066-24.067-24.066h-66.266c-4.999 0-9.066-4.067-9.066-9.066s4.067-9.066 9.066-9.066h16.567c13.27 0 24.066-10.797 24.066-24.067s-10.796-24.066-24.066-24.066h-66.267c-5 0-9.067-4.067-9.067-9.066 0-5 4.067-9.067 9.067-9.067h33.133c13.27 0 24.066-10.796 24.066-24.066s-10.796-24.069-24.066-24.069h-182.233c-13.271 0-24.067 10.796-24.067 24.066s10.797 24.067 24.067 24.067h49.7c4.999 0 9.067 4.067 9.067 9.067 0 4.999-4.067 9.066-9.067 9.066h-60.333c-4.142 0-7.5 3.357-7.5 7.5s3.358 7.5 7.5 7.5h60.333c13.271 0 24.067-10.796 24.067-24.066s-10.797-24.067-24.067-24.067h-49.7c-5 0-9.067-4.067-9.067-9.066s4.068-9.067 9.067-9.067h182.233c4.999 0 9.066 4.067 9.066 9.066s-4.067 9.066-9.066 9.066h-33.133c-13.271 0-24.067 10.797-24.067 24.067s10.797 24.068 24.067 24.068h66.267c4.999 0 9.066 4.067 9.066 9.066 0 5-4.067 9.067-9.066 9.067h-16.567c-13.27 0-24.066 10.796-24.066 24.066s10.796 24.066 24.066 24.066h66.267c5 0 9.067 4.067 9.067 9.066 0 5-4.067 9.067-9.067 9.067h-207.867v-18.134h1.067c8.547 0 15.5-6.953 15.5-15.5v-17.131c0-8.547-6.953-15.5-15.5-15.5h-124.534c-4.999 0-9.067-4.067-9.067-9.067 0-4.999 4.067-9.066 9.067-9.066h25.633c4.142 0 7.5-3.357 7.5-7.5s-3.358-7.5-7.5-7.5h-25.633c-13.27 0-24.067 10.796-24.067 24.066 0 3.207.636 6.267 1.779 9.067h-35.978c-8.547 0-15.5 6.953-15.5 15.5v17.133c0 8.547 6.953 15.5 15.5 15.5h1.066v316.334h-17.633c-8.547 0-15.5 6.953-15.5 15.5v17.133c0 8.547 6.953 15.5 15.5 15.5h391.166c4.142 0 7.5-3.357 7.5-7.5s-3.358-7.5-7.5-7.5h-391.166c-.276 0-.5-.225-.5-.5v-17.133c0-.275.224-.5.5-.5h481c.276 0 .5.225.5.5v17.133c0 .275-.224.5-.5.5h-59.834c-4.142 0-7.5 3.357-7.5 7.5s3.358 7.5 7.5 7.5h59.834c8.547 0 15.5-6.953 15.5-15.5v-17.133c0-8.547-6.953-15.5-15.5-15.5zm-49.83-234.977c.365.073.629.396.629.768v18.842h-233.499v-66.184zm.63 34.61v18.133h-233.5v-18.133zm-415.233-130.967c-.276 0-.5-.225-.5-.5v-17.133c0-.275.224-.5.5-.5h182.8c.276 0 .5.225.5.5v17.133c0 .275-.224.5-.5.5zm117.033 331.334h-51.267v-83.9c0-.275.224-.5.5-.5h50.267c.276 0 .5.225.5.5zm49.7-290.689v.056 158.099h-25.633c-4.142 0-7.5 3.357-7.5 7.5s3.358 7.5 7.5 7.5h25.633v75.334 42.2h-34.7v-83.9c0-8.547-6.953-15.5-15.5-15.5h-50.267c-8.547 0-15.5 6.953-15.5 15.5v83.9h-34.7v-117.534h25.633c4.142 0 7.5-3.357 7.5-7.5s-3.358-7.5-7.5-7.5h-25.633v-183.8h150.667zm33.133 290.689h-18.133v-34.7h18.133zm33.134 0h-18.134v-34.7h18.134zm149.099 0h-134.1v-34.7h134.1zm33.134 0h-18.133v-34.7h18.133zm-25.634-49.7h-149.1-33.134-25.632v-117.534h266.133c.276 0 .5.225.5.5v116.534c0 .275-.224.5-.5.5h-25.133z"/><path d="m446.8 314.767h-199.367c-8.547 0-15.5 6.953-15.5 15.5v50.267c0 8.547 6.953 15.5 15.5 15.5h199.367c8.547 0 15.5-6.953 15.5-15.5v-50.267c0-8.547-6.953-15.5-15.5-15.5zm-199.867 65.766v-50.267c0-.275.224-.5.5-.5h34.2v51.267h-34.2c-.276 0-.5-.224-.5-.5zm49.7.5v-51.267h18.133v51.267zm33.134-51.266h34.7v51.267h-34.7zm49.7 51.266v-51.267h18.133v51.267zm67.833-.5c0 .275-.224.5-.5.5h-34.2v-51.267h34.2c.276 0 .5.225.5.5z"/><path d="m81.767 213.8h83.4c8.547 0 15.5-6.953 15.5-15.5v-17.133c0-8.547-6.953-15.5-15.5-15.5h-83.4c-8.547 0-15.5 6.953-15.5 15.5v17.133c0 8.547 6.953 15.5 15.5 15.5zm-.5-32.633c0-.275.224-.5.5-.5h83.4c.276 0 .5.225.5.5v17.133c0 .275-.224.5-.5.5h-83.4c-.276 0-.5-.225-.5-.5z"/><path d="m81.767 313.2h83.4c8.547 0 15.5-6.953 15.5-15.5v-17.134c0-8.547-6.953-15.5-15.5-15.5h-83.4c-8.547 0-15.5 6.953-15.5 15.5v17.134c0 8.547 6.953 15.5 15.5 15.5zm-.5-32.634c0-.275.224-.5.5-.5h83.4c.276 0 .5.225.5.5v17.134c0 .275-.224.5-.5.5h-83.4c-.276 0-.5-.225-.5-.5z"/><path d="m90.333 231.934c-4.142 0-7.5 3.357-7.5 7.5s3.358 7.5 7.5 7.5h66.267c4.142 0 7.5-3.357 7.5-7.5s-3.358-7.5-7.5-7.5z"/><path d="m438.233 114.4h33.133c13.27 0 24.066-10.797 24.066-24.067s-10.796-24.066-24.066-24.066h-33.133c-13.271 0-24.067 10.796-24.067 24.066s10.797 24.067 24.067 24.067zm0-33.133h33.133c4.999 0 9.066 4.067 9.066 9.066 0 5-4.067 9.067-9.066 9.067h-33.133c-5 0-9.067-4.067-9.067-9.067 0-4.999 4.068-9.066 9.067-9.066z"/></g></g></svg>