<svg id="Capa_1" enable-background="new 0 0 512.004 512.004" height="512" viewBox="0 0 512.004 512.004" width="512" xmlns="http://www.w3.org/2000/svg"><g><g><path d="m272.57 248.002v32.85c0 4.575 3.708 8.283 8.283 8.283h82.833c4.575 0 8.283-3.709 8.283-8.283v-32.85z" fill="#e2dfe2"/><path d="m348.97 248.002v32.85c0 4.575-3.709 8.283-8.284 8.283h23c4.575 0 8.284-3.709 8.284-8.283v-32.85z" fill="#d3ced5"/><path d="m272.57 479.368v-32.85c0-4.575 3.708-8.283 8.283-8.283h82.833c4.575 0 8.283 3.709 8.283 8.283v32.85z" fill="#e2dfe2"/><path d="m348.97 479.368v-32.85c0-4.575-3.709-8.283-8.284-8.283h23c4.575 0 8.284 3.709 8.284 8.283v32.85z" fill="#d3ced5"/><path d="m405.104 504.502h-165.667l14.277-28.554c1.403-2.806 4.271-4.579 7.409-4.579h122.295c3.137 0 6.006 1.773 7.409 4.579z" fill="#efd27c"/><path d="m390.826 475.947c-1.403-2.806-4.271-4.579-7.409-4.579h-23c3.137 0 6.006 1.772 7.409 4.579l14.277 28.554h23z" fill="#eabc73"/><path d="m363.687 99.301-49.7-8.967 15.235-76.174c.774-3.872 4.174-6.659 8.122-6.659h18.059c4.575 0 8.283 3.709 8.283 8.283v83.517z" fill="#e2dfe2"/><path d="m355.403 7.502h-18.059c-.853 0-1.677.137-2.457.38 3.361 1.055 5.8 4.194 5.8 7.904v79.367l23 4.15v-83.518c0-4.575-3.709-8.283-8.284-8.283z" fill="#d3ced5"/><path d="m319.113 64.702h44.574v-15h-41.574z" fill="#d3ced5"/><path d="m18.961 173.168 14.277-28.554c1.403-2.806 4.271-4.579 7.409-4.579h52.864c4.575 0 8.283 3.709 8.283 8.283v34.183z" fill="#efd27c"/><path d="m93.512 140.035h-23c4.575 0 8.283 3.709 8.283 8.283v31.592l23 2.592v-34.183c0-4.575-3.709-8.284-8.283-8.284z" fill="#eabc73"/><g><path d="m65.77 388.535h-33.7c-4.418 0-8-3.582-8-8v-50.267c0-4.418 3.582-8 8-8h33.7c4.418 0 8 3.582 8 8v50.267c0 4.418-3.582 8-8 8z" fill="#efd27c"/><path d="m65.77 322.268h-23c4.418 0 8 3.582 8 8v50.267c0 4.418-3.582 8-8 8h23c4.418 0 8-3.582 8-8v-50.267c0-4.418-3.582-8-8-8z" fill="#eabc73"/></g><path d="m421.67 115.185c0-4.575 3.709-8.283 8.283-8.283h66.267c4.575 0 8.283 3.709 8.283 8.283v115.967c0 4.575-3.709 8.283-8.283 8.283h-66.267c-4.575 0-8.283-3.709-8.283-8.283z" fill="#f4f2f4"/><path d="m496.22 106.901h-23c4.575 0 8.283 3.709 8.283 8.283v115.967c0 4.575-3.708 8.283-8.283 8.283h23c4.575 0 8.283-3.709 8.283-8.283v-115.966c.001-4.575-3.708-8.284-8.283-8.284z" fill="#e2dfe2"/><path d="m15.798 206.301c-6.158 0-10.163-6.48-7.409-11.988l10.573-21.146h477.542c4.418 0 8 3.582 8 8v17.133c0 4.418-3.582 8-8 8h-480.706z" fill="#e2dfe2"/><path d="m496.504 173.168h-23c4.418 0 8 3.582 8 8v17.133c0 4.418-3.582 8-8 8h23c4.418 0 8-3.582 8-8v-17.133c0-4.418-3.582-8-8-8z" fill="#d3ced5"/><path d="m272.57 256.001h99.4c9.15 0 16.567-7.417 16.567-16.567v-132.533c0-9.149-7.417-16.567-16.567-16.567h-71.617c-6.774 0-12.866 4.124-15.382 10.414l-28.968 72.419v66.267c.001 9.15 7.418 16.567 16.567 16.567z" fill="#efd27c"/><path d="m355.404 171.266c0 4.575-3.709 8.283-8.283 8.283h-45.749c-5.86 0-9.867-5.919-7.691-11.36l15.806-39.514c1.258-3.145 4.304-5.207 7.691-5.207h29.943c4.575 0 8.283 3.709 8.283 8.283z" fill="#a6ccfb"/><path d="m371.97 90.335h-23c9.149 0 16.566 7.417 16.566 16.567v132.533c0 9.15-7.417 16.567-16.566 16.567h23c9.149 0 16.566-7.417 16.566-16.567v-132.534c.001-9.149-7.416-16.566-16.566-16.566z" fill="#eabc73"/></g><g><path d="m496.22 99.401h-51.625l-73.408-57.678v-25.938c0-8.703-7.08-15.783-15.783-15.783h-18.06c-7.498 0-14.007 5.336-15.477 12.689l-5.144 25.721-211.175 99.721c-2.897-3.418-7.215-5.597-12.036-5.597h-52.865c-6.019 0-11.428 3.344-14.116 8.725l-24.851 49.7c-2.463 4.929-2.204 10.67.693 15.357s7.915 7.484 13.425 7.484h25.623v100.967h-9.351c-8.547 0-15.5 6.953-15.5 15.5v50.267c0 8.547 6.953 15.5 15.5 15.5h9.351v10.728c-14.233 3.392-24.851 16.216-24.851 31.473 0 17.838 14.513 32.35 32.351 32.35 15.256 0 28.08-10.617 31.472-24.85h1.661c4.143 0 7.5-3.357 7.5-7.5s-3.357-7.5-7.5-7.5h-8.284c-4.143 0-7.5 3.357-7.5 7.5 0 9.566-7.783 17.35-17.35 17.35s-17.351-7.783-17.351-17.35 7.783-17.351 17.351-17.351c4.143 0 7.5-3.357 7.5-7.5v-17.35h9.35c8.547 0 15.5-6.953 15.5-15.5v-50.267c0-8.547-6.953-15.5-15.5-15.5h-9.35v-100.967h30.374c4.143 0 7.5-3.357 7.5-7.5s-3.357-7.5-7.5-7.5h-70.997c-.119 0-.437 0-.666-.372-.23-.372-.088-.656-.035-.762l8.5-17h158.641v18.134h-65.442c-4.143 0-7.5 3.357-7.5 7.5s3.357 7.5 7.5 7.5h131.709v25.633c0 10.652 6.958 19.704 16.566 22.865v18.552c0 8.703 7.08 15.783 15.783 15.783h.783v134.101h-.783c-8.703 0-15.783 7.08-15.783 15.783v17.351h-3.947c-6.018 0-11.427 3.343-14.116 8.724l-12.205 24.409h-11.931c-4.143 0-7.5 3.357-7.5 7.5s3.357 7.5 7.5 7.5h198.8c4.143 0 7.5-3.357 7.5-7.5s-3.357-7.5-7.5-7.5h-11.932l-12.203-24.41c-2.691-5.38-8.101-8.723-14.117-8.723h-3.947v-17.351c0-8.703-7.08-15.783-15.783-15.783h-.783v-134.101h.783c8.703 0 15.783-7.08 15.783-15.783v-18.552c9.608-3.16 16.566-12.213 16.566-22.865v-25.633h18.134v17.35c0 8.703 7.08 15.783 15.783 15.783h66.267c8.703 0 15.783-7.08 15.783-15.783v-24.85-.001-91.116c-.001-8.704-7.082-15.784-15.785-15.784zm-429.95 230.867v50.267c0 .275-.225.5-.5.5h-33.7c-.275 0-.5-.225-.5-.5v-50.267c0-.275.225-.5.5-.5h33.7c.276 0 .5.225.5.5zm430.734-215.084v50.483h-67.833v-50.483c0-.432.352-.783.783-.783h66.267c.431 0 .783.352.783.783zm-100.967 50.484v-18.133h18.134v18.133zm-69.275-100.966h29.425v18.133h-33.052zm44.425-3.902 51.44 40.417c-5.021 2.645-8.457 7.909-8.457 13.967v17.351h-18.134v-25.634c0-13.271-10.796-24.066-24.066-24.066h-.783zm-33.843-45.798h18.06c.432 0 .783.352.783.783v33.917h-26.425l6.814-34.07c.073-.366.396-.63.768-.63zm-296.697 132.533h52.864c.432 0 .783.352.783.783v17.35h-63.197l8.851-17.701c.133-.267.401-.432.699-.432zm156.59 51.267v-18.134h51.267v18.134zm104.399 189.733 46.268-34.7v69.4zm-5-15v-69.4l46.268 34.7zm0 30 36.267 27.2h-36.267zm87.483 75.766 8.85 17.701h-141.397l8.851-17.701c.133-.267.4-.432.699-.432h122.295c.299 0 .568.166.702.432zm-19.649-32.783v17.351h-84.4v-17.351c0-.432.352-.783.783-.783h8.283 66.268 8.283c.432 0 .783.352.783.783zm-16.566-122.683-36.267-27.2h36.267zm15.783-42.2h-8.283-66.268-8.283c-.432 0-.783-.352-.783-.783v-17.35h84.4v17.35c0 .431-.351.783-.783.783zm17.35-42.201c0 5-4.067 9.067-9.066 9.067h-99.4c-4.999 0-9.066-4.067-9.066-9.067v-64.822l11.203-28.007c1.538-3.846-.333-8.21-4.179-9.749-3.843-1.537-8.211.332-9.749 4.179l-9.853 24.633h-141.632v-12.716l203.764-96.222-5.221 26.104h-7.485c-9.898 0-18.67 5.938-22.346 15.129l-6.084 15.21c-1.538 3.846.333 8.21 4.179 9.749 3.842 1.534 8.21-.332 9.749-4.179l6.084-15.21c1.385-3.462 4.688-5.699 8.418-5.699h13.634 49.7 8.283c4.999 0 9.066 4.067 9.066 9.066v132.534zm15-58.766h100.967v18.134h-100.967zm100.183 51.266h-66.267c-.432 0-.783-.352-.783-.783v-17.35h67.833v17.35c.001.432-.351.783-.783.783z"/><path d="m454.803 147.535h16.567c4.143 0 7.5-3.357 7.5-7.5s-3.357-7.5-7.5-7.5h-16.567c-4.143 0-7.5 3.357-7.5 7.5s3.358 7.5 7.5 7.5z"/><path d="m347.121 115.968h-29.943c-6.49 0-12.242 3.894-14.655 9.922l-15.806 39.516c-1.947 4.869-1.354 10.368 1.586 14.71s7.825 6.934 13.069 6.934h45.749c8.703 0 15.783-7.08 15.783-15.783v-39.514c0-8.704-7.08-15.785-15.783-15.785zm.783 55.297c0 .432-.352.783-.783.783h-45.749c-.113 0-.416 0-.648-.344-.233-.345-.121-.625-.079-.73l15.805-39.513c.12-.3.406-.494.728-.494h29.943c.432 0 .783.352.783.784z"/><path d="m355.404 207.085h-8.283c-4.143 0-7.5 3.357-7.5 7.5s3.357 7.5 7.5 7.5h8.283c4.143 0 7.5-3.357 7.5-7.5s-3.357-7.5-7.5-7.5z"/></g></g></svg>