<svg id="Capa_1" enable-background="new 0 0 512 512" height="512" viewBox="0 0 512 512" width="512" xmlns="http://www.w3.org/2000/svg"><g><g><g><g><path d="m57.2 133.667h33.133v344.067h-33.133z" fill="#e2dfe2"/><path d="m67.333 133.667h23v344.067h-23z" fill="#d3ced5"/><path d="m107.183 504.5h-66.833c-4.418 0-8-3.582-8-8v-17.133c0-4.418 3.582-8 8-8h66.833c4.418 0 8 3.582 8 8v17.133c0 4.418-3.581 8-8 8z" fill="#efd27c"/><path d="m98.9 140.033h-50.267c-4.418 0-8-3.582-8-8v-17.133c0-4.418 3.582-8 8-8h50.267c4.418 0 8 3.582 8 8v17.133c0 4.419-3.582 8-8 8z" fill="#4c5e71"/><path d="m98.9 106.9h-23c4.418 0 8 3.582 8 8v17.133c0 4.418-3.582 8-8 8h23c4.418 0 8-3.582 8-8v-17.133c0-4.418-3.582-8-8-8z" fill="#3c4958"/><path d="m107.183 471.367h-23c4.418 0 8 3.582 8 8v17.133c0 4.418-3.582 8-8 8h23c4.418 0 8-3.582 8-8v-17.133c0-4.419-3.581-8-8-8z" fill="#eabc73"/></g><g><circle cx="73.767" cy="57.2" fill="#dd636e" r="49.7"/><circle cx="73.767" cy="57.2" fill="#d0d9e2" r="16.567"/><path d="m73.767 7.5c-3.96 0-7.807.477-11.5 1.352 21.901 5.191 38.2 24.86 38.2 48.348s-16.299 43.157-38.2 48.348c3.693.875 7.54 1.352 11.5 1.352 27.449 0 49.7-22.251 49.7-49.7s-22.252-49.7-49.7-49.7z" fill="#da4a54"/></g></g><g><g><path d="m421.667 133.667h33.133v344.067h-33.133z" fill="#e2dfe2"/><path d="m431.8 133.667h23v344.067h-23z" fill="#d3ced5"/><path d="m471.65 504.5h-66.833c-4.418 0-8-3.582-8-8v-17.133c0-4.418 3.582-8 8-8h66.833c4.418 0 8 3.582 8 8v17.133c0 4.418-3.582 8-8 8z" fill="#efd27c"/><path d="m463.367 140.033h-50.267c-4.418 0-8-3.582-8-8v-17.133c0-4.418 3.582-8 8-8h50.267c4.418 0 8 3.582 8 8v17.133c0 4.419-3.582 8-8 8z" fill="#4c5e71"/><path d="m463.367 106.9h-23c4.418 0 8 3.582 8 8v17.133c0 4.418-3.582 8-8 8h23c4.418 0 8-3.582 8-8v-17.133c0-4.418-3.582-8-8-8z" fill="#3c4958"/><path d="m471.65 471.367h-23c4.418 0 8 3.582 8 8v17.133c0 4.418-3.582 8-8 8h23c4.418 0 8-3.582 8-8v-17.133c0-4.419-3.582-8-8-8z" fill="#eabc73"/></g><g><circle cx="438.233" cy="57.2" fill="#dd636e" r="49.7"/><circle cx="438.233" cy="57.2" fill="#d0d9e2" r="16.567"/><path d="m438.233 7.5c-3.96 0-7.807.477-11.5 1.352 21.901 5.191 38.2 24.86 38.2 48.348s-16.299 43.157-38.2 48.348c3.693.875 7.54 1.352 11.5 1.352 27.449 0 49.7-22.251 49.7-49.7s-22.251-49.7-49.7-49.7z" fill="#da4a54"/></g></g><g><path d="m496.5 239.433h-481c-4.418 0-8-3.582-8-8v-50.267c0-4.418 3.582-8 8-8h481c4.418 0 8 3.582 8 8v50.267c0 4.419-3.582 8-8 8z" fill="#f4f2f4"/><g><g fill="#dd636e"><path d="m90.333 239.433h-49.7l33.134-66.266h49.7z"/><path d="m206.3 239.433h-49.7l33.133-66.266h49.7z"/><path d="m322.267 239.433h-49.7l33.133-66.266h49.7z"/><path d="m438.233 239.433h-49.7l33.134-66.266h49.7z"/></g></g><path d="m496.5 173.167h-23c4.418 0 8 3.582 8 8v50.267c0 4.418-3.582 8-8 8h23c4.418 0 8-3.582 8-8v-50.267c0-4.419-3.582-8-8-8z" fill="#e2dfe2"/></g><g><path d="m496.5 355.4h-481c-4.418 0-8-3.582-8-8v-50.267c0-4.418 3.582-8 8-8h481c4.418 0 8 3.582 8 8v50.267c0 4.418-3.582 8-8 8z" fill="#f4f2f4"/><g><g fill="#dd636e"><path d="m90.333 355.4h-49.7l33.134-66.267h49.7z"/><path d="m206.3 355.4h-49.7l33.133-66.267h49.7z"/><path d="m322.267 355.4h-49.7l33.133-66.267h49.7z"/><path d="m438.233 355.4h-49.7l33.134-66.267h49.7z"/></g></g><path d="m496.5 289.133h-23c4.418 0 8 3.582 8 8v50.267c0 4.418-3.582 8-8 8h23c4.418 0 8-3.582 8-8v-50.267c0-4.418-3.582-8-8-8z" fill="#e2dfe2"/></g></g><g><path d="m73.767 81.267c13.271 0 24.067-10.796 24.067-24.066s-10.797-24.068-24.067-24.068-24.067 10.797-24.067 24.067 10.796 24.067 24.067 24.067zm0-33.134c4.999 0 9.067 4.067 9.067 9.067 0 4.999-4.067 9.066-9.067 9.066-4.999 0-9.066-4.067-9.066-9.066-.001-4.999 4.067-9.067 9.066-9.067z"/><path d="m462.3 57.2c0-13.271-10.796-24.067-24.066-24.067-13.271 0-24.067 10.796-24.067 24.067s10.796 24.066 24.067 24.066c13.27.001 24.066-10.795 24.066-24.066zm-33.134 0c0-5 4.067-9.067 9.067-9.067 4.999 0 9.066 4.067 9.066 9.067 0 4.999-4.067 9.066-9.066 9.066-4.999.001-9.067-4.067-9.067-9.066z"/><path d="m496.5 246.933c8.547 0 15.5-6.953 15.5-15.5v-50.267c0-8.547-6.953-15.5-15.5-15.5h-34.2v-18.133h1.067c8.547 0 15.5-6.953 15.5-15.5v-17.133c0-4.965-2.356-9.381-5.998-12.219 13.702-10.46 22.564-26.951 22.564-45.48 0-31.54-25.66-57.2-57.2-57.2-9.165 0-18.28 2.222-26.363 6.426-3.675 1.912-5.104 6.44-3.193 10.115 1.912 3.675 6.439 5.105 10.115 3.193 6.039-3.141 12.58-4.733 19.441-4.733 23.269 0 42.2 18.931 42.2 42.2s-18.931 42.2-42.2 42.2-42.2-18.931-42.2-42.2c0-6.773 1.554-13.238 4.617-19.216 1.889-3.686.433-8.206-3.253-10.095-3.687-1.89-8.207-.432-10.095 3.253-4.101 8.002-6.269 17.012-6.269 26.058 0 18.529 8.863 35.021 22.565 45.481-3.642 2.839-5.998 7.254-5.998 12.219v17.133c0 8.547 6.953 15.5 15.5 15.5h1.066v18.133h-316.333v-18.133h1.067c8.547 0 15.5-6.953 15.5-15.5v-17.135c0-4.965-2.356-9.381-5.998-12.219 13.702-10.46 22.565-26.951 22.565-45.481 0-31.54-25.66-57.2-57.2-57.2s-57.2 25.66-57.2 57.2c0 18.529 8.863 35.021 22.564 45.48-3.642 2.839-5.998 7.254-5.998 12.219v17.133c0 8.547 6.953 15.5 15.5 15.5h1.067v18.133h-34.2c-8.547 0-15.5 6.953-15.5 15.5v50.267c0 8.547 6.953 15.5 15.5 15.5h34.2v34.7h-34.2c-8.547 0-15.5 6.953-15.5 15.5v50.268c0 8.547 6.953 15.5 15.5 15.5h34.2v35.483c0 4.142 3.358 7.5 7.5 7.5s7.5-3.358 7.5-7.5v-35.483h18.133v100.967h-18.133v-35.484c0-4.142-3.358-7.5-7.5-7.5s-7.5 3.358-7.5 7.5v35.484h-9.35c-8.547 0-15.5 6.953-15.5 15.5v17.133c0 8.547 6.953 15.5 15.5 15.5h66.833c8.547 0 15.5-6.953 15.5-15.5v-17.133c0-8.547-6.953-15.5-15.5-15.5h-9.35v-100.967h316.333v100.967h-9.35c-8.547 0-15.5 6.953-15.5 15.5v17.133c0 8.547 6.953 15.5 15.5 15.5h66.833c8.547 0 15.5-6.953 15.5-15.5v-17.133c0-8.547-6.953-15.5-15.5-15.5h-9.35v-100.967h34.2c8.547 0 15.5-6.953 15.5-15.5v-50.267c0-8.547-6.953-15.5-15.5-15.5h-34.2v-34.7zm-388.817 232.434v17.133c0 .276-.224.5-.5.5h-66.833c-.276 0-.5-.224-.5-.5v-17.133c0-.276.224-.5.5-.5h66.833c.276 0 .5.224.5.5zm389.317-298.2v50.267c0 .276-.224.5-.5.5h-46.132l25.633-51.267h20.499c.276 0 .5.224.5.5zm-162.598 166.733 25.633-51.267h49.497l-25.634 51.267zm79.764-66.267h-316.333v-34.7h316.333zm-195.731 66.267 25.633-51.267h49.497l-25.633 51.267zm-115.967 0 25.633-51.267h49.497l-25.633 51.267zm-49.699 0 25.633-51.267h32.93l-25.634 51.267zm124.829-167.233-25.633 51.267h-49.497l25.633-51.267zm115.967 0-25.633 51.267h-49.497l25.633-51.267zm115.966 0-25.633 51.267h-49.497l25.633-51.267zm-8.863 51.266 25.633-51.267h32.93l-25.633 51.267zm11.932-99.9v-17.133c0-.276.224-.5.5-.5h50.267c.276 0 .5.224.5.5v17.133c0 .276-.224.5-.5.5h-50.267c-.276 0-.5-.224-.5-.5zm34.7 15.5v18.133h-18.133v-18.133zm-104.035 33.134-25.633 51.267h-32.929l25.633-51.267zm-115.967 0-25.633 51.267h-32.929l25.633-51.267zm-141.6 51.266h-32.93l25.633-51.267h32.93zm-54.131-174.733c0-23.269 18.931-42.2 42.2-42.2s42.2 18.931 42.2 42.2-18.931 42.2-42.2 42.2-42.2-18.931-42.2-42.2zm16.566 74.833v-17.133c0-.276.224-.5.5-.5h50.267c.276 0 .5.224.5.5v17.133c0 .276-.224.5-.5.5h-50.267c-.276 0-.5-.224-.5-.5zm16.567 15.5h18.133v18.133h-18.133zm-49.7 83.9v-50.267c0-.276.224-.5.5-.5h46.132l-25.633 51.267h-20.499c-.276 0-.5-.224-.5-.5zm49.7 15.5h18.133v34.7h-18.133zm-49.7 100.467v-50.267c0-.276.224-.5.5-.5h46.132l-25.634 51.267h-20.498c-.276 0-.5-.224-.5-.5zm153.735.5 25.633-51.267h32.929l-25.632 51.267zm115.967 0 25.633-51.267h32.929l-25.633 51.267zm141.6-51.267h32.93l-25.634 51.267h-32.93zm45.848 182.734v17.133c0 .276-.224.5-.5.5h-66.833c-.276 0-.5-.224-.5-.5v-17.133c0-.276.224-.5.5-.5h66.833c.276 0 .5.224.5.5zm-24.85-15.5h-18.133v-100.967h18.133zm49.7-166.734v50.267c0 .276-.224.5-.5.5h-46.132l25.633-51.267h20.499c.276 0 .5.224.5.5zm-49.7-15.5h-18.133v-34.7h18.133z"/></g></g></svg>