<svg id="Capa_1" enable-background="new 0 0 512 512" height="512" viewBox="0 0 512 512" width="512" xmlns="http://www.w3.org/2000/svg"><g><g><path d="m163.75 133.25h184.5v77.75h-184.5z" fill="#c3bec6"/><path d="m173.167 211h165.667v205.967h-165.667z" fill="#f4f2f4"/><path d="m206.3 416.967v-144.4c0-9.15 7.417-16.567 16.567-16.567s16.567 7.417 16.567 16.567v144.4z" fill="#c3bec6"/><path d="m305.7 416.967v-144.4c0-9.15-7.417-16.567-16.567-16.567-9.149 0-16.567 7.417-16.567 16.567v144.4z" fill="#c3bec6"/><path d="m315.833 211h23v205.967h-23z" fill="#e2dfe2"/><path d="m355.4 444.333h-198.8v-31.233c0-4.418 3.582-8 8-8h182.8c4.418 0 8 3.582 8 8z" fill="#e2dfe2"/><path d="m347.4 405.1h-23c4.418 0 8 3.582 8 8v31.233h23v-31.233c0-4.418-3.582-8-8-8z" fill="#d3ced5"/><path d="m156.6 29.667h198.8v55.067h-198.8z" fill="#e2dfe2"/><path d="m332.4 29.783h23v54.833h-23z" fill="#d3ced5"/><path d="m372.533 504.5h-233.066c-8.837 0-16-7.163-16-16v-34.267c0-8.837 7.163-16 16-16h233.067c8.837 0 16 7.163 16 16v34.267c-.001 8.837-7.164 16-16.001 16z" fill="#f4f2f4"/><path d="m338.833 222.867c9.15 0 16.567-7.417 16.567-16.567 0-9.149-7.417-16.567-16.567-16.567h-165.666c-9.15 0-16.567 7.417-16.567 16.567s7.417 16.567 16.567 16.567z" fill="#e2dfe2"/><path d="m371.967 24.067c0 9.15-7.417 16.567-16.567 16.567h-198.8c-9.15 0-16.567-7.417-16.567-16.567v-8.283c0-4.575 3.709-8.283 8.283-8.283h215.367c4.575 0 8.283 3.709 8.283 8.283v8.283z" fill="#f4f2f4"/><path d="m186.003 162.007c-9.383 26.706-35.39 45.587-65.604 44.224-33.973-1.532-61.564-29.096-63.127-63.068-1.749-38.021 28.559-69.396 66.195-69.396h264.079c36.419 0 66.776 28.97 67.249 65.387.48 37.001-29.37 67.147-66.261 67.147-28.91 0-53.496-18.513-62.55-44.331-1.126-3.211-4.143-5.369-7.545-5.369h-124.875c-3.417 0-6.428 2.181-7.561 5.406z" fill="#d0d9e2"/><path d="m186.003 162.007c-9.383 26.706-35.39 45.587-65.604 44.224-33.973-1.532-61.564-29.096-63.127-63.068-1.749-38.021 28.559-69.396 66.195-69.396h264.079c36.419 0 66.776 28.97 67.249 65.387.48 37.001-29.37 67.147-66.261 67.147-28.91 0-53.496-18.513-62.55-44.331-1.126-3.211-4.143-5.369-7.545-5.369h-124.875c-3.417 0-6.428 2.181-7.561 5.406z" fill="#f4f2f4"/><g fill="#e2dfe2"><path d="m387.545 73.767h-23c36.419 0 66.776 28.97 67.249 65.387.429 33.074-23.381 60.65-54.785 66.136 3.744.657 7.592 1.011 11.524 1.011 36.891 0 66.741-30.145 66.261-67.147-.472-36.417-30.829-65.387-67.249-65.387z"/><path d="m363.683 7.5h-23c4.575 0 8.283 3.709 8.283 8.283v8.283c0 9.15-7.417 16.567-16.567 16.567h23c9.15 0 16.567-7.417 16.567-16.567v-8.283c.001-4.574-3.708-8.283-8.283-8.283z"/><path d="m372.533 438.233h-23c8.837 0 16 7.163 16 16v34.267c0 8.836-7.163 16-16 16h23c8.837 0 16-7.164 16-16v-34.267c0-8.836-7.163-16-16-16z"/></g><path d="m338.833 189.733h-23c9.15 0 16.567 7.417 16.567 16.567s-7.417 16.567-16.567 16.567h23c9.15 0 16.567-7.417 16.567-16.567 0-9.149-7.417-16.567-16.567-16.567z" fill="#d3ced5"/><ellipse cx="123.467" cy="140.033" fill="#e2dfe2" rx="33.133" ry="33.133" transform="matrix(.707 -.707 .707 .707 -62.856 128.319)"/><ellipse cx="388.533" cy="140.033" fill="#e2dfe2" rx="33.133" ry="33.133" transform="matrix(.203 -.979 .979 .203 172.501 492.024)"/></g><g><path d="m362.727 209.139c8.082 3.015 16.787 4.661 25.806 4.661 40.675 0 73.767-33.091 73.767-73.767s-33.092-73.767-73.767-73.767h-25.633v-19.336c9.608-3.16 16.566-12.212 16.566-22.864v-8.284c.001-8.702-7.079-15.782-15.782-15.782h-149.884c-4.142 0-7.5 3.358-7.5 7.5s3.358 7.5 7.5 7.5h149.884c.432 0 .783.352.783.783v8.284c0 4.999-4.067 9.066-9.066 9.066h-198.801c-4.999 0-9.067-4.067-9.067-9.066v-8.284c0-.432.352-.783.784-.783h35.483c4.142 0 7.5-3.358 7.5-7.5s-3.358-7.5-7.5-7.5h-35.483c-8.703 0-15.784 7.08-15.784 15.783v8.284c0 10.652 6.959 19.704 16.567 22.864v19.336h-25.633c-40.675 0-73.767 33.091-73.767 73.767s33.091 73.766 73.767 73.766c9.019 0 17.724-1.646 25.806-4.661 1.11 9.397 7.652 17.15 16.393 20.025v20.904c0 4.142 3.358 7.5 7.5 7.5s7.5-3.358 7.5-7.5v-19.701h150.667v167.233h-18.133v-125.033c0-13.27-10.797-24.067-24.067-24.067-13.271 0-24.066 10.796-24.066 24.067v125.033h-18.133v-125.033c0-13.27-10.796-24.067-24.066-24.067s-24.067 10.796-24.067 24.067v125.033h-18.133v-117.533c0-4.142-3.358-7.5-7.5-7.5s-7.5 3.358-7.5 7.5v117.533h-1.068c-8.547 0-15.5 6.953-15.5 15.5v17.633h-9.633c-12.958 0-23.5 10.542-23.5 23.5v34.267c0 12.958 10.542 23.5 23.5 23.5h233.066c12.958 0 23.5-10.542 23.5-23.5v-34.267c0-12.958-10.542-23.5-23.5-23.5h-9.633v-17.633c0-8.547-6.953-15.5-15.5-15.5h-1.067v-168.436c8.742-2.875 15.284-10.628 16.394-20.025zm-82.661 63.428c0-4.999 4.068-9.067 9.066-9.067 5 0 9.067 4.067 9.067 9.067v125.033h-18.134v-125.033zm-66.266 0c0-4.999 4.067-9.067 9.067-9.067 4.999 0 9.066 4.067 9.066 9.067v125.033h-18.133zm167.233 181.666v34.267c0 4.687-3.814 8.5-8.5 8.5h-9.633v-9.067c0-4.142-3.357-7.5-7.5-7.5s-7.5 3.358-7.5 7.5v9.067h-34.7v-9.067c0-4.142-3.357-7.5-7.5-7.5s-7.5 3.358-7.5 7.5v9.067h-34.7v-9.067c0-4.142-3.357-7.5-7.5-7.5-4.142 0-7.5 3.358-7.5 7.5v9.067h-34.7v-9.067c0-4.142-3.358-7.5-7.5-7.5s-7.5 3.358-7.5 7.5v9.067h-34.7v-9.067c0-4.142-3.358-7.5-7.5-7.5s-7.5 3.358-7.5 7.5v9.067h-9.633c-4.687 0-8.5-3.813-8.5-8.5v-34.267c0-4.687 3.813-8.5 8.5-8.5h233.066c4.687 0 8.5 3.813 8.5 8.5zm-33.133-41.133v17.633h-183.8v-17.633c0-.276.224-.5.5-.5h8.566 165.667 8.567c.276 0 .5.224.5.5zm-183.8-364.967h183.8v18.133h-183.8zm-99.4 91.9c0-32.404 26.363-58.767 58.767-58.767h265.066c32.404 0 58.767 26.363 58.767 58.767s-26.362 58.767-58.767 58.767c-26.832 0-50.237-18.122-56.915-44.069-1.032-4.011-5.118-6.431-9.133-5.394-4.012 1.032-6.427 5.121-5.395 9.133 2.242 8.709 5.996 16.706 10.919 23.763h-144.019c4.923-7.058 8.677-15.055 10.918-23.763 1.033-4.012-1.382-8.101-5.394-9.133-4.011-1.032-8.101 1.382-9.133 5.394-6.679 25.947-30.083 44.069-56.916 44.069-32.402 0-58.765-26.363-58.765-58.767zm108.466 75.334c-4.999 0-9.066-4.067-9.066-9.067 0-4.999 4.067-9.066 9.066-9.066h165.667c5 0 9.067 4.067 9.067 9.066s-4.067 9.067-9.067 9.067z"/><path d="m357.034 114.4c-5.705 6.998-9.134 15.922-9.134 25.633 0 22.405 18.227 40.633 40.633 40.633s40.634-18.228 40.634-40.633-18.228-40.633-40.634-40.633h-265.066c-22.405 0-40.633 18.228-40.633 40.633s18.228 40.633 40.633 40.633 40.633-18.228 40.633-40.633c0-9.712-3.429-18.635-9.134-25.633zm57.133 25.633c0 14.134-11.499 25.633-25.634 25.633-14.134 0-25.633-11.499-25.633-25.633s11.499-25.633 25.633-25.633c14.135 0 25.634 11.499 25.634 25.633zm-265.067 0c0 14.134-11.499 25.633-25.633 25.633s-25.633-11.499-25.633-25.633 11.499-25.633 25.633-25.633 25.633 11.499 25.633 25.633z"/><path d="m222.867 128.392c-4.142 0-7.5 3.358-7.5 7.5v8.283c0 4.142 3.358 7.5 7.5 7.5s7.5-3.358 7.5-7.5v-8.283c0-4.142-3.358-7.5-7.5-7.5z"/><path d="m256 128.392c-4.142 0-7.5 3.358-7.5 7.5v8.283c0 4.142 3.358 7.5 7.5 7.5 4.143 0 7.5-3.358 7.5-7.5v-8.283c0-4.142-3.357-7.5-7.5-7.5z"/><path d="m289.133 128.392c-4.143 0-7.5 3.358-7.5 7.5v8.283c0 4.142 3.357 7.5 7.5 7.5s7.5-3.358 7.5-7.5v-8.283c0-4.142-3.358-7.5-7.5-7.5z"/><path d="m123.467 151.675c4.142 0 7.5-3.358 7.5-7.5v-8.283c0-4.142-3.358-7.5-7.5-7.5s-7.5 3.358-7.5 7.5v8.283c0 4.142 3.358 7.5 7.5 7.5z"/><path d="m381.033 135.892v8.283c0 4.142 3.357 7.5 7.5 7.5s7.5-3.358 7.5-7.5v-8.283c0-4.142-3.357-7.5-7.5-7.5s-7.5 3.358-7.5 7.5z"/></g></g></svg>