<svg id="Capa_1" enable-background="new 0 0 512 512" height="512" viewBox="0 0 512 512" width="512" xmlns="http://www.w3.org/2000/svg"><g><g><path d="m231.15 232.334h49.7v47.335h-49.7z" fill="#35414e"/><g><path d="m90.334 433.234h-33.134v63.266c0 4.418 3.582 8 8 8h17.133c4.418 0 8-3.582 8-8v-63.266z" fill="#f4f2f4"/><path d="m454.8 433.234h-33.133v63.266c0 4.418 3.582 8 8 8h17.133c4.418 0 8-3.582 8-8z" fill="#f4f2f4"/><path d="m479.933 438.234h-447.866c-4.418 0-8-3.582-8-8v-129.533h463.866v129.533c0 4.418-3.582 8-8 8z" fill="#eaa96a"/><path d="m464.933 300.701v129.533c0 4.418-3.582 8-8 8h23c4.418 0 8-3.582 8-8v-129.533z" fill="#e5935d"/><path d="m187.333 338.834h137.333v66.267h-137.333z" fill="#cb835d"/><path d="m496.5 305.701h-481c-4.418 0-8-3.582-8-8v-17.133c0-4.418 3.582-8 8-8h481c4.418 0 8 3.582 8 8v17.133c0 4.418-3.582 8-8 8z" fill="#efd27c"/><path d="m496.5 272.568h-23c4.418 0 8 3.582 8 8v17.133c0 4.418-3.582 8-8 8h23c4.418 0 8-3.582 8-8v-17.133c0-4.418-3.582-8-8-8z" fill="#eabc73"/><path d="m299.267 338.834h23v66.267h-23z" fill="#be7558"/><path d="m189.733 405.101h-124.533c-4.418 0-8-3.582-8-8v-50.267c0-4.418 3.582-8 8-8h124.533z" fill="#efd27c"/><path d="m446.8 405.101h-124.533v-66.267h124.533c4.418 0 8 3.582 8 8v50.267c0 4.418-3.582 8-8 8z" fill="#efd27c"/><path d="m446.8 338.834h-23c4.418 0 8 3.582 8 8v50.267c0 4.418-3.582 8-8 8h23c4.418 0 8-3.582 8-8v-50.267c0-4.418-3.582-8-8-8z" fill="#eabc73"/></g><g><path d="m421.664 209.501v-185.434c0-9.149-7.417-16.566-16.567-16.566h-298.195c-9.15 0-16.567 7.417-16.567 16.566v185.434z" fill="#4c5e71"/><path d="m398.664 24.067v185.434h23v-185.434c0-9.149-7.417-16.566-16.567-16.566h-23c9.15-.001 16.567 7.416 16.567 16.566z" fill="#3c4958"/><path d="m421.664 222.869v-16.568h-331.329v16.568c0 9.15 7.417 16.567 16.567 16.567h298.196c9.149 0 16.566-7.417 16.566-16.567z" fill="#f4f2f4"/><path d="m398.656 206.301v16.568c0 9.15-7.417 16.567-16.567 16.567h23.008c9.149 0 16.567-7.417 16.567-16.567v-16.568z" fill="#e2dfe2"/><path d="m123.467 206.301v-157.383c0-4.575 3.708-8.283 8.283-8.283h248.5c4.575 0 8.283 3.709 8.283 8.283v157.383z" fill="#a7ccf9"/><path d="m380.25 40.635h-23.142c4.575 0 8.283 3.709 8.283 8.283v157.383h23.142v-157.383c0-4.575-3.708-8.283-8.283-8.283z" fill="#8cbdf9"/></g></g><g><path d="m496.5 265.068h-208.15v-18.132h116.748c13.27 0 24.066-10.796 24.066-24.067v-198.802c0-13.271-10.796-24.067-24.066-24.067h-217.566c-4.143 0-7.5 3.358-7.5 7.5s3.357 7.5 7.5 7.5h217.566c4.999 0 9.066 4.067 9.066 9.067v174.734h-18.131v-149.883c0-8.703-7.08-15.783-15.783-15.783h-248.5c-8.703 0-15.783 7.081-15.783 15.783v149.883h-18.132v-174.734c0-5 4.067-9.067 9.066-9.067h50.631c4.143 0 7.5-3.358 7.5-7.5s-3.357-7.5-7.5-7.5h-50.631c-13.27 0-24.066 10.796-24.066 24.067v198.802c0 13.271 10.796 24.067 24.066 24.067h116.749v18.132h-151.45c-4.143 0-7.5 3.358-7.5 7.5s3.357 7.5 7.5 7.5h424.3c.275 0 .5.224.5.5v17.133c0 .276-.225.5-.5.5h-481c-.275 0-.5-.224-.5-.5v-17.133c0-.276.225-.5.5-.5h26.699c4.143 0 7.5-3.358 7.5-7.5s-3.357-7.5-7.5-7.5h-26.699c-8.547 0-15.5 6.953-15.5 15.5v17.133c0 8.547 6.953 15.5 15.5 15.5h1.067v117.033c0 8.547 6.953 15.5 15.5 15.5h17.633v50.766c0 8.547 6.953 15.5 15.5 15.5h17.134c8.547 0 15.5-6.953 15.5-15.5v-50.766h316.332v50.766c0 8.547 6.953 15.5 15.5 15.5h17.134c8.547 0 15.5-6.953 15.5-15.5v-50.766h17.633c8.547 0 15.5-6.953 15.5-15.5v-117.033h1.067c8.547 0 15.5-6.953 15.5-15.5v-17.133c0-8.547-6.953-15.5-15.5-15.5zm-365.533-216.15c0-.432.352-.783.783-.783h248.5c.432 0 .783.351.783.783v149.883h-250.066zm-33.132 173.951v-9.068h316.329v9.068c0 4.999-4.067 9.067-9.066 9.067h-298.197c-4.999 0-9.066-4.067-9.066-9.067zm140.815 42.199v-18.132h34.699v18.132zm-156.316 231.932h-17.134c-.275 0-.5-.224-.5-.5v-17.633h18.134v17.633c0 .276-.225.5-.5.5zm.5-33.133h-18.134v-18.133h18.134zm363.966 33.133h-17.134c-.275 0-.5-.224-.5-.5v-17.633h18.134v17.633c0 .276-.225.5-.5.5zm.5-33.133h-18.134v-18.133h18.134zm33.133-33.633c0 .276-.225.5-.5.5h-447.866c-.275 0-.5-.224-.5-.5v-117.033h448.865v117.033z"/><path d="m65.2 412.601h381.6c8.547 0 15.5-6.953 15.5-15.5v-50.267c0-8.547-6.953-15.5-15.5-15.5h-381.6c-8.547 0-15.5 6.953-15.5 15.5v50.267c0 8.547 6.953 15.5 15.5 15.5zm382.1-65.766v50.267c0 .276-.225.5-.5.5h-117.033v-51.267h117.033c.275 0 .5.224.5.5zm-132.533 50.766h-117.534v-51.267h117.533v51.267zm-250.067-50.766c0-.276.225-.5.5-.5h117.033v51.267h-117.033c-.275 0-.5-.224-.5-.5z"/><path d="m119.325 379.468h8.283c4.143 0 7.5-3.358 7.5-7.5s-3.357-7.5-7.5-7.5h-8.283c-4.143 0-7.5 3.358-7.5 7.5s3.358 7.5 7.5 7.5z"/><path d="m384.392 379.468h8.283c4.143 0 7.5-3.358 7.5-7.5s-3.357-7.5-7.5-7.5h-8.283c-4.143 0-7.5 3.358-7.5 7.5s3.357 7.5 7.5 7.5z"/></g></g></svg>