<svg id="Capa_1" enable-background="new 0 0 512 512" height="512" viewBox="0 0 512 512" width="512" xmlns="http://www.w3.org/2000/svg"><g><g><path d="m355.4 173.167c0-16.11-11.497-29.535-26.734-32.516-3.729-.73-6.399-4.031-6.399-7.831v-25.92c0-16.11-11.497-29.535-26.734-32.516-3.729-.73-6.399-4.031-6.399-7.831v-25.92c-.001-18.299-14.835-33.133-33.134-33.133h-33.133c-18.299 0-33.133 14.834-33.133 33.133v25.133c0 4.418-3.582 8-8 8h-8.567c-18.299 0-33.133 14.834-33.133 33.133v25.133c0 4.418-3.582 8-8 8h-8.567c-18.299 0-33.133 14.834-33.133 33.133v39.335h265.066z" fill="#eaa96a"/><path d="m328.665 140.651c-3.729-.73-6.399-4.031-6.399-7.831v-25.92c0-16.11-11.498-29.535-26.734-32.516-3.729-.73-6.399-4.031-6.399-7.831v-25.92c0-18.299-14.834-33.133-33.133-33.133h-23c18.299 0 33.133 14.834 33.133 33.133v25.92c0 3.8 2.669 7.101 6.399 7.831 15.237 2.981 26.734 16.406 26.734 32.516v25.92c0 3.8 2.669 7.101 6.399 7.831 15.237 2.981 26.734 16.406 26.734 32.516v39.333h23v-39.333c.001-16.11-11.497-29.535-26.734-32.516z" fill="#e5935d"/><ellipse cx="73.767" cy="438.233" fill="#4c5e71" rx="66.267" ry="66.267" transform="matrix(.707 -.707 .707 .707 -288.272 180.517)"/><path d="m73.767 371.967c-3.925 0-7.763.361-11.5 1.015 31.113 5.447 54.767 32.578 54.767 65.252s-23.653 59.804-54.767 65.252c3.737.654 7.575 1.015 11.5 1.015 36.598 0 66.267-29.669 66.267-66.267-.001-36.599-29.669-66.267-66.267-66.267z" fill="#3c4958"/><path d="m73.767 421.667c-9.149 0-16.567 7.417-16.567 16.567s7.417 16.566 16.567 16.566l221.339.002c2.81 0 5.414 1.474 6.86 3.884l25.076 41.793c1.497 2.495 4.193 4.022 7.103 4.022h79.24c4.575 0 8.283-3.709 8.283-8.283v-93.468h-33.133v60.333c0 4.575-3.708 8.283-8.283 8.283h-27.347c-2.91 0-5.606-1.527-7.103-4.022l-27.409-45.681z" fill="#f4f2f4"/><g fill="#e2dfe2"><path d="m322.8 467.345c1.497 2.495 4.193 4.022 7.103 4.022h23c-2.91 0-5.606-1.527-7.103-4.022l-27.409-45.681h-23z"/><path d="m398.667 402.75v93.467c0 4.575-3.709 8.283-8.283 8.283h23c4.575 0 8.283-3.709 8.283-8.283v-93.467z"/></g><path d="m439.5 123.467h-34.4c-9.15 0-16.567 7.417-16.567 16.567v78.633h33.133v-53.783c0-4.575 3.709-8.283 8.283-8.283h9.55v-33.134z" fill="#f4f2f4"/><path d="m496.217 123.467h-57.983v33.133h57.983c4.575 0 8.283-3.709 8.283-8.283v-16.567c0-4.575-3.708-8.283-8.283-8.283z" fill="#eaa96a"/><path d="m496.217 123.467h-23c4.575 0 8.283 3.709 8.283 8.283v16.567c0 4.575-3.708 8.283-8.283 8.283h23c4.575 0 8.283-3.709 8.283-8.283v-16.567c0-4.575-3.708-8.283-8.283-8.283z" fill="#e5935d"/><path d="m73.767 206.3c-9.338 0-16.871 7.726-16.557 17.134.3 8.999 7.987 15.999 16.991 15.999h10.345c3.102 0 5.924 1.793 7.242 4.6l64.328 137.019c10.331 24.606 34.413 40.614 61.1 40.614h196.452c4.418 0 8-3.582 8-8v-207.366z" fill="#dd636e"/><path d="m398.667 206.3v207.367c0 4.418-3.582 8-8 8h23c4.418 0 8-3.582 8-8v-207.367z" fill="#da4a54"/><path d="m330.267 355.4h50.267c4.418 0 8 3.582 8 8v17.133c0 4.418-3.582 8-8 8h-50.267c-4.418 0-8-3.582-8-8v-17.133c0-4.418 3.581-8 8-8z" fill="#f4f2f4"/><path d="m380.533 355.4h-23c4.418 0 8 3.582 8 8v17.133c0 4.418-3.582 8-8 8h23c4.418 0 8-3.582 8-8v-17.133c0-4.418-3.581-8-8-8z" fill="#e2dfe2"/></g><g><path d="m496.217 115.967h-91.117c-13.271 0-24.066 10.796-24.066 24.066v58.767h-18.134v-25.633c0-19.842-14.3-36.398-33.134-39.928v-26.339c0-19.842-14.301-36.398-33.134-39.928v-26.339c.001-22.405-18.227-40.633-40.632-40.633h-33.133c-22.405 0-40.634 18.228-40.634 40.633v25.633h-9.066c-22.405 0-40.634 18.228-40.634 40.633v25.633h-9.066c-22.405 0-40.634 18.228-40.634 40.633v25.635h-9.066c-6.547 0-12.895 2.718-17.415 7.456-4.585 4.806-6.938 11.115-6.624 17.765.605 12.848 11.37 22.913 24.507 22.913h10.627l64.4 137.17c5.141 12.174 13.271 22.424 23.323 30.062h-29.073c-10.159-29.537-38.043-49.699-69.746-49.699-40.674 0-73.766 33.092-73.766 73.766s33.092 73.767 73.767 73.767c31.701 0 59.586-20.163 69.745-49.7l151.877.001 25.221 42.036c2.836 4.727 8.022 7.663 13.534 7.663h79.239c8.703 0 15.784-7.081 15.784-15.783v-74.55-256.784c0-.432.352-.783.783-.783h66.267c8.703 0 15.783-7.081 15.783-15.783v-16.567c0-8.703-7.08-15.783-15.783-15.783zm-398.384 57.2c0-14.134 11.499-25.633 25.634-25.633h49.7c4.143 0 7.5-3.358 7.5-7.5s-3.357-7.5-7.5-7.5h-25.634v-25.634c0-14.134 11.499-25.633 25.634-25.633h49.7c4.143 0 7.5-3.358 7.5-7.5s-3.357-7.5-7.5-7.5h-25.634v-25.634c0-14.134 11.499-25.633 25.634-25.633h33.133c14.134 0 25.633 11.499 25.633 25.633v25.633h-25.633c-4.143 0-7.5 3.358-7.5 7.5s3.357 7.5 7.5 7.5h33.133c14.135 0 25.634 11.499 25.634 25.633v25.633h-108.467c-4.143 0-7.5 3.358-7.5 7.5s3.357 7.5 7.5 7.5h115.967c14.135 0 25.634 11.499 25.634 25.633v25.635h-250.068zm65.197 204.982c-.04-.095-.082-.19-.126-.284l-61.472-130.932h38.601c4.143 0 7.5-3.358 7.5-7.5s-3.357-7.5-7.5-7.5h-65.799c-5.027 0-9.3-3.866-9.524-8.619-.118-2.514.768-4.895 2.494-6.705 1.729-1.812 4.06-2.81 6.562-2.81h340.4v18.133h-241c-4.143 0-7.5 3.358-7.5 7.5s3.357 7.5 7.5 7.5h241v167.233l-197.045-.002c-23.692-.035-44.917-14.163-54.091-36.014zm218.003 51.018v33.917c0 .432-.352.783-.783.783h-27.348c-.273 0-.53-.146-.671-.38l-20.591-34.32zm-307.266 67.833c-32.405 0-58.767-26.363-58.767-58.767s26.362-58.767 58.767-58.767c23.469 0 44.314 13.863 53.64 34.699l-53.64.001c-13.271 0-24.066 10.796-24.066 24.067 0 13.27 10.796 24.066 24.066 24.066h53.64c-9.326 20.838-30.172 34.701-53.64 34.701zm340.4-.783c0 .432-.352.783-.784.783h-79.239c-.273 0-.53-.146-.671-.38l-27.406-45.677c-1.355-2.259-3.797-3.641-6.432-3.641l-225.868-.002c-4.999 0-9.066-4.067-9.066-9.066 0-5 4.067-9.067 9.066-9.067h240.381l25.222 42.038c2.836 4.726 8.021 7.662 13.533 7.662h27.348c8.703 0 15.783-7.08 15.783-15.783v-33.917h18.134v67.05zm0-331.334v33.917h-18.134v-58.767c0-4.999 4.067-9.066 9.066-9.066h25.634v18.133h-.783c-8.703 0-15.783 7.08-15.783 15.783zm82.833-16.566c0 .432-.352.783-.783.783h-50.483v-18.133h50.483c.432 0 .783.352.783.783z"/><path d="m330.267 396.033h50.267c8.547 0 15.5-6.953 15.5-15.5v-17.133c0-8.547-6.953-15.5-15.5-15.5h-50.267c-8.547 0-15.5 6.953-15.5 15.5v17.133c0 8.547 6.953 15.5 15.5 15.5zm-.5-32.633c0-.276.225-.5.5-.5h50.267c.275 0 .5.224.5.5v17.133c0 .276-.225.5-.5.5h-50.267c-.275 0-.5-.224-.5-.5z"/></g></g></svg>