<svg id="Capa_1" enable-background="new 0 0 512 512" height="512" viewBox="0 0 512 512" width="512" xmlns="http://www.w3.org/2000/svg"><g><g><g><path d="m239.433 471.369-8.283-33.134v-8.066h41.417v46h-32.917z" fill="#e2dfe2"/><path d="m140.033 471.369 8.284-33.134v-8.066h-41.417v46h32.917z" fill="#e2dfe2"/><path d="m116.466 381h146.534v57.233h-146.534z" fill="#cb835d"/><path d="m233 381h30v57.233h-30z" fill="#be7558"/><path d="m90.333 352.333v-162.6c0-18.299 14.834-33.133 33.133-33.133h132.534c18.299 0 33.133 14.834 33.133 33.133v162.6z" fill="#cb835d"/><path d="m240 239.433h-100.533c-8.837 0-16-7.163-16-16v-17.7c0-8.837 7.163-16 16-16h100.533c8.837 0 16 7.163 16 16v17.7c0 8.837-7.163 16-16 16z" fill="#eaa96a"/><path d="m256 156.6h-23c18.299 0 33.133 14.834 33.133 33.133v162.6h23v-162.6c0-18.299-14.834-33.133-33.133-33.133z" fill="#be7558"/><path d="m240 189.733h-23c8.836 0 16 7.163 16 16v17.7c0 8.837-7.164 16-16 16h23c8.836 0 16-7.163 16-16v-17.7c0-8.836-7.164-16-16-16z" fill="#e5935d"/><path d="m123.467 305.7c0-28.091-23.306-50.739-51.636-49.663-25.759.978-46.749 21.967-47.727 47.727-.982 25.867 17.813 47.545 42.471 51.12 4.101.594 7.193 4.018 7.193 8.161v42.055c0 18.299 14.834 33.133 33.133 33.133h16.567v-132.533z" fill="#eaa96a"/><path d="m256 305.7c0-28.091 23.306-50.739 51.636-49.663 25.759.978 46.749 21.967 47.727 47.727.982 25.867-17.813 47.545-42.47 51.12-4.101.594-7.193 4.018-7.193 8.161v42.055c0 18.299-14.834 33.133-33.133 33.133h-16.567z" fill="#eaa96a"/><ellipse cx="73.767" cy="305.7" fill="#efd27c" rx="16.567" ry="16.567" transform="matrix(.095 -.996 .996 .095 -237.539 350.226)"/><ellipse cx="305.7" cy="305.7" fill="#efd27c" rx="16.567" ry="16.567" transform="matrix(.798 -.603 .603 .798 -122.481 245.981)"/><path d="m355.363 303.764c-.978-25.759-21.968-46.749-47.727-47.727-4.645-.176-9.15.296-13.444 1.314 21.213 5.079 37.316 23.927 38.171 46.412.983 25.867-17.812 47.545-42.471 51.12-4.101.594-7.193 4.017-7.193 8.161v42.056c0 16.097-11.481 29.508-26.7 32.504v.629h16.567c18.299 0 33.133-14.834 33.133-33.133v-42.055c0-4.144 3.092-7.567 7.193-8.161 24.659-3.575 43.454-25.253 42.471-51.12z" fill="#e5935d"/><path d="m71.83 256.037c-3.273.124-6.468.575-9.557 1.314 21.898 5.193 38.193 24.863 38.193 48.349v131.904c2.082.41 4.231.629 6.433.629h16.567v-132.533c.001-28.091-23.305-50.739-51.636-49.663z" fill="#e5935d"/><path d="m256.567 388.533h-133.667c-8.837 0-16-7.163-16-16v-17.7c0-8.836 7.163-16 16-16h133.667c8.836 0 16 7.164 16 16v17.7c0 8.837-7.164 16-16 16z" fill="#efd27c"/><path d="m256.567 338.833h-23c8.837 0 16 7.164 16 16v17.7c0 8.837-7.163 16-16 16h23c8.836 0 16-7.163 16-16v-17.7c0-8.836-7.164-16-16-16z" fill="#eabc73"/></g><g><g><path d="m396.817 128h33.133v322.267h-33.133z" fill="#f4f2f4"/><path d="m406.95 128h23v322.267h-23z" fill="#e2dfe2"/><path d="m471.367 478.867h-115.967v-32.633c0-4.418 3.582-8 8-8h99.967c4.418 0 8 3.582 8 8z" fill="#cb835d"/><path d="m477.953 140.033h-129.139c-5.186 0-9.097-4.712-8.141-9.81l21.744-115.967c.735-3.918 4.155-6.757 8.141-6.757h85.651c3.986 0 7.407 2.839 8.141 6.757l21.744 115.967c.956 5.098-2.955 9.81-8.141 9.81z" fill="#a7dda7"/><path d="m486.094 130.223-21.744-115.966c-.734-3.918-4.155-6.757-8.141-6.757h-23.155c3.986 0 7.407 2.839 8.141 6.757l21.744 115.967c.956 5.098-2.955 9.81-8.142 9.81h23.155c5.187-.001 9.098-4.713 8.142-9.811z" fill="#8ace9b"/></g><path d="m463.367 438.233h-23c4.418 0 8 3.582 8 8v32.633h23v-32.633c0-4.418-3.582-8-8-8z" fill="#be7558"/></g><g><path d="m273.133 123.467h-166.8c-8.837 0-16-7.163-16-16v-83.967c0-8.837 7.163-16 16-16h166.8c8.837 0 16 7.163 16 16v83.967c0 8.836-7.163 16-16 16z" fill="#eaa96a"/><path d="m248 90.333h-116.533c-4.418 0-8-3.582-8-8v-33.7c0-4.418 3.582-8 8-8h116.533c4.418 0 8 3.582 8 8v33.7c0 4.419-3.582 8-8 8z" fill="#a7ccf9"/><path d="m273.133 7.5h-23c8.837 0 16 7.163 16 16v83.967c0 8.837-7.163 16-16 16h23c8.837 0 16-7.163 16-16v-83.967c0-8.837-7.163-16-16-16z" fill="#e5935d"/><path d="m248 40.633h-23c4.418 0 8 3.582 8 8v33.7c0 4.418-3.582 8-8 8h23c4.418 0 8-3.582 8-8v-33.7c0-4.418-3.582-8-8-8z" fill="#8cbdf9"/></g><path d="m496.5 504.5h-481c-4.418 0-8-3.582-8-8v-17.133c0-4.418 3.582-8 8-8h481c4.418 0 8 3.582 8 8v17.133c0 4.418-3.582 8-8 8z" fill="#eaa96a"/><path d="m496.5 471.367h-23c4.418 0 8 3.582 8 8v17.133c0 4.418-3.582 8-8 8h23c4.418 0 8-3.582 8-8v-17.133c0-4.419-3.582-8-8-8z" fill="#e5935d"/></g><g><path d="m496.5 463.867h-17.633v-17.633c0-8.547-6.953-15.5-15.5-15.5h-25.917v-283.2h18.133v58.766c0 4.142 3.357 7.5 7.5 7.5s7.5-3.358 7.5-7.5v-58.767h7.369c4.711 0 9.138-2.079 12.147-5.704 3.008-3.624 4.234-8.358 3.366-12.988l-21.743-115.968c-1.4-7.459-7.924-12.873-15.513-12.873h-85.651c-7.589 0-14.113 5.414-15.513 12.875l-21.743 115.967c-.868 4.629.358 9.363 3.366 12.988 3.009 3.625 7.435 5.704 12.147 5.704h40.502v42.2c0 4.142 3.357 7.5 7.5 7.5s7.5-3.358 7.5-7.5v-42.2h18.134v283.2h-18.134v-211.001c0-4.142-3.357-7.5-7.5-7.5s-7.5 3.358-7.5 7.5v211.001h-25.917c-8.547 0-15.5 6.953-15.5 15.5v17.633h-67.834v-18.839c18.833-3.53 33.134-20.086 33.134-39.928v-42.056c0-.431.398-.685.769-.739 28.985-4.202 50.003-29.492 48.889-58.827-1.127-29.678-25.259-53.81-54.938-54.937-3.823-.145-7.598.089-11.287.672v-59.481c0-22.405-18.228-40.633-40.633-40.633h-132.533c-22.405 0-40.633 18.228-40.633 40.633v59.478c-3.687-.582-7.462-.815-11.288-.67-29.678 1.127-53.81 25.259-54.937 54.937-1.114 29.335 19.904 54.625 48.889 58.827.371.054.769.308.769.739v42.057c0 19.842 14.3 36.398 33.133 39.928v18.839h-83.9c-8.547 0-15.5 6.953-15.5 15.5v17.133c0 8.547 6.953 15.5 15.5 15.5h481c8.547 0 15.5-6.953 15.5-15.5v-17.133c0-8.547-6.953-15.5-15.5-15.5zm-126.713-448.227c.069-.371.394-.64.77-.64h85.651c.377 0 .7.269.77.639l15.706 83.761h-118.602zm-20.972 116.893c-.091 0-.368 0-.604-.283-.234-.283-.184-.555-.167-.644l3.226-17.206h124.227l3.226 17.206c.017.089.067.361-.167.644-.235.283-.513.283-.604.283zm14.085 313.7c0-.276.225-.5.5-.5h99.967c.275 0 .5.224.5.5v17.633h-100.967zm-240-99.899h133.667c4.687 0 8.499 3.813 8.499 8.5v17.7c0 4.687-3.812 8.5-8.499 8.5h-133.667c-4.687 0-8.5-3.813-8.5-8.5v-17.7c0-4.687 3.813-8.5 8.5-8.5zm8.067 49.699h117.533v34.7h-117.533zm94.327 49.7 4.533 18.133h-80.189l4.534-18.133zm15.462 0h15.244 9.066v18.133h-19.777zm66.595-182.202c21.889.832 39.687 18.629 40.519 40.517.822 21.65-14.678 40.314-36.053 43.413-7.89 1.144-13.616 7.698-13.616 15.583v42.056c0 14.134-11.499 25.633-25.634 25.633h-9.067v-35.745c9.584-2.965 16.566-11.91 16.566-22.455v-17.7c0-10.546-6.982-19.49-16.566-22.455v-26.678c0-11.576 4.594-22.374 12.936-30.405 8.336-8.026 19.324-12.201 30.915-11.764zm-209.518-73.798c0-14.134 11.499-25.633 25.633-25.633h132.534c14.134 0 25.633 11.499 25.633 25.633v64.059c-5.677 2.638-10.947 6.216-15.601 10.696-11.305 10.886-17.532 25.522-17.532 41.212v25.633h-117.533v-25.633c0-15.69-6.227-30.326-17.533-41.211-4.655-4.482-9.924-8.062-15.601-10.701zm-16.566 215.367v-42.056c0-7.885-5.727-14.439-13.616-15.583-21.376-3.099-36.875-21.762-36.052-43.413.832-21.888 18.629-39.685 40.517-40.517 11.598-.438 22.579 3.738 30.916 11.764 8.342 8.031 12.936 18.83 12.936 30.405v26.678c-9.584 2.965-16.567 11.91-16.567 22.455v17.7c0 10.546 6.983 19.49 16.567 22.455v35.745h-9.068c-14.134 0-25.633-11.499-25.633-25.633zm33.133 40.633h9.067 15.244l-4.534 18.133h-19.777zm382.6 50.767c0 .276-.225.5-.5.5h-481c-.276 0-.5-.224-.5-.5v-17.133c0-.276.224-.5.5-.5h481c.275 0 .5.224.5.5z"/><path d="m73.767 281.633c-13.27 0-24.066 10.796-24.066 24.067 0 13.27 10.796 24.066 24.066 24.066s24.067-10.796 24.067-24.066c-.001-13.27-10.797-24.067-24.067-24.067zm0 33.134c-4.999 0-9.066-4.067-9.066-9.066 0-5 4.067-9.067 9.066-9.067 5 0 9.067 4.067 9.067 9.067-.001 4.998-4.068 9.066-9.067 9.066z"/><path d="m305.7 329.767c13.271 0 24.066-10.796 24.066-24.066 0-13.271-10.796-24.067-24.066-24.067s-24.067 10.796-24.067 24.067c0 13.27 10.797 24.066 24.067 24.066zm0-33.134c4.999 0 9.066 4.067 9.066 9.067 0 4.999-4.067 9.066-9.066 9.066-5 0-9.067-4.067-9.067-9.066s4.067-9.067 9.067-9.067z"/><path d="m139.467 246.933h100.533c12.958 0 23.5-10.542 23.5-23.5v-17.7c0-12.958-10.542-23.5-23.5-23.5h-100.533c-12.958 0-23.5 10.542-23.5 23.5v17.7c0 12.958 10.542 23.5 23.5 23.5zm-8.5-41.2c0-4.687 3.813-8.5 8.5-8.5h100.533c4.687 0 8.5 3.813 8.5 8.5v17.7c0 4.687-3.813 8.5-8.5 8.5h-100.533c-4.687 0-8.5-3.813-8.5-8.5z"/><path d="m156.6 265.067h-8.283c-4.142 0-7.5 3.358-7.5 7.5s3.358 7.5 7.5 7.5h8.283c4.142 0 7.5-3.358 7.5-7.5s-3.358-7.5-7.5-7.5z"/><path d="m231.15 265.067h-8.283c-4.142 0-7.5 3.358-7.5 7.5s3.358 7.5 7.5 7.5h8.283c4.142 0 7.5-3.358 7.5-7.5s-3.358-7.5-7.5-7.5z"/><path d="m106.333 130.967h31.125c4.142 0 7.5-3.358 7.5-7.5s-3.358-7.5-7.5-7.5h-31.125c-4.687 0-8.5-3.813-8.5-8.5v-83.967c0-4.687 3.813-8.5 8.5-8.5h166.799c4.686 0 8.5 3.813 8.5 8.5v83.967c0 4.687-3.814 8.5-8.5 8.5h-105.674c-4.142 0-7.5 3.358-7.5 7.5s3.358 7.5 7.5 7.5h105.674c12.958 0 23.5-10.542 23.5-23.5v-83.967c0-12.958-10.542-23.5-23.5-23.5h-166.799c-12.958 0-23.5 10.542-23.5 23.5v83.967c0 12.958 10.542 23.5 23.5 23.5z"/><path d="m263.5 82.334v-33.7c0-8.547-6.953-15.5-15.5-15.5h-116.533c-8.547 0-15.5 6.953-15.5 15.5v33.7c0 8.547 6.953 15.5 15.5 15.5h116.533c8.547 0 15.5-6.954 15.5-15.5zm-132.533 0v-33.7c0-.276.224-.5.5-.5h116.533c.276 0 .5.224.5.5v33.7c0 .276-.224.5-.5.5h-116.533c-.276 0-.5-.225-.5-.5z"/></g></g></svg>