<svg id="Capa_1" enable-background="new 0 0 512 512" height="512" viewBox="0 0 512 512" width="512" xmlns="http://www.w3.org/2000/svg"><g><g><g><path d="m463.053 163.508h33.133v95.492h-33.133z" fill="#dd636e"/><path d="m473.186 163.508h23v95.492h-23z" fill="#da4a54"/></g><g><path d="m280.85 163.508h33.133v95.492h-33.133z" fill="#dd636e"/><path d="m290.983 163.508h23v95.492h-23z" fill="#da4a54"/></g><g><path d="m198.036 163.508h33.133v95.492h-33.133z" fill="#dd636e"/><path d="m208.169 163.508h23v95.492h-23z" fill="#da4a54"/></g><g><path d="m15.734 163.508h33.133v95.492h-33.133z" fill="#dd636e"/><path d="m25.867 163.508h23v95.492h-23z" fill="#da4a54"/></g><path d="m156.689 151.755c26.387 23.607 61.202 37.979 99.311 37.979 38.194 0 73.079-14.435 99.487-38.137l66.219.158c20.259 18.125 45.488 30.798 73.359 35.709 4.916.866 9.434-2.883 9.434-7.875v-17.443c0-3.787-2.652-7.079-6.365-7.825-32.405-6.511-59.971-26.562-76.507-53.988l-66.203-.061c-20.303 33.723-57.273 56.328-99.424 56.328-42.125 0-79.077-22.578-99.389-56.267l-66.301-.061c-16.516 27.431-44.062 47.495-76.451 54.03-3.71.748-6.358 4.039-6.358 7.824v17.446c0 4.994 4.522 8.744 9.441 7.874 27.911-4.938 53.168-17.662 73.431-35.849z" fill="#e2dfe2"/><g><path d="m355.4 285h66.267v91.1h-66.267z" fill="#dd636e"/><path d="m398.667 285h23v91.1h-23z" fill="#da4a54"/><path d="m438.233 410.1h-99.4v-30.133c0-4.418 3.582-8 8-8h83.4c4.418 0 8 3.582 8 8z" fill="#f4f2f4"/><path d="m430.233 371.967h-23c4.418 0 8 3.582 8 8v30.133h23v-30.133c0-4.419-3.581-8-8-8z" fill="#e2dfe2"/><path d="m355.4 68.767h66.267v192.233h-66.267z" fill="#dd636e"/><path d="m398.667 68.767h23v192.233h-23z" fill="#da4a54"/><path d="m430.233 73.767h-83.4c-4.418 0-8-3.582-8-8v-17.134c0-4.418 3.582-8 8-8h83.4c4.418 0 8 3.582 8 8v17.133c0 4.419-3.581 8.001-8 8.001z" fill="#f4f2f4"/><path d="m430.233 40.633h-23.067c4.418 0 8 3.582 8 8v17.133c0 4.418-3.582 8-8 8h23.067c4.418 0 8-3.582 8-8v-17.133c0-4.418-3.581-8-8-8z" fill="#e2dfe2"/></g><g><path d="m90.333 285h66.267v91.1h-66.267z" fill="#dd636e"/><path d="m133.6 285h23v91.1h-23z" fill="#da4a54"/><path d="m173.167 410.1h-99.4v-30.133c0-4.418 3.582-8 8-8h83.4c4.418 0 8 3.582 8 8z" fill="#f4f2f4"/><path d="m165.167 371.967h-23c4.418 0 8 3.582 8 8v30.133h23v-30.133c0-4.419-3.582-8-8-8z" fill="#e2dfe2"/><path d="m90.333 68.767h66.267v192.233h-66.267z" fill="#dd636e"/><path d="m133.6 68.767h23v192.233h-23z" fill="#da4a54"/><path d="m165.167 73.767h-83.4c-4.418 0-8-3.582-8-8v-17.134c0-4.418 3.582-8 8-8h83.4c4.418 0 8 3.582 8 8v17.133c0 4.419-3.582 8.001-8 8.001z" fill="#f4f2f4"/><path d="m165.167 40.633h-23.067c4.418 0 8 3.582 8 8v17.133c0 4.418-3.582 8-8 8h23.067c4.418 0 8-3.582 8-8v-17.133c0-4.418-3.582-8-8-8z" fill="#e2dfe2"/></g><path d="m496.5 289.133h-481c-4.418 0-8-3.582-8-8v-17.133c0-4.418 3.582-8 8-8h481c4.418 0 8 3.582 8 8v17.133c0 4.419-3.582 8-8 8z" fill="#f4f2f4"/><path d="m496.5 256h-23c4.418 0 8 3.582 8 8v17.133c0 4.418-3.582 8-8 8h23c4.418 0 8-3.582 8-8v-17.133c0-4.418-3.582-8-8-8z" fill="#e2dfe2"/><path d="m498.135 154.321c-7.061-1.419-13.892-3.481-20.43-6.122 2.307 1.419 3.795 3.977 3.795 6.814v24.576c0 1.659-.507 3.174-1.353 4.435 4.877 1.392 9.853 2.548 14.919 3.44 4.916.866 9.434-2.883 9.434-7.875v-17.443c0-3.787-2.652-7.079-6.365-7.825z" fill="#d3ced5"/><path d="m496.5 504.5h-165.95l-74.55-12.833-99.4 12.833h-141.1c-4.418 0-8-3.582-8-8v-83.4c0-4.418 3.582-8 8-8h41.651l198.849 17.65 198.77-17.65h41.73c4.418 0 8 3.582 8 8v83.4c0 4.418-3.582 8-8 8z" fill="#a6ccfb"/><g fill="#8cbdf9"><path d="m496.5 405.1h-23c4.418 0 8 3.582 8 8v83.4c0 4.418-3.582 8-8 8h23c4.418 0 8-3.582 8-8v-83.4c0-4.418-3.582-8-8-8z"/><path d="m454.77 405.1c9.15 0 16.567 7.417 16.567 16.567s-7.417 16.567-16.567 16.567h-140.787c-9.15 0-16.567 7.417-16.567 16.567s7.417 16.567 16.567 16.567h16.567c9.15 0 16.567 7.417 16.567 16.567s-7.417 16.567-16.567 16.567h-173.95c-9.15 0-16.567-7.417-16.567-16.567 0-9.149 7.417-16.567 16.567-16.567h49.7c9.149 0 16.567-7.417 16.567-16.567 0-9.149-7.417-16.567-16.567-16.567h-149.149c-9.149 0-16.567-7.417-16.567-16.567s7.417-16.567 16.567-16.567z"/></g></g><path d="m504.5 196.315c1.836 0 3.62-.675 5.002-1.912 1.589-1.423 2.497-3.455 2.497-5.588v-33.4c0-3.731-2.743-6.895-6.436-7.424-31.612-4.529-59.335-22.616-76.397-49.737v-16.987h1.067c8.547 0 15.5-6.953 15.5-15.5v-17.134c0-8.547-6.953-15.5-15.5-15.5h-34.2v-25.633c0-4.143-3.358-7.5-7.5-7.5s-7.5 3.357-7.5 7.5v25.633h-34.2c-8.547 0-15.5 6.953-15.5 15.5v17.134c0 8.547 6.953 15.5 15.5 15.5h1.066v16.898c-19.784 31.465-54.796 50.935-91.899 50.935-37.098 0-72.116-19.471-91.9-50.934v-16.899h1.066c8.547 0 15.5-6.953 15.5-15.5v-17.134c0-8.547-6.953-15.5-15.5-15.5h-34.2v-25.633c0-4.143-3.358-7.5-7.5-7.5s-7.5 3.357-7.5 7.5v25.633h-34.2c-8.547 0-15.5 6.953-15.5 15.5v17.134c0 8.547 6.953 15.5 15.5 15.5h1.067v16.829c-17.033 27.178-44.765 45.321-76.403 49.881-3.691.532-6.43 3.695-6.43 7.423v33.404c0 2.134.909 4.166 2.499 5.589 1.382 1.237 3.165 1.911 5 1.911.244 0 .49-.017.734-.041v54.053c-4.892 2.61-8.233 7.762-8.233 13.684v17.133c0 8.547 6.953 15.5 15.5 15.5h67.334v67.834h-1.067c-8.547 0-15.5 6.953-15.5 15.5v17.633h-50.767c-8.547 0-15.5 6.953-15.5 15.5v83.4c0 8.547 6.953 15.5 15.5 15.5h43.267c4.142 0 7.5-3.357 7.5-7.5s-3.358-7.5-7.5-7.5h-43.267c-.276 0-.5-.225-.5-.5v-83.4c0-.275.224-.5.5-.5h19.363c-1.144 2.8-1.779 5.861-1.779 9.067 0 13.271 10.796 24.066 24.067 24.066h149.149c4.999 0 9.067 4.067 9.067 9.066 0 5-4.067 9.067-9.067 9.067h-49.7c-13.27 0-24.067 10.796-24.067 24.066 0 3.207.635 6.266 1.779 9.066h-45.545c-4.142 0-7.5 3.357-7.5 7.5s3.358 7.5 7.5 7.5h407.733c8.547 0 15.5-6.953 15.5-15.5v-83.4c0-8.547-6.953-15.5-15.5-15.5h-50.767v-17.633c0-8.547-6.953-15.5-15.5-15.5h-1.067v-67.834h67.334c8.547 0 15.5-6.953 15.5-15.5v-17.131c0-5.953-3.378-11.125-8.314-13.721v-54.009c.272.031.543.045.814.045zm-33.947 52.185v-59.593c5.92 2.014 11.971 3.676 18.133 4.969v54.624zm-41.386 0v-81.091c8.317 6.055 17.147 11.236 26.387 15.501v65.59zm-107.684 0v-65.641c9.25-4.27 18.097-9.46 26.417-15.507v81.148zm-33.133 0v-54.647c6.149-1.3 12.203-2.973 18.133-4.998v59.645zm-49.681 0v-52.233c5.728.638 11.512.967 17.331.967 5.826 0 11.616-.33 17.35-.969v52.235zm-33.133 0v-59.639c5.931 2.023 11.984 3.696 18.133 4.995v54.644zm-41.436 0v-81.147c8.325 6.05 17.178 11.244 26.436 15.515v65.632zm-107.733 0v-65.598c9.269-4.281 18.126-9.484 26.466-15.565v81.163zm-33.133 0v-54.629c6.163-1.293 12.214-2.955 18.133-4.969v59.598zm74.6-51.267h51.266v51.267h-51.266zm265.066 0h51.267v51.267h-51.267zm134.1-35.489v18.446c-25.06-4.282-48.3-15.184-67.799-31.845l-.034-22.652v-2.584c17.771 19.844 41.446 33.429 67.833 38.635zm-150.667-95.977v-17.134c0-.275.224-.5.5-.5h83.4c.276 0 .5.225.5.5v17.134c0 .275-.224.5-.5.5h-83.4c-.275 0-.5-.225-.5-.5zm67.834 15.5v100.967h-51.267v-100.967zm-219.796 66.326c18.674 10.799 39.985 16.507 61.629 16.507 21.657 0 42.979-5.715 61.662-16.526 11.32-6.551 21.534-14.874 30.238-24.574v25.271c-25.642 21.926-58.14 33.962-91.9 33.962-33.753 0-66.26-12.037-91.9-33.961v-25.273c8.714 9.709 18.938 18.04 30.271 24.594zm-113.104-81.826v-17.134c0-.275.224-.5.5-.5h83.4c.276 0 .5.225.5.5v17.134c0 .275-.224.5-.5.5h-83.4c-.276 0-.5-.225-.5-.5zm67.833 15.5v100.967h-51.266v-100.967zm-134.1 80.458c26.4-5.23 50.075-18.848 67.834-38.726v25.233c-19.503 16.704-42.751 27.639-67.834 31.942zm82.834 134.908h51.266v67.834h-51.266zm-16.567 83.334c0-.275.224-.5.5-.5h8.567 66.266 8.566c.276 0 .5.225.5.5v17.633h-84.4v-17.633zm75.333 117.033c-4.999 0-9.067-4.067-9.067-9.066s4.067-9.066 9.067-9.066h49.7c13.27 0 24.067-10.797 24.067-24.067s-10.796-24.066-24.067-24.066h-149.149c-5 0-9.067-4.067-9.067-9.066 0-5 4.067-9.067 9.067-9.067h397.619c4.999 0 9.066 4.067 9.066 9.067 0 4.999-4.067 9.066-9.066 9.066h-140.787c-13.271 0-24.067 10.796-24.067 24.066s10.796 24.067 24.067 24.067h16.566c4.999 0 9.067 4.067 9.067 9.066s-4.067 9.066-9.066 9.066zm340.4-83.9v83.4c0 .275-.224.5-.5.5h-143.662c1.143-2.8 1.779-5.86 1.779-9.066 0-13.271-10.796-24.066-24.067-24.066h-16.566c-5 0-9.067-4.067-9.067-9.067 0-4.999 4.067-9.066 9.067-9.066h140.786c13.27 0 24.066-10.796 24.066-24.066 0-3.207-.635-6.267-1.779-9.067h19.443c.276-.002.5.222.5.498zm-66.267-33.133v17.633h-84.4v-17.633c0-.275.224-.5.5-.5h8.566 66.267 8.567c.276 0 .5.224.5.5zm-16.566-15.5h-51.267v-67.834h51.267zm82.833-83.334c0 .275-.224.5-.5.5h-167.517c-4.142 0-7.5 3.357-7.5 7.5s3.358 7.5 7.5 7.5h18.917v67.834h-1.066c-8.547 0-15.5 6.953-15.5 15.5v17.633h-150.667v-17.633c0-8.547-6.953-15.5-15.5-15.5h-1.067v-67.834h134.883c4.142 0 7.5-3.357 7.5-7.5s-3.358-7.5-7.5-7.5h-283.483c-.276 0-.5-.225-.5-.5v-17.133c0-.275.224-.5.5-.5h481c.276 0 .5.225.5.5z"/></g></svg>