<svg id="Capa_1" enable-background="new 0 0 512 512" height="512" viewBox="0 0 512 512" width="512" xmlns="http://www.w3.org/2000/svg"><g><g><g><path d="m73.767 43.667-18.64 7.999-12.576 35.339c-.625 1.756-1.098 3.559-1.418 5.389h65.268c-.321-1.829-.793-3.632-1.418-5.389l-12.576-35.338z" fill="#efd27c"/><path d="m104.982 87.005-15.422-43.338h-23.019l15.423 43.338c.625 1.756 1.098 3.559 1.418 5.389h23.019c-.321-1.83-.794-3.633-1.419-5.389z" fill="#eabc73"/><g><path d="m41.307 91.5c-.443 2.173-.673 4.388-.673 6.614v308.986h66.266v-308.986c0-2.226-.23-4.44-.673-6.614z" fill="#7bbce9"/></g><path d="m55.805 389.929h35.924v66.267h-35.924z" fill="#efd27c" transform="matrix(0 1 -1 0 496.829 349.296)"/><path d="m83.9 405.1h23v35.924h-23z" fill="#eabc73"/><path d="m40.633 488.5v-50.267h66.267v50.267c0 8.837-7.163 16-16 16h-34.267c-8.836 0-16-7.163-16-16z" fill="#dd636e"/><path d="m83.9 438.233v50.267c0 8.836-7.163 16-16 16h23c8.837 0 16-7.164 16-16v-50.267z" fill="#da4a54"/><g><g><g><path d="m41.307 91.5c-.443 2.173-.673 4.388-.673 6.614v308.986h66.266v-308.986c0-2.226-.23-4.44-.673-6.614z" fill="#a5cdfc"/></g></g></g><path d="m106.227 91.5h-23.009c.443 2.173.673 4.388.673 6.614v308.986h23.009v-308.986c0-2.226-.23-4.441-.673-6.614z" fill="#8dbdf7"/><path d="m92.407 51.667-14.738-41.414c-1.306-3.671-6.498-3.671-7.804 0l-14.738 41.414z" fill="#4c5e71"/><path d="m77.669 10.253c-1.306-3.671-6.498-3.671-7.804 0l-7.603 21.366 7.134 20.048h23.011z" fill="#3c4958"/></g><g><path d="m263.935 40.777c-4.436-.161-7.935-3.833-7.935-8.272v-8.438c0-9.149-7.417-16.567-16.567-16.567h-66.267c-9.15 0-16.567 7.417-16.567 16.567v463.867c0 9.15 7.417 16.567 16.567 16.567h66.267c9.149 0 16.567-7.417 16.567-16.567v-8.438c0-4.439 3.499-8.112 7.935-8.272 115.268-4.176 207.432-98.937 207.432-215.224s-92.164-211.049-207.432-215.223zm.807 347.473c-4.744.309-8.742-3.513-8.742-8.266v-66.593c0-4.092 2.982-7.611 7.034-8.185 24.117-3.416 42.666-24.145 42.666-49.206s-18.549-45.79-42.666-49.206c-4.051-.574-7.034-4.093-7.034-8.184v-66.592c0-4.754 3.999-8.575 8.742-8.266 69.121 4.501 123.791 61.99 123.791 132.249s-54.67 127.748-123.791 132.249z" fill="#efd27c"/><circle cx="256" cy="256" fill="#eaa96a" r="16.567"/><path d="m263.935 40.777c-4.436-.161-7.935-3.833-7.935-8.272v-8.438c0-9.149-7.417-16.567-16.567-16.567h-22.841c9.15 0 16.567 7.417 16.567 16.567v8.438c0 4.439 3.499 8.111 7.935 8.272 115.268 4.174 207.432 98.936 207.432 215.223s-92.164 211.048-207.432 215.223c-4.436.161-7.935 3.833-7.935 8.272v8.438c0 9.15-7.417 16.567-16.567 16.567h22.841c9.149 0 16.567-7.417 16.567-16.567v-8.438c0-4.439 3.499-8.112 7.935-8.272 115.268-4.175 207.432-98.936 207.432-215.223s-92.164-211.049-207.432-215.223z" fill="#eabc73"/></g></g><g><path d="m84.734 7.738c-1.672-4.7-5.978-7.738-10.967-7.738s-9.295 3.038-10.968 7.738l-27.314 76.752c-1.561 4.386-2.352 8.969-2.352 13.623v45.22c0 4.142 3.358 7.5 7.5 7.5s7.5-3.358 7.5-7.5v-43.439h51.267v297.706h-51.267v-224.267c0-4.142-3.358-7.5-7.5-7.5s-7.5 3.358-7.5 7.5v315.167c0 12.958 10.542 23.5 23.5 23.5h34.267c12.958 0 23.5-10.542 23.5-23.5v-390.387c0-4.655-.791-9.238-2.352-13.623zm-24.07 50.739h26.205l9.401 26.417h-45.007zm20.867-15h-15.529l7.764-21.818zm17.869 369.123v18.133h-51.267v-18.133zm0 75.9c0 4.687-3.813 8.5-8.5 8.5h-34.267c-4.687 0-8.5-3.813-8.5-8.5v-42.767h51.267z"/><path d="m81.267 371.967v-33.133c0-4.142-3.358-7.5-7.5-7.5s-7.5 3.358-7.5 7.5v33.133c0 4.142 3.358 7.5 7.5 7.5s7.5-3.358 7.5-7.5z"/><path d="m416.269 101.134c-40.266-41.662-94.269-65.759-152.063-67.852-.389-.014-.706-.363-.706-.777v-8.438c0-13.271-10.796-24.067-24.067-24.067h-66.267c-13.27 0-24.066 10.796-24.066 24.067v463.866c0 13.271 10.796 24.067 24.066 24.067h66.267c13.27 0 24.067-10.796 24.067-24.067v-8.438c0-.415.317-.763.706-.777 57.793-2.093 111.797-26.19 152.063-67.853 40.367-41.765 62.598-96.764 62.598-154.865s-22.231-113.1-62.598-154.866zm-7.865 296.663-6.162-6.162c-2.929-2.929-7.678-2.929-10.606 0-2.929 2.929-2.929 7.678 0 10.606l6.162 6.162c-9.615 8.945-20.091 16.983-31.299 23.985l-12.821-22.207c-2.071-3.588-6.658-4.816-10.245-2.745s-4.816 6.658-2.745 10.245l12.809 22.186c-11.531 6.087-23.721 11.122-36.449 14.983l-2.215-8.265c-1.072-4.001-5.186-6.375-9.186-5.304-4.001 1.072-6.375 5.185-5.304 9.186l2.201 8.215c-12.547 2.835-25.54 4.563-38.881 5.046-8.503.308-15.163 7.234-15.163 15.768v8.438c0 4.999-4.067 9.067-9.067 9.067h-66.267c-4.999 0-9.066-4.067-9.066-9.067v-25.631h25.633c4.142 0 7.5-3.358 7.5-7.5s-3.358-7.5-7.5-7.5h-25.633v-18.138h8.808c4.142 0 7.5-3.358 7.5-7.5s-3.358-7.5-7.5-7.5h-8.808v-18.132h25.633c4.142 0 7.5-3.358 7.5-7.5s-3.358-7.5-7.5-7.5h-25.633v-18.138h8.808c4.142 0 7.5-3.358 7.5-7.5s-3.358-7.5-7.5-7.5h-8.808v-18.13h25.633c4.142 0 7.5-3.358 7.5-7.5s-3.358-7.5-7.5-7.5h-25.633v-18.138h8.808c4.142 0 7.5-3.358 7.5-7.5s-3.358-7.5-7.5-7.5h-8.808v-18.132h25.633c4.142 0 7.5-3.358 7.5-7.5s-3.358-7.5-7.5-7.5h-25.633v-18.131h8.808c4.142 0 7.5-3.358 7.5-7.5s-3.358-7.5-7.5-7.5h-8.808v-18.132h25.633c4.142 0 7.5-3.358 7.5-7.5s-3.358-7.5-7.5-7.5h-25.633v-18.132h8.808c4.142 0 7.5-3.358 7.5-7.5s-3.358-7.5-7.5-7.5h-8.808v-18.132h25.633c4.142 0 7.5-3.358 7.5-7.5s-3.358-7.5-7.5-7.5h-25.633v-18.136h8.808c4.142 0 7.5-3.358 7.5-7.5s-3.358-7.5-7.5-7.5h-8.808v-18.131h25.633c4.142 0 7.5-3.358 7.5-7.5s-3.358-7.5-7.5-7.5h-25.633v-25.634c0-5 4.067-9.067 9.066-9.067h66.267c4.999 0 9.067 4.067 9.067 9.067v8.438c0 8.533 6.66 15.459 15.163 15.767 13.341.483 26.333 2.211 38.881 5.046l-2.201 8.215c-1.072 4.001 1.303 8.113 5.304 9.185.65.174 1.303.257 1.946.257 3.311 0 6.342-2.21 7.24-5.561l2.215-8.265c12.728 3.86 24.918 8.896 36.449 14.983l-12.809 22.187c-2.071 3.587-.842 8.174 2.745 10.245 1.181.682 2.471 1.006 3.743 1.006 2.592 0 5.113-1.346 6.502-3.752l12.821-22.207c11.208 7.002 21.684 15.039 31.299 23.985l-6.162 6.162c-2.929 2.929-2.929 7.678 0 10.606 1.464 1.464 3.384 2.197 5.303 2.197s3.839-.732 5.303-2.197l6.162-6.162c8.948 9.623 16.987 20.099 23.983 31.299l-22.207 12.821c-3.587 2.071-4.816 6.658-2.745 10.245 1.389 2.406 3.91 3.751 6.502 3.751 1.273 0 2.562-.324 3.743-1.006l22.189-12.811c6.094 11.542 11.13 23.734 14.99 36.448l-8.275 2.217c-4.001 1.072-6.376 5.184-5.304 9.186.898 3.351 3.928 5.561 7.24 5.561.643 0 1.296-.083 1.946-.257l8.227-2.205c2.852 12.613 4.558 25.667 5.026 39.047h-25.357c-4.142 0-7.5 3.358-7.5 7.5s3.358 7.5 7.5 7.5h25.357c-.468 13.38-2.174 26.435-5.026 39.047l-8.227-2.205c-3.999-1.069-8.113 1.302-9.186 5.303-1.072 4.001 1.302 8.114 5.303 9.186l8.275 2.218c-3.86 12.714-8.896 24.906-14.99 36.448l-22.189-12.811c-3.587-2.072-8.174-.842-10.245 2.745s-.842 8.174 2.745 10.245l22.207 12.821c-6.995 11.203-15.034 21.679-23.982 31.302z"/><path d="m280.067 256c0-13.27-10.796-24.067-24.067-24.067-13.27 0-24.067 10.796-24.067 24.067s10.796 24.067 24.067 24.067 24.067-10.796 24.067-24.067zm-33.134 0c0-4.999 4.067-9.067 9.067-9.067s9.067 4.067 9.067 9.067-4.067 9.067-9.067 9.067c-4.999 0-9.067-4.067-9.067-9.067z"/><path d="m355.048 167.621c-3.24 2.581-3.774 7.299-1.193 10.539 17.78 22.321 27.178 49.237 27.178 77.84 0 65.698-51.295 120.501-116.778 124.765-.067.005-.276.018-.497-.188-.118-.11-.258-.303-.258-.594v-66.593c0-.379.257-.712.585-.759 28-3.966 49.115-28.313 49.115-56.632s-21.115-52.665-49.115-56.632c-.328-.046-.585-.38-.585-.759v-66.592c0-.291.14-.484.258-.594.22-.206.427-.191.497-.188 25.505 1.661 49.565 10.965 69.58 26.907 3.24 2.581 7.959 2.046 10.539-1.194 2.581-3.24 2.046-7.959-1.194-10.54-22.421-17.858-49.376-28.281-77.95-30.142-4.304-.277-8.574 1.254-11.728 4.21-3.179 2.979-5.002 7.185-5.002 11.54v66.592c0 7.811 5.796 14.522 13.482 15.61 20.648 2.928 36.218 20.889 36.218 41.783s-15.57 38.855-36.218 41.78c-7.686 1.088-13.482 7.799-13.482 15.61v66.593c0 4.355 1.823 8.561 5.002 11.54 2.909 2.726 6.771 4.243 10.725 4.243.333 0 .668-.011 1.003-.032 73.348-4.776 130.803-66.155 130.803-139.734 0-32.033-10.528-62.182-30.446-87.186-2.581-3.24-7.3-3.775-10.539-1.193z"/></g></g></svg>