<svg id="Capa_1" enable-background="new 0 0 512 512" height="512" viewBox="0 0 512 512" width="512" xmlns="http://www.w3.org/2000/svg"><g><g><path d="m175.08 266.639-153.018 153.018c-19.409 19.409-19.409 50.878 0 70.286 19.409 19.409 50.877 19.409 70.286 0l153.017-153.017zm-106.16 199.875c-6.47 6.47-16.959 6.47-23.429 0s-6.47-16.959 0-23.429c6.47-6.469 16.959-6.469 23.429 0 6.47 6.47 6.47 16.96 0 23.429z" fill="#a6ccfb"/><path d="m233.971 325.531-164.622 164.412c-6.758 6.758-14.979 11.156-23.643 13.208 16.219 3.841 33.992-.557 46.643-13.208l153.017-153.017z" fill="#8cbdf9"/><path d="m278.947 326.775-19.439 19.439c-3.235 3.235-8.48 3.235-11.714 0l-82.001-82.001c-3.235-3.235-3.235-8.48 0-11.714l19.439-19.439z" fill="#f4f2f4"/><path d="m267.577 315.405-25.379 25.213 5.595 5.595c3.235 3.235 8.479 3.235 11.714 0l19.439-19.439z" fill="#e2dfe2"/><g><g><path d="m220.253 127.781-48.605 48.575c-12.939 12.939-12.939 33.917 0 46.856l117.146 117.146c12.939 12.939 33.917 12.939 46.856 0l48.605-48.575z" fill="#a6ccfb"/><path d="m372.798 280.325-60.253 60.033c-3.48 3.48-7.545 6.016-11.876 7.624 11.77 4.37 25.522 1.835 34.981-7.624l48.605-48.575z" fill="#8cbdf9"/></g></g><path d="m403.924 272.084 95.729-95.729c6.47-6.47 6.47-16.959 0-23.429l-20.294-20.294c-1.958-1.958-4.766-2.809-7.482-2.265l-13.171 2.635c-5.598 1.12-10.533-3.816-9.414-9.414l2.635-13.171c.543-2.716-.307-5.523-2.265-7.482l-90.583-90.583c-6.47-6.47-16.959-6.47-23.429 0l-95.729 95.729z" fill="#efd27c"/><g fill="#eabc73"><path d="m336.079 12.352 90.583 90.582c1.958 1.959 2.808 4.766 2.265 7.482l-2.635 13.171c-1.12 5.598 3.816 10.533 9.414 9.414l13.171-2.634c.691-.138 1.388-.184 2.075-.147-1.443-1.757-2.161-4.126-1.66-6.633l2.635-13.171c.543-2.716-.307-5.523-2.265-7.482l-90.583-90.582c-6.401-6.401-16.73-6.458-23.214-.194.069.068.145.125.214.194z"/><path d="m499.653 152.927-20.294-20.295c-1.958-1.958-4.766-2.809-7.482-2.265l-13.171 2.634c-.622.125-1.234.163-1.832.145l19.78 19.78c6.47 6.47 6.47 16.959 0 23.429l-84.229 84.229 11.5 11.5 95.729-95.729c6.469-6.469 6.469-16.959-.001-23.428z"/></g><path d="m388.364 299.357-175.715-175.715c-3.235-3.235-3.235-8.48 0-11.714l11.714-11.714c3.235-3.235 8.48-3.235 11.714 0l175.715 175.715c3.235 3.235 3.235 8.48 0 11.714l-11.713 11.714c-3.235 3.234-8.48 3.234-11.715 0z" fill="#f4f2f4"/><path d="m411.792 275.929-175.715-175.715c-3.235-3.235-8.48-3.235-11.714 0l-5.643 5.643 170.072 170.072c3.235 3.235 3.235 8.479 0 11.714l-6.071 6.07 5.643 5.643c3.235 3.235 8.479 3.235 11.714 0l11.713-11.713c3.236-3.235 3.236-8.48.001-11.714z" fill="#e2dfe2"/></g><g><path d="m504.956 147.623-20.293-20.293c-3.74-3.74-9.067-5.356-14.257-4.317l-13.907 2.782 2.781-13.906c1.038-5.187-.575-10.516-4.316-14.258l-90.582-90.582c-4.545-4.545-10.589-7.049-17.018-7.049s-12.472 2.504-17.018 7.049l-51.236 51.235c-2.929 2.93-2.929 7.678 0 10.607 2.929 2.928 7.678 2.928 10.606 0l51.236-51.235c3.535-3.535 9.287-3.535 12.822 0l6.411 6.411-64.983 64.983c-2.929 2.93-2.929 7.678 0 10.607 1.464 1.464 3.384 2.196 5.303 2.196s3.839-.732 5.303-2.196l64.984-64.984 12.822 12.822-64.983 64.983c-2.929 2.93-2.929 7.678 0 10.607 1.464 1.464 3.384 2.196 5.303 2.196s3.839-.732 5.303-2.196l64.983-64.984 12.822 12.822-64.983 64.983c-2.929 2.93-2.929 7.678 0 10.607 1.464 1.464 3.384 2.196 5.303 2.196s3.839-.732 5.303-2.196l64.984-64.983 12.822 12.822-64.983 64.983c-2.929 2.93-2.929 7.678 0 10.607 1.464 1.464 3.384 2.196 5.303 2.196s3.839-.732 5.303-2.196l64.984-64.983 3.276 3.276c.187.186.267.451.215.709l-4.542 22.709-51.11 51.111c-2.929 2.93-2.929 7.678 0 10.607 1.464 1.464 3.384 2.196 5.303 2.196s3.839-.732 5.303-2.196l51.108-51.108 22.714-4.543c.258-.054.523.028.708.215l3.275 3.275-64.983 64.982c-2.929 2.93-2.929 7.678 0 10.607 1.464 1.464 3.384 2.196 5.303 2.196s3.839-.732 5.303-2.196l64.983-64.983 6.412 6.412c3.535 3.535 3.535 9.286 0 12.821l-88.414 88.414-153.392-153.393 15.685-15.685c2.929-2.93 2.929-7.678 0-10.608-2.929-2.928-7.678-2.928-10.607 0l-15.685 15.686-.552-.552c-2.981-2.981-6.945-4.624-11.161-4.624s-8.18 1.643-11.161 4.623l-11.714 11.714c-6.153 6.153-6.153 16.167.001 22.321l.553.553-41.554 41.554c-7.674 7.674-11.901 17.878-11.901 28.731s4.227 21.057 11.901 28.731l6.411 6.411-12.267 12.267c-2.982 2.98-4.624 6.944-4.624 11.16 0 4.217 1.642 8.181 4.623 11.161l.554.554-34.484 34.484c-2.929 2.93-2.929 7.678 0 10.607 2.929 2.928 7.678 2.928 10.606 0l34.484-34.485 51.028 51.029 8.652 8.652-144.283 144.286c-7.97 7.97-18.567 12.36-29.839 12.36s-21.869-4.39-29.84-12.36-12.36-18.567-12.36-29.84c0-11.272 4.389-21.869 12.36-29.839l88.477-88.478c2.929-2.93 2.929-7.678 0-10.607-2.929-2.928-7.678-2.928-10.606 0l-88.477 88.477c-10.804 10.804-16.754 25.169-16.754 40.447 0 15.279 5.95 29.644 16.753 40.447 10.804 10.804 25.168 16.753 40.447 16.753 15.278 0 29.643-5.949 40.446-16.753l144.284-144.284.554.555c3.077 3.076 7.119 4.615 11.16 4.615s8.083-1.539 11.16-4.615l12.269-12.268 6.411 6.411c7.674 7.675 17.878 11.901 28.731 11.901 10.854 0 21.057-4.227 28.732-11.9l11.711-11.711c.001-.001.003-.002.004-.003s.002-.003.003-.004l29.836-29.835.553.553c3.077 3.076 7.118 4.614 11.16 4.614s8.084-1.538 11.161-4.615l11.713-11.713c2.981-2.98 4.624-6.944 4.624-11.16 0-4.217-1.642-8.181-4.623-11.161l-.552-.552 88.413-88.413c9.384-9.387 9.384-24.655 0-34.039zm-250.752 193.287c-.306.308-.803.306-1.108 0l-5.857-5.857s-.001 0-.001-.001l-70.286-70.287c-.002-.002-.004-.003-.006-.005l-5.852-5.852c-.152-.152-.229-.338-.229-.554 0-.215.077-.4.229-.553l12.268-12.268 83.109 83.109zm58.018 1.651c-6.847 0-13.284-2.666-18.125-7.508l-11.691-11.691c-.008-.008-.014-.017-.022-.025s-.017-.014-.025-.022l-93.668-93.668c-.008-.008-.015-.017-.023-.025s-.017-.015-.025-.023l-11.691-11.691c-4.841-4.841-7.507-11.277-7.507-18.124s2.666-13.284 7.507-18.125l6.412-6.412 153.395 153.396-6.412 6.412c-4.842 4.841-11.279 7.506-18.125 7.506zm35.143-24.525-153.395-153.396 24.535-24.535 153.396 153.395zm59.124-35.696-11.712 11.713c-.307.305-.805.305-1.11 0h.001l-5.851-5.851c-.002-.002-.003-.004-.005-.005-.002-.002-.004-.003-.005-.005l-163.988-163.987c-.003-.003-.006-.007-.01-.011-.003-.003-.007-.006-.011-.01l-5.846-5.846c-.306-.306-.306-.804-.001-1.108l11.714-11.714c.304-.305.801-.307 1.107.001l5.846 5.846c.003.003.006.007.009.01s.007.006.01.009l163.993 163.992.001.001h.001l5.856 5.856c.152.152.229.338.229.554.001.216-.076.401-.228.555z"/><path d="m40.188 437.782c-4.546 4.546-7.049 10.59-7.049 17.019 0 6.428 2.503 12.472 7.049 17.018 4.545 4.545 10.589 7.049 17.018 7.049s12.472-2.504 17.018-7.049c4.546-4.546 7.049-10.59 7.049-17.018 0-6.429-2.503-12.473-7.049-17.019-9.385-9.383-24.652-9.383-34.036 0zm23.429 23.429c-3.535 3.535-9.287 3.535-12.822 0-3.535-3.534-3.535-9.287 0-12.821 1.712-1.713 3.989-2.656 6.411-2.656s4.699.943 6.411 2.656c3.535 3.534 3.535 9.287 0 12.821z"/></g></g></svg>