<svg id="Capa_1" enable-background="new 0 0 512 512" height="512" viewBox="0 0 512 512" width="512" xmlns="http://www.w3.org/2000/svg"><g><g><g><path d="m355.398 206.3v265.067c0 18.299-14.834 33.133-33.133 33.133h-231.93c-18.299 0-33.133-14.834-33.133-33.133v-430.734c0-18.299 14.834-33.133 33.133-33.133h231.929c4.24 0 8.293.796 12.02 2.248z" fill="#a6ccfb"/><g fill="#4c5e71"><path d="m189.735 289.132c0 9.15-7.418 16.568-16.568 16.568h-66.265c-9.15 0-16.567-7.418-16.567-16.568v-66.266c0-9.15 7.418-16.568 16.567-16.568h66.265c9.15 0 16.568 7.418 16.568 16.568z"/><path d="m322.267 289.132c0 9.15-7.418 16.568-16.568 16.568h-66.264c-9.15 0-16.567-7.418-16.567-16.568v-66.266c0-9.15 7.417-16.568 16.567-16.568h66.265c9.15 0 16.568 7.418 16.568 16.568v66.266z"/><path d="m189.735 421.664c0 9.15-7.418 16.568-16.568 16.568h-66.265c-9.15 0-16.567-7.418-16.567-16.568v-66.266c0-9.15 7.418-16.567 16.567-16.567h66.265c9.15 0 16.568 7.417 16.568 16.567z"/><path d="m322.267 421.664c0 9.15-7.418 16.568-16.568 16.568h-66.264c-9.15 0-16.567-7.418-16.567-16.568v-66.266c0-9.15 7.417-16.567 16.567-16.567h66.265c9.15 0 16.568 7.417 16.568 16.567v66.266z"/></g><path d="m291.667 156.601h-193.049c-4.575 0-8.283-3.709-8.283-8.283v-66.268c0-4.575 3.709-8.283 8.283-8.283h193.048v82.834z" fill="#f4f2f4"/><path d="m206.299 7.501v24.849c0 4.575-3.708 8.283-8.283 8.283h-82.832c-4.575 0-8.283-3.709-8.283-8.283v-24.849z" fill="#a7dda7"/><path d="m334.284 9.748c-3.726-1.451-7.78-2.248-12.02-2.248h-22.999.127c6.679.025 12.212 5.219 12.925 11.86l20.081 186.94v265.067c0 18.299-14.834 33.133-33.133 33.133h22.999c18.299 0 33.133-14.834 33.133-33.133v-265.067z" fill="#8cbdf9"/><path d="m183.3 7.501v24.849c0 4.575-3.709 8.283-8.283 8.283h22.999c4.575 0 8.283-3.709 8.283-8.283v-24.849z" fill="#8ace9b"/><path d="m305.7 206.299h-23.002c9.15 0 16.568 7.417 16.568 16.567v66.266c0 9.15-7.418 16.568-16.568 16.568h23.002c9.15 0 16.568-7.418 16.568-16.568v-66.266c-.001-9.15-7.418-16.567-16.568-16.567z" fill="#3c4958"/><path d="m173.168 206.299h-23.002c9.15 0 16.568 7.417 16.568 16.567v66.266c0 9.15-7.418 16.568-16.568 16.568h23.002c9.15 0 16.568-7.418 16.568-16.568v-66.266c-.001-9.15-7.418-16.567-16.568-16.567z" fill="#3c4958"/><path d="m305.7 338.831h-23.002c9.15 0 16.568 7.417 16.568 16.567v66.266c0 9.15-7.418 16.568-16.568 16.568h23.002c9.15 0 16.568-7.417 16.568-16.568v-66.266c-.001-9.149-7.418-16.567-16.568-16.567z" fill="#3c4958"/><path d="m173.168 338.831h-23.002c9.15 0 16.568 7.417 16.568 16.567v66.266c0 9.15-7.418 16.568-16.568 16.568h23.002c9.15 0 16.568-7.417 16.568-16.568v-66.266c-.001-9.149-7.418-16.567-16.568-16.567z" fill="#3c4958"/></g><g><circle cx="355.398" cy="106.9" fill="#efd27c" r="99.4"/><g fill="#eabc73"><circle cx="355.398" cy="106.9" r="66.267"/><path d="m355.398 7.5c-3.89 0-7.726.231-11.5.666 49.479 5.701 87.9 47.727 87.9 98.734s-38.421 93.033-87.9 98.734c3.774.435 7.61.666 11.5.666 54.897 0 99.4-44.503 99.4-99.4s-44.503-99.4-99.4-99.4z"/></g></g></g><g><path d="m355.397 132.532c-4.999 0-9.066-4.067-9.066-9.066 0-4.142-3.357-7.5-7.5-7.5s-7.5 3.358-7.5 7.5c0 10.652 6.959 19.704 16.566 22.864v1.986c0 4.142 3.357 7.5 7.5 7.5s7.5-3.358 7.5-7.5v-1.986c9.608-3.16 16.566-12.212 16.566-22.864 0-13.252-10.766-24.035-24.01-24.066-.019 0-.037-.003-.056-.003-4.999 0-9.066-4.067-9.066-9.066s4.067-9.066 9.066-9.066 9.066 4.067 9.066 9.066c0 4.142 3.357 7.5 7.5 7.5s7.5-3.358 7.5-7.5c0-10.652-6.958-19.704-16.566-22.864v-1.986c0-4.142-3.357-7.5-7.5-7.5s-7.5 3.358-7.5 7.5v1.986c-9.608 3.16-16.566 12.211-16.566 22.864 0 13.252 10.766 24.035 24.011 24.065.019 0 .037.003.056.003 4.999 0 9.066 4.067 9.066 9.067 0 4.999-4.067 9.066-9.067 9.066z"/><path d="m355.398 180.667c40.675 0 73.767-33.092 73.767-73.767s-33.092-73.767-73.767-73.767-73.767 33.092-73.767 73.767c.001 40.675 33.093 73.767 73.767 73.767zm0-132.534c32.404 0 58.767 26.363 58.767 58.767s-26.362 58.767-58.767 58.767-58.767-26.363-58.767-58.767c.001-32.404 26.363-58.767 58.767-58.767z"/><path d="m462.298 106.9c0-58.945-47.955-106.9-106.9-106.9-6.945 0-13.814.69-20.53 2.001-4.058-1.324-8.286-2.001-12.603-2.001h-231.93c-22.405 0-40.633 18.228-40.633 40.633v59.551c0 4.142 3.358 7.5 7.5 7.5 4.143 0 7.5-3.358 7.5-7.5v-59.551c0-14.134 11.499-25.633 25.633-25.633h9.065v17.35c0 8.703 7.08 15.783 15.783 15.783h82.832c8.703 0 15.783-7.081 15.783-15.783v-17.35h87.011c-5.9 3.507-11.496 7.582-16.685 12.227-3.087 2.763-3.349 7.504-.586 10.59 2.762 3.086 7.504 3.35 10.59.586 16.86-15.092 38.619-23.403 61.27-23.403 50.674 0 91.9 41.226 91.9 91.9 0 50.671-41.222 91.896-91.893 91.9-.003 0-.005 0-.008 0s-.005 0-.008 0c-50.67-.004-91.892-41.229-91.892-91.9 0-16.622 4.483-32.904 12.962-47.086 2.125-3.555.967-8.16-2.589-10.286-3.555-2.125-8.159-.967-10.286 2.588-2.717 4.545-5.068 9.279-7.068 14.15h-157.898c-8.703 0-15.783 7.08-15.783 15.783v66.267c0 8.703 7.08 15.783 15.783 15.783h166.509c9.013 14.174 21.271 26.088 35.719 34.698h-61.411c-13.271 0-24.067 10.796-24.067 24.067v66.266c0 13.271 10.797 24.067 24.067 24.067h66.265c13.271 0 24.067-10.796 24.067-24.067v-66.266c0-4.889-1.47-9.441-3.984-13.242 7.098 2.049 14.498 3.379 22.114 3.91v257.833c0 14.134-11.499 25.633-25.633 25.633h-231.929c-14.134 0-25.633-11.499-25.633-25.633v-341.181c0-4.142-3.357-7.5-7.5-7.5-4.142 0-7.5 3.358-7.5 7.5v341.183c0 22.405 18.228 40.633 40.633 40.633h231.93c22.405 0 40.633-18.228 40.633-40.633v-257.834c55.458-3.862 99.4-50.209 99.4-106.633zm-263.499-74.55c0 .432-.352.783-.783.783h-82.832c-.432 0-.783-.352-.783-.783v-17.35h84.398zm-100.181 116.751c-.432 0-.783-.352-.783-.783v-66.268c0-.432.352-.783.783-.783h152.997c-2.055 8.343-3.117 16.948-3.117 25.633 0 14.98 3.103 29.247 8.69 42.2h-158.57zm216.15 140.031c0 5-4.067 9.067-9.067 9.067h-66.265c-5 0-9.067-4.067-9.067-9.067v-66.266c0-5 4.067-9.067 9.067-9.067h66.264c5 0 9.067 4.067 9.067 9.067v66.266z"/><path d="m106.902 313.199h66.266c13.271 0 24.067-10.796 24.067-24.067v-66.266c0-13.271-10.797-24.067-24.067-24.067h-66.266c-13.271 0-24.067 10.796-24.067 24.067v66.266c0 13.271 10.797 24.067 24.067 24.067zm-9.067-90.333c0-5 4.067-9.067 9.067-9.067h66.266c5 0 9.067 4.067 9.067 9.067v66.266c0 5-4.067 9.067-9.067 9.067h-66.266c-5 0-9.067-4.067-9.067-9.067z"/><path d="m82.835 421.665c0 13.271 10.797 24.067 24.067 24.067h66.266c13.271 0 24.067-10.796 24.067-24.067v-66.266c0-13.271-10.797-24.067-24.067-24.067h-66.266c-13.271 0-24.067 10.796-24.067 24.067zm15-66.267c0-5 4.067-9.067 9.067-9.067h66.266c5 0 9.067 4.067 9.067 9.067v66.266c0 5-4.067 9.067-9.067 9.067h-66.266c-5 0-9.067-4.067-9.067-9.067z"/><path d="m305.7 445.732c13.271 0 24.067-10.796 24.067-24.067v-66.266c0-13.271-10.797-24.067-24.067-24.067h-66.265c-13.271 0-24.067 10.796-24.067 24.067v66.266c0 13.271 10.797 24.067 24.067 24.067zm-75.332-24.067v-66.266c0-5 4.067-9.067 9.067-9.067h66.265c5 0 9.067 4.067 9.067 9.067v66.266c0 5-4.067 9.067-9.067 9.067h-66.265c-4.999 0-9.067-4.067-9.067-9.067z"/><path d="m82.835 475.509c0 4.142 3.357 7.5 7.5 7.5s7.5-3.358 7.5-7.5v-8.284c0-4.142-3.357-7.5-7.5-7.5s-7.5 3.358-7.5 7.5z"/><path d="m115.967 467.225v8.284c0 4.142 3.357 7.5 7.5 7.5s7.5-3.358 7.5-7.5v-8.284c0-4.142-3.357-7.5-7.5-7.5s-7.5 3.358-7.5 7.5z"/><path d="m149.1 467.225v8.284c0 4.142 3.357 7.5 7.5 7.5s7.5-3.358 7.5-7.5v-8.284c0-4.142-3.357-7.5-7.5-7.5s-7.5 3.358-7.5 7.5z"/><path d="m123.469 263.501h9.067v9.067c0 4.142 3.357 7.5 7.5 7.5s7.5-3.358 7.5-7.5v-9.067h9.066c4.143 0 7.5-3.358 7.5-7.5s-3.357-7.5-7.5-7.5h-9.066v-9.067c0-4.142-3.357-7.5-7.5-7.5s-7.5 3.358-7.5 7.5v9.067h-9.067c-4.143 0-7.5 3.358-7.5 7.5s3.357 7.5 7.5 7.5z"/><path d="m123.018 405.551c1.465 1.464 3.385 2.197 5.304 2.197s3.839-.732 5.304-2.197l6.411-6.411 6.411 6.411c1.465 1.464 3.385 2.197 5.304 2.197s3.839-.732 5.304-2.197c2.929-2.929 2.929-7.678 0-10.607l-6.411-6.411 6.411-6.411c2.929-2.929 2.929-7.678 0-10.606-2.93-2.929-7.678-2.929-10.607 0l-6.411 6.411-6.411-6.411c-2.93-2.929-7.678-2.929-10.607 0s-2.929 7.678 0 10.606l6.411 6.411-6.411 6.411c-2.931 2.93-2.931 7.679-.002 10.607z"/><path d="m289.135 248.5h-33.134c-4.143 0-7.5 3.358-7.5 7.5s3.357 7.5 7.5 7.5h33.134c4.143 0 7.5-3.358 7.5-7.5 0-4.143-3.358-7.5-7.5-7.5z"/><path d="m256.001 412.6c1.919 0 3.839-.732 5.304-2.197l33.134-33.133c2.929-2.929 2.929-7.678 0-10.606-2.93-2.929-7.678-2.929-10.607 0l-33.134 33.133c-2.929 2.929-2.929 7.678 0 10.606 1.464 1.465 3.383 2.197 5.303 2.197z"/></g></g></svg>