<svg id="Capa_1" enable-background="new 0 0 512 512" height="512" viewBox="0 0 512 512" width="512" xmlns="http://www.w3.org/2000/svg"><g><g><path d="m46.633 181.5h-39.133v-50.033c0-4.418 3.582-8 8-8h31.133z" fill="#3c4958"/><path d="m15.5 7.5c-4.418 0-8 3.582-8 8v50.267c0 4.418 3.582 8 8 8h248.783c4.575 0 8.283-3.709 8.283-8.283v-11.916c0-7.602-5.174-14.228-12.549-16.072l-119.984-29.996z" fill="#4c5e71"/><path d="m48.633 7.5h66.833c4.418 0 8 3.582 8 8v480.717c0 4.575-3.709 8.283-8.283 8.283h-66.266c-4.575 0-8.283-3.709-8.283-8.283v-480.717c-.001-4.418 3.581-8 7.999-8z" fill="#f4f2f4"/><path d="m115.467 7.5h-23c4.418 0 8 3.582 8 8v480.717c0 4.575-3.709 8.283-8.283 8.283h23c4.575 0 8.283-3.709 8.283-8.283v-480.717c0-4.418-3.582-8-8-8z" fill="#e2dfe2"/><g><path d="m189.734 433.372h33.133v40.967h-33.133z" fill="#d0e5fd"/><path d="m289.133 433.372h33.133v40.967h-33.133z" fill="#d0e5fd"/><g><path d="m173.167 329.772v-33.666c0-4.027 2.896-7.471 6.864-8.161l183.652-31.939h5v73.767h-195.516z" fill="#d0e5fd"/><path d="m340.683 260.005v69.767h28v-73.767h-5z" fill="#b6d5f8"/><path d="m368.683 438.238h-204.083c-4.418 0-8-3.582-8-8v-99.966c0-4.418 3.582-8 8-8h204.083z" fill="#4c5e71"/><path d="m322.55 405.106h-124.816c-4.418 0-8-3.582-8-8v-33.701c0-4.418 3.582-8 8-8h124.816c4.418 0 8 3.582 8 8v33.701c0 4.418-3.582 8-8 8z" fill="#a6ccfb"/><path d="m340.683 322.272h28v115.966h-28z" fill="#3c4958"/><path d="m322.55 355.405h-23c4.419 0 8 3.582 8 8v33.701c0 4.418-3.581 8-8 8h23c4.419 0 8-3.582 8-8v-33.701c0-4.418-3.582-8-8-8z" fill="#8cbdf9"/></g><path d="m363.683 253.038h115.966v221.3h-115.966z" fill="#dd636e"/><path d="m446.516 474.339h-49.7v-61.234c0-4.418 3.582-8 8-8h33.7c4.418 0 8 3.582 8 8z" fill="#efd27c"/><path d="m456.65 253.038h23v221.3h-23z" fill="#da4a54"/><path d="m438.517 405.105h-23c4.418 0 8 3.582 8 8v61.234h23v-61.234c0-4.418-3.582-8-8-8z" fill="#eabc73"/><path d="m479.933 256.005h-116.533c-4.418 0-8-3.582-8-8v-17.133c0-4.418 3.582-8 8-8h116.533c4.418 0 8 3.582 8 8v17.133c0 4.419-3.582 8-8 8z" fill="#d0e5fd"/><path d="m479.933 222.872h-23c4.418 0 8 3.582 8 8v17.133c0 4.418-3.582 8-8 8h23c4.418 0 8-3.582 8-8v-17.133c0-4.418-3.582-8-8-8z" fill="#b6d5f8"/></g><path d="m496.5 504.505h-331.9c-4.418 0-8-3.582-8-8v-17.133c0-4.418 3.582-8 8-8h331.9c4.418 0 8 3.582 8 8v17.133c0 4.418-3.582 8-8 8z" fill="#e2dfe2"/><path d="m260.018 37.496-23-5.746c7.375 1.844 12.549 8.47 12.549 16.072v17.661c0 4.575-3.708 8.283-8.283 8.283h23c4.575 0 8.283-3.709 8.283-8.283v-11.915c0-7.602-5.174-14.228-12.549-16.072z" fill="#3c4958"/><path d="m15.5 289.133h33.7c4.418 0 8-3.582 8-8v-116.533c0-4.418-3.582-8-8-8h-33.7c-4.418 0-8 3.582-8 8v116.533c0 4.419 3.582 8 8 8z" fill="#4c5e71"/><path d="m115.183 289.133h16.567c4.575 0 8.283-3.708 8.283-8.283v-51.516c0-3.801 2.587-7.114 6.274-8.036l113.71-28.428c7.375-1.844 12.549-8.47 12.549-16.072v-11.915c0-4.575-3.709-8.283-8.283-8.283h-149.1c-4.575 0-8.283 3.709-8.283 8.283v115.967c0 4.575 3.709 8.283 8.283 8.283z" fill="#4c5e71"/><path d="m264.283 156.6h-23c4.575 0 8.283 3.709 8.283 8.283v17.878c0 6.733-4.062 12.693-10.114 15.251l20.566-5.141c7.375-1.844 12.549-8.47 12.549-16.072v-11.915c0-4.575-3.709-8.284-8.284-8.284z" fill="#3c4958"/><path d="m496.5 471.372h-23c4.418 0 8 3.582 8 8v17.133c0 4.418-3.582 8-8 8h23c4.418 0 8-3.582 8-8v-17.133c0-4.419-3.582-8-8-8z" fill="#d3ced5"/></g><g><path d="m496.5 463.867h-9.35v-202.161c4.919-2.601 8.283-7.765 8.283-13.706v-17.133c0-8.547-6.953-15.5-15.5-15.5h-116.533c-8.547 0-15.5 6.953-15.5 15.5v17.133c0 1.054.108 2.083.309 3.079l-169.465 29.472c-7.577 1.318-13.077 7.858-13.077 15.55v18.666h-1.067c-8.547 0-15.5 6.953-15.5 15.5v99.967c0 8.547 6.953 15.5 15.5 15.5h17.634v18.134h-17.634c-8.547 0-15.5 6.953-15.5 15.5v17.132c0 8.547 6.953 15.5 15.5 15.5h43.4c4.143 0 7.5-3.357 7.5-7.5s-3.357-7.5-7.5-7.5h-43.4c-.275 0-.5-.225-.5-.5v-17.133c0-.275.225-.5.5-.5h331.9c.275 0 .5.225.5.5v17.133c0 .275-.225.5-.5.5h-258.633c-4.143 0-7.5 3.357-7.5 7.5s3.357 7.5 7.5 7.5h258.633c8.547 0 15.5-6.953 15.5-15.5v-17.133c0-8.547-6.953-15.5-15.5-15.5zm-133.6-233c0-.275.225-.5.5-.5h116.533c.275 0 .5.225.5.5v17.133c0 .275-.225.5-.5.5h-.283-115.966-.284c-.275 0-.5-.225-.5-.5zm-6.716 214.866v18.134h-26.417v-18.134zm-175.517-149.632c0-.382.273-.707.648-.772l174.868-30.412v49.85h-175.516zm-16.567 134.132v-99.967c0-.275.225-.5.5-.5h191.584v100.967h-33.917-33.134-66.266-33.134-25.133c-.276 0-.5-.224-.5-.5zm117.533 15.5v18.134h-51.266v-18.134zm-84.4 18.134v-18.134h18.134v18.134zm99.4 0v-18.134h18.134v18.134zm107.683 0v-50.767c0-.275.225-.5.5-.5h33.7c.275 0 .5.225.5.5v50.768h-34.7zm49.701 0v-50.767c0-8.547-6.953-15.5-15.5-15.5h-33.7c-8.547 0-15.5 6.953-15.5 15.5v50.768h-18.133v-25.634-115.967-58.767h100.966v200.367z"/><path d="m454.8 281.633h-66.267c-4.143 0-7.5 3.357-7.5 7.5s3.357 7.5 7.5 7.5h66.267c4.143 0 7.5-3.357 7.5-7.5s-3.358-7.5-7.5-7.5z"/><path d="m454.8 314.767h-66.267c-4.143 0-7.5 3.357-7.5 7.5s3.357 7.5 7.5 7.5h66.267c4.143 0 7.5-3.357 7.5-7.5s-3.358-7.5-7.5-7.5z"/><path d="m454.8 347.9h-66.267c-4.143 0-7.5 3.357-7.5 7.5s3.357 7.5 7.5 7.5h66.267c4.143 0 7.5-3.357 7.5-7.5 0-4.142-3.358-7.5-7.5-7.5z"/><path d="m322.55 412.601c8.547 0 15.5-6.953 15.5-15.5v-33.701c0-8.547-6.953-15.5-15.5-15.5h-124.817c-8.547 0-15.5 6.953-15.5 15.5v33.701c0 8.547 6.953 15.5 15.5 15.5zm-79.758-15v-34.701h34.7v34.701zm80.258-34.202v33.701c0 .275-.225.5-.5.5h-30.058v-34.701h30.058c.275 0 .5.225.5.5zm-125.817 33.702v-33.701c0-.275.225-.5.5-.5h30.059v34.701h-30.059c-.275 0-.5-.225-.5-.5z"/><path d="m280.066 176.799v-11.916c0-8.703-7.08-15.783-15.783-15.783h-133.316v-67.833h133.316c8.703 0 15.783-7.08 15.783-15.783v-11.916c0-11.063-7.496-20.665-18.229-23.349l-119.985-29.995c-.594-.149-1.206-.224-1.819-.224h-99.4-25.133c-8.547 0-15.5 6.953-15.5 15.5v50.267c0 8.547 6.953 15.5 15.5 15.5h17.633v34.7h-17.633c-8.547 0-15.5 6.953-15.5 15.5v25.133 24.899c0 4.143 3.357 7.5 7.5 7.5s7.5-3.357 7.5-7.5v-17.399l34.282.017c.235.041.418.237.418.483v83.9h-34.7v-36.267c0-4.143-3.357-7.5-7.5-7.5s-7.5 3.357-7.5 7.5v68.899c0 8.547 6.953 15.5 15.5 15.5h17.633v199.584c0 8.703 7.081 15.783 15.784 15.783h66.267c8.703 0 15.783-7.08 15.783-15.783v-199.583h.783c8.703 0 15.783-7.08 15.783-15.783v-51.516c0-.36.244-.673.594-.76l113.71-28.428c10.733-2.683 18.229-12.284 18.229-23.347zm-21.868-132.027c4.044 1.011 6.868 4.628 6.868 8.796v11.915c0 .432-.352.783-.783.783h-133.316v-51.266h8.144zm-242.698 21.495c-.275 0-.5-.225-.5-.5v-50.267c0-.275.225-.5.5-.5h17.633v51.267zm-.5 65.2c0-.275.225-.5.5-.5h17.633v18.133h-18.133zm0 149.666v-17.633h34.7v17.633c0 .275-.225.5-.5.5h-33.7c-.275 0-.5-.225-.5-.5zm100.967 215.084c0 .432-.352.783-.783.783h-66.267c-.433 0-.784-.352-.784-.783v-33.919h8.55c4.143 0 7.5-3.358 7.5-7.5 0-4.143-3.357-7.5-7.5-7.5h-8.55v-18.133h25.375c4.143 0 7.5-3.357 7.5-7.5s-3.357-7.5-7.5-7.5h-25.375v-18.138h8.55c4.143 0 7.5-3.357 7.5-7.5s-3.357-7.5-7.5-7.5h-8.55v-18.13h25.375c4.143 0 7.5-3.357 7.5-7.5s-3.357-7.5-7.5-7.5h-25.375v-18.137h8.55c4.143 0 7.5-3.357 7.5-7.5s-3.357-7.5-7.5-7.5h-8.55v-18.123h25.375c4.143 0 7.5-3.357 7.5-7.5s-3.357-7.5-7.5-7.5h-8.833c.006-.169.026-.334.026-.504v-50.756h8.808c4.143 0 7.5-3.357 7.5-7.5s-3.357-7.5-7.5-7.5h-8.809v-50.777c0-.163-.02-.321-.024-.483h8.832c4.143 0 7.5-3.357 7.5-7.5s-3.357-7.5-7.5-7.5h-23.98c-.11-.002-.217-.017-.328-.017h-1.067v-18.121h8.55c4.143 0 7.5-3.357 7.5-7.5s-3.357-7.5-7.5-7.5h-8.55v-100.979h67.834v134.1h-.783c-8.703 0-15.783 7.08-15.783 15.783v115.967c0 8.703 7.08 15.783 15.783 15.783h.783zm15.783-214.584h-16.566c-.432 0-.783-.352-.783-.783v-17.35h18.133v17.35c-.001.431-.352.783-.784.783zm12.738-67.612c-7.039 1.76-11.955 8.057-11.955 15.312v19.167h-18.133v-83.617c0-.432.352-.783.783-.783h149.1c.432 0 .783.352.783.783v11.916c0 4.168-2.824 7.784-6.868 8.795z"/><path d="m504.5 24.85h-198.8c-4.143 0-7.5 3.357-7.5 7.5s3.357 7.5 7.5 7.5h191.3v26.417h-25.633c-4.143 0-7.5 3.357-7.5 7.5s3.357 7.5 7.5 7.5h25.633v26.417h-25.633c-4.143 0-7.5 3.357-7.5 7.5s3.357 7.5 7.5 7.5h25.633v26.416h-25.633c-4.143 0-7.5 3.357-7.5 7.5s3.357 7.5 7.5 7.5h25.633v25.634c0 4.143 3.357 7.5 7.5 7.5s7.5-3.357 7.5-7.5v-157.384c0-4.143-3.357-7.5-7.5-7.5z"/><path d="m338.833 164.1c4.143 0 7.5-3.357 7.5-7.5s-3.357-7.5-7.5-7.5h-16.566c-4.143 0-7.5 3.357-7.5 7.5s3.357 7.5 7.5 7.5z"/><path d="m388.533 164.1c4.143 0 7.5-3.357 7.5-7.5s-3.357-7.5-7.5-7.5h-16.566c-4.143 0-7.5 3.357-7.5 7.5s3.357 7.5 7.5 7.5z"/><path d="m438.233 164.1c4.143 0 7.5-3.357 7.5-7.5s-3.357-7.5-7.5-7.5h-16.566c-4.143 0-7.5 3.357-7.5 7.5s3.357 7.5 7.5 7.5z"/></g></g></svg>