<svg id="Capa_1" enable-background="new 0 0 512 512" height="512" viewBox="0 0 512 512" width="512" xmlns="http://www.w3.org/2000/svg"><g><g><g><path d="m504.5 193.744v236.206c0 4.575-3.709 8.283-8.283 8.283h-414.167c-4.575 0-8.283-3.708-8.283-8.283v-414.167c0-4.575 3.708-8.283 8.283-8.283h414.167c4.575 0 8.283 3.709 8.283 8.283v103.699c0 2.209-1.791 4-4 4l-25.133.001c-2.209 0-4-1.791-4-4v-70.566c0-4.575-3.709-8.283-8.283-8.283h-149.1c-4.575 0-8.283 3.709-8.283 8.283v70.549c0 2.209-1.791 4-4 4h-25.133c-2.209 0-4-1.791-4-4v-70.549c0-4.575-3.709-8.283-8.283-8.283h-149.1c-4.575 0-8.283 3.709-8.283 8.283v165.667c0 4.575 3.709 8.283 8.283 8.283h149.1c4.575 0 8.283-3.709 8.283-8.283v-20.85c0-2.209 1.791-4 4-4h25.132c2.209 0 4 1.791 4 4v20.85c0 4.575 3.709 8.283 8.283 8.283h20.85c2.209 0 4 1.791 4 4v25.133c0 2.209-1.791 4-4 4h-20.85c-4.575 0-8.283 3.709-8.283 8.283v20.85c0 2.209-1.791 4-4 4h-25.133c-2.209 0-4-1.791-4-4v-20.85c0-4.575-3.709-8.283-8.283-8.283h-149.1c-4.575 0-8.283 3.709-8.283 8.283v132.533c0 4.575 3.709 8.283 8.283 8.283h149.1c4.575 0 8.283-3.709 8.283-8.283v-37.416c0-2.209 1.791-4 4-4h25.133c2.209 0 4 1.791 4 4v37.417c0 4.575 3.709 8.283 8.283 8.283h149.1c4.575 0 8.283-3.709 8.283-8.283v-132.534c0-4.575-3.709-8.283-8.283-8.283h-53.983c-2.209 0-4-1.791-4-4v-25.133c0-2.209 1.791-4 4-4h53.983c4.575 0 8.283-3.709 8.283-8.283v-20.84c0-2.209 1.791-4 4-4h25.133c2.21 0 4.001 1.791 4.001 4z" fill="#a6ccfb"/></g><g fill="#8cbdf9"><path d="m496.217 7.5h-23c4.575 0 8.283 3.708 8.283 8.283v103.7c0 2.209-1.791 4-4 4h-2.138c.002 0 .003.001.005.001l25.133-.001c2.209 0 4-1.791 4-4v-103.7c0-4.574-3.708-8.283-8.283-8.283z"/><path d="m500.5 189.744h-25.133 2.134c2.209 0 4 1.791 4 4v236.206c0 4.575-3.708 8.283-8.283 8.283h23c4.575 0 8.283-3.708 8.283-8.283v-236.206c-.001-2.209-1.792-4-4.001-4z"/></g></g><g><path d="m504.5 182.244h-9.066v-9.077c0-4.143-3.357-7.5-7.5-7.5s-7.5 3.357-7.5 7.5v9.077h-9.066c-4.143 0-7.5 3.357-7.5 7.5v24.839c0 .433-.352.784-.784.784h-57.984c-4.143 0-7.5 3.357-7.5 7.5v9.066h-9.066c-4.143 0-7.5 3.357-7.5 7.5s3.357 7.5 7.5 7.5h9.066v9.067c0 4.143 3.357 7.5 7.5 7.5h57.983c.433 0 .784.352.784.783v132.533c0 .432-.352.783-.784.783h-149.1c-.432 0-.783-.352-.783-.783v-41.416c0-4.143-3.357-7.5-7.5-7.5h-9.066v-9.066c0-4.143-3.357-7.5-7.5-7.5s-7.5 3.357-7.5 7.5v9.066h-9.067c-4.143 0-7.5 3.357-7.5 7.5v41.417c0 .432-.352.783-.783.783h-149.1c-.432 0-.783-.352-.783-.783v-132.534c0-.432.352-.783.783-.783h149.1c.432 0 .783.352.783.783v24.85c0 4.143 3.357 7.5 7.5 7.5h9.067v9.067c0 4.143 3.357 7.5 7.5 7.5s7.5-3.357 7.5-7.5v-9.067h9.066c4.143 0 7.5-3.357 7.5-7.5v-24.85c0-.432.352-.783.783-.783h24.85c4.143 0 7.5-3.357 7.5-7.5v-9.066h9.067c4.143 0 7.5-3.357 7.5-7.5s-3.357-7.5-7.5-7.5h-9.067v-9.066c0-4.143-3.357-7.5-7.5-7.5h-24.85c-.432 0-.783-.352-.783-.784v-24.85c0-4.143-3.357-7.5-7.5-7.5h-9.066v-9.066c0-4.143-3.357-7.5-7.5-7.5s-7.5 3.357-7.5 7.5v9.066h-9.067c-4.143 0-7.5 3.357-7.5 7.5v24.85c0 .433-.352.784-.783.784h-73.984c-4.143 0-7.5 3.357-7.5 7.5s3.357 7.5 7.5 7.5h73.983c8.703 0 15.783-7.081 15.783-15.784v-17.35h18.134v17.35c0 8.703 7.08 15.784 15.783 15.784h17.35v18.132h-17.35c-8.703 0-15.783 7.08-15.783 15.783v17.35h-18.134v-17.35c0-8.703-7.08-15.783-15.783-15.783h-149.1c-8.703 0-15.783 7.08-15.783 15.783v132.533c0 8.703 7.08 15.783 15.783 15.783h149.1c8.703 0 15.783-7.08 15.783-15.783v-33.916h18.134v33.917c0 8.703 7.08 15.783 15.783 15.783h149.1c8.703 0 15.784-7.08 15.784-15.783v-132.534c0-8.703-7.081-15.783-15.784-15.783h-50.483v-18.133h50.483c8.703 0 15.784-7.081 15.784-15.784v-17.339h18.133v232.706c0 .432-.352.783-.783.783h-414.167c-.432 0-.783-.352-.783-.783v-414.167c0-.432.352-.783.783-.783h324.617c4.143 0 7.5-3.357 7.5-7.5s-3.357-7.5-7.5-7.5h-324.617c-1.722 0-3.376.287-4.929.799-1.01-.507-2.147-.799-3.354-.799h-16.567c-4.143 0-7.5 3.357-7.5 7.5s3.357 7.5 7.5 7.5h9.106c-.013.261-.04.519-.04.783v414.167c0 .264.027.522.04.783h-9.106c-4.143 0-7.5 3.357-7.5 7.5s3.357 7.5 7.5 7.5h9.066v9.066c0 4.143 3.357 7.5 7.5 7.5s7.5-3.357 7.5-7.5v-9.106c.261.013.519.04.783.04h414.167c.264 0 .522-.027.783-.04v9.106c0 4.143 3.357 7.5 7.5 7.5s7.5-3.357 7.5-7.5v-16.566c0-1.208-.292-2.344-.799-3.355.512-1.553.799-3.207.799-4.929v-240.205c.001-4.142-3.356-7.5-7.499-7.5z"/><path d="m496.217 0h-59.55c-4.143 0-7.5 3.357-7.5 7.5s3.357 7.5 7.5 7.5h59.55c.432 0 .783.352.783.783v100.199h-8.747c-.107-.004-.211-.016-.319-.016s-.213.012-.32.016l-8.747.001v-67.066c0-8.703-7.081-15.784-15.784-15.784h-149.1c-8.703 0-15.783 7.081-15.783 15.784v67.049h-18.134v-67.049c0-8.703-7.08-15.784-15.783-15.784h-149.1c-8.703 0-15.783 7.081-15.783 15.784v165.666c0 8.703 7.08 15.784 15.783 15.784h45.117c4.143 0 7.5-3.357 7.5-7.5s-3.357-7.5-7.5-7.5h-45.116c-.432 0-.783-.352-.783-.784v-165.666c0-.433.352-.784.783-.784h149.1c.432 0 .783.352.783.784v74.549c0 4.143 3.357 7.5 7.5 7.5h9.067v9.067c0 4.143 3.357 7.5 7.5 7.5s7.5-3.357 7.5-7.5v-9.067h9.066c4.143 0 7.5-3.357 7.5-7.5v-74.549c0-.433.352-.784.783-.784h149.1c.433 0 .784.352.784.784v74.566c0 1.989.79 3.896 2.197 5.304 1.406 1.406 3.313 2.196 5.303 2.196h9.066v9.05c0 4.143 3.357 7.5 7.5 7.5s7.5-3.357 7.5-7.5v-9.05h9.066c4.143 0 7.5-3.358 7.5-7.5v-107.7c.001-8.703-7.079-15.783-15.782-15.783z"/><path d="m471.367 463.866c-4.143 0-7.5 3.357-7.5 7.5v9.066h-349.466v-9.065c0-4.143-3.357-7.5-7.5-7.5s-7.5 3.357-7.5 7.5v33.133c0 4.143 3.357 7.5 7.5 7.5s7.5-3.357 7.5-7.5v-9.067h349.467v9.067c0 4.143 3.357 7.5 7.5 7.5s7.5-3.357 7.5-7.5v-33.134c-.001-4.142-3.358-7.5-7.501-7.5z"/><path d="m7.5 397.6c-4.143 0-7.5 3.357-7.5 7.5s3.357 7.5 7.5 7.5h33.134c4.143 0 7.5-3.357 7.5-7.5s-3.357-7.5-7.5-7.5h-9.066v-349.467h9.065c4.143 0 7.5-3.357 7.5-7.5s-3.357-7.5-7.5-7.5h-33.133c-4.143 0-7.5 3.357-7.5 7.5s3.357 7.5 7.5 7.5h9.067v349.467z"/><path d="m7.5 445.734h16.567c4.143 0 7.5-3.357 7.5-7.5s-3.357-7.5-7.5-7.5h-16.567c-4.143 0-7.5 3.357-7.5 7.5 0 4.142 3.358 7.5 7.5 7.5z"/><path d="m7.5 15h16.567c4.143 0 7.5-3.357 7.5-7.5s-3.357-7.5-7.499-7.5h-16.568c-4.142 0-7.5 3.358-7.5 7.5s3.358 7.5 7.5 7.5z"/><path d="m73.767 480.434c-4.143 0-7.5 3.357-7.5 7.5v16.566c0 4.143 3.357 7.5 7.5 7.5s7.5-3.357 7.5-7.5v-16.566c0-4.143-3.358-7.5-7.5-7.5z"/><path d="m504.5 480.434c-4.143 0-7.5 3.357-7.5 7.5v16.566c0 4.143 3.357 7.5 7.5 7.5s7.5-3.357 7.5-7.5v-16.566c0-4.143-3.357-7.5-7.5-7.5z"/><path d="m45.938 466.063c-2.93-2.928-7.678-2.928-10.607 0l-11.263 11.263-11.263-11.263c-2.93-2.928-7.678-2.928-10.607 0-2.929 2.93-2.929 7.678 0 10.607l11.263 11.263-11.264 11.263c-2.929 2.93-2.929 7.678 0 10.607 1.464 1.465 3.384 2.197 5.303 2.197s3.839-.732 5.304-2.196l11.263-11.263 11.263 11.263c1.465 1.464 3.385 2.196 5.304 2.196s3.839-.732 5.304-2.196c2.929-2.93 2.929-7.678 0-10.607l-11.263-11.263 11.263-11.263c2.928-2.931 2.928-7.679 0-10.608z"/></g></g></svg>