<svg id="Capa_1" enable-background="new 0 0 512 512" height="512" viewBox="0 0 512 512" width="512" xmlns="http://www.w3.org/2000/svg"><g><g><path d="m487.933 487.933h-463.866v-463.866h298.2v132.533h115.966 49.7z" fill="#e2dfe2"/><g><g><g><path d="m299.266 24.067h23v132.533h-23z" fill="#d3ced5"/></g><g><path d="m464.933 156.6h23v331.333h-23z" fill="#d3ced5"/></g></g></g><path d="m32.633 239.433h-17.133c-4.418 0-8-3.582-8-8v-83.4c0-4.418 3.582-8 8-8h17.133c4.418 0 8 3.582 8 8v83.4c0 4.419-3.581 8-8 8z" fill="#eaa96a"/><path d="m496.5 239.433h-17.133c-4.418 0-8-3.582-8-8v-83.4c0-4.418 3.582-8 8-8h17.133c4.418 0 8 3.582 8 8v83.4c0 4.419-3.582 8-8 8z" fill="#eaa96a"/><path d="m32.633 504.5h-17.133c-4.418 0-8-3.582-8-8v-83.4c0-4.418 3.582-8 8-8h17.133c4.418 0 8 3.582 8 8v83.4c0 4.418-3.581 8-8 8z" fill="#dd636e"/><path d="m496.5 504.5h-17.133c-4.418 0-8-3.582-8-8v-83.4c0-4.418 3.582-8 8-8h17.133c4.418 0 8 3.582 8 8v83.4c0 4.418-3.582 8-8 8z" fill="#eaa96a"/><g><path d="m330.833 106.9h-149.666c-4.418 0-8-3.582-8-8v-83.4c0-4.418 3.582-8 8-8h149.667c4.418 0 8 3.582 8 8v83.4c-.001 4.418-3.582 8-8.001 8z" fill="#dd636e"/><path d="m330.833 7.5h-23.005c4.418 0 8 3.582 8 8v83.4c0 4.418-3.582 8-8 8h23.005c4.418 0 8-3.582 8-8v-83.4c0-4.418-3.581-8-8-8z" fill="#da4a54"/></g><g><path d="m231.433 239.433h-149.666c-4.418 0-8-3.582-8-8v-83.4c0-4.418 3.582-8 8-8h149.667c4.418 0 8 3.582 8 8v83.4c-.001 4.419-3.582 8-8.001 8z" fill="#dd636e"/><path d="m231.433 140.033h-23.005c4.418 0 8 3.582 8 8v83.4c0 4.419-3.582 8-8 8h23.005c4.418 0 8-3.581 8-8v-83.4c0-4.418-3.581-8-8-8z" fill="#da4a54"/></g><g><path d="m430.233 239.433h-149.666c-4.418 0-8-3.582-8-8v-83.4c0-4.418 3.582-8 8-8h149.667c4.418 0 8 3.582 8 8v83.4c-.001 4.419-3.582 8-8.001 8z" fill="#eaa96a"/><path d="m430.233 140.033h-23.005c4.418 0 8 3.582 8 8v83.4c0 4.419-3.582 8-8 8h23.005c4.418 0 8-3.581 8-8v-83.4c0-4.418-3.581-8-8-8z" fill="#e5935d"/></g><g><path d="m330.833 371.967h-149.666c-4.418 0-8-3.582-8-8v-83.4c0-4.418 3.582-8 8-8h149.667c4.418 0 8 3.582 8 8v83.4c-.001 4.418-3.582 8-8.001 8z" fill="#eaa96a"/><path d="m330.833 272.567h-23.005c4.418 0 8 3.582 8 8v83.4c0 4.418-3.582 8-8 8h23.005c4.418 0 8-3.582 8-8v-83.4c0-4.419-3.581-8-8-8z" fill="#e5935d"/></g><g><path d="m496.5 371.967h-116.533c-4.418 0-8-3.582-8-8v-83.4c0-4.418 3.582-8 8-8h116.533c4.418 0 8 3.582 8 8v83.4c0 4.418-3.582 8-8 8z" fill="#dd636e"/><path d="m496.5 272.567h-23.005c4.418 0 8 3.582 8 8v83.4c0 4.418-3.582 8-8 8h23.005c4.418 0 8-3.582 8-8v-83.4c0-4.419-3.582-8-8-8z" fill="#da4a54"/></g><g><path d="m132.033 371.967h-116.533c-4.418 0-8-3.582-8-8v-83.4c0-4.418 3.582-8 8-8h116.533c4.418 0 8 3.582 8 8v83.4c0 4.418-3.581 8-8 8z" fill="#eaa96a"/><path d="m132.033 272.567h-23.005c4.418 0 8 3.582 8 8v83.4c0 4.418-3.582 8-8 8h23.005c4.418 0 8-3.582 8-8v-83.4c0-4.419-3.581-8-8-8z" fill="#e5935d"/></g><g><path d="m231.433 504.5h-149.666c-4.418 0-8-3.582-8-8v-83.4c0-4.418 3.582-8 8-8h149.667c4.418 0 8 3.582 8 8v83.4c-.001 4.418-3.582 8-8.001 8z" fill="#eaa96a"/><path d="m231.433 405.1h-23.005c4.418 0 8 3.582 8 8v83.4c0 4.419-3.582 8-8 8h23.005c4.418 0 8-3.581 8-8v-83.4c0-4.418-3.581-8-8-8z" fill="#e5935d"/></g><g><path d="m430.233 504.5h-149.666c-4.418 0-8-3.582-8-8v-83.4c0-4.418 3.582-8 8-8h149.667c4.418 0 8 3.582 8 8v83.4c-.001 4.418-3.582 8-8.001 8z" fill="#dd636e"/><path d="m430.233 405.1h-23.005c4.418 0 8 3.582 8 8v83.4c0 4.419-3.582 8-8 8h23.005c4.418 0 8-3.581 8-8v-83.4c0-4.418-3.581-8-8-8z" fill="#da4a54"/></g><g><path d="m132.033 106.9h-116.533c-4.418 0-8-3.582-8-8v-83.4c0-4.418 3.582-8 8-8h116.533c4.418 0 8 3.582 8 8v83.4c0 4.418-3.581 8-8 8z" fill="#eaa96a"/><path d="m132.033 7.5h-23.005c4.418 0 8 3.582 8 8v83.4c0 4.418-3.582 8-8 8h23.005c4.418 0 8-3.582 8-8v-83.4c0-4.418-3.581-8-8-8z" fill="#e5935d"/></g><g fill="#e5935d"><path d="m496.5 140.033h-17.133c-1.037 0-2.024.204-2.934.563 2.965 1.171 5.066 4.056 5.066 7.437v83.4c0 3.382-2.101 6.266-5.066 7.437.909.359 1.897.563 2.934.563h17.133c4.418 0 8-3.582 8-8v-83.4c0-4.418-3.582-8-8-8z"/><path d="m496.5 405.1h-17.133c-1.037 0-2.024.204-2.934.563 2.965 1.171 5.066 4.056 5.066 7.437v83.4c0 3.382-2.101 6.266-5.066 7.437.909.359 1.897.563 2.934.563h17.133c4.418 0 8-3.582 8-8v-83.4c0-4.418-3.582-8-8-8z"/><path d="m32.633 140.033h-17.133c-1.037 0-2.024.204-2.934.563 2.965 1.171 5.066 4.056 5.066 7.437v83.4c0 3.382-2.101 6.266-5.066 7.437.909.359 1.897.563 2.934.563h17.133c4.418 0 8-3.582 8-8v-83.4c0-4.418-3.581-8-8-8z"/></g><path d="m32.633 405.1h-17.133c-1.037 0-2.024.204-2.934.563 2.965 1.171 5.066 4.056 5.066 7.437v83.4c0 3.382-2.101 6.266-5.066 7.437.909.359 1.897.563 2.934.563h17.133c4.418 0 8-3.582 8-8v-83.4c0-4.418-3.581-8-8-8z" fill="#da4a54"/></g><g><path d="m246.933 231.434v-83.4c0-8.547-6.953-15.5-15.5-15.5h-149.666c-8.547 0-15.5 6.953-15.5 15.5v83.4c0 8.547 6.953 15.5 15.5 15.5h149.667c8.546 0 15.499-6.954 15.499-15.5zm-165.666 0v-50.767h25.633c4.142 0 7.5-3.357 7.5-7.5s-3.358-7.5-7.5-7.5h-25.633v-17.634c0-.275.224-.5.5-.5h149.667c.276 0 .5.225.5.5v83.4c0 .275-.224.5-.5.5h-149.667c-.276.001-.5-.224-.5-.499z"/><path d="m496.5 246.934c8.547 0 15.5-6.953 15.5-15.5v-83.4c0-8.547-6.953-15.5-15.5-15.5h-17.133c-8.547 0-15.5 6.953-15.5 15.5v1.066h-18.133v-1.066c0-8.547-6.953-15.5-15.5-15.5h-100.467v-18.134h1.067c8.547 0 15.5-6.953 15.5-15.5v-83.4c0-8.547-6.953-15.5-15.5-15.5h-85.102c-4.142 0-7.5 3.357-7.5 7.5s3.358 7.5 7.5 7.5h85.102c.276 0 .5.225.5.5v83.4c0 .275-.224.5-.5.5h-149.667c-.276 0-.5-.225-.5-.5v-50.767h25.633c4.142 0 7.5-3.357 7.5-7.5s-3.358-7.5-7.5-7.5h-25.633v-17.633c0-.275.224-.5.5-.5h34.566c4.142 0 7.5-3.357 7.5-7.5s-3.358-7.5-7.5-7.5h-34.566c-8.547 0-15.5 6.953-15.5 15.5v1.066h-18.133v-1.066c0-8.547-6.953-15.5-15.5-15.5h-116.534c-8.547 0-15.5 6.953-15.5 15.5v83.4c0 8.547 6.953 15.5 15.5 15.5h1.067v18.133h-1.067c-8.547 0-15.5 6.953-15.5 15.5v83.4c0 8.547 6.953 15.5 15.5 15.5h1.067v18.133h-1.067c-8.547 0-15.5 6.953-15.5 15.5v83.4c0 8.547 6.953 15.5 15.5 15.5h1.067v18.134h-1.067c-8.547 0-15.5 6.953-15.5 15.5v83.4c0 8.547 6.953 15.5 15.5 15.5h17.133c8.547 0 15.5-6.953 15.5-15.5v-1.066h18.133v1.066c0 8.547 6.953 15.5 15.5 15.5h27.764c4.142 0 7.5-3.357 7.5-7.5s-3.358-7.5-7.5-7.5h-27.763c-.276 0-.5-.225-.5-.5v-50.767h25.633c4.142 0 7.5-3.357 7.5-7.5s-3.358-7.5-7.5-7.5h-25.633v-17.633c0-.275.224-.5.5-.5h149.667c.276 0 .5.225.5.5v83.4c0 .275-.224.5-.5.5h-91.902c-4.142 0-7.5 3.357-7.5 7.5s3.358 7.5 7.5 7.5h91.902c8.547 0 15.5-6.953 15.5-15.5v-1.066h18.134v1.066c0 8.547 6.953 15.5 15.5 15.5h149.667c8.547 0 15.5-6.953 15.5-15.5v-1.066h18.133v1.066c0 8.547 6.953 15.5 15.5 15.5h17.132c8.547 0 15.5-6.953 15.5-15.5v-83.4c0-8.547-6.953-15.5-15.5-15.5h-1.067v-18.133h1.067c8.547 0 15.5-6.953 15.5-15.5v-83.4c0-8.547-6.953-15.5-15.5-15.5h-1.067v-18.133zm-17.633-98.901c0-.275.224-.5.5-.5h17.133c.276 0 .5.225.5.5v83.4c0 .275-.224.5-.5.5h-17.133c-.276 0-.5-.225-.5-.5zm-48.134 0v83.4c0 .275-.224.5-.5.5h-149.666c-.276 0-.5-.225-.5-.5v-50.767h25.633c4.142 0 7.5-3.357 7.5-7.5s-3.358-7.5-7.5-7.5h-25.633v-17.634c0-.275.224-.5.5-.5h149.667c.275.001.499.226.499.501zm-415.733-49.133v-50.767h25.633c4.142 0 7.5-3.357 7.5-7.5s-3.358-7.5-7.5-7.5h-25.633v-17.633c0-.275.224-.5.5-.5h116.533c.276 0 .5.225.5.5v83.4c0 .275-.224.5-.5.5h-116.533c-.276 0-.5-.224-.5-.5zm0 132.534v-83.4c0-.275.224-.5.5-.5h17.133c.276 0 .5.225.5.5v83.4c0 .275-.224.5-.5.5h-17.133c-.276 0-.5-.225-.5-.5zm0 132.533v-50.767h25.633c4.142 0 7.5-3.357 7.5-7.5s-3.358-7.5-7.5-7.5h-25.633v-17.634c0-.275.224-.5.5-.5h116.533c.276 0 .5.225.5.5v83.4c0 .275-.224.5-.5.5h-116.533c-.276.001-.5-.224-.5-.499zm18.133 132.533c0 .275-.224.5-.5.5h-17.133c-.276 0-.5-.225-.5-.5v-83.4c0-.275.224-.5.5-.5h17.133c.276 0 .5.225.5.5zm397.6 0c0 .275-.224.5-.5.5h-149.666c-.276 0-.5-.225-.5-.5v-50.767h25.633c4.142 0 7.5-3.357 7.5-7.5s-3.358-7.5-7.5-7.5h-25.633v-17.633c0-.275.224-.5.5-.5h149.667c.276 0 .5.225.5.5v83.4zm66.267-83.4v83.4c0 .275-.224.5-.5.5h-17.133c-.276 0-.5-.225-.5-.5v-83.4c0-.275.224-.5.5-.5h17.133c.276 0 .5.224.5.5zm0-132.534v83.4c0 .275-.224.5-.5.5h-116.533c-.276 0-.5-.225-.5-.5v-50.766h25.633c4.142 0 7.5-3.357 7.5-7.5s-3.358-7.5-7.5-7.5h-25.633v-17.634c0-.275.224-.5.5-.5h116.533c.276 0 .5.225.5.5zm-16.567-15.5h-100.466c-8.547 0-15.5 6.953-15.5 15.5v83.4c0 8.547 6.953 15.5 15.5 15.5h100.466v18.134h-1.066c-8.547 0-15.5 6.953-15.5 15.5v67.334h-18.133v-67.334c0-8.547-6.953-15.5-15.5-15.5h-149.667c-8.547 0-15.5 6.953-15.5 15.5v67.334h-18.134v-67.334c0-8.547-6.953-15.5-15.5-15.5h-149.666c-8.547 0-15.5 6.953-15.5 15.5v67.334h-18.134v-67.334c0-8.547-6.953-15.5-15.5-15.5h-1.066v-18.133h100.466c8.547 0 15.5-6.953 15.5-15.5v-83.4c0-8.547-6.953-15.5-15.5-15.5h-100.466v-18.133h1.066c8.547 0 15.5-6.953 15.5-15.5v-83.4c0-8.547-6.953-15.5-15.5-15.5h-1.066v-18.134h100.466c8.547 0 15.5-6.953 15.5-15.5v-67.334h18.133v67.334c0 8.547 6.953 15.5 15.5 15.5h133.6v18.133h-34.2c-8.547 0-15.5 6.953-15.5 15.5v83.4c0 8.547 6.953 15.5 15.5 15.5h149.667c8.547 0 15.5-6.953 15.5-15.5v-67.333h18.133v67.334c0 8.547 6.953 15.5 15.5 15.5h1.066v18.132z"/><path d="m330.833 265.066h-149.666c-8.547 0-15.5 6.953-15.5 15.5v83.4c0 8.547 6.953 15.5 15.5 15.5h149.667c8.547 0 15.5-6.953 15.5-15.5v-83.4c-.001-8.546-6.954-15.5-15.501-15.5zm.5 98.901c0 .275-.224.5-.5.5h-149.666c-.276 0-.5-.225-.5-.5v-50.767h25.633c4.142 0 7.5-3.357 7.5-7.5s-3.358-7.5-7.5-7.5h-25.633v-17.634c0-.275.224-.5.5-.5h149.667c.276 0 .5.225.5.5v83.401z"/></g></g></svg>