<svg id="Capa_1" enable-background="new 0 0 512 512" height="512" viewBox="0 0 512 512" width="512" xmlns="http://www.w3.org/2000/svg"><g><g><path d="m487.933 476.367h-463.866v-460.867c0-4.418 3.582-8 8-8h447.867c4.418 0 8 3.582 8 8v460.867z" fill="#8cbdf9"/><path d="m479.933 7.5h-23c4.418 0 8 3.582 8 8v460.867h23v-460.867c0-4.418-3.581-8-8-8z" fill="#73a2da"/><g><g><g><path d="m446.8 322.267h-17.133c-4.418 0-8-3.582-8-8v-17.133c0-4.418 3.582-8 8-8h17.133c4.418 0 8 3.582 8 8v17.133c0 4.418-3.582 8-8 8z" fill="#f4f2f4"/></g><g><path d="m446.8 388.533h-17.133c-4.418 0-8-3.582-8-8v-17.133c0-4.418 3.582-8 8-8h17.133c4.418 0 8 3.582 8 8v17.133c0 4.419-3.582 8-8 8z" fill="#f4f2f4"/></g></g></g><g><path d="m296.7 106.9h-114.533c-4.971 0-9-4.029-9-9v-48.267c0-4.971 4.029-9 9-9h114.533c4.971 0 9 4.029 9 9v48.267c0 4.971-4.029 9-9 9z" fill="#4c5e71"/><path d="m296.7 40.633h-23c4.971 0 9 4.029 9 9v48.267c0 4.971-4.029 9-9 9h23c4.971 0 9-4.029 9-9v-48.267c0-4.97-4.029-9-9-9z" fill="#3c4958"/></g><g><g><path d="m388.533 476.367h-298.2v-328.334c0-4.418 3.582-8 8-8h282.2c4.418 0 8 3.582 8 8z" fill="#f4f2f4"/><path d="m380.533 140.033h-23c4.418 0 8 3.582 8 8v328.333h23v-328.333c0-4.418-3.581-8-8-8z" fill="#e2dfe2"/><path d="m123.467 222.867h231.933v253.5h-231.933z" fill="#ece3de"/></g><path d="m156.6 222.867h165.667v219.133h-165.667z" fill="#d3ced5"/><path d="m299.267 222.867h23v219.133h-23z" fill="#c3bec6"/><path d="m156.6 438.233h165.667v38.133h-165.667z" fill="#eaa96a"/><path d="m156.6 322.267h165.667v33.133h-165.667z" fill="#eaa96a"/><g fill="#e5935d"><path d="m299.267 438.233h23v38.133h-23z"/><path d="m299.267 322.267h23v33.133h-23z"/></g></g><path d="m496.5 504.5h-481c-4.418 0-8-3.582-8-8v-17.133c0-4.418 3.582-8 8-8h481c4.418 0 8 3.582 8 8v17.133c0 4.418-3.582 8-8 8z" fill="#e2dfe2"/><path d="m496.5 471.367h-23c4.418 0 8 3.582 8 8v17.133c0 4.418-3.582 8-8 8h23c4.418 0 8-3.582 8-8v-17.133c0-4.419-3.582-8-8-8z" fill="#d3ced5"/></g><g><path d="m496.5 463.867h-1.066v-448.367c0-8.547-6.953-15.5-15.5-15.5h-374.601c-4.143 0-7.5 3.358-7.5 7.5s3.357 7.5 7.5 7.5h374.601c.275 0 .5.224.5.5v448.367h-84.4v-315.834c0-8.547-6.953-15.5-15.5-15.5h-282.2c-8.547 0-15.5 6.953-15.5 15.5v315.833h-51.268v-45.334c0-4.142-3.357-7.5-7.5-7.5s-7.5 3.358-7.5 7.5v45.334h-1.066c-8.547 0-15.5 6.953-15.5 15.5v17.134c0 8.547 6.953 15.5 15.5 15.5h481c8.547 0 15.5-6.953 15.5-15.5v-17.133c0-8.547-6.953-15.5-15.5-15.5zm-365.533-233.5h18.133v233.5h-18.133zm183.8 0v84.4h-150.667v-84.4zm0 117.533h-150.667v-18.133h150.667zm-150.667 15h150.667v67.833h-150.667zm0 82.833h150.667v18.133h-150.667zm165.667-215.366h18.133v233.5h-18.134v-233.5zm33.133 0h18.133v233.5h-18.133zm-264.567-82.834h282.2c.275 0 .5.224.5.5v67.333h-283.2v-67.333c0-.276.225-.5.5-.5zm-.5 82.834h18.134v233.5h-18.134zm399.167 266.133c0 .276-.225.5-.5.5h-481c-.275 0-.5-.224-.5-.5v-17.133c0-.276.225-.5.5-.5h481c.275 0 .5.224.5.5z"/><path d="m24.066 396.033c4.143 0 7.5-3.358 7.5-7.5v-373.033c0-.276.225-.5.5-.5h43.267c4.143 0 7.5-3.358 7.5-7.5s-3.357-7.5-7.5-7.5h-43.267c-8.547 0-15.5 6.953-15.5 15.5v373.033c0 4.142 3.358 7.5 7.5 7.5z"/><path d="m429.667 329.767h17.133c8.547 0 15.5-6.953 15.5-15.5v-17.133c0-8.547-6.953-15.5-15.5-15.5h-17.133c-8.547 0-15.5 6.953-15.5 15.5v17.133c0 8.547 6.953 15.5 15.5 15.5zm-.5-32.634c0-.276.225-.5.5-.5h17.133c.275 0 .5.224.5.5v17.133c0 .276-.225.5-.5.5h-17.133c-.275 0-.5-.224-.5-.5z"/><path d="m414.167 380.533c0 8.547 6.953 15.5 15.5 15.5h17.133c8.547 0 15.5-6.953 15.5-15.5v-17.133c0-8.547-6.953-15.5-15.5-15.5h-17.133c-8.547 0-15.5 6.953-15.5 15.5zm15-17.133c0-.276.225-.5.5-.5h17.133c.275 0 .5.224.5.5v17.133c0 .276-.225.5-.5.5h-17.133c-.275 0-.5-.224-.5-.5z"/><path d="m296.7 114.4c9.099 0 16.5-7.402 16.5-16.5v-48.267c0-9.098-7.401-16.5-16.5-16.5h-114.533c-9.099 0-16.5 7.402-16.5 16.5v48.267c0 9.098 7.401 16.5 16.5 16.5zm-116.033-16.5v-48.267c0-.827.673-1.5 1.5-1.5h114.533c.827 0 1.5.673 1.5 1.5v48.267c0 .827-.673 1.5-1.5 1.5h-114.533c-.827 0-1.5-.673-1.5-1.5z"/><path d="m206.3 81.267h16.567c4.143 0 7.5-3.358 7.5-7.5s-3.357-7.5-7.5-7.5h-16.567c-4.143 0-7.5 3.358-7.5 7.5s3.357 7.5 7.5 7.5z"/><path d="m256 81.267h16.566c4.143 0 7.5-3.358 7.5-7.5s-3.357-7.5-7.5-7.5h-16.566c-4.143 0-7.5 3.358-7.5 7.5s3.357 7.5 7.5 7.5z"/></g></g></svg>