<svg id="Capa_1" enable-background="new 0 0 512 512" height="512" viewBox="0 0 512 512" width="512" xmlns="http://www.w3.org/2000/svg"><g><g><path d="m322.267 409.333h-132.534v87.167c0 4.418 3.582 8 8 8h116.533c4.418 0 8-3.582 8-8v-87.167z" fill="#eaa96a"/><path d="m299.267 409.333v87.167c0 4.418-3.582 8-8 8h23c4.418 0 8-3.582 8-8v-87.167z" fill="#e5935d"/><path d="m206.3 338.667h99.4v66.6h-99.4z" fill="#e2dfe2"/><path d="m282.7 338.667h23v66.433h-23z" fill="#d3ced5"/><path d="m330.833 421.667h-149.666c-4.418 0-8-3.582-8-8v-17.133c0-4.418 3.582-8 8-8h149.667c4.418 0 8 3.582 8 8v17.133c-.001 4.418-3.582 8-8.001 8z" fill="#f4f2f4"/><path d="m367.757 263.306-76.416-168.117c-1.344-2.957-4.293-4.856-7.541-4.856h-55.6c-3.248 0-6.197 1.899-7.541 4.856l-76.417 168.117c-2.582 5.681-1.753 12.331 2.145 17.204l59.913 74.89h99.4l59.912-74.89c3.898-4.873 4.728-11.523 2.145-17.204z" fill="#f4f2f4"/><path d="m367.757 263.306-76.416-168.117c-1.344-2.957-4.293-4.856-7.541-4.856h-23c3.248 0 6.197 1.899 7.541 4.856l76.417 168.117c2.582 5.681 1.753 12.332-2.145 17.205l-59.913 74.889h23l59.912-74.89c3.898-4.873 4.728-11.523 2.145-17.204z" fill="#e2dfe2"/><ellipse cx="256" cy="264.283" fill="#3c4958" rx="16.567" ry="16.567" transform="matrix(.924 -.383 .383 .924 -81.65 118.084)"/><path d="m330.833 388.533h-23c4.418 0 8 3.582 8 8v17.133c0 4.418-3.582 8-8 8h23c4.418 0 8-3.582 8-8v-17.133c0-4.418-3.581-8-8-8z" fill="#e2dfe2"/></g><g><path d="m478.769 241.387c-2.55-91.237-60.036-169.788-142.089-201.537h111.824c3.16 9.608 12.212 16.567 22.864 16.567 13.27 0 24.066-10.797 24.066-24.067s-10.797-24.067-24.067-24.067c-10.652 0-19.704 6.958-22.864 16.566h-160.153v-9.349c0-8.547-6.953-15.5-15.5-15.5h-33.7c-8.547 0-15.5 6.953-15.5 15.5v9.35h-160.153c-3.16-9.608-12.212-16.566-22.864-16.566-13.27 0-24.066 10.796-24.066 24.066s10.796 24.067 24.066 24.067c10.652 0 19.704-6.959 22.864-16.567h111.823c-82.053 31.748-139.538 110.3-142.089 201.537-9.659 3.13-16.665 12.208-16.665 22.897 0 13.271 10.796 24.066 24.066 24.066 13.271 0 24.067-10.796 24.067-24.066 0-10.613-6.909-19.637-16.463-22.828 2.969-100.096 76.825-183.737 175.414-199.094v6.838c0 8.547 6.953 15.5 15.5 15.5h33.7c8.547 0 15.5-6.953 15.5-15.5v-6.839c98.589 15.357 172.444 98.998 175.413 199.093-9.554 3.191-16.463 12.215-16.463 22.828 0 13.271 10.796 24.066 24.067 24.066 13.27 0 24.066-10.796 24.066-24.066 0-10.687-7.006-19.765-16.664-22.895zm-438.136 31.963c-4.999 0-9.066-4.067-9.066-9.066s4.067-9.066 9.066-9.066c5 0 9.067 4.067 9.067 9.066s-4.067 9.066-9.067 9.066zm430.734-250.067c4.999 0 9.066 4.067 9.066 9.066 0 5-4.067 9.067-9.066 9.067-5 0-9.067-4.067-9.067-9.067 0-4.998 4.067-9.066 9.067-9.066zm-430.734 18.134c-4.999 0-9.066-4.067-9.066-9.067 0-4.999 4.067-9.066 9.066-9.066 5 0 9.067 4.067 9.067 9.066 0 5-4.067 9.067-9.067 9.067zm232.217 8.283h-33.7c-.276 0-.5-.225-.5-.5v-15.515c0-.003 0-.007 0-.01v-18.175c0-.275.224-.5.5-.5h33.7c.276 0 .5.225.5.5v18.168.029 15.503c0 .276-.224.5-.5.5zm198.517 223.65c-5 0-9.067-4.067-9.067-9.066s4.067-9.066 9.067-9.066c4.999 0 9.066 4.067 9.066 9.066s-4.067 9.066-9.066 9.066z"/><path d="m298.168 92.087c-2.555-5.622-8.195-9.254-14.369-9.254h-55.6c-6.174 0-11.814 3.632-14.368 9.253l-16.855 37.081c-1.714 3.77-.047 8.217 3.724 9.932 3.771 1.712 8.217.047 9.931-3.725l16.856-37.082c.127-.278.406-.459.712-.459h20.3v143.587c-9.608 3.16-16.567 12.212-16.567 22.864 0 13.271 10.796 24.066 24.067 24.066s24.067-10.796 24.067-24.066c0-10.652-6.959-19.704-16.567-22.864v-143.587h20.3c.306 0 .586.181.713.46l76.417 168.115c1.421 3.127.971 6.735-1.174 9.416l-57.66 72.076h-92.191l-57.66-72.076c-2.145-2.681-2.595-6.289-1.174-9.415l46.307-101.875c1.714-3.77.047-8.217-3.724-9.932-3.771-1.712-8.218-.047-9.931 3.725l-46.307 101.876c-3.771 8.298-2.577 17.874 3.117 24.992l58.268 72.836v23.002h-17.633c-8.547 0-15.5 6.953-15.5 15.5v17.134c0 8.547 6.953 15.5 15.5 15.5h1.067v67.333c0 8.547 6.953 15.5 15.5 15.5h18.436c4.142 0 7.5-3.357 7.5-7.5s-3.358-7.5-7.5-7.5h-18.436c-.276 0-.5-.225-.5-.5v-34.2h117.533v34.2c0 .275-.224.5-.5.5h-68.191c-4.142 0-7.5 3.357-7.5 7.5s3.358 7.5 7.5 7.5h68.191c8.547 0 15.5-6.953 15.5-15.5v-67.333h1.067c8.547 0 15.5-6.953 15.5-15.5v-17.134c0-8.547-6.953-15.5-15.5-15.5h-17.634v-23.002l58.268-72.836c5.694-7.118 6.888-16.694 3.117-24.993zm-42.168 181.263c-4.999 0-9.067-4.067-9.067-9.066s4.067-9.066 9.067-9.066 9.067 4.067 9.067 9.066-4.067 9.066-9.067 9.066zm58.767 173.95h-117.534v-18.133h117.533v18.133zm16.566-50.767v17.134c0 .275-.224.5-.5.5h-149.666c-.276 0-.5-.225-.5-.5v-17.134c0-.275.224-.5.5-.5h149.667c.275 0 .499.225.499.5zm-117.533-15.5v-18.133h84.4v18.133z"/></g></g></svg>