<svg id="Capa_1" enable-background="new 0 0 512 512" height="512" viewBox="0 0 512 512" width="512" xmlns="http://www.w3.org/2000/svg"><g><g><path d="m421.667 49.5h-99.4v-34c0-4.418 3.582-8 8-8h83.4c4.418 0 8 3.582 8 8z" fill="#e2dfe2"/><path d="m413.667 7.5h-23c4.418 0 8 3.582 8 8v34h23v-34c0-4.418-3.582-8-8-8z" fill="#d3ced5"/><path d="m454.8 402.333h-165.667v-353.7c0-4.418 3.582-8 8-8h149.667c4.418 0 8 3.582 8 8z" fill="#f4f2f4"/><path d="m347.4 355.4h-17.133c-4.418 0-8-3.582-8-8v-265.633c0-4.418 3.582-8 8-8h17.133c4.418 0 8 3.582 8 8v265.633c0 4.419-3.582 8-8 8z" fill="#a6ccfb"/><path d="m413.667 355.4h-17.133c-4.418 0-8-3.582-8-8v-265.633c0-4.418 3.582-8 8-8h17.133c4.418 0 8 3.582 8 8v265.633c0 4.419-3.582 8-8 8z" fill="#a6ccfb"/><path d="m446.8 40.633h-23c4.418 0 8 3.582 8 8v353.7h23v-353.7c0-4.418-3.582-8-8-8z" fill="#e2dfe2"/><g><path d="m59.789 438.234h-27.434c-5.549 0-9.528-5.349-7.934-10.664l13.717-45.723c2.361-7.871 13.507-7.871 15.868 0l13.717 45.723c1.595 5.315-2.385 10.664-7.934 10.664z" fill="#a7dda7"/></g><g><path d="m214.583 196.617h-99.4v-32.017c0-4.418 3.582-8 8-8h83.4c4.418 0 8 3.582 8 8z" fill="#e2dfe2"/><path d="m206.583 156.6h-23c4.418 0 8 3.582 8 8v32.017h23v-32.017c0-4.418-3.581-8-8-8z" fill="#d3ced5"/><path d="m98.617 214.583h132.533v265.067h-132.533z" fill="#a6ccfb"/><path d="m148.317 479.65v-49.688c0-4.575 3.709-8.283 8.283-8.283h16.567c4.575 0 8.283 3.709 8.283 8.283v49.688z" fill="#4c5e71"/><path d="m208.15 214.583h23v265.067h-23z" fill="#8cbdf9"/><path d="m239.717 222.867h-149.667c-4.418 0-8-3.582-8-8v-17.133c0-4.418 3.582-8 8-8h149.667c4.418 0 8 3.582 8 8v17.133c0 4.418-3.582 8-8 8z" fill="#f4f2f4"/><path d="m239.717 189.733h-23c4.418 0 8 3.582 8 8v17.133c0 4.418-3.582 8-8 8h23c4.418 0 8-3.582 8-8v-17.133c0-4.418-3.582-8-8-8z" fill="#e2dfe2"/></g><path d="m471.367 479.65h-198.8v-83.117c0-4.418 3.582-8 8-8h182.8c4.418 0 8 3.582 8 8z" fill="#e2dfe2"/><path d="m463.367 388.533h-23c4.418 0 8 3.582 8 8v83.117h23v-83.117c0-4.418-3.582-8-8-8z" fill="#d3ced5"/><path d="m355.4 479.65v-49.688c0-4.575 3.709-8.283 8.283-8.283h16.567c4.575 0 8.283 3.709 8.283 8.283v49.688z" fill="#4c5e71"/><path d="m496.5 504.5h-481c-4.418 0-8-3.582-8-8v-17.133c0-4.418 3.582-8 8-8h481c4.418 0 8 3.582 8 8v17.133c0 4.418-3.582 8-8 8z" fill="#f4f2f4"/><path d="m496.5 471.367h-23c4.418 0 8 3.582 8 8v17.133c0 4.418-3.582 8-8 8h23c4.418 0 8-3.582 8-8v-17.133c0-4.419-3.582-8-8-8z" fill="#e2dfe2"/></g><g><path d="m496.5 463.867h-17.633v-67.334c0-8.547-6.953-15.5-15.5-15.5h-1.067v-332.4c0-8.547-6.953-15.5-15.5-15.5h-17.633v-17.633c0-8.547-6.953-15.5-15.5-15.5h-83.4c-8.547 0-15.5 6.953-15.5 15.5v17.633h-17.634c-8.547 0-15.5 6.953-15.5 15.5v52.367c0 4.143 3.357 7.5 7.5 7.5s7.5-3.357 7.5-7.5v-52.367c0-.275.225-.5.5-.5h149.667c.275 0 .5.225.5.5v332.4h-150.667v-250.033c0-4.143-3.357-7.5-7.5-7.5s-7.5 3.357-7.5 7.5v250.033h-1.066c-8.547 0-15.5 6.953-15.5 15.5v67.334h-26.417v-233.5h1.066c8.547 0 15.5-6.953 15.5-15.5v-17.134c0-8.547-6.953-15.5-15.5-15.5h-17.634v-17.633c0-8.547-6.953-15.5-15.5-15.5h-34.2v-25.633c0-4.143-3.357-7.5-7.5-7.5s-7.5 3.357-7.5 7.5v25.633h-34.199c-8.547 0-15.5 6.953-15.5 15.5v17.634h-17.633c-8.547 0-15.5 6.953-15.5 15.5v17.134c0 8.547 6.953 15.5 15.5 15.5h1.067v233.5h-37.545v-18.134h6.217c5.039 0 9.654-2.318 12.663-6.361 3.008-4.043 3.903-9.13 2.455-13.957l-13.717-45.725c-2.018-6.728-8.094-11.247-15.117-11.247-7.024 0-13.1 4.52-15.118 11.247l-13.717 45.724c-1.448 4.826-.554 9.913 2.454 13.956s7.623 6.362 12.663 6.362h6.217v18.134h-23.072c-8.547 0-15.5 6.953-15.5 15.5v17.133c0 8.547 6.953 15.5 15.5 15.5h43.418c4.143 0 7.5-3.357 7.5-7.5s-3.357-7.5-7.5-7.5h-43.418c-.275 0-.5-.225-.5-.5v-17.133c0-.275.225-.5.5-.5h481c.275 0 .5.225.5.5v17.133c0 .275-.225.5-.5.5h-407.583c-4.143 0-7.5 3.357-7.5 7.5s3.357 7.5 7.5 7.5h407.583c8.547 0 15.5-6.953 15.5-15.5v-17.133c0-8.547-6.953-15.5-15.5-15.5zm-115.467-448.867v18.133h-18.133v-18.133zm-51.266.5c0-.275.225-.5.5-.5h17.633v18.133h-18.134v-17.633zm66.266 17.633v-18.133h17.634c.275 0 .5.225.5.5v17.633zm-364.305 397.285c-.235-.315-.15-.599-.122-.692l13.717-45.724c.078-.262.167-.558.751-.558.583 0 .672.296.75.558l13.717 45.723c.027.094.112.377-.122.693-.235.315-.531.315-.629.315h-27.435c-.097 0-.393 0-.627-.315zm248.838-34.385h182.801c.275 0 .5.225.5.5v34.2h-67.834v-.771c0-8.703-7.08-15.783-15.783-15.783h-16.566c-8.703 0-15.783 7.08-15.783 15.783v.771h-67.834v-34.2c-.001-.275.224-.5.499-.5zm82.334 33.929c0-.432.352-.783.783-.783h16.566c.432 0 .783.352.783.783v33.905h-18.132zm-240.216-265.362c0-.275.225-.5.5-.5h83.399c.275 0 .5.225.5.5v17.634h-84.399zm-33.134 50.267v-17.134c0-.275.225-.5.5-.5h149.667c.275 0 .5.225.5.5v17.134c0 .275-.225.5-.5.5h-149.667c-.276 0-.5-.224-.5-.5zm84.4 249h-18.134v-33.905c0-.432.352-.783.783-.783h16.567c.432 0 .783.352.783.783v33.905zm15 0v-33.905c0-8.703-7.08-15.783-15.783-15.783h-16.567c-8.703 0-15.783 7.08-15.783 15.783v33.905h-34.699v-233.5h117.532v233.5zm91.116-18.134h67.834v18.134h-67.834zm115.967 18.134v-18.134h67.834v18.134z"/><path d="m198.017 248.5h-66.267c-4.143 0-7.5 3.357-7.5 7.5s3.357 7.5 7.5 7.5h66.267c4.143 0 7.5-3.357 7.5-7.5s-3.358-7.5-7.5-7.5z"/><path d="m198.017 281.636h-66.267c-4.143 0-7.5 3.357-7.5 7.5s3.357 7.5 7.5 7.5h66.267c4.143 0 7.5-3.357 7.5-7.5s-3.358-7.5-7.5-7.5z"/><path d="m198.017 314.772h-66.267c-4.143 0-7.5 3.357-7.5 7.5s3.357 7.5 7.5 7.5h66.267c4.143 0 7.5-3.357 7.5-7.5s-3.358-7.5-7.5-7.5z"/><path d="m198.017 347.907h-66.267c-4.143 0-7.5 3.357-7.5 7.5s3.357 7.5 7.5 7.5h66.267c4.143 0 7.5-3.357 7.5-7.5s-3.358-7.5-7.5-7.5z"/><path d="m198.017 381.043h-66.267c-4.143 0-7.5 3.357-7.5 7.5 0 4.142 3.357 7.5 7.5 7.5h66.267c4.143 0 7.5-3.358 7.5-7.5 0-4.143-3.358-7.5-7.5-7.5z"/><path d="m347.4 362.9c8.547 0 15.5-6.953 15.5-15.5v-265.633c0-8.547-6.953-15.5-15.5-15.5h-17.134c-8.547 0-15.5 6.953-15.5 15.5v265.633c0 8.547 6.953 15.5 15.5 15.5zm-17.633-15.5v-265.633c0-.275.225-.5.5-.5h17.133c.275 0 .5.225.5.5v265.633c0 .275-.225.5-.5.5h-17.134c-.275 0-.499-.224-.499-.5z"/><path d="m413.667 362.9c8.547 0 15.5-6.953 15.5-15.5v-265.633c0-8.547-6.953-15.5-15.5-15.5h-17.134c-8.547 0-15.5 6.953-15.5 15.5v265.633c0 8.547 6.953 15.5 15.5 15.5zm-17.634-15.5v-265.633c0-.275.225-.5.5-.5h17.134c.275 0 .5.225.5.5v265.633c0 .275-.225.5-.5.5h-17.134c-.275 0-.5-.224-.5-.5z"/></g></g></svg>