<svg id="Capa_1" enable-background="new 0 0 512 512" height="512" viewBox="0 0 512 512" width="512" xmlns="http://www.w3.org/2000/svg"><g><g><path d="m90.333 296.633h-33.133v-65.767c0-4.418 3.582-8 8-8h17.133c4.418 0 8 3.582 8 8z" fill="#cb835d"/><g><path d="m297.417 101h-82.833v-85.5c0-4.418 3.582-8 8-8h66.833c4.418 0 8 3.582 8 8z" fill="#e2dfe2"/><path d="m289.417 7.5h-23c4.418 0 8 3.582 8 8v85.5h23v-85.5c0-4.418-3.582-8-8-8z" fill="#d3ced5"/><path d="m338.833 141.333v-1.3l-41.416-49.7h-82.834l-41.416 49.7v1.3z" fill="#f4f2f4"/><path d="m297.417 90.333h-23l41.416 49.7v1.3h23v-1.3z" fill="#e2dfe2"/><path d="m338.833 140.033v24.85c0 4.575-3.708 8.283-8.283 8.283h-149.1c-4.575 0-8.283-3.709-8.283-8.283v-24.85z" fill="#e2dfe2"/><path d="m315.841 140.033v24.85c0 4.575-3.709 8.283-8.283 8.283h22.992c4.575 0 8.283-3.709 8.283-8.283v-24.85z" fill="#d3ced5"/></g><g><g><path d="m147.533 289.133h216.934v68.867h-216.934z" fill="#f4f2f4"/><path d="m147.533 355.4h216.934v149.1h-216.934z" fill="#4c5e71"/><path d="m314.267 471.367h-116.534c-4.418 0-8-3.582-8-8v-66.833c0-4.418 3.582-8 8-8h116.533c4.418 0 8 3.582 8 8v66.833c.001 4.418-3.581 8-7.999 8z" fill="#3c4958"/></g><g><path d="m355.4 504.5h141.1c4.418 0 8-3.582 8-8v-144.167h-149.1z" fill="#f4f2f4"/><path d="m481.617 352.333v144.167c0 4.418-3.582 8-8 8h22.883c4.418 0 8-3.582 8-8v-144.167z" fill="#e2dfe2"/><path d="m355.4 355.4h149.1v-58.267c0-4.418-3.582-8-8-8h-141.1z" fill="#a7dda7"/><path d="m496.5 289.133h-22.883c4.418 0 8 3.582 8 8v58.267h22.883v-58.267c0-4.418-3.582-8-8-8z" fill="#8ace9b"/></g><g><path d="m156.6 504.5h-141.1c-4.418 0-8-3.582-8-8v-144.167h149.1z" fill="#f4f2f4"/><path d="m156.6 355.4h-149.1v-58.267c0-4.418 3.582-8 8-8h141.1z" fill="#a7dda7"/></g></g><path d="m379.967 7.5h116.533c4.418 0 8 3.582 8 8v99.967c0 4.418-3.582 8-8 8h-116.533c-4.418 0-8-3.582-8-8v-99.967c0-4.418 3.581-8 8-8z" fill="#f4f2f4"/><path d="m496.5 7.5h-23c4.418 0 8 3.582 8 8v99.967c0 4.418-3.582 8-8 8h23c4.418 0 8-3.582 8-8v-99.967c0-4.418-3.582-8-8-8z" fill="#e2dfe2"/><path d="m15.5 7.5h116.533c4.418 0 8 3.582 8 8v99.967c0 4.418-3.582 8-8 8h-116.533c-4.418 0-8-3.582-8-8v-99.967c0-4.418 3.582-8 8-8z" fill="#f4f2f4"/><path d="m132.033 7.5h-23c4.418 0 8 3.582 8 8v99.967c0 4.418-3.582 8-8 8h23c4.418 0 8-3.582 8-8v-99.967c0-4.418-3.581-8-8-8z" fill="#e2dfe2"/><g fill="#f4f2f4"><ellipse cx="405.1" cy="239.433" rx="16.567" ry="16.567" transform="matrix(.98 -.199 .199 .98 -39.536 85.376)"/><ellipse cx="471.367" cy="239.433" rx="16.567" ry="16.567" transform="matrix(.759 -.651 .651 .759 -42.328 364.464)"/></g></g><g><path d="m181.45 180.667h149.1c8.703 0 15.784-7.08 15.784-15.783v-24.85c0-1.754-.615-3.453-1.738-4.801l-39.679-47.614v-72.119c0-8.547-6.953-15.5-15.5-15.5h-66.833c-8.547 0-15.5 6.953-15.5 15.5v72.118l-39.679 47.614c-1.123 1.348-1.738 3.047-1.738 4.801v24.85c-.001 8.703 7.08 15.784 15.783 15.784zm149.1-15h-149.1c-.432 0-.784-.352-.784-.783v-17.35h150.667v17.35c0 .431-.351.783-.783.783zm-112.454-67.833h75.809l28.916 34.7h-133.642zm3.987-82.334c0-.276.224-.5.5-.5h66.833c.276 0 .5.224.5.5v67.334h-67.833z"/><path d="m314.267 381.033h-116.534c-8.547 0-15.5 6.953-15.5 15.5v66.834c0 8.547 6.953 15.5 15.5 15.5h116.533c8.547 0 15.5-6.953 15.5-15.5v-66.834c.001-8.547-6.953-15.5-15.499-15.5zm.5 82.334c0 .276-.224.5-.5.5h-116.534c-.276 0-.5-.224-.5-.5v-66.834c0-.276.224-.5.5-.5h116.533c.276 0 .5.224.5.5v66.834z"/><path d="m189.733 329.767h8.283c4.142 0 7.5-3.358 7.5-7.5s-3.358-7.5-7.5-7.5h-8.283c-4.142 0-7.5 3.358-7.5 7.5s3.358 7.5 7.5 7.5z"/><path d="m251.858 329.767h8.283c4.142 0 7.5-3.358 7.5-7.5s-3.358-7.5-7.5-7.5h-8.283c-4.142 0-7.5 3.358-7.5 7.5s3.358 7.5 7.5 7.5z"/><path d="m313.983 329.767h8.283c4.142 0 7.5-3.358 7.5-7.5s-3.358-7.5-7.5-7.5h-8.283c-4.142 0-7.5 3.358-7.5 7.5s3.358 7.5 7.5 7.5z"/><path d="m289.133 414.167h-66.267c-4.142 0-7.5 3.358-7.5 7.5s3.358 7.5 7.5 7.5h66.267c4.142 0 7.5-3.358 7.5-7.5 0-4.143-3.358-7.5-7.5-7.5z"/><path d="m90.333 314.767h-16.566c-4.142 0-7.5 3.358-7.5 7.5s3.358 7.5 7.5 7.5h16.567c4.142 0 7.5-3.358 7.5-7.5-.001-4.142-3.358-7.5-7.501-7.5z"/><path d="m33.133 413.383v33.133c0 4.142 3.358 7.5 7.5 7.5s7.5-3.358 7.5-7.5v-33.133c0-4.142-3.358-7.5-7.5-7.5s-7.5 3.358-7.5 7.5z"/><path d="m496.5 281.633h-398.667v-50.767c0-8.547-6.953-15.5-15.5-15.5h-17.133c-8.547 0-15.5 6.953-15.5 15.5v50.767h-34.2c-8.547 0-15.5 6.953-15.5 15.5v58.267 141.1c0 8.547 6.953 15.5 15.5 15.5h51.833c4.142 0 7.5-3.358 7.5-7.5s-3.358-7.5-7.5-7.5h-51.833c-.276 0-.5-.224-.5-.5v-133.6h134.1v134.1h-52.1c-4.142 0-7.5 3.358-7.5 7.5s3.358 7.5 7.5 7.5h399.5c8.547 0 15.5-6.953 15.5-15.5v-141.1-58.267c0-8.547-6.953-15.5-15.5-15.5zm.5 15.5v50.767h-134.1v-51.267h133.6c.276 0 .5.224.5.5zm-149.1 50.767h-183.8v-51.267h183.8zm-283.2-117.033c0-.276.224-.5.5-.5h17.133c.276 0 .5.224.5.5v50.767h-18.133zm-49.7 117.033v-50.767c0-.276.224-.5.5-.5h133.6v51.267zm149.1 15h183.8v134.1h-183.8zm332.9 133.6c0 .276-.224.5-.5.5h-133.6v-134.1h134.1z"/><path d="m421.666 329.767h16.567c4.142 0 7.5-3.358 7.5-7.5s-3.358-7.5-7.5-7.5h-16.567c-4.142 0-7.5 3.358-7.5 7.5s3.358 7.5 7.5 7.5z"/><path d="m388.533 454.017c4.142 0 7.5-3.358 7.5-7.5v-33.133c0-4.142-3.358-7.5-7.5-7.5s-7.5 3.358-7.5 7.5v33.133c0 4.142 3.358 7.5 7.5 7.5z"/><path d="m15.5 130.967h116.533c8.547 0 15.5-6.953 15.5-15.5v-99.967c0-8.547-6.953-15.5-15.5-15.5h-116.533c-8.547 0-15.5 6.953-15.5 15.5v99.967c0 8.547 6.953 15.5 15.5 15.5zm-.5-115.467c0-.276.224-.5.5-.5h116.533c.276 0 .5.224.5.5v99.967c0 .276-.224.5-.5.5h-116.533c-.276 0-.5-.224-.5-.5z"/><path d="m65.483 97.834h16.567c4.142 0 7.5-3.358 7.5-7.5s-3.358-7.5-7.5-7.5h-16.567c-4.142 0-7.5 3.358-7.5 7.5s3.358 7.5 7.5 7.5z"/><path d="m496.5 0h-116.533c-8.547 0-15.5 6.953-15.5 15.5v18.417c0 4.142 3.358 7.5 7.5 7.5s7.5-3.358 7.5-7.5v-18.417c0-.276.224-.5.5-.5h116.533c.276 0 .5.224.5.5v99.967c0 .276-.224.5-.5.5h-116.533c-.276 0-.5-.224-.5-.5v-51.55c0-4.142-3.358-7.5-7.5-7.5s-7.5 3.358-7.5 7.5v51.55c0 8.547 6.953 15.5 15.5 15.5h116.533c8.547 0 15.5-6.953 15.5-15.5v-99.967c0-8.547-6.953-15.5-15.5-15.5z"/><path d="m446.517 97.834c4.142 0 7.5-3.358 7.5-7.5s-3.358-7.5-7.5-7.5h-16.567c-4.142 0-7.5 3.358-7.5 7.5s3.358 7.5 7.5 7.5z"/><path d="m504.5 182.233h-132.533c-4.142 0-7.5 3.358-7.5 7.5s3.358 7.5 7.5 7.5h25.633v19.336c-9.608 3.16-16.567 12.212-16.567 22.863 0 13.27 10.796 24.067 24.067 24.067 13.27 0 24.066-10.796 24.066-24.067 0-10.652-6.959-19.704-16.566-22.863v-19.336h51.267v19.336c-9.608 3.16-16.567 12.212-16.567 22.863 0 13.27 10.796 24.067 24.067 24.067 13.27 0 24.066-10.796 24.066-24.067 0-10.652-6.959-19.704-16.566-22.863v-19.336h25.633c4.142 0 7.5-3.358 7.5-7.5s-3.358-7.5-7.5-7.5zm-99.4 66.267c-5 0-9.067-4.067-9.067-9.067 0-4.999 4.067-9.066 9.067-9.066 4.999 0 9.066 4.067 9.066 9.066 0 5-4.067 9.067-9.066 9.067zm66.267 0c-4.999 0-9.067-4.067-9.067-9.067 0-4.999 4.067-9.066 9.067-9.066 4.999 0 9.066 4.067 9.066 9.066 0 5-4.067 9.067-9.066 9.067z"/></g></g></svg>