<svg id="Capa_1" enable-background="new 0 0 512.001 512.001" height="512" viewBox="0 0 512.001 512.001" width="512" xmlns="http://www.w3.org/2000/svg"><g><g><path d="m116.668 305.688h278.667v33.133h-278.667z" fill="#eaa96a"/><path d="m365.534 305.688h29.8v33.133h-29.8z" fill="#e5935d"/><g><path d="m-6.149 313.971h226.1v33.133h-226.1z" fill="#eaa96a" transform="matrix(0 1 -1 0 437.439 223.637)"/><path d="m90.334 217.488v28.367h10.134v197.733h23v-226.1z" fill="#e5935d"/></g><g><path d="m292.051 313.971h226.1v33.133h-226.1z" fill="#eaa96a" transform="matrix(0 1 -1 0 735.639 -74.563)"/><path d="m388.534 217.488v28.367h10.134v197.733h23v-226.1z" fill="#e5935d"/></g><path d="m73.768 477.488v-31.267c0-4.418 3.582-8 8-8h50.267c4.418 0 8 3.582 8 8v31.267z" fill="#e2dfe2"/><path d="m457.801 222.855h-168.667-66.266-168.667l37.033-33.134h131.634l16.566-16.566v-124.144l33.134-.001v124.145l16.566 16.566h131.65z" fill="#eaa96a"/><g><g><path d="m446.801 421.655v3h-116.533v-3c-4.418 0-8-3.582-8-8v-33.7c0-4.418 3.582-8 8-8h116.533c4.418 0 8 3.582 8 8v33.7c0 4.418-3.582 8-8 8z" fill="#f4f2f4"/><path d="m446.801 371.955h-23c4.418 0 8 3.582 8 8v33.7c0 4.418-3.582 8-8 8v3h23v-3c4.418 0 8-3.582 8-8v-33.7c0-4.419-3.582-8-8-8z" fill="#e2dfe2"/></g><g><path d="m463.368 471.355v3h-149.667v-3c-4.418 0-8-3.582-8-8v-33.7c0-4.418 3.582-8 8-8h149.667c4.418 0 8 3.582 8 8v33.7c0 4.418-3.582 8-8 8z" fill="#e2dfe2"/><path d="m463.368 421.655h-23c4.418 0 8 3.582 8 8v33.7c0 4.418-3.582 8-8 8v3h23v-3c4.418 0 8-3.582 8-8v-33.7c0-4.419-3.582-8-8-8z" fill="#d3ced5"/></g></g><path d="m281.134 239.421h-50.267c-4.418 0-8-3.582-8-8v-50.267c0-4.418 3.582-8 8-8h50.267c4.418 0 8 3.582 8 8v50.267c0 4.419-3.581 8-8 8z" fill="#e2dfe2"/><g><g><path d="m463.376 228.325-201.95-174.968c-3.113-2.698-7.737-2.698-10.85 0l-218.516 189.34c-3.457 2.996-8.688 2.622-11.685-.835l-10.85-12.519c-2.996-3.457-2.623-8.688.835-11.685l240.216-208.146c3.113-2.698 7.737-2.698 10.85 0l223.65 193.775c3.457 2.996 3.831 8.228.835 11.685l-10.85 12.519c-2.997 3.456-8.228 3.83-11.685.834z" fill="#4c5e71"/></g></g><path d="m485.076 203.286-223.65-193.774c-3.113-2.698-7.737-2.698-10.85 0l-6.075 5.264 217.575 188.511c3.457 2.996 3.831 8.228.834 11.685l-6.41 7.396 6.876 5.957c3.457 2.996 8.688 2.622 11.684-.835l10.85-12.519c2.997-3.457 2.623-8.688-.834-11.685z" fill="#3c4958"/><path d="m281.134 173.155h-23c4.418 0 8 3.582 8 8v50.267c0 4.418-3.582 8-8 8h23c4.418 0 8-3.582 8-8v-50.267c0-4.419-3.581-8-8-8z" fill="#d3ced5"/><path d="m132.034 438.221h-23c4.418 0 8 3.582 8 8v31.267h23v-31.267c0-4.418-3.581-8-8-8z" fill="#d3ced5"/><path d="m496.501 504.488h-481c-4.418 0-8-3.582-8-8v-17.133c0-4.418 3.582-8 8-8h481c4.418 0 8 3.582 8 8v17.133c0 4.418-3.582 8-8 8z" fill="#f4f2f4"/><path d="m496.501 471.355h-23c4.418 0 8 3.582 8 8v17.133c0 4.418-3.582 8-8 8h23c4.418 0 8-3.582 8-8v-17.133c0-4.419-3.582-8-8-8z" fill="#e2dfe2"/></g><g><path d="m496.501 463.855h-17.658c.005-.168.025-.331.025-.5v-33.7c0-8.547-6.953-15.5-15.5-15.5h-1.093c.005-.167.025-.331.025-.5v-33.7c0-8.547-6.953-15.5-15.5-15.5h-17.633v-134.1h25.097l4.199 3.638c6.576 5.701 16.563 4.986 22.265-1.59l10.85-12.52c5.699-6.577 4.986-16.565-1.591-22.265l-223.649-193.773c-5.893-5.109-14.782-5.108-20.673-.001l-183.743 159.213c-3.131 2.712-3.47 7.449-.757 10.58 2.714 3.131 7.451 3.468 10.579.756l183.744-159.214c.293-.254.733-.253 1.026.002l223.649 193.773c.326.283.361.779.078 1.105l-10.849 12.518c-.285.327-.78.361-1.107.079l-201.947-174.966c-5.895-5.108-14.782-5.106-20.673-.001l-218.517 189.34c-.162.141-.357.204-.568.189-.215-.016-.396-.106-.537-.269l-10.85-12.519c-.283-.326-.247-.822.078-1.105l33.743-29.238c3.131-2.712 3.47-7.449.757-10.58-2.714-3.131-7.451-3.469-10.579-.756l-33.745 29.24c-3.186 2.761-5.105 6.597-5.406 10.802-.301 4.205 1.055 8.276 3.816 11.462l10.851 12.519c2.762 3.186 6.598 5.105 10.803 5.406.385.028.768.042 1.148.042 3.793-.001 7.419-1.349 10.312-3.857l20.786-18.011h25.077v200.367h-1.066c-8.547 0-15.5 6.953-15.5 15.5v17.633h-50.767c-8.547 0-15.5 6.953-15.5 15.5v17.133c0 8.547 6.953 15.5 15.5 15.5h43.268c4.143 0 7.5-3.358 7.5-7.5s-3.357-7.5-7.5-7.5h-43.268c-.275 0-.5-.224-.5-.5v-17.133c0-.276.225-.5.5-.5h481c.275 0 .5.224.5.5v17.133c0 .276-.225.5-.5.5h-407.733c-4.143 0-7.5 3.358-7.5 7.5s3.357 7.5 7.5 7.5h407.733c8.547 0 15.5-6.953 15.5-15.5v-17.133c0-8.546-6.953-15.499-15.5-15.499zm-49.2-83.9v33.7c0 .276-.225.5-.5.5h-17.633v-34.7h17.633c.275 0 .5.224.5.5zm-149.074 83.9h-150.693v-17.633c0-8.547-6.953-15.5-15.5-15.5h-1.066v-84.4h250.066v18.133h-50.767c-8.547 0-15.5 6.953-15.5 15.5v33.7c0 .169.02.333.025.5h-1.092c-8.547 0-15.5 6.953-15.5 15.5v33.7c.001.168.021.332.027.5zm-82.859-233.5v1.066c0 8.547 6.953 15.5 15.5 15.5h50.266c8.547 0 15.5-6.953 15.5-15.5v-1.066h84.4v67.834h-250.066v-67.834zm65.766-64.701h-1.066v-86.223l118.642 102.79h-102.076v-1.067c0-8.546-6.953-15.5-15.5-15.5zm0 15c.275 0 .5.224.5.5v50.267c0 .276-.225.5-.5.5h-50.266c-.275 0-.5-.224-.5-.5v-50.267c0-.276.225-.5.5-.5zm-50.266-15c-8.547 0-15.5 6.953-15.5 15.5v1.067h-102.061l118.628-102.788v86.221zm183.3 248.5h-51.267v-34.7h51.267zm-283.2-100.966h250.066v18.133h-250.066zm198.8 100.466v-33.7c0-.276.225-.5.5-.5h17.634v34.7h-17.634c-.276 0-.5-.224-.5-.5zm100.967 15.5v34.7h-84.4v-34.7zm-16.567-64.699h-18.134v-134.1h18.134zm-117.534-149.1v-18.133h119.388l20.93 18.133zm-40.119-156.329 8.553 7.41v99.219h-18.133v-99.219l8.554-7.412c.292-.252.733-.253 1.026.002zm-160.519 138.195h119.372v18.133h-140.3zm1.838 33.134h18.134v200.367h-18.134zm-16.566 233.5v-17.633c0-.276.225-.5.5-.5h8.566 33.134 8.566c.275 0 .5.224.5.5v17.633zm231.933-.5v-33.7c0-.276.225-.5.5-.5h16.566 1.066v34.7h-17.633c-.274 0-.499-.224-.499-.5zm132.534.5v-34.7h1.066 16.567c.275 0 .5.224.5.5v33.7c0 .276-.225.5-.5.5z"/><path d="m253.931 213.788h4.141c4.143 0 7.5-3.358 7.5-7.5s-3.357-7.5-7.5-7.5h-4.141c-4.143 0-7.5 3.358-7.5 7.5s3.357 7.5 7.5 7.5z"/></g></g></svg>