<svg id="Capa_1" enable-background="new 0 0 512 512" height="512" viewBox="0 0 512 512" width="512" xmlns="http://www.w3.org/2000/svg"><g><g><path d="m198.017 201.3v54.7c0 27.449 22.251 49.7 49.7 49.7h99.4c27.448 0 49.7-22.251 49.7-49.7v-54.7z" fill="#e2dfe2"/><path d="m374.1 201.3v54.7c0 27.448-22.252 49.7-49.7 49.7h22.717c27.449 0 49.7-22.252 49.7-49.7v-54.7z" fill="#d3ced5"/><path d="m465.75 156.6h38.75v33.133h-38.75z" fill="#c3bec6"/><path d="m7.5 230.333h82.833v150.733h-82.833z" fill="#e2dfe2"/><path d="m67.333 230.333h23v150.733h-23z" fill="#d3ced5"/><g><g><path d="m454.8 405.1h-430.733c-9.15 0-16.567-7.417-16.567-16.567v-16.567h422.45c4.575 0 8.283-3.709 8.283-8.283v-248.5c0-4.575 3.709-8.283 8.283-8.283h16.567c4.575 0 8.283 3.709 8.283 8.283v273.35c.001 9.15-7.417 16.567-16.566 16.567z" fill="#f4f2f4"/></g></g><path d="m156.6 376.967h-33.133v-262.067c0-4.418 3.582-8 8-8h17.133c4.418 0 8 3.582 8 8z" fill="#f4f2f4"/><path d="m388.533 140.033v5h-182.233v-5l16.567-99.4v-5h149.1v5z" fill="#e2dfe2"/><path d="m371.967 40.633v-5h-23v5l16.566 99.4v5h23v-5z" fill="#d3ced5"/><path d="m372.25 40.633h-149.667c-4.418 0-8-3.582-8-8v-17.133c0-4.418 3.582-8 8-8h149.667c4.418 0 8 3.582 8 8v17.133c0 4.419-3.582 8-8 8z" fill="#f4f2f4"/><g><g><circle cx="371.967" cy="454.8" fill="#4c5e71" r="49.7"/><path d="m371.967 405.1c-3.96 0-7.807.477-11.5 1.352 21.901 5.191 38.2 24.86 38.2 48.348s-16.299 43.157-38.2 48.348c3.693.875 7.54 1.352 11.5 1.352 27.449 0 49.7-22.251 49.7-49.7s-22.252-49.7-49.7-49.7z" fill="#3c4958"/></g><circle cx="371.967" cy="454.8" fill="#e2dfe2" r="16.567"/></g><g><g><circle cx="106.9" cy="454.8" fill="#4c5e71" r="49.7"/><path d="m106.9 405.1c-3.96 0-7.807.477-11.5 1.352 21.901 5.191 38.2 24.86 38.2 48.348s-16.299 43.157-38.2 48.348c3.693.875 7.54 1.352 11.5 1.352 27.448 0 49.7-22.251 49.7-49.7s-22.252-49.7-49.7-49.7z" fill="#3c4958"/></g><circle cx="106.9" cy="454.8" fill="#e2dfe2" r="16.567"/></g><path d="m463.083 106.9h-16.567c-1.141 0-2.228.231-3.217.648 2.977 1.256 5.067 4.201 5.067 7.635v273.35c0 9.15-7.417 16.567-16.567 16.567h23c9.15 0 16.567-7.417 16.567-16.567v-273.35c.001-4.574-3.708-8.283-8.283-8.283z" fill="#e2dfe2"/><path d="m90.333 239.433h-82.833v-92.538c0-4.394 1.745-8.608 4.852-11.714l23.429-23.429c3.107-3.107 7.321-4.852 11.714-4.852h34.555c4.575 0 8.283 3.709 8.283 8.283z" fill="#f4f2f4"/><path d="m82.05 106.9h-23c4.575 0 8.283 3.709 8.283 8.283v124.25h23v-124.25c0-4.574-3.708-8.283-8.283-8.283z" fill="#e2dfe2"/><path d="m372.25 7.5h-23c4.418 0 8 3.582 8 8v17.133c0 4.418-3.582 8-8 8h23c4.418 0 8-3.582 8-8v-17.133c0-4.418-3.582-8-8-8z" fill="#e2dfe2"/><path d="m397.1 206.3h-199.367c-4.418 0-8-3.582-8-8v-50.267c0-4.418 3.582-8 8-8h199.367c4.418 0 8 3.582 8 8v50.267c0 4.418-3.582 8-8 8z" fill="#f4f2f4"/><path d="m397.1 140.033h-23c4.418 0 8 3.582 8 8v50.267c0 4.418-3.582 8-8 8h23c4.418 0 8-3.582 8-8v-50.267c0-4.418-3.582-8-8-8z" fill="#e2dfe2"/></g><g><path d="m106.9 478.867c13.271 0 24.067-10.797 24.067-24.067s-10.796-24.066-24.067-24.066c-13.27 0-24.066 10.796-24.066 24.066s10.796 24.067 24.066 24.067zm0-33.134c4.999 0 9.067 4.067 9.067 9.066 0 5-4.067 9.067-9.067 9.067-4.999 0-9.066-4.067-9.066-9.067-.001-4.998 4.067-9.066 9.066-9.066z"/><path d="m371.967 478.867c13.27 0 24.066-10.797 24.066-24.067s-10.796-24.066-24.066-24.066c-13.271 0-24.067 10.796-24.067 24.066s10.796 24.067 24.067 24.067zm0-33.134c4.999 0 9.066 4.067 9.066 9.066 0 5-4.067 9.067-9.066 9.067-5 0-9.067-4.067-9.067-9.067 0-4.998 4.067-9.066 9.067-9.066z"/><path d="m504.5 82.833c-4.142 0-7.5 3.357-7.5 7.5v58.767h-18.133v-33.916c0-8.703-7.081-15.783-15.783-15.783h-16.567c-8.703 0-15.783 7.08-15.783 15.783v50.483h-18.134v-17.634c0-8.547-6.953-15.5-15.5-15.5h-2.213l-14.459-86.757c4.388-2.74 7.323-7.599 7.323-13.143v-17.133c0-8.547-6.953-15.5-15.5-15.5h-104.384c-4.142 0-7.5 3.357-7.5 7.5s3.358 7.5 7.5 7.5h104.383c.276 0 .5.225.5.5v17.133c0 .275-.224.5-.5.5h-.283-149.1-.283c-.276 0-.5-.225-.5-.5v-17.133c0-.275.224-.5.5-.5h15.284c4.142 0 7.5-3.357 7.5-7.5s-3.358-7.5-7.5-7.5h-15.284c-8.547 0-15.5 6.953-15.5 15.5v17.133c0 5.544 2.935 10.403 7.323 13.143l-14.46 86.757h-2.213c-8.547 0-15.5 6.953-15.5 15.5v17.634h-18.134v-50.767c0-8.547-6.953-15.5-15.5-15.5h-17.133c-8.547 0-15.5 6.953-15.5 15.5v249.566h-18.134v-249.282c0-8.703-7.081-15.783-15.784-15.783h-34.553c-6.429 0-12.473 2.503-17.018 7.048l-23.429 23.43c-4.546 4.545-7.049 10.589-7.049 17.016v152.088c0 4.143 3.358 7.5 7.5 7.5s7.5-3.357 7.5-7.5v-18.917h67.833v84.4h-67.833v-35.483c0-4.143-3.358-7.5-7.5-7.5s-7.5 3.357-7.5 7.5v42.983 16.566c0 13.272 10.796 24.068 24.067 24.068h44.265c-11.442 10.466-18.632 25.508-18.632 42.2 0 31.54 25.66 57.2 57.2 57.2 31.541 0 57.2-25.66 57.2-57.2 0-16.692-7.19-31.734-18.631-42.2h187.929c-11.442 10.466-18.632 25.508-18.632 42.2 0 31.54 25.66 57.2 57.2 57.2s57.2-25.66 57.2-57.2c0-16.692-7.189-31.734-18.631-42.2h44.265c13.271 0 24.067-10.796 24.067-24.066v-191.3h18.133v58.766c0 4.143 3.358 7.5 7.5 7.5s7.5-3.357 7.5-7.5v-165.667c0-4.143-3.358-7.5-7.5-7.5zm-489.5 130.967h67.833v18.134h-67.833zm2.656-73.316 23.429-23.429c1.712-1.713 3.989-2.655 6.411-2.655h34.554c.432 0 .784.352.784.783v83.617h-67.834v-51.904c0-2.422.943-4.7 2.656-6.412zm-2.656 124.582v-18.133h67.833v18.133zm431.517-150.666h16.567c.432 0 .783.352.783.783v17.35h-18.133v-17.35c-.001-.431.351-.783.783-.783zm-57.2 99.4v34.7h-183.8v-34.7zm-.681 49.7c-3.551 19.702-20.811 34.7-41.519 34.7h-99.4c-20.709 0-37.969-14.998-41.519-34.7zm-159.416-215.367h136.393l14.066 84.4h-164.526zm-31.987 99.9c0-.275.224-.5.5-.5h8.566 182.233 8.567c.276 0 .5.225.5.5v50.267c0 .275-.224.5-.5.5h-199.366c-.276 0-.5-.225-.5-.5zm-15 32.634v17.633c0 5.941 3.364 11.106 8.283 13.706v43.994c0 31.54 25.66 57.2 57.2 57.2h99.4c31.54 0 57.2-25.66 57.2-57.2v-43.994c4.919-2.601 8.283-7.765 8.283-13.706v-17.633h18.133v183.017c0 .432-.352.783-.783.783h-265.849v-183.8zm-50.766-66.267h17.133c.276 0 .5.225.5.5v17.633h-18.133v-17.633c0-.275.224-.5.5-.5zm-.5 33.133h18.133v216.934h-18.133zm18.133 307.267c0 23.27-18.931 42.2-42.2 42.2s-42.2-18.931-42.2-42.2 18.931-42.2 42.2-42.2 42.2 18.93 42.2 42.2zm265.066 0c0 23.27-18.931 42.2-42.2 42.2s-42.2-18.931-42.2-42.2 18.931-42.2 42.2-42.2c23.27 0 42.2 18.93 42.2 42.2zm49.701-66.267c0 4.999-4.067 9.066-9.067 9.066h-430.733c-5 0-9.067-4.067-9.067-9.066v-9.066h414.95c8.703 0 15.783-7.08 15.783-15.783v-216.15h18.133v9.066 33.134 198.799zm15-206.3v-18.133h18.133v18.134h-18.133z"/><path d="m40.633 180.667h16.567c4.142 0 7.5-3.357 7.5-7.5s-3.358-7.5-7.5-7.5h-16.567c-4.142 0-7.5 3.357-7.5 7.5s3.358 7.5 7.5 7.5z"/></g></g></svg>