<svg id="Capa_1" enable-background="new 0 0 512 512" height="512" viewBox="0 0 512 512" width="512" xmlns="http://www.w3.org/2000/svg"><g><g><g><g><path d="m388.533 305.7c-27.448 0-49.7 22.251-49.7 49.7s22.251 49.7 49.7 49.7h66.267c9.15 0 16.567 7.417 16.567 16.567s-7.417 16.567-16.567 16.567h-120.967v33.133h120.967c27.449 0 49.7-22.251 49.7-49.7s-22.251-49.7-49.7-49.7h-66.267c-9.15 0-16.567-7.417-16.567-16.567s7.417-16.567 16.567-16.567h66.267c27.449 0 49.7-22.251 49.7-49.7 0-27.448-22.251-49.7-49.7-49.7h-66.267c-9.15 0-16.567-7.417-16.567-16.567s7.417-16.567 16.567-16.567h66.267c27.449 0 49.7-22.251 49.7-49.7s-22.251-49.7-49.7-49.7h-215.367c-9.15 0-16.567-7.417-16.567-16.567 0-9.149 7.417-16.567 16.567-16.567h248.5v-33.132h-248.5c-27.449 0-49.7 22.251-49.7 49.7s22.251 49.7 49.7 49.7h215.367c9.15 0 16.567 7.417 16.567 16.567s-7.417 16.567-16.567 16.567h-66.267c-27.448 0-49.7 22.251-49.7 49.7s22.251 49.7 49.7 49.7h66.267c9.15 0 16.567 7.417 16.567 16.567s-7.417 16.567-16.567 16.567h-66.267z" fill="#efd27c"/></g></g><g fill="#eabc73"><path d="m431.8 106.9c27.449 0 49.7 22.251 49.7 49.7s-22.251 49.7-49.7 49.7h23c27.449 0 49.7-22.251 49.7-49.7s-22.251-49.7-49.7-49.7z"/><path d="m454.8 239.433h-23c27.449 0 49.7 22.252 49.7 49.7 0 27.449-22.251 49.7-49.7 49.7h23c27.449 0 49.7-22.251 49.7-49.7 0-27.448-22.251-49.7-49.7-49.7z"/><path d="m464.933 40.633h23v33.133h-23z"/><path d="m454.8 371.967h-23c27.449 0 49.7 22.251 49.7 49.7s-22.251 49.7-49.7 49.7h23c27.449 0 49.7-22.251 49.7-49.7s-22.251-49.7-49.7-49.7z"/></g><g><path d="m294.7 487.933v-66.267h36.133c4.418 0 8 3.582 8 8v42.267c0 8.837-7.163 16-16 16z" fill="#4c5e71"/><path d="m330.833 421.667h-23c4.418 0 8 3.582 8 8v42.267c0 8.544-6.702 15.504-15.133 15.956v.044h22.133c8.837 0 16-7.163 16-16v-42.267c0-4.419-3.582-8-8-8z" fill="#3c4958"/><path d="m7.5 305.7v149.1c0 18.299 14.834 33.133 33.133 33.133h257.067c4.418 0 8-3.582 8-8v-174.233z" fill="#f4f2f4"/><path d="m282.7 305.7v174.233c0 4.418-3.582 8-8 8h23c4.418 0 8-3.582 8-8v-174.233z" fill="#e2dfe2"/><circle cx="156.6" cy="305.7" fill="#4c5e71" r="149.1"/><path d="m156.6 156.6c-3.87 0-7.705.148-11.5.437 76.972 5.871 137.6 70.187 137.6 148.663s-60.628 142.791-137.6 148.663c3.795.289 7.63.437 11.5.437 82.346 0 149.1-66.754 149.1-149.1s-66.754-149.1-149.1-149.1z" fill="#3c4958"/><path d="m242.701 355.401c-17.187 29.71-49.31 49.699-86.101 49.699-36.792 0-68.915-19.989-86.102-49.7v-99.4c17.187-29.71 49.31-49.7 86.102-49.7 36.79 0 68.912 19.987 86.099 49.696z" fill="#f4f2f4"/><path d="m242.699 255.995c-17.187-29.708-49.309-49.695-86.099-49.695-3.891 0-7.726.237-11.501.672 31.913 3.678 59.229 22.458 74.599 49.024l.002 99.406c-15.369 26.568-42.686 45.348-74.6 49.027 3.775.435 7.61.672 11.501.672 36.791 0 68.914-19.989 86.101-49.699z" fill="#e2dfe2"/><path d="m248.283 355.4h-183.366c-8.837 0-16-7.163-16-16v-67.4c0-8.837 7.163-16 16-16h183.367c8.837 0 16 7.163 16 16v67.4c-.001 8.837-7.164 16-16.001 16z" fill="#3c4958"/><path d="m190.017 322.267h-66.833c-4.418 0-8-3.582-8-8v-17.133c0-4.418 3.582-8 8-8h66.833c4.418 0 8 3.582 8 8v17.133c0 4.418-3.582 8-8 8z" fill="#f4f2f4"/><path d="m248.283 256h-23c8.837 0 16 7.164 16 16v67.4c0 8.837-7.163 16-16 16h23c8.837 0 16-7.163 16-16v-67.4c0-8.836-7.163-16-16-16z" fill="#35414e"/><path d="m190.017 289.133h-23c4.418 0 8 3.582 8 8v17.133c0 4.418-3.582 8-8 8h23c4.418 0 8-3.582 8-8v-17.133c0-4.418-3.582-8-8-8z" fill="#e2dfe2"/></g></g><g><path d="m40.633 439.017c-4.143 0-7.5 3.358-7.5 7.5v8.283c0 4.142 3.357 7.5 7.5 7.5s7.5-3.358 7.5-7.5v-8.283c0-4.143-3.358-7.5-7.5-7.5z"/><path d="m41.417 339.4c0 12.958 10.542 23.5 23.5 23.5h1.371c19.53 30.761 53.732 49.7 90.311 49.7 36.58 0 70.782-18.939 90.312-49.7h1.372c12.958 0 23.5-10.542 23.5-23.5v-67.4c0-12.958-10.542-23.5-23.5-23.5h-1.372c-19.531-30.761-53.732-49.7-90.312-49.7s-70.781 18.939-90.311 49.7h-1.371c-12.958 0-23.5 10.542-23.5 23.5zm115.183 58.2c-28.125 0-54.612-13.029-71.91-34.7h143.82c-17.298 21.671-43.785 34.7-71.91 34.7zm0-183.8c28.125 0 54.612 13.029 71.91 34.7h-143.82c17.298-21.671 43.784-34.7 71.91-34.7zm-100.183 58.2c0-4.687 3.813-8.5 8.5-8.5h183.366c4.686 0 8.5 3.813 8.5 8.5v67.4c0 4.687-3.814 8.5-8.5 8.5h-183.366c-4.687 0-8.5-3.813-8.5-8.5z"/><path d="m123.184 329.767h66.833c8.547 0 15.5-6.953 15.5-15.5v-17.133c0-8.547-6.953-15.5-15.5-15.5h-66.833c-8.547 0-15.5 6.953-15.5 15.5v17.133c0 8.547 6.953 15.5 15.5 15.5zm-.5-32.634c0-.276.225-.5.5-.5h66.833c.275 0 .5.224.5.5v17.133c0 .276-.225.5-.5.5h-66.833c-.275 0-.5-.224-.5-.5z"/><path d="m90.333 317.342c4.143 0 7.5-3.358 7.5-7.5v-8.284c0-4.142-3.357-7.5-7.5-7.5s-7.5 3.358-7.5 7.5v8.284c0 4.142 3.357 7.5 7.5 7.5z"/><path d="m222.867 317.342c4.143 0 7.5-3.358 7.5-7.5v-8.284c0-4.142-3.357-7.5-7.5-7.5s-7.5 3.358-7.5 7.5v8.284c0 4.142 3.358 7.5 7.5 7.5z"/><path d="m388.533 346.333h66.267c31.54 0 57.2-25.66 57.2-57.2s-25.66-57.2-57.2-57.2h-66.267c-4.999 0-9.066-4.067-9.066-9.066s4.067-9.067 9.066-9.067h66.267c31.54 0 57.2-25.66 57.2-57.2s-25.66-57.2-57.2-57.2h-215.366c-4.999 0-9.066-4.067-9.066-9.066 0-5 4.067-9.067 9.066-9.067h248.5c4.143 0 7.5-3.358 7.5-7.5v-49.7c0-4.142-3.357-7.5-7.5-7.5s-7.5 3.358-7.5 7.5v9.066h-35.484c-4.143 0-7.5 3.358-7.5 7.5s3.357 7.5 7.5 7.5h35.483v18.133h-241c-13.27 0-24.066 10.796-24.066 24.067 0 13.27 10.796 24.066 24.066 24.066h215.367c23.27 0 42.2 18.931 42.2 42.2s-18.931 42.2-42.2 42.2h-66.267c-13.271 0-24.066 10.796-24.066 24.067 0 13.27 10.796 24.066 24.066 24.066h66.267c23.27 0 42.2 18.931 42.2 42.2s-18.931 42.2-42.2 42.2h-66.267c-13.271 0-24.066 10.796-24.066 24.066 0 13.271 10.796 24.067 24.066 24.067h66.267c23.27 0 42.2 18.931 42.2 42.2s-18.931 42.2-42.2 42.2h-108.467v-18.133h108.467c13.271 0 24.067-10.796 24.067-24.067s-10.797-24.066-24.067-24.066h-66.267c-23.27 0-42.2-18.931-42.2-42.2s18.931-42.2 42.2-42.2h66.267c13.271 0 24.067-10.796 24.067-24.067 0-13.27-10.797-24.066-24.067-24.066h-66.267c-23.27 0-42.2-18.931-42.2-42.2s18.931-42.2 42.2-42.2h66.267c13.271 0 24.067-10.796 24.067-24.066s-10.797-24.067-24.067-24.067h-215.366c-23.27 0-42.2-18.931-42.2-42.2s18.931-42.2 42.2-42.2h175.516c4.143 0 7.5-3.358 7.5-7.5s-3.357-7.5-7.5-7.5h-175.516c-31.54 0-57.2 25.66-57.2 57.2s25.66 57.2 57.2 57.2h215.366c5 0 9.067 4.067 9.067 9.067 0 4.999-4.067 9.066-9.067 9.066h-66.267c-31.54 0-57.2 25.66-57.2 57.2s25.66 57.2 57.2 57.2h66.267c5 0 9.067 4.067 9.067 9.066 0 5-4.067 9.067-9.067 9.067h-66.267c-31.54 0-57.2 25.66-57.2 57.2s25.66 57.2 57.2 57.2h66.267c5 0 9.067 4.067 9.067 9.066s-4.067 9.067-9.067 9.067h-108.467v-1.067c0-8.547-6.953-15.5-15.5-15.5h-17.633v-108.465c0-86.35-70.251-156.6-156.601-156.6-36.292 0-71.67 12.701-99.614 35.762-3.195 2.637-3.648 7.364-1.011 10.559 2.636 3.194 7.363 3.648 10.558 1.011 25.265-20.849 57.251-32.332 90.068-32.332 78.079 0 141.601 63.521 141.601 141.6 0 78.078-63.521 141.6-141.601 141.6-78.079 0-141.6-63.522-141.6-141.6 0-32.572 11.33-64.373 31.902-89.545 2.621-3.207 2.146-7.932-1.062-10.553-3.207-2.62-7.93-2.147-10.554 1.061-22.754 27.843-35.286 63.015-35.286 99.037v149.1c0 22.405 18.228 40.633 40.633 40.633h282.2c10.545 0 19.49-6.982 22.455-16.566h109.512c31.54 0 57.2-25.66 57.2-57.2s-25.66-57.2-57.2-57.2h-66.267c-4.999 0-9.066-4.067-9.066-9.067 0-4.999 4.067-9.067 9.066-9.067zm-373.533 108.467v-82.264c25.122 53.01 79.146 89.764 141.6 89.764s116.479-36.754 141.601-89.764v107.898h-18.134v-9.066c0-4.142-3.357-7.5-7.5-7.5s-7.5 3.358-7.5 7.5v9.066h-18.133v-9.066c0-4.142-3.357-7.5-7.5-7.5s-7.5 3.358-7.5 7.5v9.066h-18.134v-9.066c0-4.142-3.357-7.5-7.5-7.5s-7.5 3.358-7.5 7.5v9.066h-158.167c-14.134-.001-25.633-11.5-25.633-25.634zm316.333 17.133c0 4.687-3.814 8.5-8.5 8.5h-9.633v-51.267h17.633c.275 0 .5.224.5.5v8.567 33.133z"/></g></g></svg>