<svg id="Capa_1" enable-background="new 0 0 512 512" height="512" viewBox="0 0 512 512" width="512" xmlns="http://www.w3.org/2000/svg"><g><g><path d="m280.85 496.217c0 4.575-3.709 8.283-8.283 8.283h-33.133c-4.575 0-8.283-3.709-8.283-8.283v-480.717c0-4.418 3.582-8 8-8h33.7c4.418 0 8 3.582 8 8v480.717z" fill="#eaa96a"/><path d="m272.85 7.5h-23c4.418 0 8 3.582 8 8v480.717c0 4.575-3.709 8.283-8.283 8.283h23c4.575 0 8.283-3.708 8.283-8.283v-480.717c0-4.418-3.582-8-8-8z" fill="#e5935d"/><path d="m392 471.367h-272l19.782-33.134h232.436z" fill="#cb835d"/><path d="m102.093 504.5h-30.619c-6.36 0-10.347-6.871-7.192-12.393l59.185-103.574v-5h49.7v5l-63.882 111.793c-1.475 2.581-4.22 4.174-7.192 4.174z" fill="#eaa96a"/><path d="m409.907 504.5h30.619c6.36 0 10.348-6.871 7.192-12.393l-59.185-103.574v-5h-49.7v5l63.882 111.793c1.475 2.581 4.22 4.174 7.192 4.174z" fill="#eaa96a"/><g fill="#e5935d"><path d="m447.718 492.107-59.185-103.574v-5h-23v5l59.185 103.574c3.156 5.522-.832 12.393-7.192 12.393h23c6.361 0 10.348-6.871 7.192-12.393z"/><path d="m150.167 383.533v5l-63.882 111.793c-1.475 2.581-4.219 4.174-7.192 4.174h23c2.973 0 5.717-1.593 7.192-4.174l63.882-111.793v-5z"/><path d="m110.324 411.533 13.143-23h49.7l-13.143 23z"/><path d="m351.976 411.533-13.143-23h49.7l13.143 23z"/><path d="m244.5 375.183h23v49.7h-23z" transform="matrix(0 1 -1 0 656.033 144.033)"/></g><path d="m488.5 388.533h-17.133-430.734-17.133c-8.837 0-16-7.163-16-16v-315.9c0-8.837 7.163-16 16-16h465c8.837 0 16 7.163 16 16v315.9c0 8.837-7.163 16-16 16z" fill="#f4f2f4"/><path d="m488.5 40.633h-23c8.836 0 16 7.164 16 16v315.9c0 8.837-7.164 16-16 16h23c8.836 0 16-7.163 16-16v-315.9c0-8.836-7.164-16-16-16z" fill="#e2dfe2"/><g><g><path d="m164.884 251.11h33.133v40.967h-33.133z" fill="#d0e5fd"/><path d="m264.283 251.11h33.133v40.967h-33.133z" fill="#d0e5fd"/><g><path d="m148.317 147.511v-33.666c0-4.027 2.896-7.471 6.864-8.161l183.652-31.939h5v73.767h-195.516z" fill="#d0e5fd"/><path d="m315.833 77.744v69.767h28v-73.767h-5z" fill="#b6d5f8"/><path d="m343.833 255.977h-204.083c-4.418 0-8-3.582-8-8v-99.966c0-4.418 3.582-8 8-8h204.083z" fill="#4c5e71"/><path d="m297.7 222.844h-124.816c-4.418 0-8-3.582-8-8v-33.701c0-4.418 3.582-8 8-8h124.816c4.418 0 8 3.582 8 8v33.701c0 4.419-3.582 8-8 8z" fill="#a6ccfb"/><path d="m315.833 140.011h28v115.966h-28z" fill="#3c4958"/><path d="m297.7 173.144h-23c4.419 0 8 3.582 8 8v33.7c0 4.418-3.581 8-8 8h23c4.419 0 8-3.582 8-8v-33.7c0-4.419-3.582-8-8-8z" fill="#8cbdf9"/></g><path d="m454.8 292.077h-115.967v-213.3c0-4.418 3.582-8 8-8h99.967c4.418 0 8 3.582 8 8z" fill="#dd636e"/><path d="m421.666 292.077h-49.7v-61.234c0-4.418 3.582-8 8-8h33.7c4.418 0 8 3.582 8 8z" fill="#efd27c"/><path d="m431.8 292.077h23v-213.3c0-4.418-3.582-8-8-8h-15" fill="#da4a54"/><path d="m431.8 292.077h23v-213.3c0-4.418-3.582-8-8-8h-15-8c4.418 0 8 3.582 8 8z" fill="#da4a54"/><path d="m413.666 222.844h-23c4.418 0 8 3.582 8 8v61.234h23v-61.234c0-4.418-3.581-8-8-8z" fill="#eabc73"/></g></g><path d="m463.367 355.4h-361.467v-33.133h361.467c4.418 0 8 3.582 8 8v17.133c0 4.418-3.582 8-8 8z" fill="#efd27c"/><path d="m73.767 81.767v212.367h-33.134v-212.367c0-4.418 3.582-8 8-8h17.133c4.419 0 8.001 3.581 8.001 8z" fill="#efd27c"/><path d="m463.367 322.267h-23c4.418 0 8 3.582 8 8v17.133c0 4.418-3.582 8-8 8h23c4.418 0 8-3.582 8-8v-17.133c0-4.419-3.582-8-8-8z" fill="#eabc73"/><path d="m106.9 355.4h-58.267c-4.418 0-8-3.582-8-8v-58.267h58.267c4.418 0 8 3.582 8 8z" fill="#4c5e71"/><path d="m98.9 289.133h-23c4.418 0 8 3.582 8 8v58.267h23v-58.267c0-4.418-3.582-8-8-8z" fill="#3c4958"/></g><g><path d="m488.5 33.133h-200.15v-17.633c0-8.547-6.953-15.5-15.5-15.5h-33.7c-8.547 0-15.5 6.953-15.5 15.5v17.633h-118.318c-4.142 0-7.5 3.357-7.5 7.5s3.358 7.5 7.5 7.5h383.168c4.687 0 8.5 3.813 8.5 8.5v315.9c0 4.686-3.813 8.5-8.5 8.5h-465c-4.687 0-8.5-3.814-8.5-8.5v-315.9c0-4.687 3.813-8.5 8.5-8.5h51.833c4.142 0 7.5-3.357 7.5-7.5s-3.358-7.5-7.5-7.5h-51.833c-12.958 0-23.5 10.542-23.5 23.5v315.9c0 12.958 10.542 23.5 23.5 23.5h87.043l-22.883 40.046c-2.055 3.596-.806 8.178 2.791 10.232 3.596 2.057 8.178.807 10.233-2.791l27.136-47.487h32.423l-57.47 100.572c-.139.243-.399.395-.68.395h-30.619c-.135 0-.451 0-.678-.391-.226-.39-.069-.663-.002-.781l12.746-22.308c2.055-3.597.806-8.178-2.791-10.232-3.595-2.054-8.178-.806-10.232 2.791l-12.747 22.307c-2.824 4.941-2.804 10.83.052 15.752 2.857 4.923 7.96 7.862 13.652 7.862h30.619c5.65 0 10.901-3.048 13.704-7.953l14.388-25.18h93.465v17.35c0 8.703 7.081 15.783 15.783 15.783h33.134c8.703 0 15.783-7.08 15.783-15.783v-17.35h93.465l14.388 25.18c2.803 4.905 8.054 7.953 13.704 7.953h30.619c5.692 0 10.795-2.94 13.652-7.862 2.856-4.922 2.876-10.811.052-15.751l-52.773-92.353h87.043c12.958 0 23.5-10.542 23.5-23.5v-315.9c0-12.959-10.542-23.501-23.5-23.501zm-249.85 0v-17.633c0-.275.224-.5.5-.5h33.7c.276 0 .5.225.5.5v17.633zm34.7 362.9v34.7h-34.7v-34.7zm-95.831 0h46.131v34.7h-65.96zm95.831 100.184c0 .432-.352.783-.783.783h-33.134c-.432 0-.783-.352-.783-.783v-17.35h34.7zm-134.593-32.35 10.362-18.134h213.762l10.362 18.134zm149.593-33.134v-34.7h46.131l19.829 34.7zm152.857 65.096c.067.117.224.391-.002.78-.227.391-.543.391-.679.391h-30.619c-.28 0-.541-.151-.68-.395l-57.47-100.572h32.423z"/><path d="m106.9 281.633h-25.633v-199.866c0-8.547-6.953-15.5-15.5-15.5h-17.134c-8.547 0-15.5 6.953-15.5 15.5v273.633c0 4.143 3.358 7.5 7.5 7.5h422.733c8.547 0 15.5-6.953 15.5-15.5v-17.134c0-8.547-6.953-15.5-15.5-15.5h-348.966v-25.634c0-4.142-3.358-7.499-7.5-7.499zm-58.767-199.866c0-.275.224-.5.5-.5h17.133c.276 0 .5.225.5.5v199.866h-18.133zm0 214.866h51.267v25.634 25.633h-51.267zm415.234 33.134c.276 0 .5.225.5.5v17.133c0 .275-.224.5-.5.5h-348.967v-18.134h348.967z"/><path d="m454.8 66.267h-115.967c-.064 0-.497.019-.653.033-.136.012-.556.065-.632.078l-183.653 31.939c-7.578 1.318-13.078 7.858-13.078 15.55v18.666h-1.067c-8.547 0-15.5 6.953-15.5 15.5v99.967c0 8.547 6.953 15.5 15.5 15.5h17.633v18.133h-17.35c-4.142 0-7.5 3.357-7.5 7.5s3.358 7.5 7.5 7.5h331.333c4.142 0 7.5-3.357 7.5-7.5s-3.358-7.5-7.5-7.5h-9.066v-207.866c0-4.143-3.358-7.5-7.5-7.5zm-123.467 197.233v18.133h-26.417v-18.133zm-175.516-149.633c0-.382.273-.707.649-.772l174.868-30.412v49.85h-175.517zm-16.567 134.133v-99.967c0-.275.224-.5.5-.5h191.583v100.967h-191.583c-.276 0-.5-.225-.5-.5zm117.533 15.5v18.133h-51.267v-18.133zm-84.4 18.133v-18.133h18.133v18.133zm99.4 0v-18.133h18.133v18.133zm107.684 0v-50.766c0-.275.224-.5.5-.5h33.7c.276 0 .5.225.5.5v50.766zm49.7 0v-50.766c0-8.547-6.953-15.5-15.5-15.5h-33.7c-8.547 0-15.5 6.953-15.5 15.5v50.766h-18.133v-200.366h100.966v200.366z"/><path d="m429.95 99.4h-66.267c-4.142 0-7.5 3.357-7.5 7.5s3.358 7.5 7.5 7.5h66.267c4.142 0 7.5-3.357 7.5-7.5s-3.358-7.5-7.5-7.5z"/><path d="m429.95 132.533h-66.267c-4.142 0-7.5 3.357-7.5 7.5s3.358 7.5 7.5 7.5h66.267c4.142 0 7.5-3.357 7.5-7.5 0-4.142-3.358-7.5-7.5-7.5z"/><path d="m429.95 165.667h-66.267c-4.142 0-7.5 3.357-7.5 7.5s3.358 7.5 7.5 7.5h66.267c4.142 0 7.5-3.357 7.5-7.5s-3.358-7.5-7.5-7.5z"/><path d="m297.7 230.367c8.547 0 15.5-6.953 15.5-15.5v-33.701c0-8.547-6.953-15.5-15.5-15.5h-124.817c-8.547 0-15.5 6.953-15.5 15.5v33.701c0 8.547 6.953 15.5 15.5 15.5zm-79.758-15v-34.701h34.7v34.701zm80.258-34.201v33.701c0 .275-.224.5-.5.5h-30.059v-34.701h30.059c.276 0 .5.225.5.5zm-125.817 33.701v-33.701c0-.275.224-.5.5-.5h30.059v34.701h-30.059c-.276 0-.5-.224-.5-.5z"/></g></g></svg>