<svg id="Capa_1" enable-background="new 0 0 512 512" height="512" viewBox="0 0 512 512" width="512" xmlns="http://www.w3.org/2000/svg"><g><g><g><g><path d="m112.5 94.122-98.442-56.82c-3.962-2.287-5.319-7.353-3.032-11.315l8.283-14.347c2.287-3.962 7.353-5.319 11.315-3.032l98.442 56.82z" fill="#f4f2f4"/><path d="m136.667 127.142-26.903-15.533c-3.962-2.287-5.319-7.353-3.032-11.315l24.85-43.041c2.287-3.962 7.353-5.319 11.315-3.032l49.825 28.766z" fill="#eaa96a"/></g><g><path d="m385.094 347.089c-41.173 71.313-132.361 95.747-203.674 54.574s-95.747-132.361-54.574-203.674l2.155-3.492 257.923 149.588z" fill="#4c5e71"/><path d="m370.148 334.356-8.054 12.733c-25.559 44.27-70.394 70.465-117.781 74.124 55.464 4.31 111.11-22.731 140.781-74.124l1.829-3.004z" fill="#3c4958"/><path d="m299.011 297.389c-13.724 23.771-44.12 31.916-67.891 18.191-23.771-13.724-31.916-44.12-18.192-67.891l3.746-5.565 84.919 51.094z" fill="#3c4958"/><path d="m428.177 338.182-318.177-178.185 4.717-7.269c50.323-87.161 161.775-117.024 248.936-66.702 77.658 44.836 109.832 138.199 80.331 219.672z" fill="#efd27c"/><path d="m363.653 86.026c-32.272-18.632-67.873-26.261-102.47-24.069 27.144 1.717 54.318 9.548 79.47 24.069 77.658 44.836 109.832 138.199 80.332 219.672l-10.882 22.362 18.074 10.122 15.808-32.484c29.5-81.473-2.674-174.836-80.332-219.672z" fill="#eabc73"/><path d="m143.412 169.295c41.173-71.314 132.361-95.747 203.674-54.574s95.747 132.361 54.574 203.674l-4.161 7.602-258.148-149.549z" fill="#eaa96a"/><path d="m347.086 114.721c-27.044-15.614-56.945-21.784-85.893-19.549 21.5 1.67 42.972 8.048 62.893 19.549 70.484 40.694 95.163 130.243 55.976 201.175l17.438 10.102 4.161-7.602c41.172-71.315 16.739-162.503-54.575-203.675z" fill="#e5935d"/><path d="m319.152 213.37-43.532-25.133c-3.826-2.209-5.137-7.102-2.928-10.928l8.567-14.838c2.209-3.826 7.102-5.137 10.928-2.928l43.532 25.133c3.826 2.209 5.137 7.102 2.928 10.928l-8.567 14.838c-2.209 3.826-7.101 5.137-10.928 2.928z" fill="#f4f2f4"/><path d="m410.5 361.747-319.523-184.466c-3.962-2.287-5.319-7.353-3.032-11.315l8.283-14.347c2.287-3.962 7.353-5.319 11.315-3.032l302.953 174.9z" fill="#e2dfe2"/></g></g><path d="m405.1 432.331h66.267v-110.634c0-8.837-7.164-16-16-16h-34.267c-8.837 0-16 7.163-16 16z" fill="#f4f2f4"/><path d="m455.367 305.697h-23c8.836 0 16 7.163 16 16v110.633h23v-110.633c0-8.836-7.164-16-16-16z" fill="#e2dfe2"/><g><path d="m487.933 478.864h-463.866v-49.199c0-4.418 3.582-8 8-8h447.867c4.418 0 8 3.582 8 8v49.199z" fill="#eaa96a"/><path d="m479.933 421.664h-23c4.418 0 8 3.582 8 8v49.2h23v-49.2c0-4.418-3.581-8-8-8z" fill="#e5935d"/><path d="m496.5 504.497h-481c-4.418 0-8-3.582-8-8v-17.133c0-4.418 3.582-8 8-8h481c4.418 0 8 3.582 8 8v17.133c0 4.419-3.582 8-8 8z" fill="#efd27c"/><path d="m496.5 471.364h-23c4.418 0 8 3.582 8 8v17.133c0 4.418-3.582 8-8 8h23c4.418 0 8-3.582 8-8v-17.133c0-4.418-3.582-8-8-8z" fill="#eabc73"/></g></g><g><path d="m496.5 463.865h-1.066v-34.2c0-8.547-6.953-15.5-15.5-15.5h-1.066v-92.467c0-12.958-10.542-23.5-23.5-23.5h-1.021c11.558-38.621 10.47-80.338-3.285-118.61-15.136-42.114-44.846-77.648-83.658-100.057-37.433-21.61-81.519-29.836-124.138-23.153-4.092.642-6.889 4.479-6.248 8.57.642 4.092 4.475 6.89 8.571 6.248 39.242-6.15 79.84 1.421 114.315 21.325 71.947 41.54 104.495 127.355 78.728 205.677h-17.532c-.569 0-1.131.027-1.69.067 11.277-30.238 12.912-63.15 4.39-94.951-10.826-40.404-36.738-74.174-72.964-95.089-36.225-20.914-78.427-26.47-118.831-15.645-37.98 10.177-70.094 33.686-91.183 66.559l-15.721-9.076c21.543-33.882 54.048-59.314 92.268-72.016 3.931-1.307 6.058-5.552 4.752-9.482s-5.551-6.061-9.482-4.752c-7.695 2.557-15.171 5.6-22.403 9.078l-43.589-25.166c-7.537-4.354-17.209-1.759-21.56 5.777l-.394.683-90.319-52.071c-7.537-4.351-17.209-1.76-21.56 5.776l-8.283 14.348c-2.108 3.65-2.668 7.904-1.577 11.977s3.703 7.477 7.358 9.586l90.314 52.069-.389.674c-4.351 7.538-1.759 17.21 5.778 21.561l16.528 9.543c-3.702 4.783-7.182 9.762-10.434 14.915l-.815-.47c-7.536-4.352-17.208-1.76-21.56 5.777l-8.284 14.347c-2.107 3.651-2.667 7.904-1.577 11.977 1.091 4.072 3.703 7.477 7.354 9.584l29.532 17.05c-38.039 73.74-11.693 165.415 60.91 207.332 3.767 2.175 7.606 4.164 11.494 6.006h-94.463c-4.142 0-7.5 3.357-7.5 7.5s3.358 7.5 7.5 7.5h385.233c.275 0 .5.225.5.5v34.2h-448.866v-34.2c0-.275.224-.5.5-.5h32.634c4.142 0 7.5-3.357 7.5-7.5s-3.358-7.5-7.5-7.5h-32.634c-8.547 0-15.5 6.953-15.5 15.5v34.2h-1.067c-8.547 0-15.5 6.953-15.5 15.5v17.133c0 8.547 6.953 15.5 15.5 15.5h481c8.547 0 15.5-6.953 15.5-15.5v-17.133c0-8.548-6.953-15.501-15.5-15.501zm-463.662-424.391-15.031-8.666c-.186-.107-.309-.267-.364-.476-.056-.208-.03-.408.078-.595l8.283-14.348c.144-.25.407-.391.679-.391.134 0 .271.034.396.106l15.027 8.664zm12.995 7.492 9.067-15.705 62.292 35.914-9.067 15.704zm67.68 58.148c-.374-.216-.502-.696-.287-1.07l24.85-43.041c.215-.375.695-.505 1.07-.287l35.579 20.542c-15.733 9.459-30.003 21.157-42.376 34.733zm71.656 290.054c-65.439-37.781-89.321-120.268-55.407-186.834l73.353 42.351c-4.815 11.579-5.697 24.345-2.398 36.66 3.955 14.758 13.419 27.093 26.651 34.731 8.814 5.089 18.595 7.689 28.507 7.689 4.968 0 9.97-.653 14.897-1.974 12.314-3.3 22.929-10.447 30.549-20.406l44.607 25.754c-14.393 21.424-35.735 36.884-60.817 43.879-3.99 1.113-6.322 5.249-5.21 9.239.925 3.316 3.938 5.487 7.221 5.487.667 0 1.345-.09 2.019-.277 28.888-8.057 53.414-25.979 69.801-50.815l15.733 9.084c-40.69 62.652-124.067 83.213-189.506 45.432zm31.087-136.897 71.927 41.528c-5.509 6.538-12.86 11.244-21.291 13.503-10.887 2.919-22.26 1.42-32.022-4.216s-16.745-14.736-19.662-25.624c-2.26-8.432-1.86-17.152 1.048-25.191zm181.344 155.893h-74.725c26.449-12.426 48.806-31.973 64.81-56.919l9.915 5.725zm0-68.514-302.873-174.864c-.374-.216-.502-.696-.286-1.07l8.283-14.347c.216-.374.695-.504 1.07-.287l293.806 169.629zm-243.775-179.003c19.073-29.406 47.954-50.438 82.062-59.577 36.536-9.79 74.695-4.767 107.449 14.146 32.756 18.911 56.187 49.446 65.976 85.98 9.139 34.108 5.365 69.635-10.564 100.857zm310.042 247.517h-51.267v-18.134h51.268v18.134zm0-33.133h-51.267v-59.333c0-4.686 3.813-8.5 8.5-8.5h34.268c4.687 0 8.5 3.814 8.5 8.5v59.333zm-414.167 115.966h-34.2c-.276 0-.5-.225-.5-.5v-17.133c0-.275.224-.5.5-.5h8.567 25.633zm397.6 0h-382.6v-18.133h382.6zm49.7-.5c0 .275-.225.5-.5.5h-34.2v-18.133h25.634 8.566c.275 0 .5.225.5.5z"/><path d="m339.469 178.181-43.532-25.134c-3.586-2.069-7.765-2.619-11.762-1.549-3.999 1.072-7.342 3.638-9.411 7.223l-8.567 14.838c-4.273 7.401-1.728 16.899 5.674 21.173l43.532 25.134c2.388 1.379 5.038 2.083 7.724 2.083 1.347 0 2.703-.177 4.038-.535 3.999-1.071 7.341-3.637 9.411-7.222l8.567-14.838c4.273-7.401 1.727-16.9-5.674-21.173zm-7.317 13.673-8.567 14.838c-.025.045-.104.18-.304.233-.202.05-.335-.023-.379-.05l-43.532-25.134c-.239-.138-.321-.444-.184-.683l8.568-14.839c.025-.044.102-.179.303-.232.2-.054.335.023.379.05l43.532 25.134c.24.138.322.445.184.683z"/><path d="m438.233 339.615c-4.143 0-7.5 3.357-7.5 7.5v8.283c0 4.143 3.357 7.5 7.5 7.5s7.5-3.357 7.5-7.5v-8.283c0-4.143-3.357-7.5-7.5-7.5z"/></g></g></svg>