<svg id="Capa_1" enable-background="new 0 0 512 512" height="512" viewBox="0 0 512 512" width="512" xmlns="http://www.w3.org/2000/svg"><g><g><path d="m280.85 496.217c0 4.575-3.709 8.283-8.283 8.283h-33.133c-4.575 0-8.283-3.709-8.283-8.283v-480.717c0-4.418 3.582-8 8-8h33.7c4.418 0 8 3.582 8 8v480.717z" fill="#eaa96a"/><path d="m272.85 7.5h-23c4.418 0 8 3.582 8 8v480.717c0 4.575-3.709 8.283-8.283 8.283h23c4.575 0 8.283-3.708 8.283-8.283v-480.717c0-4.418-3.582-8-8-8z" fill="#e5935d"/><path d="m488.5 388.533h-17.133l-215.367-15-215.367 15h-17.133c-8.837 0-16-7.163-16-16v-315.9c0-8.837 7.163-16 16-16h465c8.837 0 16 7.163 16 16v315.9c0 8.837-7.163 16-16 16z" fill="#f4f2f4"/><path d="m488.5 40.633h-23c8.836 0 16 7.164 16 16v315.9c0 8.837-7.164 16-16 16h23c8.836 0 16-7.163 16-16v-315.9c0-8.836-7.164-16-16-16z" fill="#e2dfe2"/><path d="m392 471.367h-272l19.782-33.134h232.436z" fill="#cb835d"/><path d="m102.093 504.5h-30.619c-6.36 0-10.347-6.871-7.192-12.393l59.185-103.574v-5h49.7v5l-63.882 111.793c-1.475 2.581-4.22 4.174-7.192 4.174z" fill="#eaa96a"/><path d="m409.907 504.5h30.619c6.36 0 10.348-6.871 7.192-12.393l-59.185-103.574v-5h-49.7v5l63.882 111.793c1.475 2.581 4.22 4.174 7.192 4.174z" fill="#eaa96a"/><path d="m447.718 492.107-59.185-103.574v-5h-23v5l59.185 103.574c3.156 5.522-.832 12.393-7.192 12.393h23c6.361 0 10.348-6.871 7.192-12.393z" fill="#e5935d"/><path d="m150.167 383.533v5l-63.882 111.793c-1.475 2.581-4.219 4.174-7.192 4.174h23c2.973 0 5.717-1.593 7.192-4.174l63.882-111.793v-5z" fill="#e5935d"/><path d="m471.367 388.533h-430.734v-25.133c0-4.418 3.582-8 8-8h414.733c4.418 0 8 3.582 8 8v25.133z" fill="#eaa96a"/><g fill="#e5935d"><path d="m463.367 355.4h-23c4.418 0 8 3.582 8 8v25.133h23v-25.133c0-4.418-3.582-8-8-8z"/><path d="m110.324 411.533 13.143-23h49.7l-13.143 23z"/><path d="m351.976 411.533-13.143-23h49.7l13.143 23z"/><path d="m244.5 375.183h23v49.7h-23z" transform="matrix(0 1 -1 0 656.033 144.033)"/></g></g><g><path d="m488.5 33.133h-200.15v-17.633c0-8.547-6.953-15.5-15.5-15.5h-33.7c-8.547 0-15.5 6.953-15.5 15.5v17.633h-118.317c-4.143 0-7.5 3.358-7.5 7.5s3.357 7.5 7.5 7.5h383.167c4.686 0 8.5 3.813 8.5 8.5v315.9c0 4.687-3.814 8.5-8.5 8.5h-9.633v-17.633c0-8.547-6.953-15.5-15.5-15.5h-414.734c-8.547 0-15.5 6.953-15.5 15.5v17.633h-9.633c-4.687 0-8.5-3.813-8.5-8.5v-315.9c0-4.687 3.813-8.5 8.5-8.5h51.833c4.143 0 7.5-3.358 7.5-7.5s-3.357-7.5-7.5-7.5h-51.833c-12.958 0-23.5 10.542-23.5 23.5v315.9c0 12.958 10.542 23.5 23.5 23.5h87.043l-22.883 40.046c-2.055 3.597-.806 8.178 2.791 10.233 3.597 2.056 8.179.806 10.232-2.79l27.136-47.488h32.424l-21.986 38.475c-.001.001-.002.002-.003.004l-18.934 33.133c-.001.002-.002.005-.004.008l-16.544 28.952c-.14.244-.4.395-.681.395h-30.617c-.135 0-.451 0-.678-.39-.227-.391-.069-.665-.003-.782l12.747-22.307c2.056-3.597.806-8.178-2.791-10.233-3.596-2.055-8.178-.805-10.232 2.791l-12.747 22.306c-2.823 4.941-2.804 10.83.053 15.753 2.856 4.922 7.96 7.861 13.651 7.861h30.619c5.65 0 10.901-3.047 13.704-7.953l14.389-25.181h93.465v17.35c0 8.703 7.08 15.783 15.783 15.783h33.133c8.703 0 15.783-7.08 15.783-15.783v-17.35h93.465l14.389 25.18c2.803 4.906 8.054 7.953 13.704 7.953h30.619c5.691 0 10.795-2.939 13.651-7.861 2.857-4.922 2.876-10.811.053-15.753l-52.773-92.353h87.042c12.958 0 23.5-10.542 23.5-23.5v-315.9c0-12.957-10.542-23.499-23.5-23.499zm-249.85 0v-17.633c0-.276.225-.5.5-.5h33.699c.275 0 .5.224.5.5v17.633zm-61.131 362.9h46.131v34.7h-65.96zm156.962 0 19.829 34.7h-65.96v-34.7zm-61.131 34.7h-34.7v-34.7h34.699v34.7zm0 65.484c0 .432-.352.783-.783.783h-33.133c-.432 0-.783-.352-.783-.783v-17.35h34.699zm-134.593-32.35 10.362-18.133h213.762l10.362 18.133zm302.45 31.961c.066.117.224.392-.003.782s-.543.39-.678.39h-30.619c-.28 0-.541-.151-.681-.395l-16.545-28.954c-.001-.002-.002-.003-.003-.005l-18.934-33.133c0-.001-.001-.002-.002-.003l-21.987-38.476h32.424zm-393.074-114.795v-17.633c0-.276.225-.5.5-.5h414.734c.275 0 .5.224.5.5v17.633z"/><path d="m48.633 66.267c-8.547 0-15.5 6.953-15.5 15.5v17.133c0 8.547 6.953 15.5 15.5 15.5h33.7c8.547 0 15.5-6.953 15.5-15.5v-17.133c0-8.547-6.953-15.5-15.5-15.5zm34.2 15.5v17.133c0 .276-.225.5-.5.5h-33.7c-.275 0-.5-.224-.5-.5v-17.133c0-.276.225-.5.5-.5h33.7c.275 0 .5.224.5.5z"/><path d="m445.733 98.334c0-8.547-6.953-15.5-15.5-15.5h-166.233c-8.547 0-15.5 6.953-15.5 15.5v34.2h-183.3c-8.547 0-15.5 6.953-15.5 15.5v133.1c0 8.547 6.953 15.5 15.5 15.5h365.033c8.547 0 15.5-6.953 15.5-15.5zm-197.233 117.033h-50.182c-3.433-26.08-24.487-46.685-50.785-49.396v-18.438h100.967zm-100.967-34.278c18.015 2.536 32.404 16.485 35.611 34.278h-35.611zm-82.333-33.556h67.333v75.333c0 4.142 3.357 7.5 7.5 7.5h108.467v51.267h-134.607c-3.363-25.55-23.643-45.83-49.193-49.193v-84.407c0-.276.225-.5.5-.5zm-.5 133.6v-33.519c17.266 3.112 30.908 16.754 34.019 34.019h-33.519c-.275 0-.5-.224-.5-.5zm198.8-33.519c17.266 3.112 30.908 16.754 34.019 34.019h-34.019zm167.233 33.519c0 .276-.225.5-.5.5h-117.54c-3.363-25.55-23.643-45.83-49.193-49.193v-134.106c0-.276.225-.5.5-.5h166.233c.275 0 .5.224.5.5z"/><path d="m371.967 314.767c-4.143 0-7.5 3.358-7.5 7.5s3.357 7.5 7.5 7.5h66.267c4.143 0 7.5-3.358 7.5-7.5s-3.357-7.5-7.5-7.5z"/><path d="m305.7 314.767c-4.143 0-7.5 3.358-7.5 7.5s3.357 7.5 7.5 7.5h33.133c4.143 0 7.5-3.358 7.5-7.5s-3.357-7.5-7.5-7.5z"/><path d="m397.1 115.967h-99.967c-8.547 0-15.5 6.953-15.5 15.5v17.133c0 8.547 6.953 15.5 15.5 15.5h99.967c8.547 0 15.5-6.953 15.5-15.5v-17.133c0-8.547-6.953-15.5-15.5-15.5zm.5 32.633c0 .276-.225.5-.5.5h-99.967c-.275 0-.5-.224-.5-.5v-17.133c0-.276.225-.5.5-.5h99.967c.275 0 .5.224.5.5z"/><path d="m371.967 182.233h-49.7c-4.143 0-7.5 3.358-7.5 7.5s3.357 7.5 7.5 7.5h49.7c4.143 0 7.5-3.358 7.5-7.5s-3.358-7.5-7.5-7.5z"/></g></g></svg>