<svg id="Capa_1" enable-background="new 0 0 512 512" height="512" viewBox="0 0 512 512" width="512" xmlns="http://www.w3.org/2000/svg"><g><g><path d="m504.497 471.368c0 18.298-14.834 33.132-33.132 33.132h-430.729c-18.299 0-33.132-14.834-33.132-33.132v-14l82.83-300.769h331.332l82.831 299.769z" fill="#a7ccf9"/><g><path d="m481.5 373.14v98.228c0 18.298-14.834 33.133-33.132 33.133h22.997c18.298 0 33.133-14.834 33.133-33.133v-15z" fill="#8cbdf9"/></g><path d="m7.501 156.599c0-18.299 14.834-33.133 33.133-33.133h41.417c4.575 0 8.283 3.709 8.283 8.283v298.2c0 4.575-3.709 8.284-8.284 8.283l-41.417-.002c-18.299 0-33.133 14.834-33.133 33.134v-314.765z" fill="#8cbdf9"/><path d="m504.5 156.599c0-18.299-14.834-33.133-33.134-33.133h-41.417c-4.575 0-8.283 3.709-8.283 8.283v298.2c0 4.575 3.709 8.284 8.284 8.283l41.417-.002c18.299 0 33.134 14.834 33.134 33.134v-314.765z" fill="#8cbdf9"/><path d="m181.734 421.666h-50.267c-4.418 0-8-3.582-8-8v-17.133c0-4.418 3.582-8 8-8h50.267c4.418 0 8 3.582 8 8v17.133c0 4.418-3.582 8-8 8z" fill="#a7dda7"/><g><path d="m413.666 90.333h-315.331c-4.418 0-8-3.582-8-8v-66.833c0-4.418 3.582-8 8-8h315.332c4.418 0 8 3.582 8 8v66.833c-.001 4.418-3.582 8-8.001 8z" fill="#efd27c"/><path d="m413.666 90.333h-315.331c-4.418 0-8-3.582-8-8v-66.833c0-4.418 3.582-8 8-8h315.332c4.418 0 8 3.582 8 8v66.833c-.001 4.418-3.582 8-8.001 8z" fill="#efd27c"/><path d="m413.666 7.5h-23c4.418 0 8 3.582 8 8v66.833c0 4.418-3.582 8-8 8h23c4.418 0 8-3.582 8-8v-66.833c0-4.418-3.581-8-8-8z" fill="#eabc73"/></g><g><path d="m471.366 123.466h-23c18.299 0 33.134 14.834 33.134 33.133v283.216c13.341 4.282 23 16.785 23 31.549v-314.765c0-18.299-14.834-33.133-33.134-33.133z" fill="#73a2da"/><path d="m448.366 438.23-18.439.001c.007 0 .015.001.022.001l18.461-.001c-.014 0-.029-.001-.044-.001z" fill="#93a3b4"/></g><path d="m82.051 123.466h-23.001c4.575 0 8.283 3.709 8.283 8.283v298.2c0 4.567-3.697 8.27-8.262 8.282l22.979.001c4.575 0 8.284-3.708 8.284-8.283v-298.2c.001-4.575-3.708-8.283-8.283-8.283z" fill="#73a2da"/><path d="m181.734 388.533h-23c4.418 0 8 3.582 8 8v17.133c0 4.418-3.582 8-8 8h23c4.418 0 8-3.582 8-8v-17.133c0-4.419-3.582-8-8-8z" fill="#8ace9b"/></g><g><path d="m512 156.6c0-22.406-18.228-40.634-40.633-40.634h-41.417c-8.703 0-15.784 7.08-15.784 15.783v17.35h-242.556c-4.142 0-7.5 3.358-7.5 7.5s3.358 7.5 7.5 7.5h242.555v265.85c0 8.703 7.081 15.783 15.784 15.783l41.417-.002c14.126 0 25.62 11.486 25.632 25.611 0 .009-.001.018-.001.027 0 14.134-11.499 25.632-25.633 25.632h-430.728c-14.134 0-25.632-11.499-25.632-25.632 0-.013-.002-.026-.002-.039.019-14.119 11.51-25.599 25.632-25.599l41.417.002c8.703 0 15.784-7.08 15.784-15.783v-265.85h43.776c4.142 0 7.5-3.358 7.5-7.5s-3.358-7.5-7.5-7.5h-43.776v-17.35c0-8.703-7.08-15.783-15.783-15.783h-41.418c-22.406 0-40.634 18.228-40.634 40.634v314.764c0 .037.005.073.006.11.058 22.356 18.261 40.526 40.63 40.526h430.729c22.382 0 40.593-18.19 40.631-40.562 0-.025.004-.049.004-.074zm-497 0c0-14.134 11.499-25.634 25.634-25.634h9.068v25.635c0 4.142 3.358 7.5 7.5 7.5s7.5-3.358 7.5-7.5v-25.635h17.349c.432 0 .783.352.783.783v298.2c0 .432-.352.783-.783.783l-17.349-.001v-25.631c0-4.142-3.358-7.5-7.5-7.5s-7.5 3.358-7.5 7.5v25.631l-9.068-.001c-9.711 0-18.636 3.424-25.634 9.128zm456.367 274.13-9.068.001v-25.631c0-4.142-3.358-7.5-7.5-7.5-4.143 0-7.5 3.358-7.5 7.5v25.632l-17.349.001c-.433 0-.784-.352-.784-.783v-298.2c0-.432.352-.783.784-.783h17.349v25.635c0 4.142 3.357 7.5 7.5 7.5 4.142 0 7.5-3.358 7.5-7.5v-25.635h9.068c14.133-.001 25.633 11.498 25.633 25.633v283.258c-6.997-5.705-15.923-9.128-25.633-9.128z"/><path d="m396.034 206.3c0-4.142-3.357-7.5-7.5-7.5h-257.067c-8.547 0-15.5 6.953-15.5 15.5v99.966c0 8.547 6.953 15.5 15.5 15.5h117.033v83.9c0 8.547 6.953 15.5 15.5 15.5h116.533c8.547 0 15.5-6.953 15.5-15.5v-207.366zm-15 108.466h-117.534v-68.539c16.4-3.074 29.353-16.027 32.427-32.427h85.106v100.966zm-100.523 15c-2.487 8.113-8.898 14.524-17.011 17.011v-17.011zm-17.011-98.955v-17.011h17.011c-2.487 8.113-8.898 14.524-17.011 17.011zm-132.033-17.011h117.033v100.966h-83.653c-3.164-16.884-16.795-30.122-33.881-32.683v-67.783c.001-.276.225-.5.501-.5zm-.5 100.466v-16.908c8.795 2.136 15.831 8.816 18.464 17.408h-17.964c-.276 0-.5-.224-.5-.5zm249.567 99.9h-116.534c-.276 0-.5-.224-.5-.5v-51.472c16.401-3.074 29.353-16.027 32.427-32.428h85.106v83.9c.001.276-.224.5-.499.5z"/><path d="m197.234 413.666v-17.133c0-8.547-6.953-15.5-15.5-15.5h-50.267c-8.547 0-15.5 6.953-15.5 15.5v17.133c0 8.547 6.953 15.5 15.5 15.5h50.267c8.547 0 15.5-6.953 15.5-15.5zm-66.267 0v-17.133c0-.276.224-.5.5-.5h50.267c.276 0 .5.224.5.5v17.133c0 .276-.224.5-.5.5h-50.267c-.276 0-.5-.224-.5-.5z"/><path d="m123.467 447.299c-4.142 0-7.5 3.358-7.5 7.5s3.358 7.5 7.5 7.5h49.7c4.142 0 7.5-3.358 7.5-7.5s-3.358-7.5-7.5-7.5z"/><path d="m206.301 447.299c-4.142 0-7.5 3.358-7.5 7.5s3.358 7.5 7.5 7.5h82.832c4.143 0 7.5-3.358 7.5-7.5s-3.357-7.5-7.5-7.5z"/><path d="m322.267 447.299c-4.143 0-7.5 3.358-7.5 7.5s3.357 7.5 7.5 7.5h66.267c4.143 0 7.5-3.358 7.5-7.5s-3.357-7.5-7.5-7.5z"/><path d="m98.335 97.833h208.945c4.143 0 7.5-3.358 7.5-7.5s-3.357-7.5-7.5-7.5h-208.945c-.276 0-.5-.224-.5-.5v-66.833c0-.276.224-.5.5-.5h17.634v25.633c0 4.142 3.358 7.5 7.5 7.5s7.5-3.358 7.5-7.5v-25.633h18.132v8.808c0 4.142 3.358 7.5 7.5 7.5s7.5-3.358 7.5-7.5v-8.808h18.131v25.633c0 4.142 3.358 7.5 7.5 7.5s7.5-3.358 7.5-7.5v-25.633h18.132v8.808c0 4.142 3.358 7.5 7.5 7.5s7.5-3.358 7.5-7.5v-8.808h18.131v25.633c0 4.142 3.358 7.5 7.5 7.5s7.499-3.358 7.499-7.5v-25.633h18.133v8.808c0 4.142 3.357 7.5 7.5 7.5 4.142 0 7.5-3.358 7.5-7.5v-8.808h18.137v25.633c0 4.142 3.357 7.5 7.5 7.5s7.5-3.358 7.5-7.5v-25.633h18.131v8.808c0 4.142 3.358 7.5 7.5 7.5 4.143 0 7.5-3.358 7.5-7.5v-8.808h18.138v25.633c0 4.142 3.357 7.5 7.5 7.5s7.5-3.358 7.5-7.5v-25.633h17.634c.275 0 .5.224.5.5v66.833c0 .276-.225.5-.5.5h-76.388c-4.143 0-7.5 3.358-7.5 7.5s3.357 7.5 7.5 7.5h76.388c8.547 0 15.5-6.953 15.5-15.5v-66.833c0-8.547-6.953-15.5-15.5-15.5h-315.332c-8.547 0-15.5 6.953-15.5 15.5v66.833c0 8.547 6.953 15.5 15.5 15.5z"/></g></g></svg>