<svg id="Capa_1" enable-background="new 0 0 512 512" height="512" viewBox="0 0 512 512" width="512" xmlns="http://www.w3.org/2000/svg"><g><g><g fill="#e2dfe2"><path d="m206.3 264.283h33.133v49.7h-33.133z"/><path d="m272.567 264.283h33.133v49.7h-33.133z"/><path d="m338.833 264.283h33.133v49.7h-33.133z"/></g><path d="m43.2 57.2h61.133v66.267h-61.133z" fill="#e2dfe2"/><g fill="#4c5e71"><path d="m49.2 140.033h-17.133c-4.418 0-8-3.582-8-8v-83.4c0-4.418 3.582-8 8-8h17.133c4.418 0 8 3.582 8 8v83.4c0 4.419-3.582 8-8 8z"/><path d="m136.333 40.633h-38c-4.418 0-8 3.582-8 8v83.4c0 4.418 3.582 8 8 8h38z"/><path d="m445.667 140.033h34.267c4.418 0 8-3.582 8-8v-83.4c0-4.418-3.582-8-8-8h-34.267z"/></g><path d="m479.933 40.633h-23c4.418 0 8 3.582 8 8v83.4c0 4.418-3.582 8-8 8h23c4.418 0 8-3.582 8-8v-83.4c0-4.418-3.581-8-8-8z" fill="#3c4958"/><g><path d="m405.1 388.533v-66.267c0-9.15-7.417-16.567-16.567-16.567h-198.8c-9.15 0-16.567 7.417-16.567 16.567v66.267z" fill="#eaa96a"/><path d="m388.533 305.7h-23c9.15 0 16.567 7.417 16.567 16.567v66.267h23v-66.267c0-9.15-7.417-16.567-16.567-16.567z" fill="#e5935d"/><g><g><path d="m396.533 504.5h17.133c4.418 0 8-3.582 8-8v-102.4h-33.133v102.4c0 4.418 3.582 8 8 8z" fill="#e2dfe2"/></g><path d="m398.65 394.1v102.4c0 3.378-2.097 6.262-5.058 7.434.911.361 1.902.566 2.942.566h17.133c4.418 0 8-3.582 8-8v-102.4z" fill="#d3ced5"/><path d="m380.967 405.1h32.7c4.418 0 8-3.582 8-8v-42.267c0-8.837-7.163-16-16-16h-24.7c-4.971 0-9 4.029-9 9v48.267c0 4.971 4.029 9 9 9z" fill="#efd27c"/><path d="m405.667 338.833h-23c8.837 0 16 7.163 16 16v42.267c0 4.418-3.582 8-8 8h23c4.418 0 8-3.582 8-8v-42.267c0-8.836-7.164-16-16-16z" fill="#eabc73"/></g><g><g><path d="m181.733 504.5h-17.133c-4.418 0-8-3.582-8-8v-102.4h33.133v102.4c0 4.418-3.581 8-8 8z" fill="#e2dfe2"/><path d="m166.717 394.1v102.4c0 3.378-2.097 6.262-5.058 7.434.911.361 1.902.566 2.942.566h17.133c4.418 0 8-3.582 8-8v-102.4z" fill="#d3ced5"/></g><path d="m197.3 405.1h-32.7c-4.418 0-8-3.582-8-8v-42.267c0-8.837 7.163-16 16-16h24.7c4.971 0 9 4.029 9 9v48.267c0 4.971-4.029 9-9 9z" fill="#efd27c"/><path d="m197.3 338.833h-23c4.971 0 9 4.029 9 9v48.267c0 4.971-4.029 9-9 9h23c4.971 0 9-4.029 9-9v-48.267c0-4.97-4.029-9-9-9z" fill="#eabc73"/></g><path d="m264.566 504.5h-17.133c-4.418 0-8-3.582-8-8v-102.4h33.133v102.4c0 4.418-3.581 8-8 8z" fill="#e2dfe2"/><path d="m249.55 394.1v102.4c0 3.378-2.097 6.262-5.058 7.434.911.361 1.902.566 2.942.566h17.133c4.418 0 8-3.582 8-8v-102.4z" fill="#d3ced5"/><path d="m313.7 504.5h17.133c4.418 0 8-3.582 8-8v-102.4h-33.133v102.4c0 4.418 3.582 8 8 8z" fill="#e2dfe2"/><path d="m315.817 394.1v102.4c0 3.378-2.097 6.262-5.058 7.434.911.361 1.902.566 2.942.566h17.133c4.418 0 8-3.582 8-8v-102.4z" fill="#d3ced5"/><path d="m322.833 338.833h-67.4c-8.837 0-16 7.163-16 16v42.267c0 4.418 3.582 8 8 8h83.4c4.418 0 8-3.582 8-8v-42.267c0-8.836-7.163-16-16-16z" fill="#efd27c"/><path d="m322.833 338.833h-23c8.837 0 16 7.163 16 16v42.267c0 4.418-3.582 8-8 8h23c4.418 0 8-3.582 8-8v-42.267c0-8.836-7.163-16-16-16z" fill="#eabc73"/></g><path d="m222.867 168h132.533v43.467h-132.533z" fill="#e2dfe2"/><path d="m332.4 168h23v43.467h-23z" fill="#d3ced5"/><path d="m438.8 173.167h-299.333c-8.837 0-16-7.163-16-16v-133.667c0-8.837 7.163-16 16-16h299.333c8.837 0 16 7.163 16 16v133.667c0 8.836-7.163 16-16 16z" fill="#efd27c"/><path d="m314.267 73.767h-50.267c-4.418 0-8-3.582-8-8v-17.134c0-4.418 3.582-8 8-8h50.267c4.418 0 8 3.582 8 8v17.133c0 4.419-3.582 8.001-8 8.001z" fill="#e2dfe2"/><path d="m438.8 7.5h-23c8.836 0 16 7.163 16 16v133.667c0 8.837-7.164 16-16 16h23c8.836 0 16-7.163 16-16v-133.667c0-8.837-7.163-16-16-16z" fill="#eabc73"/><path d="m314.267 40.633h-23c4.418 0 8 3.582 8 8v17.133c0 4.418-3.582 8-8 8h23c4.418 0 8-3.582 8-8v-17.133c0-4.418-3.582-8-8-8z" fill="#d3ced5"/><path d="m397.1 272.567h-215.933c-4.418 0-8-3.582-8-8v-42.267c0-8.837 7.163-16 16-16h199.933c8.837 0 16 7.163 16 16v42.267c0 4.418-3.582 8-8 8z" fill="#efd27c"/><path d="m389.1 206.3h-23c8.837 0 16 7.163 16 16v42.267c0 4.418-3.582 8-8 8h23c4.418 0 8-3.582 8-8v-42.267c0-8.837-7.163-16-16-16z" fill="#eabc73"/></g><g><path d="m264 33.133c-8.547 0-15.5 6.953-15.5 15.5v17.134c0 8.547 6.953 15.5 15.5 15.5h50.267c8.547 0 15.5-6.953 15.5-15.5v-17.134c0-8.547-6.953-15.5-15.5-15.5zm50.767 15.5v17.134c0 .275-.224.5-.5.5h-50.267c-.276 0-.5-.225-.5-.5v-17.134c0-.275.224-.5.5-.5h50.267c.276 0 .5.224.5.5z"/><path d="m479.933 33.133h-17.633v-9.633c0-12.958-10.542-23.5-23.5-23.5h-68.4c-4.142 0-7.5 3.357-7.5 7.5s3.358 7.5 7.5 7.5h68.4c4.687 0 8.5 3.813 8.5 8.5v92.467h-135.303c-3.16-9.608-12.212-16.566-22.864-16.566-10.651 0-19.704 6.958-22.863 16.566h-135.303v-92.467c0-4.687 3.813-8.5 8.5-8.5h200.933c4.142 0 7.5-3.357 7.5-7.5s-3.358-7.5-7.5-7.5h-200.933c-12.958 0-23.5 10.542-23.5 23.5v9.633h-17.633c-8.547 0-15.5 6.953-15.5 15.5v1.067h-18.134v-1.067c0-8.547-6.953-15.5-15.5-15.5h-17.133c-8.547 0-15.5 6.953-15.5 15.5v83.4c0 8.547 6.953 15.5 15.5 15.5h17.133c8.547 0 15.5-6.953 15.5-15.5v-1.066h18.133v1.066c0 8.547 6.953 15.5 15.5 15.5h17.633v9.634c0 12.958 10.542 23.5 23.5 23.5h21.23c4.142 0 7.5-3.357 7.5-7.5s-3.358-7.5-7.5-7.5h-21.23c-4.687 0-8.5-3.814-8.5-8.5v-17.134-9.066h135.304c3.16 9.608 12.212 16.566 22.863 16.566 10.652 0 19.704-6.958 22.864-16.566h135.303v9.066 17.134c0 4.686-3.813 8.5-8.5 8.5h-248.104c-4.142 0-7.5 3.357-7.5 7.5s3.358 7.5 7.5 7.5h24.67v18.133h-26.2c-12.958 0-23.5 10.542-23.5 23.5v42.267c0 8.547 6.953 15.5 15.5 15.5h17.634v18.133h-9.066c-13.27 0-24.067 10.796-24.067 24.066v10.111c-9.584 2.966-16.566 11.91-16.566 22.455v141.668c0 8.547 6.953 15.5 15.5 15.5h17.133c8.547 0 15.5-6.953 15.5-15.5v-83.9h.066c9.098 0 16.5-7.402 16.5-16.5v-.066h18.133v9.066 91.4c0 8.547 6.953 15.5 15.5 15.5h17.134c8.547 0 15.5-6.953 15.5-15.5v-83.9h18.133v83.9c0 8.547 6.953 15.5 15.5 15.5h17.133c8.547 0 15.5-6.953 15.5-15.5v-91.4-9.066h18.133v.066c0 9.098 7.402 16.5 16.5 16.5h.066v83.9c0 8.547 6.953 15.5 15.5 15.5h17.133c8.547 0 15.5-6.953 15.5-15.5v-141.667c0-10.545-6.982-19.49-16.566-22.455v-10.111c0-13.271-10.796-24.066-24.067-24.066h-9.066v-18.134h17.634c8.547 0 15.5-6.953 15.5-15.5v-42.267c0-12.958-10.542-23.5-23.5-23.5h-26.2v-18.133h75.9c12.958 0 23.5-10.542 23.5-23.5v-9.634h17.633c8.547 0 15.5-6.953 15.5-15.5v-83.4c0-8.547-6.953-15.5-15.5-15.5zm-382.099 48.134h18.133v18.133h-18.133zm0-32.634c0-.275.224-.5.5-.5h17.633v18.134h-18.133v-9.067zm-48.134 83.4c0 .275-.224.5-.5.5h-17.133c-.276 0-.5-.225-.5-.5v-83.4c0-.275.224-.5.5-.5h17.133c.276 0 .5.225.5.5v8.567 66.267zm15-16.066v-51.267h18.133v51.267zm33.634 16.566c-.276 0-.5-.225-.5-.5v-8.566-9.067h18.133v18.133zm190.799 0c-4.999 0-9.066-4.067-9.066-9.066s4.067-9.066 9.066-9.066c5 0 9.067 4.067 9.067 9.066s-4.067 9.066-9.067 9.066zm-75.333 147.533h18.133v18.134h-18.133zm51.267 0v18.134h-18.134v-18.134zm66.266 0v18.134h-18.133v-18.134zm-33.133 18.134h-18.133v-18.134h18.133zm-125.6 48.133h24.7c.827 0 1.5.673 1.5 1.5v16.634h-34.7v-9.634c0-4.686 3.813-8.5 8.5-8.5zm9.133 150.667h-17.133c-.276 0-.5-.225-.5-.5v-50.767h18.133v50.767c0 .275-.224.5-.5.5zm.5-66.267h-18.133v-18.133h18.133zm16.567-34.633c0 .827-.673 1.5-1.5 1.5h-7.566-25.634v-18.133h34.7zm48.133 1.5v-18.133h84.4v9.057.01s0 .006 0 .01v9.057h-84.4zm84.4-33.133h-84.4v-9.634c0-4.686 3.813-8.5 8.5-8.5h67.4c4.687 0 8.5 3.814 8.5 8.5zm-66.766 132.533h-17.134c-.276 0-.5-.225-.5-.5v-50.767h18.134v50.767c0 .275-.224.5-.5.5zm.5-66.267h-18.134v-18.133h18.134zm66.266-18.133v18.134h-18.133v-18.134zm-.5 84.4h-17.133c-.276 0-.5-.225-.5-.5v-50.767h18.133v50.767c0 .275-.224.5-.5.5zm48.634-100.9v-16.633h34.7v18.133h-25.633-7.566c-.828 0-1.501-.673-1.501-1.5zm34.7 16.5v18.134h-18.133v-18.134zm-.5 84.4h-17.133c-.276 0-.5-.225-.5-.5v-50.767h18.133v50.767c0 .275-.225.5-.5.5zm.5-132.533h-34.7v-16.634c0-.827.673-1.5 1.5-1.5h24.7c4.687 0 8.5 3.814 8.5 8.5zm-16.567-42.2v9.066h-16.633c-9.098 0-16.5 7.402-16.5 16.5v33.2h-18.133v-26.2c0-12.958-10.542-23.5-23.5-23.5h-67.4c-12.958 0-23.5 10.542-23.5 23.5v26.2h-18.134v-33.2c0-9.098-7.402-16.5-16.5-16.5h-16.633v-9.066c0-4.999 4.067-9.066 9.067-9.066h198.8c4.999-.001 9.066 4.067 9.066 9.066zm-33.133-24.067h-18.133v-18.134h18.133zm32.633-33.134h-215.933c-.276 0-.5-.225-.5-.5v-17.633h216.933v17.633c0 .276-.224.5-.5.5zm.5-42.766v9.634h-216.933v-9.634c0-4.687 3.813-8.5 8.5-8.5h199.933c4.687 0 8.5 3.813 8.5 8.5zm-49.7-23.5h-117.533v-18.133h117.533zm132.533-66.767c0 .275-.224.5-.5.5h-17.633v-84.4h17.633c.276 0 .5.225.5.5z"/></g></g></svg>