<svg id="Capa_1" enable-background="new 0 0 512 512" height="512" viewBox="0 0 512 512" width="512" xmlns="http://www.w3.org/2000/svg"><g><g><path d="m245.945 383.227c6.47 6.47 6.47 16.959 0 23.429l-58.935 58.935c-47.79 47.79-99.764 51.615-151.757 11.152-40.463-51.993-36.621-103.951 11.169-151.74l58.935-58.935c6.47-6.47 16.959-6.47 23.429 0z" fill="#f4f2f4"/><path d="m245.945 383.227-117.16-117.16c-6.401-6.401-16.73-6.458-23.214-.194.07.067.145.125.214.194l117.16 117.16c6.47 6.469 6.47 16.959 0 23.428l-58.935 58.935c-22.33 22.33-45.574 35.059-69.307 38.159 31.71 4.082 62.806-8.658 92.307-38.159l58.935-58.935c6.47-6.469 6.47-16.958 0-23.428z" fill="#e2dfe2"/><path d="m385.449 54.357h111.246v33.133h-111.246z" fill="#efd27c" transform="matrix(.707 .707 -.707 .707 179.338 -291.112)"/><path d="m438.905 9.336h16.263v111.246h-16.263z" fill="#eabc73" transform="matrix(.707 -.707 .707 .707 85.001 335.129)"/><path d="m274.22 99.847h33.133v242.726h-33.133z" fill="#4c5e71" transform="matrix(.707 .707 -.707 .707 241.589 -140.826)"/><path d="m175.643 383.21c-13.158 13.158-34.63 12.936-47.507-.667-12.411-13.111-11.629-33.911 1.137-46.677l52.227-52.227c3.235-3.235 8.48-3.235 11.714 0l35.143 35.143c3.235 3.235 3.235 8.48 0 11.714z" fill="#e2dfe2"/><g><g><path d="m394.215 164.639-46.858-46.858c-3.107-3.107-4.852-7.321-4.852-11.714v-50.288c0-2.197.873-4.304 2.426-5.857l37.57-37.569c6.47-6.47 16.959-6.47 23.429 0l11.714 11.714-39.578 39.579c-1.553 1.553-2.426 3.66-2.426 5.857v26.272c0 2.197.873 4.304 2.426 5.857l32.3 32.3c1.553 1.553 3.66 2.426 5.857 2.426h26.272c2.197 0 4.304-.873 5.857-2.426l39.579-39.579 11.714 11.714c6.47 6.47 6.47 16.959 0 23.429l-37.569 37.569c-1.553 1.553-3.66 2.426-5.857 2.426h-50.289c-4.394 0-8.608-1.745-11.715-4.852z" fill="#dd636e"/></g></g><path d="m382.929 12.352 23.214 23.214 11.5-11.5-11.714-11.714c-6.401-6.401-16.73-6.458-23.214-.194.07.068.145.125.214.194z" fill="#da4a54"/><path d="m499.644 106.067-11.714-11.714-11.5 11.5.214.214c6.47 6.469 6.47 16.959 0 23.429l-37.569 37.569c-1.553 1.553-3.66 2.426-5.857 2.426h23c2.197 0 4.304-.873 5.857-2.426l37.569-37.569c6.47-6.47 6.47-16.96 0-23.429z" fill="#da4a54"/><path d="m228.357 318.782-35.143-35.143c-3.235-3.235-8.48-3.235-11.714 0l-5.643 5.643 29.5 29.5c3.235 3.235 3.235 8.479 0 11.714l-52.714 52.715c-3.498 3.498-7.586 6.041-11.942 7.647 11.761 4.349 25.494 1.8 34.942-7.647l52.714-52.715c3.235-3.235 3.235-8.48 0-11.714z" fill="#d3ced5"/></g><path d="m504.947 100.763-11.705-11.704c-.003-.003-.006-.007-.009-.01l-70.286-70.286-11.714-11.714c-4.546-4.545-10.59-7.049-17.018-7.049s-12.472 2.504-17.017 7.049l-37.569 37.569c-2.98 2.981-4.622 6.944-4.622 11.16v50.288c0 6.429 2.503 12.472 7.048 17.018l6.412 6.412-15.735 15.736c-2.929 2.929-2.929 7.678.001 10.607 2.928 2.928 7.677 2.928 10.607-.001l15.734-15.735 12.822 12.822-149.395 149.393-12.822-12.822 112.284-112.283c2.929-2.93 2.929-7.678 0-10.607-2.93-2.928-7.678-2.928-10.607 0l-112.284 112.283-.554-.554c-6.153-6.151-16.166-6.151-22.32 0l-12.268 12.268-29.84-29.84c-9.384-9.383-24.651-9.383-34.035 0l-11.708 11.708c-.002.002-.004.004-.006.006s-.004.004-.006.006l-12.862 12.862c-2.929 2.93-2.929 7.678 0 10.607 2.929 2.928 7.678 2.928 10.606 0l7.565-7.565 36.251 36.25-5.924 5.924c-15.683 15.683-16.257 41.315-1.28 57.137 7.616 8.046 17.903 12.561 28.964 12.712.192.003.383.004.576.004 10.85 0 21.029-4.214 28.716-11.901l6.411-6.411 36.267 36.267-41.917 41.917c-44.898 44.9-92.368 48.635-141.107 11.11-37.519-48.728-33.776-96.19 11.124-141.089l13.141-13.142c2.929-2.93 2.929-7.679 0-10.607s-7.678-2.928-10.606 0l-13.141 13.142c-25.094 25.094-38.839 51.689-40.855 79.046-2.021 27.428 7.76 55.22 29.071 82.605.382.49.823.931 1.313 1.312 25.044 19.49 50.428 29.339 75.565 29.338 2.35 0 4.7-.086 7.046-.259 27.365-2.012 53.963-15.755 79.056-40.847l47.217-47.216c.001-.001.003-.003.005-.004.001-.001.003-.003.004-.005l11.71-11.71c4.546-4.546 7.049-10.59 7.049-17.019 0-6.428-2.503-12.472-7.049-17.017l-29.856-29.855 12.269-12.269c6.152-6.154 6.152-16.166-.001-22.321l-.553-.553 149.393-149.393 6.411 6.411c4.546 4.545 10.59 7.049 17.018 7.049h50.288c4.217 0 8.181-1.643 11.159-4.623l37.571-37.569c4.545-4.546 7.049-10.59 7.049-17.017-.002-6.431-2.506-12.475-7.052-17.021zm-400.697 177.018 6.41-6.41c3.535-3.535 9.287-3.535 12.822 0l29.839 29.839-12.821 12.822zm66.09 100.126c-4.936 4.935-11.476 7.636-18.48 7.505-6.978-.096-13.468-2.945-18.276-8.025-9.445-9.977-8.999-26.226.993-36.218l11.222-11.222c.002-.002.003-.003.005-.005s.003-.003.005-.005l18.12-18.12 36.251 36.251zm70.302 10.623c3.535 3.535 3.535 9.287 0 12.821l-6.411 6.411-36.267-36.267 12.822-12.822zm-17.588-63.338-12.268 12.268-36.251-36.25 12.268-12.268c.153-.153.354-.23.555-.23s.401.076.554.23l5.852 5.852c.002.002.003.004.005.005l23.429 23.429c.003.003.006.005.008.007l5.848 5.848c.306.307.306.805 0 1.109zm254.269-230.84-12.823 12.822-59.678-59.679 12.822-12.822zm-83.108-36.249 59.678 59.679-10.846 10.846c-.148.148-.345.23-.554.23h-26.271c-.209 0-.406-.082-.554-.23l-32.302-32.301c-.145-.145-.228-.346-.228-.552v-26.273c0-.206.083-.407.23-.553zm100.127 66.088-37.572 37.571c-.146.146-.347.229-.552.229h-50.288c-2.421 0-4.698-.943-6.41-2.656l-11.714-11.714c-.001-.001-.001-.001-.001-.001l-23.429-23.429h-.001l-11.714-11.714c-1.713-1.712-2.655-3.988-2.655-6.41v-50.289c0-.209.081-.405.229-.553l37.569-37.569c1.768-1.768 4.089-2.651 6.411-2.651 2.321 0 4.643.884 6.41 2.651l6.411 6.41-18.125 18.125c-.005.005-.009.011-.014.016l-16.133 16.134c-2.982 2.979-4.624 6.943-4.624 11.161v26.272c0 4.218 1.643 8.182 4.622 11.16l32.3 32.3c2.982 2.981 6.945 4.623 11.161 4.623h26.271c4.216 0 8.18-1.642 11.161-4.623l16.145-16.145c.002-.002.003-.003.005-.004l18.126-18.125 6.411 6.411c1.713 1.712 2.656 3.989 2.656 6.411-.001 2.42-.945 4.697-2.656 6.409z"/></g></svg>