<svg id="Capa_1" enable-background="new 0 0 512 512" height="512" viewBox="0 0 512 512" width="512" xmlns="http://www.w3.org/2000/svg"><g><g><path d="m322.267 383.534-.001 92.829h-41.416v-46.415c0-4.575-3.709-8.283-8.283-8.283h-33.133c-4.575 0-8.283 3.709-8.283 8.283v46.415h-41.416l-.001-92.829z" fill="#e2dfe2"/><path d="m299.266 383.534h23v92.83h-23z" fill="#d3ced5"/><path d="m372.25 471.368h-232.499c-4.418 0-8 3.582-8 8v17.132c0 4.418 3.582 8 8 8h232.499c4.418 0 8-3.582 8-8v-17.132c0-4.418-3.582-8-8-8z" fill="#f4f2f4"/><path d="m372.25 471.368h-23c4.418 0 8 3.582 8 8v17.132c0 4.418-3.582 8-8 8h23c4.418 0 8-3.582 8-8v-17.132c0-4.418-3.582-8-8-8z" fill="#e2dfe2"/><path d="m504.498 324.5v-283.867c0-18.298-14.834-33.132-33.133-33.132h-430.731c-18.299-.001-33.133 14.833-33.133 33.132v283.867z" fill="#4c5e71"/><path d="m71.767 40.635h252.499v252.032h-252.499z" fill="#a5cdfc"/><g><path d="m189.733 256-82.833-47.333v-87.567h102.6z" fill="#d3ced5"/><path d="m189.733 121.1v134.9l82.834-47.333v-87.567z" fill="#e2dfe2"/><path d="m272.567 121.1-82.834 47.333-82.833-47.333 82.833-47.333z" fill="#f4f2f4"/></g><g><g><g><path d="m471.367 158.333v-110.286c0-4.094-3.709-7.413-8.283-7.413h-140.817v117.699z" fill="#f4f2f4"/></g><g><path d="m322.267 188.55h149.101v104.117h-149.101z" fill="#f4f2f4"/></g></g></g><path d="m430.233 123.467h-66.833c-4.418 0-8-3.582-8-8v-33.7c0-4.418 3.582-8 8-8h66.833c4.418 0 8 3.582 8 8v33.7c0 4.418-3.582 8-8 8z" fill="#a7dda7"/><path d="m322.267 156.6h149.1v33.133h-149.1z" fill="#d3ced5"/><path d="m40.633 48.047v244.619h33.134v-252.031h-24.851c-4.575 0-8.283 3.318-8.283 7.412z" fill="#f4f2f4"/><path d="m481.498 40.633v283.867h23v-283.867c0-18.298-14.834-33.132-33.133-33.132h-23c18.299-.001 33.133 14.833 33.133 33.132z" fill="#3c4958"/><path d="m504.498 355.402v-33.135h-496.997v33.135c0 18.299 14.834 33.133 33.132 33.133h430.732c18.299 0 33.133-14.834 33.133-33.133z" fill="#f4f2f4"/><g fill="#e2dfe2"><path d="m481.529 322.267v33.135c0 18.299-14.834 33.133-33.132 33.133h22.969c18.298 0 33.133-14.834 33.133-33.133v-33.135z"/><path d="m90.334 371.967c0-9.15-7.417-16.567-16.567-16.567s-16.567 7.417-16.567 16.567v16.568h33.133v-16.568z"/><path d="m454.8 371.967c0-9.15-7.417-16.567-16.567-16.567-9.149 0-16.567 7.417-16.567 16.567v16.568h33.134z"/></g><path d="m471.367 289.136-.001-.003h-430.733v.001 33.133h430.734z" fill="#35414e"/><path d="m430.233 73.767h-23c4.418 0 8 3.582 8 8v33.7c0 4.418-3.582 8-8 8h23c4.418 0 8-3.582 8-8v-33.7c0-4.418-3.582-8-8-8z" fill="#8ace9b"/></g><g><path d="m512 322.267c0-.013-.002-.026-.002-.04v-281.594c0-22.405-18.227-40.633-40.632-40.633h-382.366c-4.142 0-7.5 3.358-7.5 7.5s3.358 7.5 7.5 7.5h382.366c14.134 0 25.632 11.499 25.632 25.633v274.134h-18.131v-265.849c0-8.703-7.081-15.783-15.783-15.783h-414.168c-8.703 0-15.783 7.081-15.783 15.783v265.849h-18.132v-274.134c0-14.134 11.499-25.633 25.633-25.633h18.366c4.142 0 7.5-3.358 7.5-7.5s-3.358-7.5-7.5-7.5h-18.366c-22.405 0-40.633 18.228-40.633 40.633v281.613c0 .007-.001.014-.001.021s.001.014.001.021v33.115c0 22.405 18.228 40.632 40.633 40.632h141.6v67.833h-42.483c-8.547 0-15.5 6.953-15.5 15.5v17.132c0 8.547 6.953 15.5 15.5 15.5h34.982c4.142 0 7.5-3.358 7.5-7.5s-3.358-7.5-7.5-7.5h-34.982c-.276 0-.5-.224-.5-.5v-17.132c0-.276.224-.5.5-.5h232.499c.276 0 .5.224.5.5v17.132c0 .276-.224.5-.5.5h-167.517c-4.142 0-7.5 3.358-7.5 7.5s3.358 7.5 7.5 7.5h167.517c8.547 0 15.5-6.953 15.5-15.5v-17.132c0-8.547-6.953-15.5-15.5-15.5h-42.483v-67.833h141.599c22.405 0 40.632-18.228 40.632-40.632v-33.096c0-.014.002-.027.002-.04zm-430.733-40.634v-233.498h233.5v233.499h-233.5zm382.6-99.4h-134.1v-18.133h134.101v18.133zm-134.1 15h134.101v84.4h-134.101zm134.1-148.315v100.182h-134.1v-100.965h133.317c.432 0 .783.351.783.783zm-414.951-.783h17.351v233.499h-18.134v-232.716c0-.432.351-.783.783-.783zm-.783 248.498h415.734v18.133h-415.734zm16.567 84.402v-9.068c0-5 4.067-9.067 9.066-9.067s9.067 4.067 9.067 9.067v9.068zm208.65 82.833h-34.7v-33.92c0-.432.352-.783.784-.783h33.133c.432 0 .784.352.784.783v33.92zm41.416 0h-26.416v-33.92c0-8.703-7.081-15.783-15.784-15.783h-33.133c-8.703 0-15.784 7.08-15.784 15.783v33.92h-26.416v-67.833h117.533zm114.401-82.833v-9.068c0-5 4.067-9.067 9.067-9.067 4.999 0 9.066 4.067 9.066 9.067v9.068zm42.199 0h-9.066v-9.068c0-13.271-10.796-24.067-24.066-24.067s-24.067 10.796-24.067 24.067v9.068h-91.879c-.007 0-.014-.001-.021-.001s-.014.001-.021.001h-132.492c-.007 0-.014-.001-.021-.001s-.014.001-.021.001h-91.878v-9.068c0-13.271-10.796-24.067-24.067-24.067s-24.067 10.796-24.067 24.067v9.068h-9.066c-14.134 0-25.633-11.499-25.633-25.632v-25.636h481.997v25.636c0 14.133-11.498 25.632-25.632 25.632z"/><path d="m272.567 347.9h-33.134c-4.142 0-7.5 3.358-7.5 7.5s3.358 7.5 7.5 7.5h33.134c4.142 0 7.5-3.358 7.5-7.5s-3.358-7.5-7.5-7.5z"/><path d="m276.288 114.588-82.833-47.334c-2.306-1.317-5.137-1.317-7.442 0l-82.834 47.334c-2.336 1.335-3.779 3.82-3.779 6.512v87.566c0 2.691 1.442 5.177 3.779 6.512l82.834 47.333c1.174.671 2.453.99 3.714.99 1.308 0 2.596-.344 3.731-.991l82.83-47.332c2.336-1.335 3.779-3.82 3.779-6.512v-87.566c0-2.691-1.442-5.176-3.779-6.512zm-86.555-32.183 67.717 38.695-67.717 38.695-67.716-38.695zm-75.333 51.619 67.833 38.762v70.29l-67.833-38.762zm82.833 109.052v-70.29l67.833-38.762v70.29z"/><path d="m363.4 130.967h66.833c8.547 0 15.5-6.953 15.5-15.5v-33.7c0-8.547-6.953-15.5-15.5-15.5h-66.833c-8.547 0-15.5 6.953-15.5 15.5v33.7c0 8.547 6.953 15.5 15.5 15.5zm-.5-49.2c0-.276.224-.5.5-.5h66.833c.276 0 .5.224.5.5v33.7c0 .276-.224.5-.5.5h-66.833c-.276 0-.5-.224-.5-.5z"/><path d="m355.4 230.367h82.833c4.142 0 7.5-3.358 7.5-7.5s-3.358-7.5-7.5-7.5h-82.833c-4.142 0-7.5 3.358-7.5 7.5s3.358 7.5 7.5 7.5z"/><path d="m438.233 248.5h-82.833c-4.142 0-7.5 3.358-7.5 7.5s3.358 7.5 7.5 7.5h82.833c4.142 0 7.5-3.358 7.5-7.5s-3.358-7.5-7.5-7.5z"/></g></g></svg>