<svg id="Capa_1" enable-background="new 0 0 512.144 512.144" height="512" viewBox="0 0 512.144 512.144" width="512" xmlns="http://www.w3.org/2000/svg"><g><g><g><path d="m355.413 140.105c-9.15 0-16.567-7.417-16.567-16.567s7.417-16.567 16.567-16.567h16.567c9.15 0 16.567-7.417 16.567-16.567s-7.417-16.567-16.567-16.567h-66.267c-9.15 0-16.567-7.417-16.567-16.567s7.417-16.567 16.567-16.567h33.133c9.15 0 16.567-7.417 16.567-16.567s-7.417-16.567-16.567-16.567h-182.233c-9.15 0-16.567 7.417-16.567 16.567 0 9.149 7.417 16.567 16.567 16.567h49.7c9.149 0 16.567 7.417 16.567 16.567s-7.417 16.567-16.567 16.567h-115.967c-9.149 0-16.567 7.417-16.567 16.567s7.417 16.567 16.567 16.567h49.7c9.149 0 16.567 7.417 16.567 16.567 0 9.149-7.417 16.567-16.567 16.567v11.967h215.969z" fill="#f4f2f4"/><path d="m471.379 106.972c9.15 0 16.567-7.417 16.567-16.567s-7.417-16.567-16.567-16.567h-33.133c-9.15 0-16.567 7.417-16.567 16.567s7.417 16.567 16.567 16.567z" fill="#f4f2f4"/><g fill="#e2dfe2"><g><path d="m332.413 24.139c0 9.149-7.417 16.567-16.567 16.567h23c9.15 0 16.567-7.417 16.567-16.567s-7.417-16.567-16.567-16.567h-23c9.15 0 16.567 7.417 16.567 16.567z"/><path d="m289.146 57.272c0-9.15 7.417-16.567 16.567-16.567h-23c-9.149 0-16.567 7.417-16.567 16.567s7.417 16.567 16.567 16.567h23c-9.15 0-16.567-7.418-16.567-16.567z"/><path d="m371.979 73.839h-23c9.15 0 16.567 7.417 16.567 16.567s-7.417 16.567-16.567 16.567h-16.567c-9.149 0-16.567 7.417-16.567 16.567 0 9.149 7.417 16.567 16.567 16.567l.602 11.967h23l-.602-11.967c-9.149 0-16.567-7.417-16.567-16.567s7.417-16.567 16.567-16.567h16.567c9.15 0 16.567-7.417 16.567-16.567s-7.417-16.567-16.567-16.567z"/></g><path d="m471.379 73.839h-23c9.15 0 16.567 7.417 16.567 16.567s-7.417 16.567-16.567 16.567h23c9.15 0 16.567-7.417 16.567-16.567s-7.417-16.567-16.567-16.567z"/></g></g><path d="m24.079 248.572h463.867v227.867h-463.867z" fill="#eaa96a"/><path d="m464.946 248.572h23v227.867h-23z" fill="#e5935d"/><path d="m375.857 256.072h120.476c7.117 0 10.92-8.382 6.234-13.738l-87.094-99.404c-1.573-1.795-3.844-2.825-6.23-2.825h-134.593-37.156-134.592c-2.387 0-4.657 1.029-6.23 2.825l-87.094 99.404c-4.686 5.356-.883 13.738 6.234 13.738h120.475z" fill="#3c4958"/><path d="m502.566 242.334-87.094-99.404c-1.573-1.795-3.844-2.825-6.23-2.825h-23c2.387 0 4.657 1.029 6.23 2.825l87.094 99.404c4.686 5.356.883 13.738-6.234 13.738h23c7.117 0 10.92-8.382 6.234-13.738z" fill="#35414e"/><g><path d="m338.846 239.505v236.934h-165.667v-236.934l82.836-83.933z" fill="#efd27c"/><path d="m289.146 476.439h-66.267v-96.4c0-4.418 3.582-8 8-8h50.267c4.418 0 8 3.582 8 8z" fill="#eaa96a"/><path d="m315.846 216.199v260.24h23v-236.934z" fill="#eabc73"/><path d="m281.146 372.039h-23c4.418 0 8 3.582 8 8v96.4h23v-96.4c0-4.419-3.582-8-8-8z" fill="#e5935d"/><g><g><path d="m354.057 281.61-91.811-104.926c-3.3-3.772-9.168-3.772-12.468 0l-91.81 104.926c-3.013 3.443-8.246 3.792-11.689.779l-12.467-10.909c-3.443-3.012-3.792-8.245-.779-11.688l116.746-133.424c3.3-3.772 9.168-3.772 12.468 0l116.746 133.424c3.012 3.443 2.664 8.676-.779 11.688l-12.467 10.909c-3.444 3.013-8.677 2.664-11.69-.779z" fill="#4c5e71"/></g></g><path d="m378.992 259.791-116.746-133.424c-3.3-3.772-9.168-3.772-12.468 0l-5.266 6.019 111.48 127.406c3.012 3.443 2.664 8.676-.779 11.688l-5.675 4.966 4.519 5.164c3.012 3.443 8.246 3.792 11.688.779l12.467-10.909c3.444-3.013 3.793-8.246.78-11.689z" fill="#3c4958"/></g><g><path d="m446.813 405.172h-66.833c-4.418 0-8-3.582-8-8v-61.534h82.833v61.534c0 4.418-3.582 8-8 8z" fill="#a6ccfb"/><path d="m431.833 335.638v61.534c0 4.418-3.582 8-8 8h22.979c4.418 0 8-3.582 8-8v-61.534z" fill="#8cbdf9"/><path d="m454.813 338.938h-82.833v-25.133c0-4.418 3.582-8 8-8h66.833c4.418 0 8 3.582 8 8z" fill="#f4f2f4"/><path d="m446.813 305.805h-23c4.418 0 8 3.582 8 8v25.133h23v-25.133c0-4.418-3.582-8-8-8z" fill="#e2dfe2"/></g><path d="m289.146 289.205c0 15.724-10.953 28.89-25.646 32.284l-14.995-.005c-14.682-3.401-25.626-16.562-25.626-32.279 0-15.676 10.886-28.809 25.511-32.252l15.105-.033c14.695 3.393 25.651 16.559 25.651 32.285z" fill="#a6ccfb"/><path d="m496.515 504.572h-481c-4.418 0-8-3.582-8-8v-17.133c0-4.418 3.582-8 8-8h481c4.418 0 8 3.582 8 8v17.133c0 4.418-3.582 8-8 8z" fill="#e2dfe2"/><path d="m496.515 471.439h-23c4.418 0 8 3.582 8 8v17.133c0 4.418-3.582 8-8 8h23c4.418 0 8-3.582 8-8v-17.133c0-4.419-3.582-8-8-8z" fill="#d3ced5"/><g><path d="m132.046 405.172h-66.833c-4.418 0-8-3.582-8-8v-61.534h82.833v61.534c0 4.418-3.582 8-8 8z" fill="#a6ccfb"/><path d="m117.067 335.638v61.534c0 4.418-3.582 8-8 8h22.979c4.418 0 8-3.582 8-8v-61.534z" fill="#8cbdf9"/><path d="m140.046 338.938h-82.833v-25.133c0-4.418 3.582-8 8-8h66.833c4.418 0 8 3.582 8 8z" fill="#f4f2f4"/><path d="m132.046 305.805h-23c4.418 0 8 3.582 8 8v25.133h23v-25.133c0-4.418-3.582-8-8-8z" fill="#e2dfe2"/></g></g><g><path d="m496.513 463.939h-1.066v-200.367h.886c6.272 0 11.78-3.548 14.372-9.26 2.593-5.713 1.638-12.194-2.497-16.921l-87.093-99.401c-2.996-3.422-7.323-5.385-11.872-5.385h-53.829c-5 0-9.067-4.067-9.067-9.066s4.067-9.066 9.067-9.066h16.566c13.271 0 24.066-10.797 24.066-24.067s-10.796-24.068-24.066-24.068h-66.267c-5 0-9.067-4.067-9.067-9.066 0-5 4.067-9.067 9.067-9.067h33.133c13.271 0 24.067-10.796 24.067-24.066s-10.797-24.067-24.067-24.067h-182.233c-13.271 0-24.067 10.796-24.067 24.066s10.796 24.066 24.067 24.066h49.7c4.999 0 9.067 4.067 9.067 9.067 0 4.999-4.067 9.066-9.067 9.066h-68.809c-4.142 0-7.5 3.357-7.5 7.5s3.358 7.5 7.5 7.5h68.809c13.27 0 24.067-10.796 24.067-24.066s-10.796-24.067-24.067-24.067h-49.7c-5 0-9.067-4.067-9.067-9.066s4.067-9.066 9.067-9.066h182.233c5 0 9.067 4.067 9.067 9.066s-4.067 9.066-9.067 9.066h-33.133c-13.271 0-24.067 10.797-24.067 24.067s10.797 24.066 24.067 24.066h66.267c4.999 0 9.066 4.067 9.066 9.066 0 5-4.067 9.067-9.066 9.067h-16.566c-13.271 0-24.067 10.796-24.067 24.066 0 3.207.636 6.266 1.779 9.066h-55.456l-9.78-11.177c-2.997-3.426-7.326-5.39-11.878-5.391-4.551 0-8.881 1.965-11.878 5.391l-9.78 11.177h-72.021c1.143-2.8 1.779-5.86 1.779-9.066 0-13.271-10.796-24.066-24.067-24.066h-49.7c-4.999 0-9.066-4.067-9.066-9.067 0-4.999 4.067-9.066 9.066-9.066h17.158c4.142 0 7.5-3.357 7.5-7.5s-3.358-7.5-7.5-7.5h-17.157c-13.271 0-24.066 10.796-24.066 24.066s10.796 24.067 24.066 24.067h49.7c4.999 0 9.067 4.067 9.067 9.066s-4.067 9.066-9.067 9.066h-37.144c-4.548 0-8.876 1.962-11.871 5.383l-87.097 99.41c-4.131 4.722-5.087 11.203-2.494 16.916 2.592 5.712 8.1 9.261 14.373 9.261h.767v200.367h-1.066c-8.547 0-15.5 6.953-15.5 15.5v17.133c0 8.547 6.953 15.5 15.5 15.5h26.7c4.142 0 7.5-3.357 7.5-7.5s-3.358-7.5-7.5-7.5h-26.7c-.276 0-.5-.225-.5-.5v-17.133c0-.275.224-.5.5-.5h481c.275 0 .5.225.5.5v17.133c0 .275-.225.5-.5.5h-424.3c-4.142 0-7.5 3.357-7.5 7.5s3.358 7.5 7.5 7.5h424.3c8.547 0 15.5-6.953 15.5-15.5v-17.133c-.001-8.547-6.954-15.5-15.501-15.5zm-16.067 0h-134.1v-18.134h134.101v18.134zm0-33.134h-134.1v-146.619l2.066 2.362c2.776 3.174 6.622 5.076 10.829 5.356.358.024.716.036 1.072.036 3.82 0 7.469-1.367 10.371-3.906l12.467-10.909c3.173-2.776 5.075-6.622 5.355-10.829.061-.918.029-1.827-.064-2.724h92.004zm-199.3-66.266h-50.266c-8.547 0-15.5 6.953-15.5 15.5v50.767h-34.7v-163.762l74.744-85.42c.155-.178.354-.268.589-.268.236 0 .434.09.589.267l74.744 85.421v163.762h-34.7v-50.767c0-8.547-6.954-15.5-15.5-15.5zm215.9-116.426c-.209.459-.537.459-.714.459h-117.191l-15.866-18.133h118.899l14.748 16.832c.116.134.332.381.124.842zm-87.804-100.508c.225 0 .438.097.589.268l59.2 67.566h-118.881l-59.354-67.834zm-153.819-16.299c.311-.355.868-.355 1.179-.001l116.747 133.426c.142.162.206.352.191.567s-.103.396-.267.537l-12.466 10.909c-.162.142-.37.206-.568.192-.215-.015-.396-.104-.536-.265-.001-.001-.001-.001-.001-.001l-91.811-104.926c-2.997-3.426-7.326-5.39-11.878-5.39-4.551 0-8.881 1.964-11.878 5.39l-91.811 104.926c-.285.325-.78.358-1.105.073l-12.467-10.909c-.162-.142-.251-.322-.266-.537s.05-.405.192-.568zm-153.109 16.566c.148-.17.363-.267.588-.267h118.328l-59.354 67.834h-118.762zm-87.215 100.24c-.209-.46.008-.707.121-.836l14.752-16.837h118.778l-15.866 18.133h-117.072c-.176 0-.505 0-.713-.46zm108.484 15.46c-.094.897-.126 1.805-.065 2.724.28 4.207 2.182 8.053 5.355 10.829l12.468 10.909c6.551 5.732 16.542 5.065 22.272-1.485l2.066-2.362v146.618h-134.1v-167.233zm-92.004 182.233h134.1v18.134h-134.1zm149.1 0h34.7v18.134h-34.7zm49.7 18.134v-83.9c0-.275.224-.5.5-.5h50.266c.275 0 .5.225.5.5v83.9zm66.267 0v-18.134h34.7v18.134z"/><path d="m438.246 114.472h33.133c13.271 0 24.067-10.797 24.067-24.067s-10.797-24.066-24.067-24.066h-33.133c-13.271 0-24.066 10.796-24.066 24.066s10.796 24.067 24.066 24.067zm0-33.134h33.133c5 0 9.067 4.067 9.067 9.066 0 5-4.067 9.067-9.067 9.067h-33.133c-4.999 0-9.066-4.067-9.066-9.067 0-4.998 4.067-9.066 9.066-9.066z"/><path d="m364.48 313.772v83.399c0 8.547 6.953 15.5 15.5 15.5h66.833c8.547 0 15.5-6.953 15.5-15.5v-83.399c0-8.547-6.953-15.5-15.5-15.5h-66.833c-8.547 0-15.5 6.953-15.5 15.5zm15 83.399v-50.767h26.416v51.267h-25.916c-.276 0-.5-.224-.5-.5zm67.333.5h-25.917v-51.267h26.417v50.767c0 .276-.225.5-.5.5zm.5-83.899v17.633h-67.833v-17.633c0-.275.225-.5.5-.5h66.833c.275 0 .5.225.5.5z"/><path d="m65.213 412.671h66.833c8.547 0 15.5-6.953 15.5-15.5v-83.399c0-8.547-6.953-15.5-15.5-15.5h-66.833c-8.547 0-15.5 6.953-15.5 15.5v83.399c0 8.547 6.953 15.5 15.5 15.5zm-.5-15.5v-50.767h26.416v51.267h-25.916c-.276 0-.5-.224-.5-.5zm67.333.5h-25.917v-51.267h26.417v50.767c0 .276-.224.5-.5.5zm-66.833-84.399h66.833c.276 0 .5.225.5.5v17.633h-67.833v-17.633c0-.275.224-.5.5-.5z"/><path d="m256.013 248.572c-22.405 0-40.633 18.228-40.633 40.633s18.228 40.634 40.633 40.634 40.633-18.228 40.633-40.634-18.228-40.633-40.633-40.633zm-25.634 40.633c0-11.525 7.647-21.296 18.133-24.511v49.023c-10.486-3.215-18.133-12.986-18.133-24.512zm33.134 24.512v-49.023c10.486 3.215 18.133 12.986 18.133 24.511 0 11.526-7.648 21.296-18.133 24.512z"/></g></g></svg>