<svg id="Capa_1" enable-background="new 0 0 512 512" height="512" viewBox="0 0 512 512" width="512" xmlns="http://www.w3.org/2000/svg"><g><g><g><path d="m471.933 487.933h-150.233c-8.837 0-16-7.163-16-16v-23.933h182.233v23.933c0 8.837-7.163 16-16 16z" fill="#4c5e71"/><path d="m464.933 448v23.933c0 8.837-7.163 16-16 16h23c8.837 0 16-7.163 16-16v-23.933z" fill="#3c4958"/><g><path d="m70.866 140.033h88.634v33.133h-88.634z" fill="#f4f2f4"/><path d="m133.6 140.033h25.9v33.133h-25.9z" fill="#e2dfe2"/><path d="m193.75 189.733h-21.15c-8.837 0-16-7.163-16-16v-34.267c0-8.837 7.163-16 16-16h21.15z" fill="#c3bec6"/><g><g><path d="m259 106.9h-32.223c-2.572 0-5.108.599-7.409 1.749l-29.635 14.818v66.267l29.635 14.818c2.3 1.15 4.837 1.749 7.409 1.749h32.223z" fill="#f4f2f4"/></g></g><path d="m313.983 208.5v55.201c0 5.539 2.768 10.712 7.377 13.784l13.299 8.866c2.721 1.814 5.919 2.782 9.19 2.782h40.151v-80.633z" fill="#f4f2f4"/><path d="m384 289.133v-80.633h-51.433v14.367l14.726 66.266z" fill="#e2dfe2"/><path d="m388.533 371.967-33.133-149.1v-8.867h82.833v8.867l33.134 149.1v10.033h-82.834z" fill="#4c5e71"/><path d="m438.233 222.867v-8.867h-23v8.867l33.134 149.1v10.033h23v-10.033z" fill="#3c4958"/><path d="m471.367 222.867h-178.323c-2.572 0-5.109-.599-7.409-1.749l-29.635-14.818v-99.4l29.635-14.818c2.3-1.15 4.837-1.749 7.409-1.749h171.46c4.394 0 8.608 1.745 11.714 4.852l23.429 23.429c3.107 3.107 4.852 7.321 4.852 11.714v59.405c.001 18.299-14.833 33.134-33.132 33.134z" fill="#efd27c"/><path d="m446.8 189.733h-99.967c-4.418 0-8-3.582-8-8v-50.267c0-4.418 3.582-8 8-8h99.967c4.418 0 8 3.582 8 8v50.267c0 4.419-3.582 8-8 8z" fill="#f4f2f4"/><path d="m487.933 421.667v-33.133c0-9.15-7.417-16.567-16.567-16.567h-123.667c-5.539 0-10.712 2.768-13.784 7.377l-28.215 42.323v5h182.233z" fill="#efd27c"/><path d="m471.367 371.967h-23c9.149 0 16.567 7.417 16.567 16.567v33.133 5h23v-5-33.133c-.001-9.15-7.418-16.567-16.567-16.567z" fill="#eabc73"/><path d="m305.7 454.8c-9.15 0-16.567-7.417-16.567-16.567s7.417-16.567 16.567-16.567h182.233c9.15 0 16.567 7.417 16.567 16.567s-7.417 16.567-16.567 16.567z" fill="#f4f2f4"/><path d="m499.648 118.614-23.429-23.429c-3.107-3.107-7.321-4.852-11.715-4.852h-23c4.394 0 8.608 1.745 11.715 4.852l23.429 23.429c3.107 3.107 4.852 7.321 4.852 11.715v59.404c0 18.299-14.834 33.133-33.133 33.133h23c18.299 0 33.133-14.834 33.133-33.133v-59.404c0-4.394-1.745-8.608-4.852-11.715z" fill="#eabc73"/><g fill="#e2dfe2"><path d="m446.8 123.467h-23c4.418 0 8 3.582 8 8v50.267c0 4.418-3.582 8-8 8h23c4.418 0 8-3.582 8-8v-50.267c0-4.419-3.582-8-8-8z"/><path d="m487.933 421.667h-23c9.15 0 16.567 7.417 16.567 16.567 0 9.149-7.417 16.567-16.567 16.567h23c9.15 0 16.567-7.417 16.567-16.567s-7.417-16.567-16.567-16.567z"/></g></g></g><path d="m65.767 504.5h-50.267c-4.418 0-8-3.582-8-8v-481c0-4.418 3.582-8 8-8h50.267c4.418 0 8 3.582 8 8v481c0 4.418-3.582 8-8 8z" fill="#eaa96a"/><path d="m65.767 7.5h-23c4.418 0 8 3.582 8 8v481c0 4.418-3.582 8-8 8h23c4.418 0 8-3.582 8-8v-481c0-4.418-3.582-8-8-8z" fill="#e5935d"/></g><g><path d="m512 189.733v-59.404c0-6.429-2.504-12.473-7.049-17.019l-23.429-23.429c-4.546-4.545-10.59-7.049-17.018-7.049h-110.671c-4.143 0-7.5 3.357-7.5 7.5s3.357 7.5 7.5 7.5h110.672c2.421 0 4.698.943 6.41 2.656l23.429 23.429c1.713 1.712 2.656 3.989 2.656 6.411v59.404c0 14.135-11.499 25.634-25.633 25.634h-33.134-82.833-62.357c-1.399 0-2.802-.331-4.054-.957l-25.49-12.745v-90.13l25.491-12.745c1.251-.626 2.652-.957 4.053-.957h30.789c4.143 0 7.5-3.357 7.5-7.5s-3.357-7.5-7.5-7.5h-30.789c-3.718 0-7.439.879-10.763 2.541l-28.05 14.027h-27.453c-3.717 0-7.439.879-10.763 2.541l-28.051 14.025h-15.363c-10.545 0-19.49 6.982-22.455 16.566h-68.878v-117.032c0-8.547-6.953-15.5-15.5-15.5h-50.267c-8.547 0-15.5 6.953-15.5 15.5v109.533c0 4.143 3.358 7.5 7.5 7.5s7.5-3.357 7.5-7.5v-76.9h51.267v415.734h-51.267v-308.834c0-4.143-3.358-7.5-7.5-7.5s-7.5 3.357-7.5 7.5v341.467c0 8.547 6.953 15.5 15.5 15.5h50.267c8.547 0 15.5-6.953 15.5-15.5v-315.833h68.878c2.965 9.584 11.91 16.566 22.455 16.566h15.363l28.051 14.025c3.324 1.662 7.046 2.541 10.763 2.541h27.453l28.053 14.027c3.324 1.661 7.046 2.54 10.761 2.54h13.44v33.334c0 8.065 4.006 15.551 10.717 20.024l13.299 8.865c3.966 2.646 8.582 4.043 13.351 4.043h20.26l15.074 67.834h-31.484c-8.063 0-15.549 4.006-20.024 10.717l-26.246 39.371c-11.239 2.023-19.796 11.867-19.796 23.679 0 10.652 6.959 19.704 16.567 22.863v10.837c0 12.958 10.542 23.5 23.5 23.5h150.233c12.958 0 23.5-10.542 23.5-23.5v-10.837c9.608-3.16 16.566-12.211 16.566-22.863s-6.958-19.704-16.566-22.863v-26.837c0-11.128-7.593-20.512-17.87-23.254l-29.981-134.912h23.784c22.404 0 40.632-18.228 40.632-40.634zm-289.133-24.066c-4.142 0-7.5 3.357-7.5 7.5v20.998l-18.133-9.066v-56.997l18.133-9.066v20.998c0 4.143 3.358 7.5 7.5 7.5s7.5-3.357 7.5-7.5v-25.634h18.133v84.4h-18.133v-25.633c0-4.143-3.358-7.5-7.5-7.5zm-73.767-18.134v18.134h-32.55l9.067-18.134zm-134.1-114.4v-17.633c0-.275.224-.5.5-.5h50.267c.276 0 .5.225.5.5v17.633zm50.767 463.867h-50.267c-.276 0-.5-.225-.5-.5v-17.633h51.267v17.633c0 .275-.225.5-.5.5zm15.5-349.467h27.58l-9.067 18.134h-18.513zm100.966 34.7h-9.633c-4.687 0-8.5-3.813-8.5-8.5v-.566-33.134-.566c0-4.686 3.813-8.5 8.5-8.5h9.633zm161.617 99.4c-1.797 0-3.535-.526-5.029-1.522l-13.3-8.866c-2.528-1.686-4.037-4.506-4.037-7.544v-33.333h27.901l11.392 51.266h-16.927zm136.584 190.301c0 4.686-3.814 8.5-8.5 8.5h-150.234c-4.686 0-8.5-3.814-8.5-8.5v-9.634h167.233v9.634zm7.5-24.634h-182.234c-5 0-9.067-4.067-9.067-9.066s4.067-9.066 9.067-9.066h182.233c4.999 0 9.066 4.067 9.066 9.066s-4.066 9.066-9.065 9.066zm-7.5-33.133h-160.72l20.441-30.662c1.685-2.528 4.506-4.038 7.544-4.038h123.668c4.999 0 9.066 4.067 9.066 9.066v25.634zm-85.884-49.7-17.075-76.837c-.002-.008-.004-.016-.005-.025l-5.357-24.105h67.467l22.438 100.967zm41.696-115.967h-67.466l-4.03-18.133h67.467z"/><path d="m331.333 181.733c0 8.547 6.953 15.5 15.5 15.5h99.967c8.547 0 15.5-6.953 15.5-15.5v-50.267c0-8.547-6.953-15.5-15.5-15.5h-99.967c-8.547 0-15.5 6.953-15.5 15.5zm15-50.266c0-.275.225-.5.5-.5h99.967c.275 0 .5.225.5.5v50.267c0 .275-.225.5-.5.5h-99.967c-.275 0-.5-.225-.5-.5z"/><path d="m388.533 164.1h33.134c4.143 0 7.5-3.357 7.5-7.5s-3.357-7.5-7.5-7.5h-33.134c-4.143 0-7.5 3.357-7.5 7.5 0 4.142 3.358 7.5 7.5 7.5z"/><path d="m106.9 114.4c1.919 0 3.839-.732 5.303-2.196l33.133-33.134c2.929-2.93 2.929-7.678 0-10.607-2.929-2.928-7.678-2.928-10.606 0l-33.133 33.134c-2.929 2.93-2.929 7.678 0 10.607 1.464 1.464 3.383 2.196 5.303 2.196z"/><path d="m112.203 200.996c-2.929-2.928-7.678-2.928-10.606 0-2.929 2.93-2.929 7.678 0 10.607l33.133 33.134c1.464 1.464 3.384 2.196 5.303 2.196s3.839-.732 5.303-2.196c2.929-2.93 2.929-7.678 0-10.607z"/></g></g></svg>