<svg id="Capa_1" enable-background="new 0 0 512 512" height="512" viewBox="0 0 512 512" width="512" xmlns="http://www.w3.org/2000/svg"><g><g><path d="m156.6 307.996h198.8v61.667h-198.8z" fill="#4c5e71"/><path d="m332.4 307.996h23v61.667h-23z" fill="#3c4958"/><path d="m140.033 255.996h182.233v-240.21c0-5.748-5.712-9.749-11.114-7.785l-165.666 60.243c-3.273 1.19-5.453 4.301-5.453 7.785z" fill="#4c5e71"/><path d="m311.153 8.002-12.542 4.561c.415.982.656 2.065.656 3.224v240.21h23v-240.211c0-5.748-5.712-9.749-11.114-7.784z" fill="#3c4958"/><path d="m388.533 477.996h-265.066v-114.6c0-4.418 3.582-8 8-8h249.067c4.418 0 8 3.582 8 8v114.6z" fill="#dd636e"/><path d="m380.533 355.396h-23c4.418 0 8 3.582 8 8v114.6h23v-114.6c0-4.419-3.581-8-8-8z" fill="#da4a54"/><path d="m222.867 477.996h-66.267v-81.467c0-4.418 3.582-8 8-8h50.267c4.418 0 8 3.582 8 8z" fill="#eaa96a"/><path d="m214.867 388.529h-23c4.418 0 8 3.582 8 8v81.467h23v-81.467c0-4.418-3.582-8-8-8z" fill="#e5935d"/><path d="m380.25 322.262h-248.5c-4.575 0-8.283-3.709-8.283-8.283v-58.613c0-1.881.64-3.706 1.815-5.175l128.231-160.289c1.572-1.965 3.952-3.109 6.468-3.109h120.269c4.575 0 8.283 3.709 8.283 8.283v218.902c0 4.576-3.708 8.284-8.283 8.284z" fill="#f4f2f4"/><path d="m380.25 86.793h-23c4.575 0 8.283 3.709 8.283 8.283v218.902c0 4.575-3.708 8.283-8.283 8.283h23c4.575 0 8.283-3.709 8.283-8.283v-218.901c0-4.575-3.708-8.284-8.283-8.284z" fill="#e2dfe2"/><path d="m165.167 136.493h-33.7c-4.418 0-8-3.582-8-8v-17.133c0-4.418 3.582-8 8-8h33.7c4.418 0 8 3.582 8 8v17.133c0 4.419-3.582 8-8 8z" fill="#dd636e"/><path d="m165.167 103.36h-23c4.418 0 8 3.582 8 8v17.133c0 4.418-3.582 8-8 8h23c4.418 0 8-3.582 8-8v-17.133c0-4.418-3.582-8-8-8z" fill="#da4a54"/><g fill="#a6ccfb"><path d="m305.7 86.793v194.052c0 4.575 3.709 8.283 8.283 8.283h16.567c4.575 0 8.283-3.708 8.283-8.283v-194.052z"/><path d="m259.981 86.793c-2.516 0-4.896 1.144-6.468 3.109l-14.08 17.6v173.344c0 4.575 3.708 8.283 8.283 8.283h16.567c4.575 0 8.283-3.709 8.283-8.283v-194.053z"/><path d="m181.45 289.129h16.567c4.575 0 8.283-3.709 8.283-8.283v-131.928l-33.133 41.417v90.511c0 4.574 3.708 8.283 8.283 8.283z"/></g><g><path d="m468.517 438.229h-27.434c-5.549 0-9.528-5.349-7.934-10.663l13.717-45.723c2.361-7.871 13.507-7.871 15.868 0l13.717 45.723c1.594 5.314-2.385 10.663-7.934 10.663z" fill="#a7dda7"/></g><g><path d="m70.917 438.229h-27.434c-5.549 0-9.528-5.349-7.934-10.663l13.717-45.723c2.361-7.871 13.507-7.871 15.868 0l13.717 45.723c1.594 5.314-2.385 10.663-7.934 10.663z" fill="#a7dda7"/></g><path d="m496.5 504.496h-481c-4.418 0-8-3.582-8-8v-17.133c0-4.418 3.582-8 8-8h481c4.418 0 8 3.582 8 8v17.133c0 4.418-3.582 8-8 8z" fill="#e2dfe2"/><path d="m496.5 471.362h-23c4.418 0 8 3.582 8 8v17.133c0 4.418-3.582 8-8 8h23c4.418 0 8-3.582 8-8v-17.133c0-4.418-3.582-8-8-8z" fill="#d3ced5"/></g><g><path d="m496.5 463.863h-34.2v-18.134h6.217c5.039 0 9.654-2.318 12.662-6.36 3.009-4.043 3.904-9.131 2.456-13.959l-13.717-45.723c-2.019-6.728-8.094-11.248-15.117-11.248-7.024 0-13.1 4.52-15.118 11.248l-13.717 45.723c-1.448 4.827-.554 9.915 2.454 13.958 3.009 4.043 7.624 6.361 12.663 6.361h6.217v18.134h-51.267v-100.467c0-8.547-6.953-15.5-15.5-15.5h-17.633v-18.134h17.35c8.703 0 15.783-7.08 15.783-15.783v-218.902c0-8.703-7.08-15.783-15.783-15.783h-50.483v-63.508c0-5.144-2.516-9.976-6.729-12.928-4.214-2.951-9.615-3.662-14.449-1.905l-165.665 60.242c-6.215 2.26-10.391 8.221-10.391 14.834v19.831h-1.066c-8.547 0-15.5 6.953-15.5 15.5v17.134c0 8.547 6.953 15.5 15.5 15.5h1.066v19.002c0 4.143 3.357 7.5 7.5 7.5s7.5-3.357 7.5-7.5v-19.002h17.634c8.547 0 15.5-6.953 15.5-15.5v-17.134c0-8.547-6.953-15.5-15.5-15.5h-17.634v-19.831c0-.328.207-.624.517-.736l165.666-60.243c.104-.036.382-.139.717.095.334.234.334.53.334.642v40.71h-26.767c-4.143 0-7.5 3.357-7.5 7.5s3.357 7.5 7.5 7.5h26.767v7.798h-54.785c-4.82 0-9.313 2.158-12.325 5.923l-100.124 125.153v-17.374c0-4.143-3.357-7.5-7.5-7.5s-7.5 3.357-7.5 7.5v36.124l-13.106 16.383c-2.232 2.788-3.46 6.29-3.46 9.862v58.613c0 8.703 7.08 15.783 15.783 15.783h17.35v18.134h-17.633c-8.547 0-15.5 6.953-15.5 15.5v100.467h-51.267v-18.134h6.217c5.039 0 9.654-2.318 12.663-6.361 3.008-4.043 3.902-9.131 2.454-13.958l-13.717-45.723c-2.019-6.728-8.094-11.248-15.118-11.248-7.023 0-13.099 4.52-15.117 11.248l-13.717 45.724c-1.448 4.827-.553 9.915 2.456 13.958 3.008 4.042 7.623 6.36 12.662 6.36h6.217v18.134h-34.2c-8.547 0-15.5 6.953-15.5 15.5v17.133c0 8.547 6.953 15.5 15.5 15.5h26.7c4.143 0 7.5-3.357 7.5-7.5s-3.357-7.5-7.5-7.5h-26.7c-.275 0-.5-.225-.5-.5v-17.133c0-.275.225-.5.5-.5h481c.275 0 .5.225.5.5v17.133c0 .275-.225.5-.5.5h-424.3c-4.143 0-7.5 3.357-7.5 7.5s3.357 7.5 7.5 7.5h424.3c8.547 0 15.5-6.953 15.5-15.5v-17.133c0-8.547-6.953-15.5-15.5-15.5zm-56.045-33.449c-.235-.315-.15-.6-.122-.693l13.717-45.723c.079-.262.168-.559.751-.559.582 0 .671.297.75.559l13.717 45.722c.027.093.113.378-.122.694-.235.315-.531.315-.629.315h-27.434c-.098 0-.393 0-.628-.315zm-274.788-319.054v17.134c0 .275-.225.5-.5.5h-33.7c-.275 0-.5-.225-.5-.5v-17.134c0-.275.225-.5.5-.5h33.7c.275 0 .5.225.5.5zm-122.813 319.054c-.235-.316-.149-.602-.122-.693l13.717-45.723c.079-.262.168-.559.75-.559.583 0 .672.297.751.559l13.717 45.723c.028.094.113.378-.122.693-.234.315-.53.315-.628.315h-27.434c-.097 0-.393 0-.629-.315zm270.346-336.12h18.133v186.552c0 .432-.352.783-.783.783h-16.566c-.432 0-.783-.352-.783-.783v-186.552zm-53.832.294c.15-.187.373-.294.613-.294h5.085v186.552c0 .432-.352.783-.783.783h-16.566c-.432 0-.783-.352-.783-.783v-170.715zm-78.701 98.377 18.133-22.666v110.546c0 .432-.352.783-.783.783h-16.567c-.432 0-.783-.352-.783-.783zm-49.7 121.014v-58.613c0-.177.061-.351.172-.489l34.528-43.161v69.13c0 8.703 7.08 15.783 15.783 15.783h16.566c8.703 0 15.783-7.08 15.783-15.783v-129.297l18.134-22.668v151.964c0 8.703 7.08 15.783 15.783 15.783h16.566c8.703 0 15.783-7.08 15.783-15.783v-186.551h18.135v186.552c0 8.703 7.08 15.783 15.783 15.783h16.566c8.703 0 15.783-7.08 15.783-15.783v-186.552h33.917c.432 0 .783.352.783.783v218.902c0 .432-.352.783-.783.783h-248.5c-.431 0-.782-.351-.782-.783zm33.133 15.783h183.8v18.134h-183.8zm0 134.101v-67.334c0-.275.225-.5.5-.5h50.268c.275 0 .5.225.5.5v67.334zm66.267 0v-67.334c0-8.547-6.953-15.5-15.5-15.5h-50.267c-8.547 0-15.5 6.953-15.5 15.5v67.334h-18.133v-100.467c0-.275.225-.5.5-.5h249.066c.275 0 .5.225.5.5v100.467z"/><path d="m355.4 397.595h-99.4c-4.143 0-7.5 3.357-7.5 7.5s3.357 7.5 7.5 7.5h99.4c4.143 0 7.5-3.357 7.5-7.5s-3.357-7.5-7.5-7.5z"/><path d="m355.4 430.729h-99.4c-4.143 0-7.5 3.357-7.5 7.5s3.357 7.5 7.5 7.5h99.4c4.143 0 7.5-3.357 7.5-7.5 0-4.142-3.357-7.5-7.5-7.5z"/></g></g></svg>