<svg id="Capa_1" enable-background="new 0 0 512 512" height="512" viewBox="0 0 512 512" width="512" xmlns="http://www.w3.org/2000/svg"><g><g><g><path d="m240.567 272.567h-201.067c-17.673 0-32-14.327-32-32v-201.067c0-17.673 14.327-32 32-32h201.067c17.673 0 32 14.327 32 32v201.067c0 17.673-14.327 32-32 32z" fill="#f4f2f4"/><path d="m214.867 222.867h-149.667c-4.418 0-8-3.582-8-8v-149.667c0-4.418 3.582-8 8-8h149.667c4.418 0 8 3.582 8 8v149.667c0 4.418-3.582 8-8 8z" fill="#e2dfe2"/><path d="m240.567 7.5h-23c17.673 0 32 14.327 32 32v201.067c0 17.673-14.327 32-32 32h23c17.673 0 32-14.327 32-32v-201.067c0-17.673-14.327-32-32-32z" fill="#e2dfe2"/><g fill="#d3ced5"><path d="m214.867 57.2h-23c4.418 0 8 3.582 8 8v149.667c0 4.418-3.582 8-8 8h23c4.418 0 8-3.582 8-8v-149.667c0-4.418-3.582-8-8-8z"/><circle cx="140.033" cy="140.033" r="49.7"/></g></g><g><g><g><path d="m370.938 504.492c-36.361-.554-65.238-30.899-65.238-67.265v-48.034c0-18.539-15.171-34.104-33.707-33.788-18.007.307-32.56 15.05-32.56 33.128v48.694c0 36.365-28.877 66.71-65.237 67.265-37.009.565-67.296-29.376-67.296-66.259v-49.04c0-18.539-15.171-34.104-33.707-33.788-18.007.307-32.56 15.05-32.56 33.128v107.683c0 4.575-3.708 8.283-8.283 8.283h-16.567c-4.575 0-8.283-3.709-8.283-8.283v-106.677c0-36.365 28.876-66.71 65.237-67.265 37.009-.565 67.296 29.376 67.296 66.259v49.04c0 18.539 15.171 34.104 33.707 33.788 18.007-.307 32.56-15.05 32.56-33.128v-48.694c0-36.365 28.877-66.71 65.238-67.264 37.009-.564 67.295 29.377 67.295 66.259v49.04c0 18.538 15.17 34.104 33.705 33.788 18.007-.306 32.561-15.05 32.561-33.128v-120.967h33.133v120.967c.001 36.881-30.285 66.822-67.294 66.258z" fill="#a6ccfb"/></g><path d="m415.233 317.267v120.967c0 32.613-23.687 59.782-54.757 65.248 3.403.605 6.895.956 10.462 1.01 37.009.564 67.295-29.377 67.295-66.259v-120.966z" fill="#8cbdf9"/></g><g><path d="m471.367 73.767c0-9.15-7.417-16.567-16.567-16.567-9.149 0-16.567 7.417-16.567 16.567v90.833h33.133v-90.833z" fill="#f4f2f4"/><path d="m454.8 57.2c-4.47 0-8.52 1.779-11.5 4.657 3.119 3.013 5.067 7.23 5.067 11.909v90.834h23v-90.833c0-9.15-7.418-16.567-16.567-16.567z" fill="#e2dfe2"/><path d="m405.1 73.767c0-9.15-7.417-16.567-16.567-16.567s-16.567 7.417-16.567 16.567v90.833h33.134z" fill="#f4f2f4"/><path d="m388.533 57.2c-4.47 0-8.52 1.779-11.5 4.657 3.119 3.013 5.067 7.23 5.067 11.909v90.834h23v-90.833c0-9.15-7.417-16.567-16.567-16.567z" fill="#e2dfe2"/><path d="m454.8 284.133h-66.267v30.133c0 4.418 3.582 8 8 8h50.267c4.418 0 8-3.582 8-8z" fill="#e2dfe2"/><path d="m431.8 284.133v30.133c0 4.418-3.582 8-8 8h23c4.418 0 8-3.582 8-8v-30.133z" fill="#d3ced5"/><path d="m355.4 182.733v73.267c0 18.299 14.834 33.133 33.133 33.133h66.267c18.299 0 33.133-14.834 33.133-33.133v-73.267z" fill="#f4f2f4"/><path d="m464.933 182.733v73.267c0 18.299-14.834 33.133-33.133 33.133h23c18.299 0 33.133-14.834 33.133-33.133v-73.267z" fill="#e2dfe2"/><path d="m487.933 156.6h-132.533c-9.15 0-16.567 7.417-16.567 16.567 0 9.149 7.417 16.567 16.567 16.567h132.533c9.15 0 16.567-7.417 16.567-16.567s-7.417-16.567-16.567-16.567z" fill="#e2dfe2"/><path d="m487.933 156.6h-23c9.15 0 16.567 7.417 16.567 16.567s-7.417 16.567-16.567 16.567h23c9.15 0 16.567-7.417 16.567-16.567s-7.417-16.567-16.567-16.567z" fill="#d3ced5"/></g></g></g><g><path d="m140.033 197.233c31.54 0 57.2-25.66 57.2-57.2s-25.66-57.2-57.2-57.2-57.2 25.66-57.2 57.2 25.66 57.2 57.2 57.2zm0-99.399c23.269 0 42.2 18.931 42.2 42.2s-18.931 42.2-42.2 42.2-42.2-18.931-42.2-42.2 18.931-42.2 42.2-42.2z"/><path d="m123.467 151.675c4.142 0 7.5-3.358 7.5-7.5v-8.283c0-4.142-3.358-7.5-7.5-7.5s-7.5 3.358-7.5 7.5v8.283c0 4.142 3.358 7.5 7.5 7.5z"/><path d="m156.6 151.675c4.142 0 7.5-3.358 7.5-7.5v-8.283c0-4.142-3.358-7.5-7.5-7.5s-7.5 3.358-7.5 7.5v8.283c0 4.142 3.358 7.5 7.5 7.5z"/><path d="m49.7 65.2v149.667c0 8.547 6.953 15.5 15.5 15.5h149.667c8.547 0 15.5-6.953 15.5-15.5v-149.667c0-8.547-6.953-15.5-15.5-15.5h-149.667c-8.547 0-15.5 6.953-15.5 15.5zm165.667 0v149.667c0 .276-.224.5-.5.5h-149.667c-.276 0-.5-.224-.5-.5v-149.667c0-.276.224-.5.5-.5h149.667c.276 0 .5.224.5.5z"/><path d="m39.5 280.067h201.067c21.78 0 39.5-17.72 39.5-39.5v-201.067c0-21.78-17.72-39.5-39.5-39.5h-138.367c-4.142 0-7.5 3.358-7.5 7.5s3.358 7.5 7.5 7.5h138.367c13.509 0 24.5 10.991 24.5 24.5v93.033h-9.067c-4.142 0-7.5 3.358-7.5 7.5s3.358 7.5 7.5 7.5h9.067v93.034c0 13.509-10.991 24.5-24.5 24.5h-201.067c-13.509 0-24.5-10.991-24.5-24.5v-93.034h9.067c4.142 0 7.5-3.358 7.5-7.5s-3.358-7.5-7.5-7.5h-9.067v-93.033c0-13.509 10.991-24.5 24.5-24.5h32.7c4.142 0 7.5-3.358 7.5-7.5s-3.358-7.5-7.5-7.5h-32.7c-21.78 0-39.5 17.72-39.5 39.5v201.067c0 21.78 17.72 39.5 39.5 39.5z"/><path d="m512 173.167c0-13.27-10.796-24.066-24.067-24.066h-9.066v-75.334c0-13.271-10.796-24.066-24.067-24.066-13.27 0-24.066 10.796-24.066 24.066v75.333h-18.134v-75.333c0-13.271-10.796-24.066-24.067-24.066-13.27 0-24.066 10.796-24.066 24.066v75.333h-9.067c-13.27 0-24.066 10.796-24.066 24.066 0 10.652 6.959 19.704 16.566 22.864v59.97c0 19.842 14.3 36.397 33.133 39.928v18.339c0 8.547 6.953 15.5 15.5 15.5h1.067v108.467c0 13.896-11.3 25.394-25.189 25.629-6.753.121-13.156-2.496-18.093-7.35-5.074-4.989-7.984-11.892-7.984-18.939v-49.04c0-19.888-7.824-38.547-22.03-52.538-14.202-13.987-32.96-21.514-52.88-21.22-11.81.18-23.516 3.275-33.851 8.951-3.631 1.994-4.958 6.554-2.964 10.184 1.995 3.631 6.554 4.959 10.184 2.964 8.316-4.567 17.353-6.956 26.86-7.101 15.863-.23 30.81 5.764 42.126 16.909 11.321 11.149 17.555 26.013 17.555 41.851v49.04c0 11.044 4.544 21.846 12.468 29.636 7.83 7.697 18.089 11.832 28.864 11.652 22.02-.375 39.934-18.6 39.934-40.627v-75.335h18.133v75.333c0 15.838-6.234 30.702-17.555 41.851-11.317 11.146-26.268 17.152-42.125 16.909-31.9-.486-57.853-27.297-57.853-59.766v-48.034c0-11.044-4.544-21.846-12.468-29.636-7.83-7.698-18.06-11.83-28.867-11.652-22.019.376-39.932 18.601-39.932 40.627v48.694c0 32.468-25.952 59.278-57.851 59.766-15.877.211-30.81-5.764-42.126-16.908-11.321-11.15-17.556-26.013-17.556-41.852v-49.04c0-11.044-4.544-21.846-12.468-29.636-7.83-7.697-18.056-11.83-28.866-11.651-22.018.376-39.932 18.601-39.932 40.627v107.684c0 .432-.351.783-.783.783h-16.568c-.432 0-.783-.352-.783-.783v-106.677c0-32.468 25.952-59.278 57.851-59.766 15.857-.242 30.81 5.763 42.126 16.908 11.321 11.149 17.556 26.013 17.556 41.852v49.04c0 11.044 4.544 21.846 12.469 29.636 7.829 7.698 18.059 11.83 28.866 11.652 22.018-.375 39.932-18.601 39.932-40.627v-48.694c0-12.407 3.748-24.337 10.837-34.501 2.37-3.397 1.537-8.072-1.86-10.442-3.398-2.371-8.073-1.537-10.442 1.861-8.854 12.693-13.534 27.591-13.534 43.082v48.694c0 13.895-11.299 25.393-25.188 25.629-6.723.118-13.156-2.495-18.094-7.35-5.074-4.989-7.984-11.892-7.984-18.939v-49.04c0-19.889-7.824-38.547-22.031-52.539-14.202-13.987-32.989-21.51-52.88-21.219-40.046.611-72.624 34.15-72.624 74.763v106.678c0 8.702 7.081 15.783 15.783 15.783h16.567c8.703 0 15.783-7.081 15.783-15.783v-107.684c0-13.895 11.299-25.393 25.188-25.629 6.716-.125 13.156 2.496 18.094 7.35 5.074 4.988 7.984 11.892 7.984 18.939v49.04c0 19.889 7.824 38.547 22.031 52.539 13.927 13.717 32.253 21.229 51.723 21.228.384 0 .772-.003 1.157-.009 40.044-.611 72.623-34.15 72.623-74.764v-48.694c0-13.895 11.299-25.393 25.188-25.629 6.71-.125 13.156 2.496 18.095 7.351 5.074 4.988 7.984 11.891 7.984 18.939v48.034c0 40.615 32.579 74.153 72.624 74.764 19.905.293 38.678-7.233 52.879-21.22 14.206-13.991 22.03-32.649 22.03-52.538v-108.467h1.066c8.547 0 15.5-6.953 15.5-15.5v-18.339c18.833-3.53 33.133-20.086 33.133-39.928v-59.969c9.609-3.16 16.568-12.213 16.568-22.864zm-57.2-108.467c4.999 0 9.067 4.067 9.067 9.066v42.2h-18.133v-42.2c-.001-4.998 4.067-9.066 9.066-9.066zm-9.067 66.267h18.133v18.133h-18.133zm-57.2-66.267c5 0 9.067 4.067 9.067 9.066v42.2h-18.133v-42.2c0-4.998 4.067-9.066 9.066-9.066zm-9.066 66.267h18.133v18.133h-18.133zm51.266 216.933h-18.133v-18.133h18.133zm16.567-33.633c0 .276-.224.5-.5.5h-8.566-33.134-8.567c-.276 0-.5-.224-.5-.5v-17.633h51.267zm7.5-32.634h-66.267c-14.134 0-25.633-11.499-25.633-25.633v-58.767h117.533v58.767c0 14.134-11.499 25.633-25.633 25.633zm33.133-99.4h-132.533c-4.999 0-9.066-4.067-9.066-9.067 0-4.999 4.067-9.066 9.066-9.066h132.533c4.999 0 9.067 4.067 9.067 9.066 0 5-4.067 9.067-9.067 9.067z"/><path d="m454.8 215.367h-66.267c-4.142 0-7.5 3.358-7.5 7.5s3.358 7.5 7.5 7.5h66.267c4.142 0 7.5-3.358 7.5-7.5s-3.358-7.5-7.5-7.5z"/><path d="m454.8 248.5h-66.267c-4.142 0-7.5 3.358-7.5 7.5s3.358 7.5 7.5 7.5h66.267c4.142 0 7.5-3.358 7.5-7.5s-3.358-7.5-7.5-7.5z"/></g></g></svg>