<svg id="Capa_1" enable-background="new 0 0 512 512" height="512" viewBox="0 0 512 512" width="512" xmlns="http://www.w3.org/2000/svg"><g><g><g><path d="m7.5 348.833v-333.332c0-4.418 3.582-8 8-8h66.833c4.418 0 8 3.582 8 8v333.332z" fill="#efd27c"/><path d="m82.334 7.501h-22.99c4.418 0 8 3.582 8 8v333.332h22.99v-333.333c0-4.418-3.582-7.999-8-7.999z" fill="#eabc73"/></g><g><path d="m496.5 504.5h-333.333v-82.833h333.333c4.418 0 8 3.582 8 8v66.833c0 4.418-3.582 8-8 8z" fill="#efd27c"/><path d="m496.5 421.667h-23c4.418 0 8 3.582 8 8v66.833c0 4.418-3.582 8-8 8h23c4.418 0 8-3.582 8-8v-66.833c0-4.419-3.582-8-8-8z" fill="#eabc73"/></g><path d="m322.267 355.4h107.967c4.418 0 8-3.582 8-8v-176.233h-115.967z" fill="#a6ccfb"/><path d="m415.234 171.167v176.233c0 4.418-3.582 8-8 8h23c4.418 0 8-3.582 8-8v-176.233z" fill="#8cbdf9"/><path d="m322.267 40.633 141.237 125.544c2.749 2.444 1.021 6.99-2.657 6.99h-138.58z" fill="#4c5e71"/><path d="m463.504 166.177-141.237-125.544v20.444l118.237 105.099c2.749 2.444 1.021 6.99-2.657 6.99h23c3.677.001 5.406-4.545 2.657-6.989z" fill="#3c4958"/><path d="m24.067 504.5h141.1c4.418 0 8-3.582 8-8v-74.834c0-45.748-37.086-82.834-82.834-82.834h-74.833c-4.418 0-8 3.582-8 8v141.1c0 9.151 7.417 16.568 16.567 16.568z" fill="#4c5e71"/><path d="m90.334 338.833h-23.001c45.748 0 82.834 37.086 82.834 82.834v74.833c0 4.418-3.582 8-8 8h23.001c4.418 0 8-3.582 8-8v-74.833c-.001-45.748-37.086-82.834-82.834-82.834z" fill="#3c4958"/><circle cx="90.334" cy="421.666" fill="#f4f2f4" r="49.7"/><circle cx="90.334" cy="421.666" fill="#4c5e71" r="16.566"/><path d="m90.334 371.967c-3.96 0-7.807.477-11.5 1.352 21.901 5.191 38.199 24.86 38.199 48.348s-16.299 43.156-38.199 48.347c3.693.875 7.54 1.352 11.5 1.352 27.448 0 49.7-22.252 49.7-49.7s-22.252-49.699-49.7-49.699z" fill="#e2dfe2"/></g><g><path d="m496.5 414.167h-316.146c-3.62-43.84-38.679-78.899-82.52-82.52v-316.146c0-8.547-6.953-15.5-15.5-15.5h-66.834c-8.547 0-15.5 6.953-15.5 15.5v76.396c0 4.143 3.358 7.5 7.5 7.5s7.5-3.357 7.5-7.5v-76.396c0-.275.224-.5.5-.5h66.834c.276 0 .5.225.5.5v17.634h-25.634c-4.142 0-7.5 3.357-7.5 7.5s3.358 7.5 7.5 7.5h25.633v18.132h-8.808c-4.142 0-7.5 3.357-7.5 7.5s3.358 7.5 7.5 7.5h8.808v18.132h-25.633c-4.142 0-7.5 3.357-7.5 7.5s3.358 7.5 7.5 7.5h25.633v18.132h-8.808c-4.142 0-7.5 3.357-7.5 7.5s3.358 7.5 7.5 7.5h8.808v18.131h-25.633c-4.142 0-7.5 3.357-7.5 7.5s3.358 7.5 7.5 7.5h25.633v18.132h-8.808c-4.142 0-7.5 3.357-7.5 7.5s3.358 7.5 7.5 7.5h8.808v18.138h-25.633c-4.142 0-7.5 3.357-7.5 7.5s3.358 7.5 7.5 7.5h25.633v18.131h-8.808c-4.142 0-7.5 3.357-7.5 7.5s3.358 7.5 7.5 7.5h8.808v18.137h-25.633c-4.142 0-7.5 3.357-7.5 7.5s3.358 7.5 7.5 7.5h25.633v18.135h-67.833v-209.439c0-4.143-3.358-7.5-7.5-7.5s-7.5 3.357-7.5 7.5v366.038c0 13.27 10.797 24.066 24.067 24.066h149.1 323.333c8.547 0 15.5-6.953 15.5-15.5v-66.833c0-8.547-6.953-15.5-15.5-15.5zm-481.5 73.767v-141.601h75.334c41.539 0 75.333 33.794 75.333 75.333v.001 75.333h-141.6c-4.999 0-9.067-4.067-9.067-9.066zm482 8.566c0 .275-.224.5-.5.5h-315.833v-67.833h18.134v25.633c0 4.143 3.358 7.5 7.5 7.5s7.5-3.357 7.5-7.5v-25.633h18.132v8.808c0 4.143 3.358 7.5 7.5 7.5s7.5-3.357 7.5-7.5v-8.808h18.131v25.633c0 4.143 3.358 7.5 7.5 7.5s7.5-3.357 7.5-7.5v-25.633h18.132v8.808c0 4.143 3.358 7.5 7.5 7.5s7.5-3.357 7.5-7.5v-8.808h18.131v25.633c0 4.143 3.358 7.5 7.5 7.5s7.5-3.357 7.5-7.5v-25.633h18.132v8.808c0 4.143 3.358 7.5 7.5 7.5s7.5-3.357 7.5-7.5v-8.808h18.138v25.633c0 4.143 3.358 7.5 7.5 7.5s7.5-3.357 7.5-7.5v-25.633h18.13v8.808c0 4.143 3.358 7.5 7.5 7.5s7.5-3.357 7.5-7.5v-8.808h18.137v25.633c0 4.143 3.358 7.5 7.5 7.5s7.5-3.357 7.5-7.5v-25.633h17.636c.276 0 .5.225.5.5z"/><path d="m90.334 397.6c-13.271 0-24.066 10.796-24.066 24.066 0 13.271 10.796 24.066 24.066 24.066s24.066-10.796 24.066-24.066-10.796-24.066-24.066-24.066zm0 33.132c-4.999 0-9.066-4.067-9.066-9.066s4.067-9.066 9.066-9.066 9.066 4.067 9.066 9.066-4.067 9.066-9.066 9.066z"/><path d="m90.334 364.467c-31.54 0-57.2 25.659-57.2 57.199s25.66 57.2 57.2 57.2 57.2-25.66 57.2-57.2c-.001-31.54-25.66-57.199-57.2-57.199zm0 99.399c-23.269 0-42.2-18.931-42.2-42.2 0-23.268 18.931-42.199 42.2-42.199s42.2 18.931 42.2 42.199c-.001 23.269-18.931 42.2-42.2 42.2z"/><path d="m214.864 143.605c1.772 0 3.551-.624 4.98-1.895l21.447-19.063c3.096-2.752 3.375-7.492.623-10.588s-7.493-3.377-10.588-.623l-21.448 19.064c-3.096 2.752-3.374 7.492-.622 10.588 1.481 1.667 3.539 2.517 5.608 2.517z"/><path d="m261.542 102.113c1.772 0 3.551-.624 4.98-1.894l21.447-19.064c3.096-2.752 3.374-7.492.622-10.588s-7.493-3.377-10.588-.623l-21.447 19.063c-3.096 2.752-3.374 7.492-.623 10.588 1.482 1.668 3.54 2.518 5.609 2.518z"/><path d="m173.167 180.667h17.603c4.142 0 7.5-3.357 7.5-7.5 0-3.576-2.503-6.568-5.853-7.318 2.005-2.787 1.888-6.686-.488-9.358-2.752-3.096-7.492-3.378-10.588-.623l-13.156 11.694c-2.327 2.068-3.134 5.36-2.027 8.271 1.105 2.91 3.895 4.834 7.009 4.834z"/><path d="m271.04 173.167c0-4.143-3.358-7.5-7.5-7.5h-32.807c-4.142 0-7.5 3.357-7.5 7.5s3.358 7.5 7.5 7.5h32.807c4.142 0 7.5-3.357 7.5-7.5z"/><path d="m300.523 362.9h14.244v18.133h-9.067c-4.142 0-7.5 3.357-7.5 7.5s3.358 7.5 7.5 7.5h33.133c4.142 0 7.5-3.357 7.5-7.5s-3.358-7.5-7.5-7.5h-9.067v-18.133h35.483c4.142 0 7.5-3.357 7.5-7.5s-3.358-7.5-7.5-7.5h-35.483v-167.233h100.967v167.233h-35.483c-4.142 0-7.5 3.357-7.5 7.5s3.358 7.5 7.5 7.5h42.983c4.142 0 7.5-3.357 7.5-7.5v-174.733h25.633c3.114 0 5.904-1.924 7.01-4.835 1.107-2.91.3-6.202-2.027-8.271l-146.582-130.296v-22.265h9.066c4.142 0 7.5-3.357 7.5-7.5s-3.358-7.5-7.5-7.5h-33.133c-4.142 0-7.5 3.357-7.5 7.5s3.358 7.5 7.5 7.5h9.067v22.264l-10.639 9.457c-3.096 2.752-3.375 7.492-.622 10.588 1.482 1.668 3.54 2.517 5.608 2.517 1.772 0 3.551-.625 4.98-1.895l.673-.599v108.333h-10.102c-4.142 0-7.5 3.357-7.5 7.5s3.358 7.5 7.5 7.5h10.102v167.235h-14.244c-4.142 0-7.5 3.357-7.5 7.5s3.358 7.5 7.5 7.5zm151.117-197.233h-121.873v-108.332z"/><path d="m254.009 362.9h21.304c4.142 0 7.5-3.357 7.5-7.5s-3.358-7.5-7.5-7.5h-21.304c-4.142 0-7.5 3.357-7.5 7.5s3.357 7.5 7.5 7.5z"/><path d="m206.3 362.9h21.744c4.142 0 7.5-3.357 7.5-7.5s-3.358-7.5-7.5-7.5h-14.244v-14.244c0-4.143-3.358-7.5-7.5-7.5s-7.5 3.357-7.5 7.5v21.744c0 4.143 3.358 7.5 7.5 7.5z"/><path d="m206.3 301.54c4.142 0 7.5-3.357 7.5-7.5v-33.479c0-4.143-3.358-7.5-7.5-7.5s-7.5 3.357-7.5 7.5v33.479c0 4.143 3.358 7.5 7.5 7.5z"/><path d="m206.3 227.261c4.142 0 7.5-3.357 7.5-7.5v-21.744c0-4.143-3.358-7.5-7.5-7.5s-7.5 3.357-7.5 7.5v21.744c0 4.142 3.358 7.5 7.5 7.5z"/></g></g></svg>