<svg id="Capa_1" enable-background="new 0 0 512 512" height="512" viewBox="0 0 512 512" width="512" xmlns="http://www.w3.org/2000/svg"><g><g><g><path d="m446.517 222.867h-8.283v-33.133c0-71.547-50.394-131.324-117.624-145.771h-129.219c-67.23 14.447-117.624 74.223-117.624 145.77v33.133h-8.283c-4.575 0-8.283 3.709-8.283 8.283v17.833c0 4.049 2.927 7.505 6.922 8.171l180.984 30.164c7.213 1.202 14.575 1.202 21.788 0l180.984-30.164c3.994-.666 6.922-4.121 6.922-8.171v-17.832c-.001-4.575-3.71-8.283-8.284-8.283z" fill="#efd27c"/><path d="m446.517 222.867h-8.283v-33.133c0-71.547-50.394-131.324-117.624-145.771h-129.219c-67.23 14.447-117.624 74.223-117.624 145.77v33.133h-8.283c-4.575 0-8.283 3.709-8.283 8.283v17.833c0 4.049 2.927 7.505 6.922 8.171l180.984 30.164c7.213 1.202 14.575 1.202 21.788 0l180.984-30.164c3.994-.666 6.922-4.121 6.922-8.171v-17.832c-.001-4.575-3.71-8.283-8.284-8.283z" fill="#efd27c"/><path d="m446.517 222.867h-8.283v-33.133c0-71.547-50.394-131.324-117.624-145.771h-23c67.23 14.448 117.624 74.224 117.624 145.771v33.133h8.283c4.575 0 8.283 3.709 8.283 8.283v28.683l16.078-2.68c3.994-.666 6.922-4.121 6.922-8.171v-17.832c0-4.575-3.709-8.283-8.283-8.283z" fill="#eabc73"/><g fill="#eaa96a"><path d="m304.262 24.067h-13.239c-1.038 0-1.877-.796-1.99-1.828-.91-8.29-7.935-14.739-16.467-14.739h-33.133c-9.15 0-16.567 7.417-16.567 16.567h-.001-15.128c-9.692 0-17.314 8.284-16.509 17.942l15.072 179.858h99.4l15.072-179.857c.804-9.66-6.818-17.943-16.51-17.943z"/><path d="m73.767 222.867h33.133v-25.133c0-4.418-3.582-8-8-8h-25.133z"/><path d="m438.233 222.867h-33.133v-25.133c0-4.418 3.582-8 8-8h25.133z"/></g><path d="m304.262 24.067h-13.239c-1.037 0-1.877-.796-1.99-1.828-.91-8.29-7.935-14.739-16.467-14.739h-23c8.532 0 15.557 6.45 16.467 14.739.113 1.031.953 1.828 1.99 1.828h13.239c9.692 0 17.314 8.284 16.509 17.942l-15.071 180.858h23l15.072-180.857c.804-9.66-6.818-17.943-16.51-17.943z" fill="#e5935d"/><path d="m264.567 189.733h-17.133c-4.418 0-8-3.582-8-8v-33.7c0-4.418 3.582-8 8-8h17.133c4.418 0 8 3.582 8 8v33.7c0 4.419-3.582 8-8 8z" fill="#efd27c"/></g><g><path d="m446.8 421.667c4.418 0 8-3.582 8-8v-50.267c0-4.418-3.582-8-8-8h-381.6c-4.418 0-8 3.582-8 8v50.267c0 4.418 3.582 8 8 8z" fill="#4c5e71"/><path d="m446.8 355.4h-23c4.418 0 8 3.582 8 8v50.267c0 4.418-3.582 8-8 8h23c4.418 0 8-3.582 8-8v-50.267c0-4.418-3.582-8-8-8z" fill="#3c4958"/><path d="m371.967 504.5h-74.55c-3.762 0-7.412-1.28-10.349-3.63l-20.719-16.575c-6.05-4.84-14.648-4.84-20.698 0l-20.719 16.575c-2.937 2.35-6.587 3.63-10.349 3.63h-75.326c-4.462 0-8.735-1.8-11.852-4.992l-32.357-33.133c-3.022-3.095-4.714-7.249-4.714-11.575v-115.967c0-9.15 7.417-16.567 16.567-16.567h298.2c9.15 0 16.567 7.417 16.567 16.567v115.967c0 4.394-1.745 8.608-4.852 11.714l-33.133 33.134c-3.109 3.107-7.323 4.852-11.716 4.852z" fill="#efd27c"/><path d="m309.039 471.367h49.203c4.394 0 8.607-1.745 11.714-4.852l13.724-13.724c3.107-3.107 4.852-7.321 4.852-11.714v-69.109c0-9.15-7.417-16.567-16.567-16.567h-231.932c-9.149 0-16.567 7.417-16.567 16.567v69.339c0 4.326 1.692 8.48 4.714 11.575l13.178 13.495c3.117 3.192 7.391 4.992 11.852 4.992h49.749c3.762 0 7.412-1.28 10.349-3.63l32.341-25.873c6.05-4.84 14.648-4.84 20.698 0l32.341 25.873c2.94 2.347 6.59 3.628 10.351 3.628z" fill="#a6ccfb"/><path d="m405.1 322.267h-23c9.15 0 16.567 7.417 16.567 16.567v115.966c0 4.394-1.745 8.607-4.852 11.714l-33.133 33.134c-3.107 3.107-7.321 4.852-11.715 4.852h23c4.394 0 8.608-1.746 11.715-4.852l33.133-33.134c3.107-3.107 4.852-7.321 4.852-11.714v-115.967c0-9.149-7.417-16.566-16.567-16.566z" fill="#eabc73"/><path d="m371.967 355.4h-23c9.15 0 16.567 7.417 16.567 16.567v69.109c0 4.394-1.745 8.608-4.852 11.714l-13.724 13.724c-3.107 3.107-7.321 4.852-11.714 4.852h23c4.394 0 8.608-1.745 11.714-4.852l13.724-13.724c3.107-3.107 4.852-7.321 4.852-11.714v-69.109c-.001-9.15-7.418-16.567-16.567-16.567z" fill="#8cbdf9"/></g></g><g><path d="m446.517 215.367h-.783v-25.633c0-36.026-12.534-71.201-35.294-99.044-21.132-25.853-50.161-44.382-82.26-52.641-.553-5.075-2.707-9.907-6.208-13.71-4.544-4.938-10.999-7.771-17.71-7.771h-8.832c-3.16-9.609-12.212-16.568-22.864-16.568h-33.133c-10.652 0-19.704 6.959-22.863 16.567h-8.832c-6.711 0-13.166 2.833-17.71 7.771-3.503 3.806-5.657 8.641-6.209 13.72-24.161 6.211-46.651 18.211-65.358 34.955-3.086 2.763-3.349 7.504-.587 10.59 1.481 1.655 3.532 2.498 5.592 2.498 1.78 0 3.567-.63 4.999-1.912 16.165-14.468 35.447-25.022 56.183-30.83l13.501 162.007h-8.416c-4.143 0-7.5 3.358-7.5 7.5s3.357 7.5 7.5 7.5h132.533c4.143 0 7.5-3.358 7.5-7.5s-3.357-7.5-7.5-7.5h-8.416l13.501-162.009c57.998 16.248 99.941 68.569 103.173 128.876h-17.424c-8.547 0-15.5 6.953-15.5 15.5v17.633h-17.35c-4.143 0-7.5 3.358-7.5 7.5s3.357 7.5 7.5 7.5h66.267c.432 0 .783.352.783.783v17.833c0 .385-.275.71-.655.773l-180.983 30.163c-6.409 1.069-12.911 1.068-19.322 0l-180.985-30.162c-.38-.064-.655-.388-.655-.773v-17.833c0-.432.352-.783.783-.783h8.283 57.983c4.143 0 7.5-3.358 7.5-7.5s-3.357-7.5-7.5-7.5h-17.349v-17.633c0-8.547-6.953-15.5-15.5-15.5h-17.434c1.458-28.244 11.142-54.948 28.243-77.638 2.493-3.308 1.833-8.01-1.476-10.503-3.308-2.492-8.011-1.831-10.503 1.476-20.584 27.312-31.464 59.874-31.464 94.165v25.633h-.783c-8.703 0-15.783 7.081-15.783 15.783v17.833c0 7.747 5.547 14.295 13.188 15.569l180.983 30.164c4.024.671 8.075 1.006 12.128 1.006 4.052-.001 8.104-.336 12.128-1.006l180.983-30.164c7.642-1.274 13.189-7.822 13.189-15.569v-17.833c.001-8.703-7.079-15.783-15.782-15.783zm-233.316 0-14.499-173.98c-.213-2.557.627-5.004 2.364-6.892 1.736-1.888 4.106-2.928 6.672-2.928h7.629v58.767c0 4.142 3.357 7.5 7.5 7.5s7.5-3.358 7.5-7.5v-66.267c0-5 4.067-9.067 9.066-9.067h33.133c4.999 0 9.066 4.067 9.066 9.067v66.267c0 4.142 3.357 7.5 7.5 7.5s7.5-3.358 7.5-7.5v-58.767h7.629c2.565 0 4.936 1.039 6.672 2.928 1.737 1.888 2.577 4.336 2.364 6.892l-14.499 173.98zm199.399-17.634c0-.276.225-.5.5-.5h17.634v18.133h-18.134zm-331.333-.5h17.633c.275 0 .5.224.5.5v17.633h-18.133z"/><path d="m264.566 132.533h-17.133c-8.547 0-15.5 6.953-15.5 15.5v33.7c0 8.547 6.953 15.5 15.5 15.5h17.133c8.547 0 15.5-6.953 15.5-15.5v-33.7c0-8.547-6.953-15.5-15.5-15.5zm.5 49.2c0 .276-.225.5-.5.5h-17.133c-.275 0-.5-.224-.5-.5v-33.7c0-.276.225-.5.5-.5h17.133c.275 0 .5.224.5.5z"/><path d="m115.967 371.967v69.338c0 6.322 2.432 12.293 6.849 16.815l13.178 13.494c4.501 4.609 10.776 7.252 17.219 7.252h49.749c5.443 0 10.783-1.873 15.034-5.274l32.342-25.873c3.334-2.668 7.992-2.668 11.326 0l32.342 25.873c4.251 3.401 9.591 5.274 15.034 5.274h49.203c6.428 0 12.471-2.503 17.019-7.049l13.723-13.724c4.546-4.545 7.05-10.589 7.05-17.018v-69.109c0-13.271-10.796-24.067-24.066-24.067h-231.936c-13.27.001-24.066 10.797-24.066 24.068zm265.066 0v69.109c0 2.422-.943 4.699-2.656 6.411l-13.723 13.723c-1.713 1.713-3.99 2.656-6.412 2.656h-49.203c-2.051 0-4.062-.706-5.663-1.987l-32.342-25.873c-4.427-3.542-9.73-5.311-15.034-5.311s-10.608 1.771-15.034 5.311l-32.342 25.873c-1.601 1.281-3.612 1.987-5.663 1.987h-49.749c-2.427 0-4.791-.996-6.486-2.732l-13.18-13.495c-1.663-1.703-2.579-3.953-2.579-6.334v-69.338c0-5 4.067-9.067 9.066-9.067h231.934c4.999 0 9.066 4.067 9.066 9.067z"/><path d="m446.8 347.9h-17.633v-9.066c0-13.271-10.797-24.067-24.067-24.067h-225.998c-4.142 0-7.5 3.358-7.5 7.5s3.358 7.5 7.5 7.5h225.998c5 0 9.067 4.067 9.067 9.067v16.566 66.267 33.133c0 2.421-.943 4.698-2.656 6.411l-33.134 33.134c-1.712 1.712-3.988 2.655-6.41 2.655h-74.55c-2.051 0-4.062-.706-5.664-1.987l-20.719-16.575c-8.853-7.082-21.216-7.082-30.068 0l-20.719 16.575c-1.602 1.281-3.613 1.987-5.664 1.987h-75.326c-2.427 0-4.791-.996-6.486-2.732l-32.357-33.133c-1.664-1.704-2.58-3.954-2.58-6.335v-33.133-66.267-16.566c0-4.999 4.067-9.067 9.067-9.067h42.203c4.143 0 7.5-3.358 7.5-7.5s-3.357-7.5-7.5-7.5h-42.204c-13.271 0-24.067 10.796-24.067 24.067v9.066h-17.633c-8.547 0-15.5 6.953-15.5 15.5v50.267c0 8.547 6.953 15.5 15.5 15.5h17.633v25.633c0 6.321 2.433 12.292 6.849 16.815l32.356 33.133c4.501 4.609 10.776 7.252 17.219 7.252h75.326c5.444 0 10.784-1.873 15.035-5.274l20.719-16.575c3.334-2.668 7.992-2.668 11.326 0l20.719 16.575c4.251 3.401 9.591 5.274 15.035 5.274h74.55c6.429 0 12.473-2.503 17.018-7.049l33.134-33.134c4.545-4.546 7.049-10.589 7.049-17.017v-25.633h17.632c8.547 0 15.5-6.953 15.5-15.5v-50.267c0-8.547-6.953-15.5-15.5-15.5zm-381.6 66.267c-.275 0-.5-.224-.5-.5v-50.267c0-.276.225-.5.5-.5h17.633v51.267zm382.1-.5c0 .276-.225.5-.5.5h-17.633v-51.267h17.633c.275 0 .5.224.5.5z"/></g></g></svg>