<svg id="Capa_1" enable-background="new 0 0 512 512" height="512" viewBox="0 0 512 512" width="512" xmlns="http://www.w3.org/2000/svg"><g><g><path d="m446.517 328.25h-33.133v-31.117c0-4.418 3.582-8 8-8h17.133c4.418 0 8 3.582 8 8z" fill="#f4f2f4"/><g fill="#a7dda7"><path d="m487.933 363.833v-25.567c0-8.837-7.163-16-16-16h-83.967c-8.837 0-16 7.163-16 16v25.567z"/><path d="m371.967 413.233h115.967v63.133h-115.967z"/></g><g fill="#8ace9b"><path d="m464.933 338.267v25.567h23v-25.567c0-8.837-7.163-16-16-16h-23c8.837 0 16 7.163 16 16z"/><path d="m464.933 413.233h23v63.133h-23z"/></g><path d="m64.917 239.433h216.5c8.837 0 16 7.163 16 16v61.567h-248.5v-61.567c0-8.836 7.163-16 16-16z" fill="#cb835d"/><path d="m256 311.667h-66.267v-23.1c0-8.837 7.163-16 16-16h34.267c8.837 0 16 7.163 16 16z" fill="#e2dfe2"/><path d="m281.417 239.433h-23c8.837 0 16 7.163 16 16v61.567h23v-61.567c0-8.836-7.164-16-16-16z" fill="#be7558"/><path d="m240 272.567h-23c8.837 0 16 7.163 16 16v23.1h23v-23.1c0-8.837-7.163-16-16-16z" fill="#d3ced5"/><path d="m156.6 311.667h-66.267v-23.1c0-8.837 7.164-16 16-16h34.267c8.837 0 16 7.163 16 16z" fill="#e2dfe2"/><path d="m140.6 272.567h-23c8.837 0 16 7.163 16 16v23.1h23v-23.1c0-8.837-7.164-16-16-16z" fill="#d3ced5"/><path d="m48.35 305.7h249.633c8.837 0 16 7.163 16 16v38.7h-281.633v-38.7c0-8.837 7.163-16 16-16z" fill="#f4f2f4"/><path d="m297.983 305.7h-22.717c8.837 0 16 7.164 16 16v38.7h22.717v-38.7c0-8.836-7.163-16-16-16z" fill="#e2dfe2"/><path d="m272.567 471.369-8.284-33.134v-8.066h41.417v46h-32.917z" fill="#be7558"/><path d="m73.767 471.369 8.283-33.134v-8.066h-41.417v46h32.917z" fill="#be7558"/><path d="m314.267 438.233h-282.2c-4.418 0-8-3.582-8-8v-46.7h298.2v46.7c0 4.419-3.582 8-8 8z" fill="#cb835d"/><path d="m479.933 421.667h-99.967c-4.418 0-8-3.582-8-8v-50.267c0-4.418 3.582-8 8-8h99.967c4.418 0 8 3.582 8 8v50.267c0 4.418-3.581 8-8 8z" fill="#f4f2f4"/><path d="m355.967 206.3h-266.2c-8.837 0-16-7.163-16-16v-166.8c0-8.837 7.163-16 16-16h266.2c8.837 0 16 7.163 16 16v166.8c0 8.837-7.164 16-16 16z" fill="#efd27c"/><path d="m140.033 173.167h-25.133c-4.418 0-8-3.582-8-8v-116.534c0-4.418 3.582-8 8-8h215.933c4.418 0 8 3.582 8 8v91.4z" fill="#a5cdfc"/><ellipse cx="156.6" cy="90.333" fill="#efd27c" rx="16.567" ry="16.567" transform="matrix(.919 -.393 .393 .919 -22.907 68.868)"/><path d="m460.758 256h-61.615c-5.389 0-9.343-5.064-8.036-10.292l12.425-49.7c.922-3.688 4.235-6.274 8.036-6.274h36.765c3.801 0 7.114 2.587 8.036 6.274l12.425 49.7c1.307 5.228-2.648 10.292-8.036 10.292z" fill="#efd27c"/><path d="m496.5 504.5h-481c-4.418 0-8-3.582-8-8v-17.133c0-4.418 3.582-8 8-8h481c4.418 0 8 3.582 8 8v17.133c0 4.418-3.582 8-8 8z" fill="#4c5e71"/><path d="m496.5 471.367h-23c4.418 0 8 3.582 8 8v17.133c0 4.418-3.582 8-8 8h23c4.418 0 8-3.582 8-8v-17.133c0-4.419-3.582-8-8-8z" fill="#3c4958"/><path d="m299.267 383.533v46.7c0 4.418-3.582 8-8 8h23c4.418 0 8-3.582 8-8v-46.7z" fill="#be7558"/><path d="m330.833 388.533h-315.333c-4.418 0-8-3.582-8-8v-17.133c0-4.418 3.582-8 8-8h315.333c4.418 0 8 3.582 8 8v17.133c0 4.419-3.581 8-8 8z" fill="#eaa96a"/><path d="m330.833 355.4h-23c4.418 0 8 3.582 8 8v17.133c0 4.418-3.582 8-8 8h23c4.418 0 8-3.582 8-8v-17.133c0-4.418-3.581-8-8-8z" fill="#e5935d"/><path d="m355.967 7.5h-22.717c8.837 0 16 7.163 16 16v166.8c0 8.837-7.163 16-16 16h22.717c8.836 0 16-7.163 16-16v-166.8c0-8.837-7.164-16-16-16z" fill="#eabc73"/><path d="m315.833 48.633v95.233l23-3.833v-91.4c0-4.418-3.582-8-8-8h-23c4.419 0 8 3.582 8 8z" fill="#8dbdf7"/><path d="m330.833 173.167c4.418 0 8-3.582 8-8v-25.133l-60.41-60.41c-3.235-3.235-8.479-3.235-11.714 0l-60.41 60.41v33.133z" fill="#a7dda7"/><path d="m140.033 173.167 43.843-43.843c3.235-3.235 8.48-3.235 11.714 0l43.843 43.843z" fill="#8ace9b"/><path d="m315.833 165.167c0 4.418-3.582 8-8 8h23c4.418 0 8-3.582 8-8v-25.133l-23-23z" fill="#8ace9b"/><path d="m479.933 355.4h-23c4.418 0 8 3.582 8 8v50.267c0 4.418-3.582 8-8 8h23c4.418 0 8-3.582 8-8v-50.267c0-4.418-3.581-8-8-8z" fill="#e2dfe2"/><path d="m468.794 245.708-12.425-49.7c-.922-3.688-4.235-6.274-8.036-6.274h-23c3.801 0 7.114 2.587 8.036 6.274l12.425 49.7c1.307 5.228-2.647 10.292-8.036 10.292h23c5.388 0 9.343-5.064 8.036-10.292z" fill="#eabc73"/></g><g><path d="m496.5 463.867h-1.067v-125.6c0-12.958-10.542-23.5-23.5-23.5h-17.917v-17.633c0-8.547-6.953-15.5-15.5-15.5h-1.066v-18.134h23.308c4.894 0 9.428-2.212 12.44-6.07 3.012-3.857 4.059-8.794 2.871-13.541l-12.425-49.7c-1.76-7.04-8.056-11.956-15.312-11.956h-36.765c-7.256 0-13.552 4.916-15.312 11.956l-12.425 49.699c-1.188 4.748-.141 9.684 2.871 13.542s7.546 6.07 12.441 6.07h23.308v18.133h-1.067c-8.547 0-15.5 6.953-15.5 15.5v17.633h-17.917c-12.958 0-23.5 10.542-23.5 23.5v125.6h-51.266v-18.133h1.066c8.547 0 15.5-6.953 15.5-15.5v-34.2h1.067c8.547 0 15.5-6.953 15.5-15.5v-17.133c0-8.547-6.953-15.5-15.5-15.5h-9.35v-26.2c0-10.546-6.983-19.49-16.567-22.455v-43.812c0-12.958-10.542-23.5-23.5-23.5h-176.083c-4.142 0-7.5 3.358-7.5 7.5s3.358 7.5 7.5 7.5h176.083c4.687 0 8.5 3.813 8.5 8.5v42.767h-26.416v-9.633c0-12.958-10.542-23.5-23.5-23.5h-34.267c-12.958 0-23.5 10.542-23.5 23.5v9.633h-18.133v-9.633c0-12.958-10.542-23.5-23.5-23.5h-34.267c-12.958 0-23.5 10.542-23.5 23.5v9.633h-26.416v-42.767c0-4.687 3.813-8.5 8.5-8.5h10.783c4.142 0 7.5-3.358 7.5-7.5s-3.358-7.5-7.5-7.5h-10.784c-12.958 0-23.5 10.542-23.5 23.5v43.812c-9.584 2.966-16.566 11.91-16.566 22.455v26.2h-9.35c-8.547 0-15.5 6.953-15.5 15.5v17.133c0 8.547 6.953 15.5 15.5 15.5h1.067v34.2c0 8.547 6.953 15.5 15.5 15.5h1.066v18.133h-17.633c-8.547 0-15.5 6.953-15.5 15.5v17.134c0 8.547 6.953 15.5 15.5 15.5h481c8.547 0 15.5-6.953 15.5-15.5v-17.133c0-8.547-6.953-15.5-15.5-15.5zm-97.975-215.668c-.235-.301-.165-.58-.143-.672l12.425-49.7c.087-.349.4-.593.76-.593h36.765c.36 0 .673.244.76.593l12.425 49.7c.023.091.093.371-.143.672-.235.301-.523.301-.617.301h-61.615c-.094 0-.382 0-.617-.301zm-19.058 114.701h100.966v51.267h-100.966zm41.416-65.767c0-.276.224-.5.5-.5h17.133c.276 0 .5.224.5.5v17.633h-18.133zm-32.916 32.634h25.417 33.133 25.417c4.687 0 8.5 3.813 8.5 8.5v9.633h-100.967v-9.633c0-4.687 3.813-8.5 8.5-8.5zm-8.5 99.4h100.966v34.7h-100.966zm-81.267 34.7h-19.777l-4.534-18.133h24.311zm-39.772-18.134 4.534 18.133h-179.59l4.533-18.133zm-61.195-157.166c0-4.687 3.813-8.5 8.5-8.5h34.267c4.687 0 8.5 3.813 8.5 8.5v9.633h-51.267zm-99.399 0c0-4.687 3.813-8.5 8.5-8.5h34.266c4.687 0 8.5 3.813 8.5 8.5v9.633h-51.266zm-57.984 33.133c0-4.687 3.813-8.5 8.5-8.5h249.633c4.687 0 8.5 3.813 8.5 8.5v26.2h-266.633zm-24.85 58.833v-17.133c0-.276.224-.5.5-.5h315.333c.276 0 .5.224.5.5v17.133c0 .276-.224.5-.5.5h-315.333c-.276 0-.5-.224-.5-.5zm16.567 49.7v-34.2h283.2v34.2c0 .276-.224.5-.5.5h-282.2c-.276 0-.5-.224-.5-.5zm16.566 15.5h24.311l-4.534 18.133h-19.777zm448.867 50.767c0 .276-.224.5-.5.5h-481c-.276 0-.5-.224-.5-.5v-17.133c0-.276.224-.5.5-.5h481c.276 0 .5.224.5.5z"/><path d="m438.233 381.033h-16.567c-4.142 0-7.5 3.358-7.5 7.5s3.358 7.5 7.5 7.5h16.567c4.142 0 7.5-3.358 7.5-7.5s-3.358-7.5-7.5-7.5z"/><path d="m89.767 213.8h266.2c12.958 0 23.5-10.542 23.5-23.5v-166.8c0-12.958-10.542-23.5-23.5-23.5h-266.2c-12.958 0-23.5 10.542-23.5 23.5v35.267c0 4.142 3.358 7.5 7.5 7.5s7.5-3.358 7.5-7.5v-35.267c0-4.687 3.813-8.5 8.5-8.5h266.2c4.687 0 8.5 3.813 8.5 8.5v166.8c0 4.687-3.813 8.5-8.5 8.5h-266.2c-4.687 0-8.5-3.813-8.5-8.5v-101.533c0-4.142-3.358-7.5-7.5-7.5s-7.5 3.358-7.5 7.5v101.533c0 12.958 10.542 23.5 23.5 23.5z"/><path d="m330.833 33.133h-215.933c-8.547 0-15.5 6.953-15.5 15.5v116.533c0 8.547 6.953 15.5 15.5 15.5h215.934c8.547 0 15.5-6.953 15.5-15.5v-116.533c-.001-8.547-6.954-15.5-15.501-15.5zm-216.433 132.034v-116.534c0-.276.224-.5.5-.5h215.934c.276 0 .5.224.5.5v73.294l-47.606-47.606c-6.153-6.154-16.167-6.155-22.321 0l-55.107 55.106-5.406-5.406c-6.153-6.154-16.167-6.155-22.321 0l-41.646 41.646h-22.027c-.276 0-.5-.225-.5-.5zm106.927.5h-63.187l31.04-31.04c.306-.306.802-.305 1.108 0zm109.506 0h-88.293l-25.633-25.633 55.106-55.106c.304-.305.802-.305 1.108 0l58.213 58.212v22.027c-.001.275-.225.5-.501.5z"/><path d="m156.6 114.4c13.27 0 24.066-10.796 24.066-24.066 0-13.271-10.796-24.067-24.066-24.067s-24.067 10.796-24.067 24.067c0 13.27 10.797 24.066 24.067 24.066zm0-33.133c4.999 0 9.066 4.067 9.066 9.067 0 4.999-4.067 9.066-9.066 9.066s-9.067-4.067-9.067-9.066c0-5 4.068-9.067 9.067-9.067z"/></g></g></svg>