<svg id="Capa_1" enable-background="new 0 0 512 512" height="512" viewBox="0 0 512 512" width="512" xmlns="http://www.w3.org/2000/svg"><g><g><path d="m90.334 156.599h33.134 323.049 49.7c4.575 0 8.283 3.708 8.283 8.283v331.334c0 4.575-3.708 8.283-8.283 8.283h-455.581c-18.299 0-33.132-14.834-33.132-33.132l-.003-36.617z" fill="#f4f2f4"/><path d="m181.734 421.666h-50.267c-4.418 0-8-3.582-8-8v-17.133c0-4.418 3.582-8 8-8h50.267c4.418 0 8 3.582 8 8v17.133c0 4.418-3.582 8-8 8z" fill="#a7ccf9"/><g><path d="m156.601 217.999h33.133v40.967h-33.133z" fill="#d0e5fd"/><path d="m256 217.999h33.133v40.967h-33.133z" fill="#d0e5fd"/><g><path d="m140.034 114.4v-33.666c0-4.027 2.896-7.471 6.864-8.161l183.652-31.94h5v73.767z" fill="#d0e5fd"/><path d="m307.55 44.633v69.767h28v-73.767h-5z" fill="#b6d5f8"/><path d="m335.55 222.866h-204.083c-4.418 0-8-3.582-8-8v-99.966c0-4.418 3.582-8 8-8h204.083z" fill="#4c5e71"/><path d="m289.417 189.733h-124.816c-4.418 0-8-3.582-8-8v-33.701c0-4.418 3.582-8 8-8h124.816c4.418 0 8 3.582 8 8v33.701c0 4.419-3.582 8-8 8z" fill="#a7ccf9"/><path d="m307.55 106.9h28v115.966h-28z" fill="#3c4958"/><path d="m289.417 140.033h-23c4.419 0 8 3.582 8 8v33.701c0 4.418-3.581 8-8 8h23c4.419 0 8-3.582 8-8v-33.701c0-4.418-3.581-8-8-8z" fill="#8cbdf9"/></g><path d="m330.55 37.666h115.966v221.3h-115.966z" fill="#dd636e"/><path d="m413.384 258.966h-49.7v-61.234c0-4.418 3.582-8 8-8h33.7c4.418 0 8 3.582 8 8z" fill="#efd27c"/><path d="m423.517 37.666h23v221.3h-23z" fill="#da4a54"/><path d="m405.384 189.733h-23c4.418 0 8 3.582 8 8v61.234h23v-61.234c0-4.418-3.582-8-8-8z" fill="#eabc73"/><path d="m446.8 40.633h-116.533c-4.418 0-8-3.582-8-8v-17.133c0-4.418 3.582-8 8-8h116.533c4.418 0 8 3.582 8 8v17.133c0 4.418-3.582 8-8 8z" fill="#d0e5fd"/><path d="m446.8 7.5h-23c4.418 0 8 3.582 8 8v17.133c0 4.418-3.582 8-8 8h23c4.418 0 8-3.582 8-8v-17.133c0-4.418-3.582-8-8-8z" fill="#b6d5f8"/></g><path d="m7.501 156.599c0-18.299 14.834-33.133 33.133-33.133h41.417c4.575 0 8.283 3.709 8.283 8.283v298.2c0 4.575-3.709 8.284-8.284 8.283l-41.417-.002c-18.299 0-33.133 14.834-33.133 33.134v-314.765z" fill="#e2dfe2"/><path d="m82.051 123.466h-23.001c4.575 0 8.283 3.709 8.283 8.283v298.2c0 4.567-3.697 8.27-8.262 8.282l22.979.001c4.575 0 8.284-3.708 8.284-8.283v-298.2c.001-4.575-3.708-8.283-8.283-8.283z" fill="#d3ced5"/><path d="m496.217 156.599h-23c4.575 0 8.283 3.708 8.283 8.283v331.335c0 4.575-3.708 8.283-8.283 8.283h23c4.575 0 8.283-3.709 8.283-8.283v-331.335c0-4.575-3.708-8.283-8.283-8.283z" fill="#e2dfe2"/><path d="m181.734 388.533h-23c4.418 0 8 3.582 8 8v17.133c0 4.418-3.582 8-8 8h23c4.418 0 8-3.582 8-8v-17.133c0-4.419-3.582-8-8-8z" fill="#8cbdf9"/><path d="m463.367 289.133h-331.9c-4.418 0-8-3.582-8-8v-17.133c0-4.418 3.582-8 8-8h331.899c4.418 0 8 3.582 8 8v17.133c.001 4.418-3.581 8-7.999 8z" fill="#e2dfe2"/><path d="m463.367 255.999h-23c4.418 0 8 3.582 8 8v17.133c0 4.418-3.582 8-8 8h23c4.418 0 8-3.582 8-8v-17.132c0-4.419-3.582-8.001-8-8.001z" fill="#d3ced5"/></g><g><path d="m496.216 149.099h-42.199v-102.759c4.919-2.601 8.283-7.765 8.283-13.706v-17.134c0-8.547-6.953-15.5-15.5-15.5h-68.117c-4.143 0-7.5 3.358-7.5 7.5s3.357 7.5 7.5 7.5h68.117c.275 0 .5.224.5.5v17.133c0 .276-.225.5-.5.5h-.283-115.967-.283c-.275 0-.5-.224-.5-.5v-17.133c0-.276.225-.5.5-.5h18.417c4.143 0 7.5-3.358 7.5-7.5s-3.357-7.5-7.5-7.5h-18.417c-8.547 0-15.5 6.953-15.5 15.5v17.133c0 1.054.108 2.083.309 3.078l-169.463 29.473c-7.578 1.318-13.079 7.857-13.079 15.55v18.666h-1.066c-8.547 0-15.5 6.953-15.5 15.5v34.199h-18.133v-17.35c0-8.703-7.08-15.783-15.783-15.783h-41.418c-22.405 0-40.634 18.228-40.634 40.634v314.764c0 .038.005.075.006.113.059 22.354 18.262 40.523 40.63 40.523h70.197c4.143 0 7.5-3.358 7.5-7.5s-3.357-7.5-7.5-7.5h-70.197c-14.134 0-25.633-11.499-25.633-25.632 0-.014-.002-.026-.002-.04.019-14.118 11.51-25.598 25.633-25.598l16.511.001c.019 0 .038.003.057.003s.038-.003.057-.003l24.792.001c8.703 0 15.783-7.08 15.783-15.783v-265.85h18.133v50.767c0 8.547 6.953 15.5 15.5 15.5h17.634v18.133h-17.634c-8.547 0-15.5 6.953-15.5 15.5v17.133c0 8.547 6.953 15.5 15.5 15.5h331.899c8.547 0 15.5-6.953 15.5-15.5v-17.132c0-8.547-6.953-15.5-15.5-15.5h-9.35v-84.4h42.199c.432 0 .783.352.783.783v331.335c0 .432-.352.783-.783.783h-355.382c-4.143 0-7.5 3.358-7.5 7.5s3.357 7.5 7.5 7.5h355.383c8.703 0 15.783-7.08 15.783-15.783v-331.336c.001-8.703-7.08-15.783-15.783-15.783zm-414.165 281.633-17.349-.001v-25.631c0-4.142-3.357-7.5-7.5-7.5-4.142 0-7.5 3.358-7.5 7.5v25.631l-9.068-.001c-9.711 0-18.637 3.424-25.634 9.128v-283.258c0-14.134 11.499-25.634 25.634-25.634h9.068v25.635c0 4.142 3.358 7.5 7.5 7.5 4.143 0 7.5-3.358 7.5-7.5v-25.635h17.349c.432 0 .783.352.783.783v24.831c0 .007-.001.013-.001.019 0 .007.001.013.001.019v273.331c.001.432-.351.783-.783.783zm214.582-182.233v-18.133h26.417v18.133zm-99.399 0v-18.133h51.267v18.133zm66.266-18.133h18.133v18.133h-18.133zm-115.966-149.633c0-.382.273-.706.649-.771l174.867-30.412v49.85h-175.516zm-16.567 134.133v-99.966c0-.276.225-.5.5-.5h191.583v100.966h-191.583c-.275 0-.5-.224-.5-.5zm33.134 15.5h18.133v18.133h-18.133zm299.766 33.634v17.133c0 .276-.225.5-.5.5h-331.9c-.275 0-.5-.224-.5-.5v-17.133c0-.276.225-.5.5-.5h25.134 33.133 66.266 33.133 41.417 33.133 49.7 33.134 16.85c.275 0 .5.224.5.5zm-57.984-15.501h-34.7v-50.767c0-.276.225-.5.5-.5h33.7c.275 0 .5.224.5.5zm15 0v-50.767c0-8.547-6.953-15.5-15.5-15.5h-33.7c-8.547 0-15.5 6.953-15.5 15.5v50.767h-18.133v-25.633-174.733h100.967v200.366z"/><path d="m123.467 314.766c-4.143 0-7.5 3.358-7.5 7.5v33.133c0 4.142 3.357 7.5 7.5 7.5s7.5-3.358 7.5-7.5v-9.067h332.899v9.067c0 4.142 3.357 7.5 7.5 7.5s7.5-3.358 7.5-7.5v-33.133c0-4.142-3.357-7.5-7.5-7.5s-7.5 3.358-7.5 7.5v9.066h-332.899v-9.066c0-4.142-3.357-7.5-7.5-7.5z"/><path d="m115.967 413.666c0 8.547 6.953 15.5 15.5 15.5h50.267c8.547 0 15.5-6.953 15.5-15.5v-17.133c0-8.547-6.953-15.5-15.5-15.5h-50.267c-8.547 0-15.5 6.953-15.5 15.5zm15-17.133c0-.276.225-.5.5-.5h50.267c.275 0 .5.224.5.5v17.133c0 .276-.225.5-.5.5h-50.267c-.275 0-.5-.224-.5-.5z"/><path d="m123.467 462.299h49.7c4.143 0 7.5-3.358 7.5-7.5s-3.357-7.5-7.5-7.5h-49.7c-4.143 0-7.5 3.358-7.5 7.5s3.358 7.5 7.5 7.5z"/><path d="m206.3 447.299c-4.143 0-7.5 3.358-7.5 7.5s3.357 7.5 7.5 7.5h82.833c4.143 0 7.5-3.358 7.5-7.5s-3.357-7.5-7.5-7.5z"/><path d="m322.267 447.299c-4.143 0-7.5 3.358-7.5 7.5s3.357 7.5 7.5 7.5h66.267c4.143 0 7.5-3.358 7.5-7.5s-3.357-7.5-7.5-7.5z"/><path d="m421.667 66.267h-66.267c-4.143 0-7.5 3.358-7.5 7.5s3.357 7.5 7.5 7.5h66.267c4.143 0 7.5-3.358 7.5-7.5 0-4.143-3.358-7.5-7.5-7.5z"/><path d="m421.667 99.4h-66.267c-4.143 0-7.5 3.358-7.5 7.5s3.357 7.5 7.5 7.5h66.267c4.143 0 7.5-3.358 7.5-7.5s-3.358-7.5-7.5-7.5z"/><path d="m421.667 132.533h-66.267c-4.143 0-7.5 3.358-7.5 7.5s3.357 7.5 7.5 7.5h66.267c4.143 0 7.5-3.358 7.5-7.5s-3.358-7.5-7.5-7.5z"/><path d="m289.418 197.233c8.547 0 15.5-6.953 15.5-15.5v-33.701c0-8.547-6.953-15.5-15.5-15.5h-124.817c-8.547 0-15.5 6.953-15.5 15.5v33.701c0 8.547 6.953 15.5 15.5 15.5zm-79.759-15v-34.701h34.7v34.701zm80.259-34.2v33.701c0 .276-.225.5-.5.5h-30.059v-34.701h30.059c.275 0 .5.224.5.5zm-125.817 33.7v-33.701c0-.276.225-.5.5-.5h30.058v34.701h-30.058c-.275 0-.5-.224-.5-.5z"/></g></g></svg>