<svg id="Capa_1" enable-background="new 0 0 512 512" height="512" viewBox="0 0 512 512" width="512" xmlns="http://www.w3.org/2000/svg"><g><g><g><path d="m206.301 454.8h-116.043c-9.15 0-16.567-7.417-16.567-16.567v-414.166c0-9.15 7.417-16.567 16.567-16.567h331.484c9.15 0 16.567 7.417 16.567 16.567v414.167c0 9.15-7.417 16.567-16.567 16.567h-116.042-99.399z" fill="#eaa96a"/><path d="m421.742 7.5h-23c9.15 0 16.567 7.417 16.567 16.567v414.167c0 9.149-7.417 16.567-16.567 16.567h23c9.15 0 16.567-7.417 16.567-16.567v-414.167c0-9.15-7.417-16.567-16.567-16.567z" fill="#e5935d"/><path d="m305.7 421.667h57.908c3.893 0 7.279-2.707 8.084-6.516 2.804-13.251 13.869-24.18 26.945-26.965 3.816-.813 6.538-4.187 6.538-8.089v-297.894c0-3.902-2.722-7.276-6.538-8.089-13.076-2.785-24.141-13.714-26.944-26.965-.806-3.809-4.192-6.516-8.085-6.516h-215.216c-3.893 0-7.279 2.707-8.084 6.516-2.804 13.251-13.869 24.18-26.945 26.965-3.816.813-6.538 4.187-6.538 8.089v297.893c0 3.902 2.722 7.276 6.538 8.089 13.076 2.785 24.141 13.714 26.944 26.965.806 3.809 4.192 6.516 8.085 6.516h57.908 99.4z" fill="#f4f2f4"/><path d="m398.637 74.114c-13.076-2.785-24.141-13.714-26.945-26.965-.806-3.809-4.192-6.516-8.085-6.516h-23.075c3.893 0 7.279 2.708 8.085 6.516 2.804 13.251 13.869 24.18 26.945 26.965 3.816.813 6.538 4.188 6.538 8.089v297.893c0 3.901-2.722 7.276-6.538 8.089-13.076 2.785-24.141 13.714-26.945 26.965-.806 3.809-4.192 6.516-8.085 6.516h23.075c3.893 0 7.279-2.707 8.085-6.516 2.804-13.251 13.869-24.18 26.945-26.965 3.816-.813 6.538-4.188 6.538-8.089v-297.893c0-3.901-2.722-7.276-6.538-8.089z" fill="#e2dfe2"/></g><g><path d="m289.133 112.75v68.7c0 4.575-3.708 8.283-8.283 8.283h-49.7c-4.575 0-8.283-3.709-8.283-8.283v-68.7z" fill="#efd27c"/><path d="m266.133 112.75v68.7c0 4.575-3.708 8.283-8.283 8.283h23c4.575 0 8.283-3.709 8.283-8.283v-68.7z" fill="#eabc73"/><g><g><path d="m296.412 157.604-34.555-34.555c-3.235-3.235-8.48-3.235-11.714 0l-34.555 34.555c-3.235 3.235-8.479 3.235-11.714 0l-11.714-11.714c-3.235-3.235-3.235-8.48 0-11.714l57.983-57.983c3.235-3.235 8.48-3.235 11.714 0l57.983 57.983c3.235 3.235 3.235 8.48 0 11.714l-11.714 11.714c-3.234 3.235-8.479 3.235-11.714 0z" fill="#dd636e"/></g></g><path d="m319.84 134.176-57.983-57.983c-3.235-3.235-8.48-3.235-11.714 0l-5.643 5.643 52.34 52.34c3.235 3.235 3.235 8.48 0 11.714l-6.071 6.071 5.643 5.643c3.235 3.235 8.48 3.235 11.714 0l11.714-11.714c3.235-3.234 3.235-8.479 0-11.714z" fill="#da4a54"/></g><path d="m347.4 256h-182.8c-4.418 0-8-3.582-8-8v-17.133c0-4.418 3.582-8 8-8h182.8c4.418 0 8 3.582 8 8v17.133c0 4.418-3.582 8-8 8z" fill="#a6ccfb"/><g><g><g fill="#dd636e"><path d="m240.75 406.543-26.889.001-5.812 11.625c-1.15 2.3-1.749 4.837-1.749 7.409v70.639c0 4.575 3.708 8.283 8.283 8.283h26.167z"/><path d="m303.951 418.169-5.814-11.628-26.887.001v97.958h26.167c4.575 0 8.283-3.708 8.283-8.283v-70.639c0-2.572-.599-5.109-1.749-7.409z"/></g></g><path d="m239.433 406.543h33.133v97.957h-33.133z" fill="#f4f2f4"/><path d="m303.951 418.169-5.814-11.628-23 .001 5.813 11.627c1.15 2.3 1.749 4.837 1.749 7.409v70.639c0 4.575-3.709 8.283-8.283 8.283h23c4.575 0 8.283-3.708 8.283-8.283v-70.639c.001-2.572-.598-5.109-1.748-7.409z" fill="#da4a54"/><circle cx="256" cy="355.4" fill="#efd27c" r="66.267"/><g fill="#eabc73"><circle cx="256" cy="355.4" r="33.133"/><path d="m256 289.133c-3.925 0-7.763.361-11.5 1.015 31.113 5.447 54.766 32.578 54.766 65.251s-23.653 59.804-54.766 65.252c3.737.654 7.575 1.015 11.5 1.015 36.598 0 66.267-29.669 66.267-66.267 0-36.597-29.669-66.266-66.267-66.266z"/></g></g><path d="m347.4 222.867h-23c4.418 0 8 3.581 8 8v17.133c0 4.418-3.582 8-8 8h23c4.418 0 8-3.582 8-8v-17.133c0-4.419-3.582-8-8-8z" fill="#8cbdf9"/></g><g fill="#131213"><path d="m421.742 0h-331.484c-13.271 0-24.067 10.796-24.067 24.066v414.167c0 13.271 10.796 24.066 24.066 24.066h38.044c4.143 0 7.5-3.357 7.5-7.5s-3.357-7.5-7.5-7.5h-38.043c-4.999 0-9.066-4.067-9.066-9.066v-414.167c0-4.999 4.067-9.066 9.066-9.066h331.484c4.999 0 9.066 4.067 9.066 9.066v414.167c0 4.999-4.067 9.066-9.066 9.066h-108.542v-18.133h50.408c7.408 0 13.894-5.242 15.422-12.464 2.175-10.28 10.88-18.99 21.168-21.182 7.23-1.54 12.478-8.026 12.478-15.425v-297.892c0-7.398-5.247-13.886-12.477-15.424-10.289-2.192-18.994-10.902-21.169-21.182-1.528-7.223-8.014-12.465-15.422-12.465h-215.216c-7.408 0-13.894 5.242-15.422 12.464-2.175 10.28-10.88 18.99-21.168 21.182-7.231 1.539-12.478 8.026-12.478 15.425v29.936c0 4.143 3.357 7.5 7.5 7.5s7.5-3.357 7.5-7.5v-29.936c0-.362.253-.679.602-.754 16.154-3.44 29.303-16.601 32.72-32.748.069-.329.384-.568.746-.568h215.217c.362 0 .677.239.746.569 3.417 16.147 16.565 29.307 32.721 32.748.348.074.601.391.601.753v297.894c0 .362-.253.679-.602.754-16.154 3.44-29.303 16.601-32.72 32.748-.069.329-.384.568-.746.568h-53.273l-2.955-5.909c13.793-13.412 22.386-32.145 22.386-52.857 0-40.676-33.092-73.768-73.767-73.768s-73.767 33.092-73.767 73.768c0 20.712 8.593 39.445 22.386 52.857l-2.955 5.91h-53.272c-.362 0-.677-.239-.746-.569-3.417-16.146-16.565-29.307-32.721-32.748-.348-.074-.601-.391-.601-.753v-237.96c0-4.143-3.357-7.5-7.5-7.5s-7.5 3.357-7.5 7.5v237.959c0 7.398 5.247 13.885 12.477 15.424 10.289 2.192 18.994 10.902 21.169 21.182 1.528 7.223 8.014 12.465 15.422 12.465h50.408v18.132h-40.498c-4.143 0-7.5 3.357-7.5 7.5s3.357 7.5 7.5 7.5h40.498v33.917c0 8.703 7.08 15.783 15.783 15.783h24.851 33.133 24.851c8.703 0 15.783-7.08 15.783-15.783v-33.917h108.542c13.271 0 24.066-10.796 24.066-24.066v-414.168c0-13.27-10.796-24.066-24.067-24.066zm-224.509 355.4c0-32.404 26.362-58.768 58.767-58.768s58.767 26.363 58.767 58.768-26.363 58.767-58.767 58.767-58.767-26.362-58.767-58.767zm16.567 140.817v-70.64c0-1.4.331-2.802.957-4.054l1.889-3.778c4.758 3.014 9.88 5.497 15.288 7.369v71.886h-17.351c-.432 0-.783-.352-.783-.783zm33.134.783v-68.41c2.974.366 5.995.577 9.066.577s6.092-.211 9.066-.577v68.41zm51.266-.783c0 .432-.352.783-.783.783h-17.351v-71.885c5.408-1.872 10.53-4.355 15.288-7.369l1.889 3.779c.626 1.251.957 2.652.957 4.053z"/><path d="m231.15 197.233h49.699c8.703 0 15.783-7.08 15.783-15.783v-14.974c1.811.69 3.722 1.047 5.636 1.047 4.042 0 8.084-1.539 11.161-4.615l11.714-11.714c2.98-2.981 4.623-6.945 4.623-11.161s-1.643-8.18-4.623-11.161l-57.983-57.983c-6.152-6.15-16.165-6.152-22.321 0l-57.982 57.983c-6.153 6.154-6.153 16.168 0 22.322l11.714 11.714c4.534 4.533 11.16 5.715 16.797 3.568v14.974c-.001 8.703 7.079 15.783 15.782 15.783zm49.7-15h-49.7c-.432 0-.783-.352-.783-.783v-28.018l25.079-25.079c.305-.307.803-.307 1.107 0l25.079 25.079v28.018c.001.432-.351.783-.782.783zm-71.672-29.932-11.714-11.714c-.153-.152-.23-.339-.23-.554s.077-.401.23-.554l57.981-57.983c.307-.305.804-.307 1.108 0l57.982 57.983c.153.152.23.339.23.554s-.077.401-.23.554l-11.714 11.714c-.304.307-.801.308-1.107 0l-34.555-34.555c-3.077-3.076-7.119-4.615-11.161-4.615s-8.084 1.539-11.161 4.615l-34.555 34.555c-.303.306-.801.306-1.104 0z"/><path d="m149.1 230.867v17.133c0 8.547 6.953 15.5 15.5 15.5h182.8c8.547 0 15.5-6.953 15.5-15.5v-17.133c0-8.547-6.953-15.5-15.5-15.5h-182.8c-8.547 0-15.5 6.953-15.5 15.5zm198.8 0v17.133c0 .275-.225.5-.5.5h-182.8c-.275 0-.5-.225-.5-.5v-17.133c0-.275.225-.5.5-.5h182.8c.276 0 .5.225.5.5z"/><path d="m256 396.033c22.405 0 40.633-18.228 40.633-40.633s-18.228-40.633-40.633-40.633-40.633 18.228-40.633 40.634 18.228 40.632 40.633 40.632zm0-66.266c14.134 0 25.633 11.499 25.633 25.634 0 14.134-11.499 25.633-25.633 25.633s-25.633-11.499-25.633-25.633c0-14.135 11.499-25.634 25.633-25.634z"/><path d="m407.171 414.167h-4.142c-4.143 0-7.5 3.357-7.5 7.5s3.357 7.5 7.5 7.5h4.142c4.143 0 7.5-3.357 7.5-7.5s-3.357-7.5-7.5-7.5z"/><path d="m407.171 48.133c4.143 0 7.5-3.357 7.5-7.5s-3.357-7.5-7.5-7.5h-4.142c-4.143 0-7.5 3.357-7.5 7.5s3.357 7.5 7.5 7.5z"/><path d="m104.754 48.133h4.142c4.143 0 7.5-3.357 7.5-7.5s-3.357-7.5-7.5-7.5h-4.142c-4.143 0-7.5 3.357-7.5 7.5s3.357 7.5 7.5 7.5z"/><path d="m104.754 414.168c-4.143 0-7.5 3.357-7.5 7.5 0 4.142 3.357 7.5 7.5 7.5h4.142c4.143 0 7.5-3.358 7.5-7.5 0-4.143-3.357-7.5-7.5-7.5z"/><path d="m253.93 362.9h4.141c4.143 0 7.5-3.357 7.5-7.5s-3.357-7.5-7.5-7.5h-4.141c-4.143 0-7.5 3.357-7.5 7.5s3.357 7.5 7.5 7.5z"/></g></g></svg>