<svg id="Capa_1" enable-background="new 0 0 512 512" height="512" viewBox="0 0 512 512" width="512" xmlns="http://www.w3.org/2000/svg"><g><g><g><g><g><path d="m343.667 140.033h-54.533c-9.15 0-16.567-7.417-16.567-16.567s7.417-16.567 16.567-16.567h132.533c9.15 0 16.567-7.417 16.567-16.567 0-9.149-7.417-16.567-16.567-16.567h-66.267c-9.15 0-16.567-7.417-16.567-16.567s7.417-16.567 16.567-16.567h16.567c9.15 0 16.567-7.417 16.567-16.567s-7.417-16.567-16.567-16.567h-149.1c-9.15 0-16.567 7.417-16.567 16.567s7.417 16.567 16.567 16.567h33.133c9.15 0 16.567 7.417 16.567 16.567s-7.417 16.569-16.567 16.569h-99.4c-9.15 0-16.567 7.417-16.567 16.567s7.417 16.567 16.567 16.567h49.7c9.149 0 16.567 7.417 16.567 16.567 0 9.149-7.417 16.567-16.567 16.567h-99.4c-9.149 0-16.567 7.417-16.567 16.567 0 9.149 7.417 16.567 16.567 16.567v4.831h236.767z" fill="#f4f2f4"/></g><g><path d="m57.2 106.9c-9.15 0-16.567-7.417-16.567-16.567 0-9.149 7.417-16.567 16.567-16.567h33.133c9.15 0 16.567 7.417 16.567 16.567s-7.417 16.567-16.567 16.567z" fill="#f4f2f4"/></g><g fill="#e2dfe2"><path d="m365.533 24.067c0 9.15-7.417 16.567-16.567 16.567h-16.566c-9.15 0-16.567 7.417-16.567 16.567s7.417 16.567 16.567 16.567h23c-9.15 0-16.567-7.417-16.567-16.567s7.417-16.567 16.567-16.567h16.567c9.15 0 16.567-7.417 16.567-16.567s-7.417-16.567-16.567-16.567h-23c9.149 0 16.566 7.417 16.566 16.567z"/><path d="m289.133 106.9h-23c-9.15 0-16.567 7.417-16.567 16.567 0 9.149 7.417 16.567 16.567 16.567h23c-9.149 0-16.567-7.417-16.567-16.567.001-9.15 7.418-16.567 16.567-16.567z"/><path d="m421.667 73.767h-23c9.15 0 16.567 7.417 16.567 16.567s-7.417 16.567-16.567 16.567h23c9.15 0 16.567-7.417 16.567-16.567s-7.418-16.567-16.567-16.567z"/><path d="m90.333 73.767h-23c9.15 0 16.567 7.417 16.567 16.567s-7.417 16.566-16.567 16.566h23c9.15 0 16.567-7.417 16.567-16.567s-7.417-16.566-16.567-16.566z"/></g></g></g><g><path d="m57.2 300.7h253.5v175.667h-253.5z" fill="#d0e5fd" transform="matrix(-1 0 0 -1 367.9 777.067)"/><path d="m282.7 300.7h28v175.667h-28z" fill="#b6d5f8"/><path d="m57.2 438.233h253.5v38.133h-253.5z" fill="#a6ccfb"/><path d="m282.7 438.233h28v38.133h-28z" fill="#8cbdf9"/><path d="m90.333 476.367h182.233v-129.534c0-4.418-3.582-8-8-8h-166.233c-4.418 0-8 3.582-8 8z" fill="#4c5e71"/><path d="m282.7 173.167h23v78.967h-23z" fill="#7bbce9"/><g><path d="m310.7 305.7h-278.7c-4.418 0-8-3.582-8-8v-116.533c0-4.418 3.582-8 8-8h278.7z" fill="#4c5e71"/><path d="m264.565 206.299h-42.265v66.267h42.265c4.418 0 8-3.582 8-8v-50.267c0-4.418-3.582-8-8-8z" fill="#a6ccfb"/><g><g><g><path d="m107.467 206.299h-42.467c-4.418 0-8 3.582-8 8v50.267c0 4.418 3.582 8 8 8h42.467z" fill="#a6ccfb"/></g><g><path d="m139.467 206.299h50.833v66.267h-50.833z" fill="#a6ccfb"/></g></g></g><path d="m282.7 173.167h28v132.533h-28z" fill="#3c4958"/><path d="m264.565 206.299h-23c4.419 0 8 3.582 8 8v50.267c0 4.418-3.581 8-8 8h23c4.418 0 8-3.582 8-8v-50.267c0-4.418-3.582-8-8-8z" fill="#8cbdf9"/><g fill="#3c4958"><path d="m106.833 206.299v66.268h33.167v-66.268z"/><path d="m189.667 206.299v66.268h33.083v-66.268z"/></g></g><path d="m264.567 338.833h-28c4.418 0 8 3.582 8 8v129.533h28v-129.533c0-4.418-3.582-8-8-8z" fill="#3c4958"/></g><g><path d="m487.933 442.333h-182.233v-295.387c0-4.003 2.863-7.434 6.802-8.15l165.667-30.121c5.085-.924 9.765 2.982 9.765 8.15v325.508z" fill="#4c5e71"/><path d="m478.168 108.675-19.626 3.568c.87 1.305 1.391 2.871 1.391 4.581v325.508h28v-325.507c0-5.168-4.68-9.074-9.765-8.15z" fill="#3c4958"/><path d="m305.7 438.233h52.633v38.133h-52.633z" fill="#a6ccfb"/><path d="m436.333 438.233h51.6v38.133h-51.6z" fill="#a6ccfb"/><path d="m459.933 438.233h28v38.133h-28z" fill="#8cbdf9"/><path d="m438.233 476.367h-82.833v-96.4c0-4.418 3.582-8 8-8h66.833c4.418 0 8 3.582 8 8z" fill="#eaa96a"/><path d="m430.233 371.967h-28c4.418 0 8 3.582 8 8v96.4h28v-96.4c0-4.419-3.581-8-8-8z" fill="#e5935d"/></g><g><path d="m355.4 203h82.833v72.436h-82.833z" fill="#a6ccfb"/><path d="m415.233 203h23v72.436h-23z" fill="#8cbdf9"/><path d="m446.8 305.7h-99.967c-4.418 0-8-3.582-8-8v-17.133c0-4.418 3.582-8 8-8h99.967c4.418 0 8 3.582 8 8v17.133c0 4.418-3.582 8-8 8z" fill="#eaa96a"/><path d="m438.233 206.299h-82.833v-25.133c0-4.418 3.582-8 8-8h66.833c4.418 0 8 3.582 8 8z" fill="#eaa96a"/><g fill="#e5935d"><path d="m430.233 173.167h-23c4.418 0 8 3.582 8 8v25.133h23v-25.133c0-4.419-3.581-8-8-8z"/><path d="m446.8 272.567h-23c4.418 0 8 3.582 8 8v17.133c0 4.418-3.582 8-8 8h23c4.418 0 8-3.582 8-8v-17.133c0-4.419-3.582-8-8-8z"/></g></g><path d="m496.5 504.5h-481c-4.418 0-8-3.582-8-8v-17.133c0-4.418 3.582-8 8-8h481c4.418 0 8 3.582 8 8v17.133c0 4.418-3.582 8-8 8z" fill="#e2dfe2"/><path d="m496.5 471.367h-23c4.418 0 8 3.582 8 8v17.133c0 4.418-3.582 8-8 8h23c4.418 0 8-3.582 8-8v-17.133c0-4.419-3.582-8-8-8z" fill="#d3ced5"/></g><g><path d="m496.5 463.867h-1.066v-347.042c0-4.693-2.066-9.11-5.671-12.118-3.603-3.006-8.319-4.249-12.936-3.41l-39.343 7.153c5.051-4.415 8.25-10.898 8.25-18.117 0-13.271-10.796-24.066-24.066-24.066h-66.268c-5 0-9.067-4.067-9.067-9.066 0-5 4.067-9.067 9.067-9.067h16.566c13.271 0 24.066-10.796 24.066-24.066s-10.795-24.068-24.065-24.068h-149.1c-13.27 0-24.067 10.796-24.067 24.066s10.797 24.066 24.067 24.066h33.133c4.999 0 9.066 4.067 9.066 9.067 0 4.999-4.067 9.066-9.066 9.066h-57.05c-4.143 0-7.5 3.357-7.5 7.5s3.357 7.5 7.5 7.5h57.05c13.271 0 24.066-10.796 24.066-24.066s-10.795-24.066-24.066-24.066h-33.133c-5 0-9.067-4.067-9.067-9.066s4.067-9.067 9.067-9.067h149.1c4.999 0 9.066 4.067 9.066 9.066s-4.067 9.066-9.066 9.066h-16.567c-13.27 0-24.067 10.797-24.067 24.067s10.797 24.068 24.067 24.068h66.267c4.999 0 9.066 4.067 9.066 9.066 0 5-4.067 9.067-9.066 9.067h-132.534c-13.271 0-24.066 10.796-24.066 24.066s10.796 24.066 24.066 24.066h9.067v18.134h-191.3c-5 0-9.067-4.067-9.067-9.067 0-4.999 4.067-9.066 9.067-9.066h99.4c13.27 0 24.067-10.796 24.067-24.066s-10.797-24.067-24.067-24.067h-49.7c-4.999 0-9.066-4.067-9.066-9.067 0-4.999 4.067-9.066 9.066-9.066h12.351c4.143 0 7.5-3.357 7.5-7.5s-3.357-7.5-7.5-7.5h-12.351c-13.27 0-24.066 10.796-24.066 24.066s10.795 24.067 24.066 24.067h49.7c5 0 9.067 4.067 9.067 9.066s-4.067 9.066-9.067 9.066h-99.4c-13.271 0-24.067 10.796-24.067 24.066 0 3.207.636 6.267 1.779 9.067h-52.546c-8.547 0-15.5 6.953-15.5 15.5v116.535c0 8.547 6.953 15.5 15.5 15.5h17.634v150.667h-34.2c-8.547 0-15.5 6.953-15.5 15.5v17.133c0 8.547 6.953 15.5 15.5 15.5h25.134c4.143 0 7.5-3.357 7.5-7.5s-3.357-7.5-7.5-7.5h-25.134c-.275 0-.5-.225-.5-.5v-17.133c0-.275.225-.5.5-.5h481c.275 0 .5.225.5.5v17.133c0 .275-.225.5-.5.5h-425.867c-4.143 0-7.5 3.357-7.5 7.5s3.357 7.5 7.5 7.5h425.867c8.547 0 15.5-6.953 15.5-15.5v-17.133c0-8.547-6.953-15.5-15.5-15.5zm-16.99-347.812c.091-.018.361-.065.643.169.281.235.281.511.281.602v313.908h-34.7v-50.767c0-8.547-6.953-15.5-15.5-15.5h-66.834c-8.547 0-15.5 6.953-15.5 15.5v50.767h-34.7v-257.567-26.221c0-.28.149-.528.376-.667.006-.004.012-.007.019-.011.076-.043.159-.076.249-.092zm-381.677 263.412h167.233v18.133h-167.233zm167.233-15h-167.233v-17.634c0-.275.225-.5.5-.5h166.233c.275 0 .5.225.5.5zm-167.233 48.133h167.233v18.134h-167.233zm182.233 33.133h18.134v18.134h-18.134zm0-322.266c0-4.999 4.067-9.066 9.066-9.066h115.624l-93.596 17.018c-1.26.229-2.455.615-3.583 1.115h-18.445c-4.998-.001-9.066-4.068-9.066-9.067zm-248.5 174.233v-116.533c0-.275.225-.5.5-.5h266.134v117.533h-266.134c-.275 0-.5-.224-.5-.5zm266.634 15.5v117.533h-18.134v-83.9c0-8.547-6.953-15.5-15.5-15.5h-166.233c-8.547 0-15.5 6.953-15.5 15.5v83.9h-18.133v-117.533zm-233.5 132.533h18.133v18.134h-18.133zm33.133 18.134v-18.134h167.233v18.134zm215.367-18.134h34.7v18.134h-34.7zm49.7 18.134v-83.9c0-.275.225-.5.5-.5h66.833c.275 0 .5.225.5.5v83.9zm82.833 0v-18.134h34.7v18.134z"/><path d="m57.2 114.4h33.133c13.271 0 24.067-10.797 24.067-24.067s-10.797-24.066-24.067-24.066h-33.133c-13.271 0-24.067 10.796-24.067 24.066s10.797 24.067 24.067 24.067zm0-33.133h33.133c5 0 9.067 4.067 9.067 9.066 0 5-4.067 9.067-9.067 9.067h-33.133c-5 0-9.067-4.067-9.067-9.067 0-4.999 4.067-9.066 9.067-9.066z"/><path d="m264.566 280.066c8.547 0 15.5-6.953 15.5-15.5v-50.266c0-8.547-6.953-15.5-15.5-15.5h-199.366c-8.547 0-15.5 6.953-15.5 15.5v50.267c0 8.547 6.953 15.5 15.5 15.5h199.366zm-117.033-15v-51.266h34.7v51.267h-34.7zm117.533-50.766v50.267c0 .275-.225.5-.5.5h-34.199v-51.267h34.199c.276 0 .5.224.5.5zm-49.699-.5v51.267h-18.134v-51.267zm-82.834 0v51.267h-18.133v-51.267zm-67.833 50.766v-50.266c0-.275.225-.5.5-.5h34.2v51.267h-34.2c-.275-.001-.5-.225-.5-.501z"/><path d="m346.833 313.2h99.967c8.547 0 15.5-6.953 15.5-15.5v-17.134c0-8.547-6.953-15.5-15.5-15.5h-1.066v-83.899c0-8.547-6.953-15.5-15.5-15.5h-66.834c-8.547 0-15.5 6.953-15.5 15.5v83.899h-1.067c-8.547 0-15.5 6.953-15.5 15.5v17.134c0 8.547 6.953 15.5 15.5 15.5zm83.9-99.4v51.267h-26.417v-51.267zm-67.333-33.133h66.833c.275 0 .5.225.5.5v17.633h-67.833v-17.633c0-.275.225-.5.5-.5zm-.5 33.133h26.416v51.267h-26.416zm-16.567 66.766c0-.275.225-.5.5-.5h8.567 82.833 8.566c.275 0 .5.225.5.5v17.134c0 .275-.225.5-.5.5h-99.967c-.275 0-.5-.225-.5-.5v-17.134z"/></g></g></svg>